<svg width="22" height="22" viewBox="0 0 22 22" fill="none" xmlns="http://www.w3.org/2000/svg">
<path d="M14.6667 20.1667H3.66668C2.65415 20.1667 1.83334 19.3459 1.83334 18.3333V7.33334H3.66668V18.3333H14.6667V20.1667ZM18.3333 16.5H7.33334C6.32082 16.5 5.50001 15.6792 5.50001 14.6667V3.66668C5.50001 2.65415 6.32082 1.83334 7.33334 1.83334H18.3333C19.3459 1.83334 20.1667 2.65415 20.1667 3.66668V14.6667C20.1667 15.6792 19.3459 16.5 18.3333 16.5ZM7.33334 3.66668V14.6667H18.3333V3.66668H7.33334ZM11.9167 12.4309L8.51859 9.03193L9.81476 7.73576L11.9167 9.83859L15.8519 5.90334L17.1481 7.19951L11.9167 12.43V12.4309Z" fill="#697B86"/>
</svg>
