<svg width="22" height="22" viewBox="0 0 22 22" fill="none" xmlns="http://www.w3.org/2000/svg">
<g clip-path="url(#clip0_1048_2104)">
<path d="M2.54425 9.25293L1.38367 10.417H2.54425V9.25293Z" fill="#088FAF"/>
<path d="M19.4532 9.25293L20.6143 10.417H19.4532V9.25293Z" fill="#088FAF"/>
<path d="M19.4674 4.69603C19.4673 4.58207 19.4221 4.4728 19.3415 4.39224L15.0695 0.120283C14.989 0.0396956 14.8797 -0.0055909 14.7657 -0.00561523H2.97424C2.86028 -0.00561523 2.75099 0.0396553 2.67041 0.120237C2.58983 0.200819 2.54456 0.310112 2.54456 0.424072V21.5647C2.54456 21.6787 2.58983 21.788 2.67041 21.8685C2.75099 21.9491 2.86028 21.9944 2.97424 21.9944H19.0377C19.1516 21.9944 19.2609 21.9491 19.3415 21.8685C19.4221 21.788 19.4674 21.6787 19.4674 21.5647V4.69603Z" fill="#F1F1F1"/>
<path d="M19.4531 4.58903C19.4343 4.51453 19.3957 4.44652 19.3414 4.39224L15.0694 0.120283C14.9888 0.0396956 14.8796 -0.0055909 14.7656 -0.00561523V4.07298C14.7656 4.20973 14.8199 4.34088 14.9166 4.43758C15.0133 4.53428 15.1445 4.5886 15.2813 4.5886L19.4531 4.58903Z" fill="#CCCCCC"/>
<path d="M19.4533 4.58911H15.2819C15.1451 4.58911 15.014 4.53479 14.9173 4.43809C14.8206 4.34139 14.7662 4.21024 14.7662 4.07349V4.50962C14.7662 4.7945 14.9433 5.15415 15.2982 5.15415H19.4662V4.6961C19.4689 4.65994 19.4645 4.62359 19.4533 4.58911V4.58911Z" fill="#E8E8E8"/>
<path d="M20.2859 17.7104H1.71399C1.60003 17.7104 1.49074 17.6651 1.41015 17.5845C1.32957 17.504 1.2843 17.3947 1.2843 17.2807V10.6919C1.2843 10.5779 1.32957 10.4686 1.41015 10.3881C1.49074 10.3075 1.60003 10.2622 1.71399 10.2622H20.2859C20.3999 10.2622 20.5092 10.3075 20.5898 10.3881C20.6704 10.4686 20.7156 10.5779 20.7156 10.6919V17.2803C20.7157 17.3367 20.7046 17.3927 20.683 17.4448C20.6615 17.497 20.6298 17.5444 20.5899 17.5844C20.55 17.6243 20.5026 17.656 20.4505 17.6776C20.3983 17.6993 20.3424 17.7104 20.2859 17.7104V17.7104Z" fill="#29ABE1"/>
<path d="M2.54419 17.7104H19.4674V18.2678H2.54419V17.7104Z" fill="#E0E0E0"/>
<path d="M5.13388 15.6514C5.10066 15.615 5.07515 15.5723 5.05891 15.5258C5.04266 15.4792 5.03601 15.4299 5.03935 15.3807V13.0806C5.03373 13.0313 5.03931 12.9813 5.05568 12.9345C5.07205 12.8876 5.09878 12.845 5.13389 12.8099C5.16899 12.7748 5.21156 12.7481 5.25843 12.7317C5.3053 12.7153 5.35526 12.7098 5.40459 12.7154H6.27342C6.60914 12.7154 6.89789 12.7763 7.13967 12.898C7.3743 13.0118 7.56902 13.194 7.69826 13.4205C7.82717 13.6471 7.89162 13.9165 7.89162 14.2287C7.89162 14.541 7.82788 14.8131 7.70041 15.0452C7.57367 15.2721 7.37994 15.4545 7.14568 15.5672C6.90391 15.6875 6.61373 15.7477 6.27513 15.7477H5.40459C5.35531 15.7507 5.30592 15.7438 5.2594 15.7272C5.21288 15.7107 5.17018 15.6849 5.13388 15.6514V15.6514ZM6.21713 15.11C6.51246 15.11 6.7339 15.0376 6.88142 14.8926C7.02895 14.7477 7.10271 14.5264 7.10271 14.2287C7.10271 13.9305 7.02895 13.7098 6.88142 13.5666C6.7339 13.4234 6.51246 13.3517 6.21713 13.3517H5.83041V15.11H6.21713Z" fill="white"/>
<path d="M8.99695 15.5934C8.77175 15.4689 8.58845 15.2805 8.47015 15.052C8.3485 14.7946 8.2854 14.5134 8.2854 14.2287C8.2854 13.944 8.3485 13.6628 8.47015 13.4054C8.58815 13.1771 8.77157 12.9892 8.99695 12.8657C9.24747 12.7414 9.52336 12.6766 9.80304 12.6766C10.0827 12.6766 10.3586 12.7414 10.6091 12.8657C10.8342 12.9892 11.0169 13.1775 11.1334 13.4063C11.254 13.664 11.3164 13.9452 11.316 14.2298C11.3156 14.5144 11.2525 14.7954 11.1312 15.0528C11.0129 15.2813 10.8296 15.4697 10.6044 15.5942C10.3552 15.7202 10.0799 15.7859 9.80068 15.7859C9.52145 15.7859 9.24613 15.7202 8.99695 15.5942V15.5934ZM10.3402 14.9359C10.4691 14.7738 10.5335 14.5381 10.5335 14.2287C10.5335 13.9193 10.4683 13.6843 10.338 13.5236C10.208 13.3629 10.0296 13.2827 9.80304 13.2829C9.57646 13.2832 9.39728 13.3627 9.2655 13.5214C9.1366 13.6804 9.07215 13.9162 9.07215 14.2287C9.07215 14.5412 9.1366 14.7777 9.2655 14.9381C9.39441 15.0985 9.57359 15.1787 9.80304 15.1787C10.0325 15.1787 10.2115 15.0978 10.3402 14.9359Z" fill="white"/>
<path d="M12.4231 15.5977C12.197 15.4738 12.0128 15.2853 11.8942 15.0563C11.7711 14.7993 11.7073 14.518 11.7073 14.233C11.7073 13.9481 11.7711 13.6667 11.8942 13.4097C12.0129 13.1807 12.197 12.9921 12.4231 12.8679C12.6987 12.7285 13.0062 12.6643 13.3145 12.6816C13.6228 12.699 13.9211 12.7973 14.1793 12.9667C14.2225 12.9954 14.2585 13.0336 14.2846 13.0784C14.3077 13.1266 14.3188 13.1797 14.3168 13.2331C14.3191 13.315 14.2925 13.395 14.2416 13.4591C14.2203 13.4877 14.1927 13.5109 14.161 13.527C14.1292 13.543 14.0941 13.5514 14.0585 13.5515C14.019 13.5521 13.9797 13.5456 13.9425 13.5322C13.9005 13.5154 13.8602 13.4945 13.8222 13.4699C13.7336 13.4149 13.6383 13.3716 13.5386 13.341C13.4492 13.3151 13.3566 13.3021 13.2636 13.3023C13.0084 13.3023 12.8185 13.3789 12.6938 13.5322C12.5692 13.6854 12.5069 13.9183 12.5069 14.2309C12.5069 14.546 12.5692 14.7803 12.6938 14.9338C12.8185 15.0874 13.0084 15.164 13.2636 15.1637C13.3485 15.1632 13.4327 15.1486 13.5128 15.1207C13.5932 15.0937 13.6963 15.0511 13.8222 14.994C13.8824 14.9622 13.9271 14.9407 13.9554 14.9291C13.9885 14.9172 14.0234 14.9115 14.0585 14.9123C14.0941 14.9124 14.1293 14.9207 14.161 14.9368C14.1928 14.9528 14.2204 14.9761 14.2416 15.0047C14.2925 15.0687 14.3191 15.1486 14.3168 15.2303C14.3184 15.283 14.3073 15.3353 14.2846 15.3828C14.2591 15.4287 14.223 15.4678 14.1793 15.4967C13.8977 15.6909 13.5622 15.7918 13.2202 15.785C12.9428 15.792 12.6684 15.7275 12.4231 15.5977V15.5977Z" fill="white"/>
<path d="M17.2141 15.4107C17.2144 15.4593 17.2044 15.5074 17.1848 15.5518C17.1651 15.5963 17.1363 15.6361 17.1002 15.6685C17.0668 15.7032 17.0268 15.7309 16.9825 15.7498C16.9382 15.7687 16.8905 15.7784 16.8424 15.7785C16.7918 15.7782 16.742 15.7664 16.6966 15.7441C16.6512 15.7217 16.6114 15.6895 16.5803 15.6496L15.8408 14.764L15.0905 15.6471C15.06 15.6865 15.0209 15.7185 14.9763 15.7408C14.9317 15.7631 14.8826 15.7751 14.8327 15.776C14.7844 15.7757 14.7366 15.7657 14.6923 15.7464C14.648 15.7271 14.608 15.699 14.5749 15.6638C14.5391 15.6311 14.5105 15.5912 14.4909 15.5469C14.4713 15.5025 14.4611 15.4545 14.4611 15.406C14.4621 15.3203 14.4942 15.2379 14.5513 15.174L15.3767 14.2196L14.5728 13.2868C14.5141 13.2233 14.4806 13.1407 14.4782 13.0543C14.4782 13.0061 14.4884 12.9584 14.508 12.9144C14.5276 12.8703 14.5563 12.8309 14.5921 12.7987C14.6261 12.764 14.6666 12.7365 14.7113 12.7177C14.756 12.6989 14.804 12.6892 14.8525 12.6891C14.903 12.6896 14.9528 12.7015 14.9982 12.7238C15.0436 12.7461 15.0833 12.7783 15.1146 12.818L15.8412 13.6774L16.5635 12.818C16.5926 12.778 16.6307 12.7455 16.6748 12.7231C16.7189 12.7007 16.7676 12.689 16.817 12.6891C16.8655 12.6892 16.9134 12.6989 16.958 12.7177C17.0027 12.7365 17.0431 12.7641 17.077 12.7987C17.1128 12.8309 17.1415 12.8703 17.1611 12.9144C17.1807 12.9584 17.1909 13.0061 17.1909 13.0543C17.1899 13.1402 17.1578 13.2228 17.1006 13.2868L16.2967 14.2196L17.1178 15.174C17.1786 15.2379 17.213 15.3225 17.2141 15.4107V15.4107Z" fill="white"/>
</g>
<defs>
<clipPath id="clip0_1048_2104">
<rect width="22" height="22" fill="white"/>
</clipPath>
</defs>
</svg>
