<svg width="22" height="22" viewBox="0 0 22 22" fill="none" xmlns="http://www.w3.org/2000/svg">
<g clip-path="url(#clip0_1048_2117)">
<path d="M19.4674 4.69603C19.4673 4.58207 19.4221 4.4728 19.3415 4.39224L15.0695 0.120283C14.989 0.0396956 14.8797 -0.0055909 14.7657 -0.00561523H2.97424C2.86028 -0.00561523 2.75099 0.0396553 2.67041 0.120237C2.58983 0.200819 2.54456 0.310112 2.54456 0.424072V21.5647C2.54456 21.6787 2.58983 21.788 2.67041 21.8685C2.75099 21.9491 2.86028 21.9944 2.97424 21.9944H19.0377C19.1516 21.9944 19.2609 21.9491 19.3415 21.8685C19.4221 21.788 19.4674 21.6787 19.4674 21.5647V4.69603Z" fill="#F1F1F1"/>
<path d="M19.4532 4.58903C19.4345 4.51453 19.3958 4.44652 19.3415 4.39224L15.0695 0.120283C14.989 0.0396956 14.8797 -0.0055909 14.7657 -0.00561523V4.07298C14.7657 4.20973 14.8201 4.34088 14.9168 4.43758C15.0135 4.53428 15.1446 4.5886 15.2814 4.5886L19.4532 4.58903Z" fill="#CCCCCC"/>
<path d="M19.4533 4.58911H15.2819C15.1451 4.58911 15.014 4.53479 14.9173 4.43809C14.8206 4.34139 14.7662 4.21024 14.7662 4.07349V4.50962C14.7662 4.7945 14.9433 5.15415 15.2982 5.15415H19.4662V4.6961C19.4689 4.65994 19.4645 4.62359 19.4533 4.58911V4.58911Z" fill="#E8E8E8"/>
<path d="M2.54425 9.25293L1.38367 10.417H2.54425V9.25293Z" fill="#DD9536"/>
<path d="M19.4532 9.25293L20.6143 10.417H19.4532V9.25293Z" fill="#DD9536"/>
<path d="M20.2861 17.7104H1.71411C1.60015 17.7104 1.49086 17.6651 1.41028 17.5845C1.32969 17.504 1.28442 17.3947 1.28442 17.2807V10.6919C1.28442 10.5779 1.32969 10.4686 1.41028 10.3881C1.49086 10.3075 1.60015 10.2622 1.71411 10.2622H20.2861C20.4 10.2622 20.5093 10.3075 20.5899 10.3881C20.6705 10.4686 20.7158 10.5779 20.7158 10.6919V17.2803C20.7158 17.3367 20.7047 17.3927 20.6832 17.4449C20.6616 17.497 20.63 17.5445 20.5901 17.5844C20.5501 17.6243 20.5028 17.656 20.4506 17.6777C20.3984 17.6993 20.3425 17.7104 20.2861 17.7104V17.7104Z" fill="#FAAF3A"/>
<path d="M7.04895 15.4537C7.04572 15.4135 7.05052 15.373 7.06306 15.3346C7.07559 15.2963 7.09563 15.2608 7.122 15.2303C7.17098 15.1817 7.24833 15.1542 7.35446 15.1486L7.50055 15.14C7.53743 15.1408 7.57404 15.1335 7.60781 15.1187C7.64159 15.1038 7.6717 15.0818 7.69606 15.0541C7.74335 14.9918 7.76696 14.9147 7.76266 14.8367V13.0805C7.7603 13.0287 7.76862 12.977 7.7871 12.9286C7.80558 12.8802 7.83383 12.8361 7.87008 12.7991C7.90939 12.7629 7.95552 12.735 8.00577 12.7169C8.05602 12.6988 8.10937 12.691 8.1627 12.6938C8.21492 12.6916 8.26705 12.6998 8.31609 12.7179C8.36513 12.736 8.41011 12.7635 8.44844 12.7991C8.48532 12.8358 8.51412 12.8797 8.53299 12.9282C8.55186 12.9767 8.56038 13.0286 8.55801 13.0805V14.8242C8.55801 15.1107 8.48282 15.3335 8.33243 15.4928C8.18203 15.6521 7.95774 15.7417 7.65954 15.7618L7.52204 15.7704C7.20665 15.7856 7.04895 15.68 7.04895 15.4537V15.4537Z" fill="white"/>
<path d="M9.21371 15.6663C9.17816 15.6285 9.1506 15.5839 9.13266 15.5352C9.11472 15.4865 9.10677 15.4346 9.1093 15.3828V13.0805C9.10368 13.0312 9.10926 12.9812 9.12563 12.9343C9.142 12.8875 9.16873 12.8449 9.20383 12.8098C9.23894 12.7747 9.28151 12.748 9.32838 12.7316C9.37525 12.7152 9.42521 12.7096 9.47453 12.7153H10.575C10.9107 12.7153 11.1715 12.8005 11.3574 12.9709C11.5433 13.1414 11.6366 13.3785 11.6371 13.6825C11.6371 13.9833 11.5432 14.2197 11.3553 14.3919C11.1674 14.5641 10.9072 14.65 10.575 14.6497H9.90035V15.3802C9.903 15.4326 9.89483 15.4851 9.87635 15.5342C9.85787 15.5834 9.82948 15.6282 9.79293 15.6659C9.7537 15.7022 9.70759 15.7303 9.65733 15.7484C9.60707 15.7666 9.55368 15.7745 9.50031 15.7716C9.4479 15.7744 9.39546 15.7666 9.34618 15.7485C9.29691 15.7304 9.25184 15.7024 9.21371 15.6663V15.6663ZM10.4667 14.0567C10.6132 14.0567 10.7211 14.0262 10.7915 13.9661C10.862 13.9059 10.8968 13.8131 10.8968 13.6868C10.8968 13.4376 10.7536 13.313 10.4671 13.313H9.89992V14.0567H10.4667Z" fill="white"/>
<path d="M14.6261 14.1148C14.6543 14.1423 14.6763 14.1755 14.6908 14.2121C14.7052 14.2488 14.7117 14.2881 14.7099 14.3275V15.0756C14.7134 15.1861 14.7025 15.2966 14.6776 15.4043C14.6597 15.4749 14.6189 15.5376 14.5616 15.5826C14.4854 15.635 14.4002 15.6728 14.3103 15.6943C14.1879 15.725 14.0636 15.7474 13.9382 15.7613C13.8119 15.7763 13.685 15.7842 13.5579 15.785C13.2284 15.785 12.942 15.7225 12.6985 15.5976C12.462 15.4795 12.2672 15.2922 12.1399 15.0605C12.011 14.8268 11.9465 14.5495 11.9465 14.2286C11.9396 13.9422 12.0061 13.6587 12.1399 13.4054C12.2657 13.1748 12.4573 12.9869 12.6903 12.8657C12.9485 12.7349 13.235 12.67 13.5244 12.6766C13.7067 12.6742 13.8885 12.698 14.0641 12.7475C14.2232 12.795 14.3734 12.8683 14.5088 12.9645C14.552 12.9931 14.588 13.0314 14.6141 13.0762C14.6373 13.1245 14.6484 13.1778 14.6463 13.2313C14.6488 13.3127 14.6229 13.3924 14.5732 13.4569C14.5533 13.4852 14.5269 13.5083 14.4963 13.5244C14.4657 13.5404 14.4316 13.549 14.3971 13.5493C14.3568 13.5503 14.3167 13.5437 14.2789 13.53C14.2349 13.5113 14.1925 13.489 14.1521 13.4634C14.0569 13.4106 13.956 13.3687 13.8514 13.3388C13.7526 13.3123 13.6507 13.2993 13.5484 13.3001C13.276 13.3001 13.0732 13.376 12.94 13.5278C12.8068 13.6796 12.7402 13.9133 12.7402 14.2286C12.7402 14.5526 12.8096 14.7927 12.9486 14.9488C13.0875 15.1049 13.3004 15.183 13.5871 15.183C13.7243 15.1831 13.8611 15.1687 13.9953 15.14V14.5767H13.6859C13.6065 14.5818 13.5282 14.5564 13.4668 14.5058C13.4171 14.4511 13.3895 14.3799 13.3895 14.306C13.3895 14.2321 13.4171 14.1608 13.4668 14.1062C13.5281 14.0554 13.6065 14.0299 13.6859 14.0349H14.3953C14.4372 14.0321 14.4792 14.0377 14.5188 14.0514C14.5585 14.0651 14.5949 14.0867 14.6261 14.1148V14.1148Z" fill="white"/>
<path d="M2.54419 17.7104H19.4674V18.2678H2.54419V17.7104Z" fill="#E0E0E0"/>
</g>
<defs>
<clipPath id="clip0_1048_2117">
<rect width="22" height="22" fill="white"/>
</clipPath>
</defs>
</svg>
