<svg width="22" height="22" viewBox="0 0 22 22" fill="none" xmlns="http://www.w3.org/2000/svg">
<path d="M18.3335 18.3334H3.66683C2.65431 18.3334 1.8335 17.5126 1.8335 16.5001V5.50008C1.8335 4.48756 2.65431 3.66675 3.66683 3.66675H18.3335C19.346 3.66675 20.1668 4.48756 20.1668 5.50008V16.5001C20.1668 17.5126 19.346 18.3334 18.3335 18.3334ZM3.66683 5.50008V16.5001H18.3335V5.50008H3.66683ZM14.2085 14.6667C12.9428 14.6667 11.9168 13.6407 11.9168 12.3751C11.9168 11.1094 12.9428 10.0834 14.2085 10.0834C15.4741 10.0834 16.5002 11.1094 16.5002 12.3751C16.5002 12.9829 16.2587 13.5658 15.8289 13.9955C15.3992 14.4253 14.8163 14.6667 14.2085 14.6667ZM10.5418 14.6667C9.27618 14.6667 8.25016 13.6407 8.25016 12.3751C8.25016 11.1094 9.27618 10.0834 10.5418 10.0834C11.0394 10.0838 11.5229 10.2488 11.9168 10.5527C11.3405 10.9809 11.0007 11.6566 11.0007 12.3746C11.0007 13.0926 11.3405 13.7683 11.9168 14.1965C11.523 14.5007 11.0395 14.6661 10.5418 14.6667Z" fill="#96A3AB"/>
</svg>
