<svg width="22" height="22" viewBox="0 0 22 22" fill="none" xmlns="http://www.w3.org/2000/svg">
<path d="M5.50033 14.6667C4.4878 14.6667 3.66699 13.8459 3.66699 12.8334C3.66699 11.8209 4.4878 11 5.50033 11C6.51285 11 7.33366 11.8209 7.33366 12.8334C7.33366 13.3196 7.1405 13.7859 6.79669 14.1297C6.45287 14.4736 5.98656 14.6667 5.50033 14.6667ZM11.0003 12.8334C9.9878 12.8334 9.16699 12.0126 9.16699 11C9.16699 9.98752 9.9878 9.16671 11.0003 9.16671C12.0128 9.16671 12.8337 9.98752 12.8337 11C12.8337 11.4863 12.6405 11.9526 12.2967 12.2964C11.9529 12.6402 11.4866 12.8334 11.0003 12.8334ZM16.5003 11C15.4878 11 14.667 10.1792 14.667 9.16671C14.667 8.15419 15.4878 7.33337 16.5003 7.33337C17.5128 7.33337 18.3337 8.15419 18.3337 9.16671C18.3337 9.65294 18.1405 10.1193 17.7967 10.4631C17.4529 10.8069 16.9866 11 16.5003 11Z" fill="#96A3AB"/>
</svg>
