<svg width="22" height="22" viewBox="0 0 22 22" fill="none" xmlns="http://www.w3.org/2000/svg">
<mask id="mask0_872_1645" style="mask-type:alpha" maskUnits="userSpaceOnUse" x="1" y="1" width="20" height="20">
<path fill-rule="evenodd" clip-rule="evenodd" d="M1.83334 1.83334H20.1666V20.1667H1.83334V1.83334Z" fill="white"/>
</mask>
<g mask="url(#mask0_872_1645)">
<path fill-rule="evenodd" clip-rule="evenodd" d="M7.02534 3.20834C4.70709 3.20834 3.20834 4.79693 3.20834 7.25634V14.7437C3.20834 17.2031 4.70709 18.7917 7.02534 18.7917H14.971C17.292 18.7917 18.7917 17.2031 18.7917 14.7437V7.25634C18.7917 4.79693 17.292 3.20834 14.9728 3.20834H7.02534ZM14.971 20.1667H7.02534C3.91968 20.1667 1.83334 17.9868 1.83334 14.7437V7.25634C1.83334 4.01318 3.91968 1.83334 7.02534 1.83334H14.9728C18.0794 1.83334 20.1667 4.01318 20.1667 7.25634V14.7437C20.1667 17.9868 18.0794 20.1667 14.971 20.1667Z" fill="#697B86"/>
</g>
<path fill-rule="evenodd" clip-rule="evenodd" d="M8.10224 9.9902C7.54307 9.9902 7.09024 10.443 7.09024 11.0004C7.09024 11.5577 7.54307 12.0105 8.10041 12.0105C8.65682 12.0105 9.11057 11.5577 9.11057 11.0004C9.11057 10.444 8.65774 9.99112 8.10224 9.9902ZM8.10041 13.3855C6.78499 13.3855 5.71524 12.3149 5.71524 11.0004C5.71524 9.68495 6.78499 8.6152 8.10041 8.6152C9.41766 8.61612 10.4856 9.68587 10.4856 11.0004C10.4856 12.3149 9.41582 13.3855 8.10041 13.3855Z" fill="#697B86"/>
<path fill-rule="evenodd" clip-rule="evenodd" d="M15.5922 13.3856C15.2127 13.3856 14.9047 13.0776 14.9047 12.6981V11.687H9.80072C9.42122 11.687 9.11322 11.38 9.11322 10.9995C9.11322 10.62 9.42122 10.312 9.80072 10.312H15.5922C15.9717 10.312 16.2797 10.62 16.2797 10.9995V12.6981C16.2797 13.0776 15.9717 13.3856 15.5922 13.3856Z" fill="#697B86"/>
<path fill-rule="evenodd" clip-rule="evenodd" d="M12.9997 13.3856C12.6202 13.3856 12.3122 13.0776 12.3122 12.6981V10.9995C12.3122 10.62 12.6202 10.312 12.9997 10.312C13.3792 10.312 13.6872 10.62 13.6872 10.9995V12.6981C13.6872 13.0776 13.3792 13.3856 12.9997 13.3856Z" fill="#697B86"/>
</svg>
