<svg width="22" height="22" viewBox="0 0 22 22" fill="none" xmlns="http://www.w3.org/2000/svg">
<path d="M6.41666 7.33333C6.41666 4.80203 8.46868 2.75 11 2.75C13.5313 2.75 15.5833 4.80203 15.5833 7.33333C15.5833 9.86464 13.5313 11.9167 11 11.9167C8.46868 11.9167 6.41666 9.86464 6.41666 7.33333ZM11 10.0833C12.5188 10.0833 13.75 8.85212 13.75 7.33333C13.75 5.81455 12.5188 4.58333 11 4.58333C9.48121 4.58333 8.24999 5.81455 8.24999 7.33333C8.24999 8.85212 9.48121 10.0833 11 10.0833Z" fill="#697B86"/>
<path d="M5.81454 14.9812C4.43927 16.3565 3.66666 18.2217 3.66666 20.1667H5.49999C5.49999 18.708 6.07945 17.309 7.1109 16.2776C8.14235 15.2461 9.5413 14.6667 11 14.6667C12.4587 14.6667 13.8576 15.2461 14.8891 16.2776C15.9205 17.309 16.5 18.708 16.5 20.1667H18.3333C18.3333 18.2217 17.5607 16.3565 16.1854 14.9812C14.8102 13.606 12.9449 12.8333 11 12.8333C9.05507 12.8333 7.18981 13.606 5.81454 14.9812Z" fill="#697B86"/>
</svg>
