<svg width="22" height="22" viewBox="0 0 22 22" fill="none" xmlns="http://www.w3.org/2000/svg">
<path d="M18.3333 18.3333H3.66668C2.65415 18.3333 1.83334 17.5125 1.83334 16.5V5.49999C1.83334 4.48747 2.65415 3.66666 3.66668 3.66666H18.3333C19.3459 3.66666 20.1667 4.48747 20.1667 5.49999V16.5C20.1667 17.5125 19.3459 18.3333 18.3333 18.3333ZM3.66668 5.49999V16.5H18.3333V5.49999H3.66668ZM14.2083 14.6667C12.9427 14.6667 11.9167 13.6406 11.9167 12.375C11.9167 11.1093 12.9427 10.0833 14.2083 10.0833C15.474 10.0833 16.5 11.1093 16.5 12.375C16.5 12.9828 16.2586 13.5657 15.8288 13.9954C15.399 14.4252 14.8161 14.6667 14.2083 14.6667ZM10.5417 14.6667C9.27602 14.6667 8.25001 13.6406 8.25001 12.375C8.25001 11.1093 9.27602 10.0833 10.5417 10.0833C11.0392 10.0837 11.5227 10.2487 11.9167 10.5527C11.3403 10.9809 11.0006 11.6565 11.0006 12.3745C11.0006 13.0925 11.3403 13.7682 11.9167 14.1964C11.5228 14.5007 11.0394 14.666 10.5417 14.6667Z" fill="#697B86"/>
</svg>
