<svg width="145" height="48" viewBox="0 0 145 48" fill="none" xmlns="http://www.w3.org/2000/svg">
<path d="M25.0496 11.4928L25.0479 11.472L2.94673 11.4704L29.1933 7.6272L4.35 7.656L32.8827 3.76001L32.8699 3.74561L5.70173 3.84L37.2296 0.0095993L37.2182 0L7.17267 0.0127991L5.29411 3.84L5.28123 3.8384L3.45906 7.7744H3.47517L1.68844 11.6528L1.71744 11.6512L0 15.4399L25.0496 11.4928Z" fill="#C22649"/>
<path d="M44.1147 9.76658C37.253 16.5682 27.6878 27.9666 19.5839 44.8018C28.221 25.6226 37.3158 12.7858 42.5664 6.35059L42.5374 6.32978C35.658 12.7266 24.335 25.2338 14.9922 44.8546C25.263 21.8898 36.4152 7.90898 40.9795 2.84498H40.9392C34.7236 8.05778 20.6375 21.6274 9.62725 45.141C23.2009 14.4754 38.3517 0.628987 38.8286 0.292987L38.848 0.238586L38.3372 0.588985C33.4845 4.36178 16.5969 18.8818 4.18652 46.709L8.88775 46.749L8.91675 46.7506L14.0835 46.7986H14.1432L18.6172 46.8386H18.68L24.9956 46.8978C30.09 28.6562 38.8625 17.0418 44.097 9.79699L44.1147 9.76658Z" fill="#C22649"/>
<path d="M58.2102 26.3644C58.0138 26.8312 57.7109 27.244 57.2974 27.605C56.8838 27.9618 56.3532 28.2522 55.7057 28.4742C55.058 28.6941 54.2894 28.8062 53.4016 28.8062C53.0339 28.8062 52.6662 28.7812 52.307 28.7294C51.9435 28.6775 51.5947 28.6132 51.2584 28.5302C50.922 28.4493 50.6129 28.3497 50.333 28.2377C50.0552 28.1236 49.8149 28.0116 49.6103 27.8975C49.5455 27.8602 49.5288 27.8145 49.5518 27.7647L50.1074 25.9496C50.1304 25.8728 50.1805 25.8542 50.2578 25.8915C50.6651 26.1446 51.1561 26.3561 51.7368 26.5263C52.3133 26.6963 52.9253 26.7814 53.5729 26.7814C54.3479 26.7814 54.9495 26.6237 55.3735 26.3085C55.7996 25.9931 56.0085 25.5824 56.0085 25.0782C56.0085 24.6116 55.8227 24.2236 55.4383 23.9145C55.058 23.6054 54.4419 23.317 53.5917 23.0536C53.0193 22.8752 52.5013 22.6739 52.0396 22.4374C51.5759 22.2072 51.177 21.9354 50.8489 21.6263C50.5189 21.3172 50.262 20.9687 50.0781 20.585C49.8923 20.2012 49.8003 19.7634 49.8003 19.2698C49.8003 18.7407 49.9132 18.2512 50.1325 17.803C50.356 17.3549 50.6735 16.9671 51.0871 16.6392C51.4986 16.3115 51.9957 16.0564 52.5722 15.8738C53.1509 15.6933 53.8005 15.5999 54.5254 15.5999C55.2984 15.5999 55.9646 15.6663 56.5161 15.7991C57.0676 15.9298 57.5292 16.0916 57.8969 16.2825C57.9596 16.3073 57.9804 16.3488 57.9533 16.4132L57.383 18.1536C57.3705 18.191 57.3433 18.218 57.3058 18.2304C57.2681 18.2428 57.2368 18.2367 57.2096 18.2117C56.9945 18.0956 56.6498 17.9649 56.1715 17.8114C55.6972 17.662 55.1333 17.5874 54.4878 17.5874C54.0805 17.5874 53.7379 17.6309 53.4601 17.7201C53.1781 17.8052 52.9525 17.9234 52.7833 18.0686C52.612 18.2138 52.4845 18.3777 52.401 18.5602C52.3196 18.7449 52.2778 18.9233 52.2778 19.0996C52.2778 19.5664 52.4804 19.9419 52.8877 20.226C53.293 20.5082 53.9468 20.7903 54.8492 21.0683C56.0692 21.4583 56.984 21.9479 57.594 22.5329C58.2019 23.122 58.5048 23.9187 58.5048 24.9268C58.5048 25.4184 58.4086 25.8998 58.2102 26.3644Z" fill="#C22649"/>
<path d="M65.9547 17.8519V28.4649C65.9547 28.5396 65.9172 28.5769 65.8398 28.5769H63.6109C63.5358 28.5769 63.4982 28.5396 63.4982 28.4649V17.8519H59.4792C59.4018 17.8519 59.3643 17.8124 59.3643 17.7378V15.9205C59.3643 15.8583 59.4018 15.8271 59.4792 15.8271H69.9947C70.0698 15.8271 70.1095 15.8583 70.1095 15.9205V17.7378C70.1095 17.8124 70.0698 17.8519 69.9947 17.8519H65.9547Z" fill="#C22649"/>
<path d="M73.7082 24.0562C73.8982 24.6121 74.1677 25.0975 74.5187 25.5124C74.8654 25.9294 75.2958 26.2572 75.8033 26.4958C76.3131 26.7384 76.8833 26.8567 77.5183 26.8567C78.168 26.8567 78.7487 26.7384 79.2605 26.4958C79.7764 26.2572 80.2109 25.9294 80.5681 25.5124C80.9233 25.0975 81.1948 24.6017 81.387 24.0271C81.5771 23.4545 81.6732 22.8342 81.6732 22.1643C81.6732 21.5709 81.5834 20.9963 81.4057 20.4424C81.2282 19.8885 80.9629 19.3968 80.614 18.9675C80.2652 18.538 79.8329 18.1957 79.319 17.9364C78.803 17.6771 78.2139 17.5485 77.556 17.5485C76.8833 17.5485 76.29 17.6751 75.7741 17.9261C75.2623 18.1812 74.8278 18.5172 74.479 18.9487C74.1281 19.3782 73.8649 19.8781 73.6894 20.4528C73.5098 21.0253 73.422 21.6352 73.422 22.2783C73.422 22.909 73.5181 23.5023 73.7082 24.0562ZM83.7474 24.8693C83.4048 25.7033 82.9264 26.4087 82.3186 26.9895C81.7087 27.5703 80.9901 28.0185 80.1566 28.3337C79.3252 28.647 78.427 28.8046 77.462 28.8046C76.4718 28.8046 75.5694 28.6408 74.7569 28.3129C73.9421 27.9852 73.2486 27.5351 72.67 26.9604C72.0914 26.3857 71.6443 25.7053 71.329 24.9171C71.0094 24.1308 70.8506 23.274 70.8506 22.353C70.8506 21.3573 71.0198 20.4466 71.354 19.6209C71.6904 18.7953 72.1603 18.0816 72.7556 17.4821C73.3552 16.8846 74.0675 16.42 74.8989 16.0921C75.7324 15.7644 76.6348 15.6005 77.6145 15.6005C78.6296 15.6005 79.5466 15.7644 80.3675 16.0921C81.1864 16.42 81.8821 16.8723 82.4628 17.4448C83.0393 18.0193 83.4842 18.7019 83.7934 19.4985C84.1067 20.2909 84.2633 21.1498 84.2633 22.0709C84.2633 23.104 84.0899 24.0354 83.7474 24.8693Z" fill="#C22649"/>
<path d="M95.4362 15.817C96.0399 15.9622 96.4744 16.1033 96.7417 16.2444C96.8044 16.2692 96.8233 16.3128 96.7981 16.3751L96.2844 18.0968C96.2592 18.1861 96.205 18.2047 96.1319 18.1549C95.7871 18.0035 95.3735 17.8728 94.8827 17.767C94.396 17.6592 93.8591 17.6072 93.2721 17.6072C92.5118 17.6072 91.8203 17.7131 91.2062 17.9268C90.59 18.1424 90.0614 18.4475 89.6249 18.8437C89.1883 19.242 88.852 19.7316 88.616 20.3104C88.3799 20.8912 88.265 21.5405 88.265 22.2583C88.265 22.9014 88.3716 23.4988 88.5888 24.0486C88.8019 24.5962 89.1174 25.0734 89.5309 25.4758C89.9424 25.8803 90.4584 26.1936 91.0726 26.4217C91.6887 26.6479 92.3969 26.7619 93.199 26.7619C93.7422 26.7619 94.2811 26.7143 94.8074 26.6189C95.3317 26.5255 95.7809 26.3969 96.1527 26.233C96.2258 26.1936 96.2781 26.2184 96.3031 26.3098L96.723 28.0108C96.746 28.0357 96.7293 28.069 96.6625 28.1063C96.347 28.2701 95.8561 28.4278 95.1877 28.5772C94.5213 28.7306 93.7359 28.8054 92.8355 28.8054C91.7431 28.8054 90.7591 28.654 89.8839 28.3511C89.0066 28.0502 88.2567 27.6146 87.6343 27.0462C87.0117 26.4778 86.5334 25.7974 86.1971 25.0008C85.8608 24.2083 85.6895 23.3183 85.6895 22.335C85.6895 21.3662 85.8691 20.4701 86.2263 19.6486C86.5793 18.8292 87.0848 18.1196 87.7387 17.5201C88.3946 16.9206 89.18 16.4518 90.1012 16.1116C91.0245 15.7693 92.0481 15.6012 93.1781 15.6012C94.0805 15.6012 94.8326 15.6718 95.4362 15.817Z" fill="#C22649"/>
<path d="M106.819 28.7681C106.792 28.7681 106.761 28.7495 106.721 28.71L102.493 22.7521C102.292 22.9658 102.092 23.1732 101.891 23.3766C101.695 23.5778 101.503 23.7852 101.315 23.9989V28.4653C101.315 28.54 101.275 28.5773 101.198 28.5773H98.9877C98.9126 28.5773 98.875 28.54 98.875 28.4653V15.9209C98.875 15.8586 98.9126 15.8275 98.9877 15.8275H101.198C101.275 15.8275 101.315 15.8586 101.315 15.9209L101.369 21.4079C101.469 21.244 101.561 21.1216 101.637 21.0386C101.714 20.9578 101.795 20.8644 101.883 20.7648L102.169 20.4224L106.228 15.7694C106.253 15.7424 106.284 15.7321 106.322 15.7321L108.992 15.8275C109.042 15.8275 109.075 15.8461 109.094 15.8836C109.115 15.9209 109.104 15.9602 109.067 15.9976L104.266 21.2564C105.129 22.441 105.996 23.6275 106.865 24.8142C107.734 25.9987 108.601 27.1895 109.466 28.3885C109.493 28.4279 109.495 28.4694 109.476 28.5109C109.457 28.5565 109.422 28.5773 109.372 28.5773L106.819 28.7681Z" fill="#C22649"/>
<path d="M58.8113 46.8522C58.7341 46.8522 58.6965 46.8149 58.6965 46.7381V41.2325H52.6011V46.7381C52.6011 46.8149 52.5635 46.8522 52.4862 46.8522H50.2574C50.1801 46.8522 50.1445 46.8149 50.1445 46.7381V34.1958C50.1445 34.1315 50.1801 34.1004 50.2574 34.1004H52.4862C52.5635 34.1004 52.6011 34.1315 52.6011 34.1958V39.1351H58.6965V34.1958C58.6965 34.1315 58.7341 34.1004 58.8113 34.1004H61.0402C61.1175 34.1004 61.1551 34.1315 61.1551 34.1958V46.7381C61.1551 46.8149 61.1175 46.8522 61.0402 46.8522H58.8113Z" fill="#C22649"/>
<path d="M66.1652 42.3305C66.3573 42.8864 66.6247 43.3719 66.9736 43.7889C67.3245 44.2038 67.7527 44.5315 68.2603 44.7701C68.768 45.0107 69.3402 45.1311 69.9753 45.1311C70.6208 45.1311 71.2036 45.0107 71.7174 44.7701C72.2333 44.5315 72.6658 44.2038 73.023 43.7889C73.3781 43.3719 73.6538 42.8761 73.8439 42.3035C74.0319 41.7289 74.128 41.1066 74.128 40.4386C74.128 39.8473 74.0403 39.2727 73.8606 38.7167C73.6831 38.1607 73.4199 37.6713 73.0711 37.2418C72.7222 36.8145 72.2898 36.468 71.7759 36.2107C71.26 35.9514 70.673 35.8229 70.0129 35.8229C69.3402 35.8229 68.747 35.9494 68.2331 36.2025C67.7192 36.4515 67.2848 36.7937 66.936 37.2232C66.5872 37.6525 66.3239 38.1524 66.1464 38.7271C65.9667 39.2996 65.8789 39.9075 65.8789 40.5527C65.8789 41.1833 65.973 41.7766 66.1652 42.3305ZM76.2044 43.1437C75.8639 43.9756 75.3855 44.683 74.7755 45.2638C74.1656 45.8447 73.4449 46.2907 72.6156 46.606C71.7821 46.9213 70.8818 47.079 69.9168 47.079C68.9267 47.079 68.0242 46.9151 67.2138 46.5874C66.3991 46.2595 65.7056 45.8094 65.127 45.2369C64.5483 44.6602 64.1014 43.9798 63.7838 43.1914C63.4642 42.4031 63.3076 41.5484 63.3076 40.6273C63.3076 39.6316 63.4746 38.7209 63.8131 37.8931C64.1493 37.0696 64.6152 36.3559 65.2105 35.7564C65.8079 35.1569 66.5244 34.6923 67.3558 34.3666C68.1872 34.0387 69.0917 33.8728 70.0693 33.8728C71.0866 33.8728 72.0036 34.0387 72.8224 34.3666C73.6433 34.6923 74.341 35.1445 74.9197 35.7191C75.4962 36.2917 75.9411 36.9762 76.2524 37.7707C76.5636 38.5653 76.7204 39.4241 76.7204 40.3432C76.7204 41.3783 76.549 42.3118 76.2044 43.1437Z" fill="#C22649"/>
<path d="M97.2268 37.0317C96.3433 36.287 95.0503 35.9177 93.3499 35.9177C92.905 35.9177 92.531 35.9301 92.226 35.9551C91.921 35.9799 91.6599 36.0173 91.4448 36.0691V44.9769C91.6475 45.0039 91.8814 45.0185 92.1487 45.0247C92.4161 45.033 92.7002 45.0372 93.0051 45.0372C93.9097 45.0372 94.7055 44.9251 95.3969 44.7031C96.0883 44.4853 96.667 44.1659 97.1308 43.751C97.5945 43.334 97.9475 42.8279 98.1877 42.2345C98.4301 41.6412 98.5512 40.9815 98.5512 40.2492C98.5512 38.8511 98.1083 37.7785 97.2268 37.0317ZM100.588 42.9357C100.22 43.7676 99.7043 44.4812 99.0462 45.0745C98.359 45.7031 97.465 46.1802 96.3579 46.5018C95.2549 46.8253 94.0037 46.983 92.6062 46.983C91.8438 46.983 91.1815 46.9727 90.6155 46.9477C90.0515 46.9208 89.5398 46.8773 89.0823 46.815C89.0175 46.815 88.9883 46.7777 88.9883 46.7009V34.3661C88.9883 34.2893 89.0175 34.2498 89.0823 34.2498C89.6776 34.1772 90.3252 34.1129 91.027 34.0632C91.7226 34.0134 92.4537 33.9864 93.2161 33.9864C95.8335 33.9864 97.7887 34.5236 99.0839 35.5962C99.7189 36.1231 100.22 36.7704 100.588 37.5359C100.958 38.2971 101.139 39.1705 101.139 40.1559C101.139 41.1765 100.958 42.1038 100.588 42.9357Z" fill="#C22649"/>
<path d="M103.313 46.8522C103.236 46.8522 103.198 46.8149 103.198 46.7381V34.1958C103.198 34.1315 103.236 34.1004 103.313 34.1004H105.542C105.617 34.1004 105.657 34.1315 105.657 34.1958V46.7381C105.657 46.8149 105.617 46.8522 105.542 46.8522H103.313Z" fill="#C22649"/>
<path d="M117.066 46.8522C117.041 46.8522 117.009 46.8314 116.972 46.7962L113.068 40.9877C112.623 40.3176 112.19 39.6434 111.77 38.9629C111.353 38.2825 110.977 37.6062 110.647 36.9403C110.686 37.7078 110.711 38.4734 110.724 39.2368C110.734 40.0002 110.743 40.8238 110.743 41.7054V46.7381C110.743 46.8149 110.705 46.8522 110.626 46.8522H108.553C108.474 46.8522 108.437 46.8149 108.437 46.7381V34.1958C108.437 34.1315 108.474 34.1004 108.553 34.1004H111.2C111.238 34.1252 111.263 34.144 111.275 34.1564L115.198 39.8155C115.643 40.4587 116.04 41.081 116.391 41.6868C116.742 42.2946 117.066 42.8921 117.371 43.4854C117.308 42.7655 117.27 42.056 117.258 41.3549C117.245 40.6558 117.237 39.8965 117.237 39.077V34.1958C117.237 34.1315 117.277 34.1004 117.354 34.1004H119.43C119.506 34.1004 119.543 34.1315 119.543 34.1958V46.7381C119.543 46.8149 119.506 46.8522 119.43 46.8522H117.066Z" fill="#C22649"/>
<path d="M133.678 46.3612C133.55 46.386 133.438 46.3985 133.338 46.3985C133.247 46.411 133.164 46.4171 133.086 46.4171C133.014 46.4171 132.923 46.4358 132.822 46.4732C132.338 46.6121 131.779 46.7325 131.145 46.8321C130.511 46.9358 129.83 46.9835 129.107 46.9835C126.757 46.9835 124.908 46.3736 123.563 45.1476C122.968 44.5937 122.503 43.9216 122.173 43.1249C121.842 42.3304 121.68 41.4778 121.68 40.5713C121.68 39.6502 121.85 38.7893 122.202 37.9886C122.551 37.1878 123.058 36.4887 123.727 35.8892C124.392 35.2876 125.206 34.8208 126.164 34.4806C127.121 34.1384 128.211 33.9662 129.434 33.9662C130.308 33.9662 131.077 34.045 131.744 34.1964C132.412 34.3479 132.909 34.4909 133.241 34.632C133.316 34.6569 133.341 34.6984 133.316 34.7627L132.784 36.5032C132.771 36.5778 132.725 36.6048 132.65 36.5778C132.243 36.4161 131.785 36.2729 131.268 36.1527C130.753 36.0323 130.122 35.9742 129.373 35.9742C128.585 35.9742 127.877 36.0821 127.248 36.2957C126.622 36.5094 126.085 36.8144 125.639 37.2044C125.195 37.5944 124.853 38.0632 124.61 38.6109C124.369 39.1606 124.249 39.7684 124.249 40.4406C124.249 41.1065 124.361 41.7206 124.593 42.2745C124.821 42.8283 125.151 43.3076 125.584 43.7121C126.014 44.1166 126.536 44.4298 127.156 44.658C127.768 44.8841 128.464 44.9962 129.243 44.9962C129.736 44.9962 130.165 44.9672 130.526 44.9049C130.89 44.8406 131.169 44.7722 131.374 44.6933V41.7268H128.858C128.783 41.7268 128.744 41.6873 128.744 41.6106V39.8908C128.744 39.8141 128.783 39.7768 128.858 39.7768H133.662C133.736 39.7768 133.774 39.8141 133.774 39.8908V46.2678L133.678 46.3612Z" fill="#C22649"/>
<path d="M144.375 44.6389C144.177 45.1057 143.873 45.5205 143.46 45.8774C143.048 46.2384 142.518 46.5288 141.87 46.7486C141.224 46.9686 140.454 47.0785 139.565 47.0785C139.197 47.0785 138.831 47.0537 138.47 47.0039C138.109 46.9541 137.758 46.8855 137.421 46.8068C137.083 46.7238 136.776 46.6242 136.498 46.5122C136.219 46.3981 135.976 46.284 135.775 46.1699C135.709 46.1346 135.689 46.089 135.715 46.0392L136.268 44.2219C136.294 44.1473 136.346 44.1265 136.423 44.166C136.827 44.4169 137.32 44.6306 137.897 44.8008C138.476 44.9708 139.091 45.0559 139.737 45.0559C140.511 45.0559 141.11 44.8962 141.537 44.5829C141.963 44.2676 142.173 43.8569 142.173 43.3527C142.173 42.8859 141.984 42.4981 141.603 42.189C141.224 41.8799 140.607 41.5935 139.754 41.3301C139.184 41.1517 138.667 40.9464 138.205 40.7141C137.741 40.4775 137.342 40.2099 137.01 39.8988C136.682 39.5917 136.425 39.2432 136.239 38.8595C136.057 38.4735 135.965 38.0359 135.965 37.5421C135.965 37.0131 136.076 36.5277 136.297 36.0797C136.518 35.6315 136.839 35.2415 137.251 34.9158C137.664 34.586 138.157 34.3329 138.736 34.1483C139.313 33.9636 139.963 33.8724 140.688 33.8724C141.463 33.8724 142.127 33.9408 142.678 34.0736C143.233 34.2043 143.692 34.3661 144.06 34.5548C144.122 34.5798 144.143 34.6254 144.119 34.6877L143.546 36.4281C143.534 36.4655 143.509 36.4925 143.469 36.5048C143.434 36.5153 143.4 36.5111 143.372 36.4842C143.159 36.3721 142.815 36.2394 142.336 36.0879C141.86 35.9365 141.299 35.8597 140.651 35.8597C140.244 35.8597 139.901 35.9033 139.621 35.9904C139.343 36.0817 139.118 36.1979 138.948 36.3431C138.774 36.4883 138.645 36.6522 138.567 36.8347C138.481 37.0172 138.441 37.1977 138.441 37.3741C138.441 37.8387 138.644 38.2164 139.049 38.4985C139.458 38.7827 140.112 39.0627 141.012 39.3407C142.233 39.7328 143.147 40.2203 143.757 40.8073C144.366 41.3945 144.67 42.1931 144.67 43.2013C144.67 43.6909 144.572 44.1722 144.375 44.6389Z" fill="#C22649"/>
<path d="M87.2415 44.791H81.3091V34.1965C81.3091 34.1302 81.2714 34.1011 81.1962 34.1011H78.9673C78.8901 34.1011 78.8525 34.1302 78.8525 34.1965V46.7368C78.8525 46.8156 78.8901 46.8529 78.9673 46.8529H87.2415V44.791Z" fill="#C22649"/>
</svg>
