<svg width="32" height="32" viewBox="0 0 32 32" fill="none" xmlns="http://www.w3.org/2000/svg">
<path fill-rule="evenodd" clip-rule="evenodd" d="M10.228 2.66602H21.788C26.308 2.66602 29.3346 5.83935 29.3346 10.5593V21.4527C29.3346 26.1593 26.308 29.3327 21.788 29.3327H10.228C5.70797 29.3327 2.66797 26.1593 2.66797 21.4527V10.5593C2.66797 5.83935 5.70797 2.66602 10.228 2.66602ZM10.028 17.5993C9.14797 17.5993 8.42797 16.8793 8.42797 15.9993C8.42797 15.1193 9.14797 14.4007 10.028 14.4007C10.908 14.4007 11.628 15.1193 11.628 15.9993C11.628 16.8793 10.908 17.5993 10.028 17.5993ZM14.4013 15.9993C14.4013 16.8793 15.1213 17.5993 16.0013 17.5993C16.8813 17.5993 17.6013 16.8793 17.6013 15.9993C17.6013 15.1193 16.8813 14.4007 16.0013 14.4007C15.1213 14.4007 14.4013 15.1193 14.4013 15.9993ZM20.3746 15.9993C20.3746 16.8793 21.0946 17.5993 21.9746 17.5993C22.8546 17.5993 23.5613 16.8793 23.5613 15.9993C23.5613 15.1193 22.8546 14.4007 21.9746 14.4007C21.0946 14.4007 20.3746 15.1193 20.3746 15.9993Z" fill="white"/>
</svg>
