<svg width="788" height="363" viewBox="0 0 788 363" fill="none" xmlns="http://www.w3.org/2000/svg">
<path d="M596.042 235.811V237.827H603.77C603.338 242.819 600.65 246.635 594.962 249.371L596.282 251.339C603.722 247.739 606.314 242.267 606.314 235.811H596.042ZM610.226 233.531V255.203H612.698V233.531H610.226ZM632.4 252.947H623.208V250.547H632.4V252.947ZM632.4 248.627H623.208V246.179H620.76V254.939H634.848V246.179H632.4V248.627ZM622.848 242.603C620.928 242.603 619.56 241.379 619.56 239.555C619.56 237.707 620.928 236.531 622.848 236.531C624.72 236.531 626.112 237.707 626.112 239.555C626.112 241.379 624.72 242.603 622.848 242.603ZM632.376 233.531V238.523H628.368C627.888 236.099 625.704 234.491 622.848 234.491C619.584 234.491 617.184 236.579 617.184 239.555C617.184 242.555 619.584 244.643 622.848 244.643C625.728 244.643 627.936 242.987 628.368 240.539H632.376V245.147H634.848V233.531H632.376ZM640.03 235.811V237.827H647.614C647.11 242.819 644.254 246.635 638.95 249.347L640.318 251.243C647.398 247.667 650.086 242.099 650.086 235.811H640.03ZM659.038 242.075H655.75V233.507H653.278V255.179H655.75V244.139H659.038V242.075ZM669.236 239.171H673.94V237.179H669.236V233.963H666.764V237.179H661.964V239.171H666.764V240.419C666.764 243.995 664.7 247.667 661.292 249.203L662.66 251.099C665.18 249.947 667.076 247.595 668.036 244.715C669.02 247.427 670.916 249.659 673.388 250.739L674.708 248.819C671.348 247.355 669.236 243.827 669.236 240.419V239.171ZM676.412 233.507V255.179H678.908V233.507H676.412ZM699.873 242.795C700.425 239.963 700.425 237.827 700.425 236.411V235.283H689.721V236.891H698.505C698.505 238.259 698.433 240.107 697.929 242.579L699.873 242.795ZM701.913 244.091C699.729 244.379 697.281 244.571 694.929 244.667V240.083H692.985V244.739C691.353 244.763 689.793 244.787 688.425 244.787L688.617 246.395C692.433 246.395 697.593 246.275 702.057 245.531L701.913 244.091ZM693.681 248.339H691.713V254.651H706.017V253.043H693.681V248.339ZM705.321 240.611V233.603H703.353V249.827H705.321V242.243H708.393V240.611H705.321ZM713.863 243.275H721.807V235.595H711.823V237.203H719.815V241.691H711.895V249.947H713.671C717.367 249.947 720.631 249.803 724.519 249.155L724.327 247.547C720.559 248.147 717.391 248.315 713.863 248.315V243.275ZM726.343 233.579V255.155H728.311V233.579H726.343Z" fill="#575467"/>
<g filter="url(#filter0_d)">
<rect x="597.645" y="78.7422" width="127.482" height="127.482" rx="63.7409" fill="url(#paint0_linear)"/>
</g>
<path d="M657.406 163.613L649.438 159.187C649.268 159.09 649.135 158.941 649.059 158.761C648.983 158.581 648.969 158.381 649.018 158.192C649.068 158.003 649.178 157.836 649.333 157.716C649.487 157.597 649.677 157.532 649.872 157.531H660.495C660.73 157.531 660.955 157.438 661.121 157.272C661.287 157.106 661.381 156.881 661.381 156.646V156.203C661.381 156.012 661.319 155.825 661.204 155.672C661.089 155.519 660.927 155.407 660.743 155.353L647.092 151.334H641.904V163.976L651.784 167.269H664.771L678.493 162.427C678.668 162.366 678.818 162.252 678.925 162.101C679.031 161.95 679.088 161.77 679.086 161.586V160.78C679.086 160.643 679.054 160.507 678.993 160.384C678.932 160.261 678.842 160.154 678.732 160.072C678.622 159.989 678.495 159.934 678.36 159.909C678.224 159.884 678.085 159.892 677.953 159.93L665.17 163.693C665.09 163.718 665.006 163.73 664.922 163.728H657.84C657.687 163.73 657.537 163.69 657.406 163.613Z" fill="white"/>
<path d="M662.267 154.229V124.775H660.496V153.432L661.249 153.654C661.626 153.769 661.974 153.965 662.267 154.229Z" fill="white"/>
<path d="M652.201 129.414L650.961 124.775H641.701L640.462 129.414C642.148 128.128 644.21 127.431 646.331 127.431C648.452 127.431 650.515 128.128 652.201 129.414Z" fill="white"/>
<path d="M660.496 161.958H662.267V158.611C661.783 159.054 661.152 159.3 660.496 159.302V161.958Z" fill="white"/>
<path d="M646.331 129.201C644.755 129.201 643.215 129.668 641.904 130.544C640.594 131.419 639.573 132.664 638.97 134.12C638.367 135.576 638.209 137.178 638.516 138.723C638.824 140.269 639.583 141.688 640.697 142.803C641.811 143.917 643.231 144.676 644.776 144.983C646.322 145.291 647.924 145.133 649.38 144.53C650.836 143.927 652.08 142.906 652.956 141.595C653.831 140.285 654.299 138.745 654.299 137.169C654.295 135.057 653.455 133.032 651.961 131.538C650.468 130.045 648.443 129.204 646.331 129.201ZM646.331 143.366C645.105 143.366 643.907 143.002 642.888 142.321C641.869 141.64 641.075 140.673 640.606 139.54C640.137 138.408 640.014 137.162 640.253 135.96C640.492 134.758 641.082 133.653 641.949 132.787C642.816 131.92 643.92 131.33 645.122 131.091C646.324 130.852 647.57 130.974 648.702 131.443C649.835 131.913 650.803 132.707 651.484 133.726C652.164 134.745 652.528 135.943 652.528 137.169C652.526 138.812 651.873 140.387 650.711 141.549C649.549 142.71 647.974 143.364 646.331 143.366Z" fill="white"/>
<path d="M646.331 132.744C645.455 132.744 644.599 133.004 643.872 133.49C643.144 133.977 642.576 134.668 642.241 135.477C641.906 136.285 641.819 137.176 641.989 138.034C642.16 138.893 642.582 139.682 643.201 140.301C643.82 140.92 644.609 141.341 645.467 141.512C646.326 141.683 647.216 141.595 648.025 141.26C648.834 140.925 649.525 140.358 650.011 139.63C650.498 138.902 650.757 138.046 650.757 137.171C650.756 135.997 650.289 134.872 649.459 134.042C648.629 133.212 647.504 132.746 646.331 132.744ZM646.822 139.678C646.677 139.775 646.506 139.827 646.331 139.827C646.156 139.827 645.985 139.775 645.839 139.678L643.184 137.907L644.166 136.434L645.445 137.287V134.515H647.216V137.287L648.495 136.434L649.478 137.907L646.822 139.678Z" fill="white"/>
<path d="M636.593 148.678H640.134V166.384H636.593V148.678Z" fill="white"/>
<path d="M664.037 120.349C664.037 119.645 663.757 118.969 663.259 118.471C662.761 117.973 662.085 117.693 661.381 117.693C660.677 117.693 660.001 117.973 659.503 118.471C659.005 118.969 658.725 119.645 658.725 120.349C658.725 120.584 658.632 120.809 658.466 120.975C658.3 121.141 658.075 121.235 657.84 121.235H636.593V123.005H686.169V121.235H664.922C664.687 121.235 664.462 121.141 664.296 120.975C664.13 120.809 664.037 120.584 664.037 120.349Z" fill="white"/>
<path d="M682.301 129.414L681.061 124.775H671.801L670.562 129.414C672.248 128.128 674.31 127.431 676.431 127.431C678.552 127.431 680.614 128.128 682.301 129.414Z" fill="white"/>
<path d="M676.431 129.201C674.855 129.201 673.314 129.668 672.004 130.544C670.694 131.419 669.672 132.664 669.069 134.12C668.466 135.576 668.309 137.178 668.616 138.723C668.923 140.269 669.682 141.688 670.797 142.803C671.911 143.917 673.331 144.676 674.876 144.983C676.422 145.291 678.024 145.133 679.48 144.53C680.935 143.927 682.18 142.906 683.055 141.595C683.931 140.285 684.398 138.745 684.398 137.169C684.395 135.057 683.554 133.032 682.061 131.538C680.567 130.045 678.543 129.204 676.431 129.201ZM679.086 134.513H675.545V136.283H677.316C677.785 136.283 678.236 136.47 678.568 136.802C678.9 137.134 679.086 137.584 679.086 138.054V139.825C679.086 140.294 678.9 140.745 678.568 141.077C678.236 141.409 677.785 141.595 677.316 141.595V143.366H675.545V141.595H673.775V139.825H677.316V138.054H675.545C675.076 138.054 674.625 137.868 674.293 137.535C673.961 137.203 673.775 136.753 673.775 136.283V134.513C673.775 134.043 673.961 133.593 674.293 133.261C674.625 132.929 675.076 132.742 675.545 132.742V130.972H677.316V132.742H679.086V134.513Z" fill="white"/>
<path d="M358.716 195.708H356.244V199.26C356.244 203.436 353.988 207.588 350.532 209.148L351.996 211.212C354.612 209.94 356.532 207.372 357.516 204.228C358.5 207.156 360.396 209.556 362.892 210.732L364.332 208.764C360.924 207.228 358.716 203.244 358.716 199.26V195.708ZM366.06 193.884V215.628H368.556V193.884H366.06ZM385.522 204.108C382.21 203.052 380.41 200.532 380.41 197.844V197.436H384.946V195.444H373.306V197.436H377.914V197.868C377.914 200.82 376.018 203.604 372.61 204.78L373.858 206.724C376.45 205.836 378.274 203.988 379.234 201.684C380.17 203.7 381.898 205.26 384.322 206.028L385.522 204.108ZM382.738 213.636C379.714 213.636 377.962 212.868 377.962 211.476C377.962 210.06 379.714 209.316 382.738 209.316C385.762 209.316 387.514 210.06 387.514 211.476C387.514 212.868 385.762 213.636 382.738 213.636ZM382.738 207.372C378.274 207.372 375.514 208.884 375.514 211.476C375.514 214.044 378.274 215.58 382.738 215.58C387.202 215.58 389.962 214.044 389.962 211.476C389.962 208.884 387.202 207.372 382.738 207.372ZM389.722 199.188V193.908H387.25V206.868H389.722V201.228H392.794V199.188H389.722ZM411.623 203.172C412.175 200.34 412.175 198.204 412.175 196.788V195.66H401.471V197.268H410.255C410.255 198.636 410.183 200.484 409.679 202.956L411.623 203.172ZM413.663 204.468C411.479 204.756 409.031 204.948 406.679 205.044V200.46H404.735V205.116C403.103 205.14 401.543 205.164 400.175 205.164L400.367 206.772C404.183 206.772 409.343 206.652 413.807 205.908L413.663 204.468ZM405.431 208.716H403.463V215.028H417.767V213.42H405.431V208.716ZM417.071 200.988V193.98H415.103V210.204H417.071V202.62H420.143V200.988H417.071ZM425.613 203.652H433.557V195.972H423.573V197.58H431.565V202.068H423.645V210.324H425.421C429.117 210.324 432.381 210.18 436.269 209.532L436.077 207.924C432.309 208.524 429.141 208.692 425.613 208.692V203.652ZM438.093 193.956V215.532H440.061V193.956H438.093Z" fill="#575467"/>
<g filter="url(#filter1_d)">
<rect x="333.469" y="39.0801" width="127.482" height="127.482" rx="63.7409" fill="url(#paint1_linear)"/>
</g>
<g clip-path="url(#clip0)">
<path d="M375.934 92.366L379.254 98.1163C379.712 98.9102 380.727 99.1822 381.521 98.7238L382.977 97.883C383.489 98.2362 384.029 98.5473 384.593 98.8144V100.498C384.593 101.414 385.336 102.158 386.253 102.158H392.893C393.81 102.158 394.553 101.414 394.553 100.498V98.8144C395.117 98.5473 395.657 98.2363 396.169 97.883L397.625 98.7238C398.419 99.1822 399.434 98.9102 399.893 98.1163L403.213 92.366C403.671 91.5721 403.399 90.557 402.605 90.0986L401.153 89.2601C401.179 88.9459 401.192 88.6354 401.192 88.3247C401.192 88.0141 401.179 87.7036 401.153 87.3894L402.605 86.5508C403.399 86.0925 403.671 85.0774 403.213 84.2835L399.893 78.5332C399.434 77.7393 398.419 77.4673 397.625 77.9257L396.169 78.7665C395.657 78.4132 395.117 78.1022 394.553 77.835V76.152C394.553 75.2353 393.81 74.4922 392.893 74.4922H386.253C385.336 74.4922 384.593 75.2353 384.593 76.152V77.8353C384.029 78.1024 383.489 78.4134 382.977 78.7667L381.521 77.9259C380.727 77.4675 379.712 77.7395 379.253 78.5334L375.934 84.2837C375.475 85.0776 375.747 86.0927 376.541 86.5511L377.994 87.3897C377.967 87.7037 377.954 88.0142 377.954 88.3249C377.954 88.6355 377.967 88.946 377.993 89.2602L376.541 90.0988C375.747 90.557 375.475 91.5721 375.934 92.366ZM387.913 85.005C387.913 84.0883 388.656 83.3451 389.573 83.3451C390.49 83.3451 391.233 84.0883 391.233 85.005V86.6649H392.893C393.81 86.6649 394.553 87.4081 394.553 88.3249C394.553 89.2416 393.81 89.9848 392.893 89.9848H389.573C388.656 89.9848 387.913 89.2416 387.913 88.3249V85.005Z" fill="white"/>
<path d="M423.878 105.477H418.898C417.981 105.477 417.238 106.221 417.238 107.137V127.831H411.705V111.564C411.705 110.647 410.962 109.904 410.045 109.904H405.065C404.148 109.904 403.405 110.647 403.405 111.564V127.831H397.872V115.99C397.872 115.073 397.129 114.33 396.212 114.33H391.232C390.316 114.33 389.573 115.073 389.573 115.99V127.831H384.04V120.417C384.04 119.5 383.296 118.757 382.38 118.757H377.4C376.483 118.757 375.74 119.5 375.74 120.417V127.831H372.199V76.1521C372.199 75.2354 371.456 74.4922 370.539 74.4922C369.622 74.4922 368.879 75.2354 368.879 76.1521V129.491C368.879 130.408 369.622 131.151 370.539 131.151H423.878C424.794 131.151 425.537 130.408 425.537 129.491V107.137C425.537 106.221 424.794 105.477 423.878 105.477Z" fill="white"/>
<path d="M377.4 108.797C376.483 108.797 375.74 109.54 375.74 110.457C375.74 111.374 376.483 112.117 377.4 112.117C395.073 112.117 411.385 103.155 420.888 88.4794L421.144 89.7571C421.323 90.656 422.198 91.239 423.097 91.0592C423.996 90.8794 424.579 90.0049 424.399 89.106L423.292 83.573C423.112 82.6741 422.238 82.0911 421.339 82.2708L415.806 83.3774C414.907 83.5573 414.324 84.4317 414.504 85.3306C414.684 86.2295 415.558 86.8125 416.457 86.6327L418.376 86.249C409.523 100.237 394.112 108.797 377.4 108.797Z" fill="white"/>
</g>
<path d="M78.5068 317.641C82.3808 317.069 85.5528 315.145 86.9828 312.545C88.4128 315.145 91.6108 317.069 95.4848 317.641L96.4468 315.535C91.9748 314.937 88.6728 312.363 88.5168 309.633H95.6148V307.475H78.3248V309.633H85.4748C85.3188 312.363 82.0168 314.937 77.5448 315.535L78.5068 317.641ZM97.6168 319.357H76.3748V321.515H85.5788V329.653H88.2568V321.515H97.5908L97.6168 319.357ZM102.425 317.641C106.299 317.069 109.471 315.145 110.901 312.545C112.331 315.145 115.529 317.069 119.403 317.641L120.365 315.535C115.893 314.937 112.591 312.363 112.435 309.633H119.533V307.475H102.243V309.633H109.393C109.237 312.363 105.935 314.937 101.463 315.535L102.425 317.641ZM121.535 319.357H100.293V321.515H109.497V329.653H112.175V321.515H121.509L121.535 319.357ZM142.349 316.185C142.947 313.117 142.947 310.803 142.947 309.269V308.047H131.351V309.789H140.867C140.867 311.271 140.789 313.273 140.243 315.951L142.349 316.185ZM144.559 317.589C142.193 317.901 139.541 318.109 136.993 318.213V313.247H134.887V318.291C133.119 318.317 131.429 318.343 129.947 318.343L130.155 320.085C134.289 320.085 139.879 319.955 144.715 319.149L144.559 317.589ZM135.641 322.191H133.509V329.029H149.005V327.287H135.641V322.191ZM148.251 313.819V306.227H146.119V323.803H148.251V315.587H151.579V313.819H148.251ZM157.505 316.705H166.111V308.385H155.295V310.127H163.953V314.989H155.373V323.933H157.297C161.301 323.933 164.837 323.777 169.049 323.075L168.841 321.333C164.759 321.983 161.327 322.165 157.505 322.165V316.705ZM171.025 306.201V329.575H173.157V306.201H171.025Z" fill="#575467"/>
<g filter="url(#filter2_d)">
<rect x="62.9258" y="150.273" width="127.482" height="127.482" rx="63.7409" fill="url(#paint2_linear)"/>
</g>
<g clip-path="url(#clip1)">
<path d="M126.671 235.15C124.373 235.15 122.316 234.107 120.945 232.471C119.361 233.983 118.371 236.113 118.371 238.47V240.683C118.371 241.6 119.114 242.343 120.031 242.343H133.31C134.227 242.343 134.97 241.6 134.97 240.683V238.47C134.97 236.113 133.981 233.983 132.397 232.471C131.025 234.107 128.968 235.15 126.671 235.15Z" fill="white"/>
<path d="M106.641 231.831C108.929 231.831 110.791 229.97 110.791 227.681V225.468C110.791 223.77 109.765 222.308 108.301 221.666V220.654C108.301 219.739 109.046 218.995 109.961 218.995H125.011V221.666C123.547 222.308 122.521 223.77 122.521 225.468V227.681C122.521 229.97 124.382 231.831 126.671 231.831C128.959 231.831 130.821 229.97 130.821 227.681V225.468C130.821 223.77 129.795 222.308 128.331 221.666V218.995H143.381C144.296 218.995 145.041 219.739 145.041 220.654V221.666C143.576 222.308 142.551 223.77 142.551 225.468V227.681C142.551 229.97 144.412 231.831 146.7 231.831C148.989 231.831 150.85 229.97 150.85 227.681V225.468C150.85 223.77 149.825 222.308 148.36 221.666V220.654C148.36 217.909 146.126 215.675 143.381 215.675H128.331V213.262C127.785 213.32 127.231 213.351 126.671 213.351C126.11 213.351 125.556 213.32 125.011 213.262V215.675H109.961C107.215 215.675 104.981 217.909 104.981 220.654V221.666C103.517 222.308 102.491 223.77 102.491 225.468V227.681C102.491 229.97 104.353 231.831 106.641 231.831Z" fill="white"/>
<path d="M106.64 235.15C104.343 235.15 102.286 234.107 100.914 232.471C99.3306 233.983 98.3408 236.113 98.3408 238.47V240.683C98.3408 241.6 99.084 242.343 100.001 242.343H113.28C114.197 242.343 114.94 241.6 114.94 240.683V238.47C114.94 236.113 113.95 233.983 112.366 232.471C110.995 234.107 108.938 235.15 106.64 235.15Z" fill="white"/>
<path d="M152.426 232.471C151.055 234.107 148.997 235.15 146.7 235.15C144.403 235.15 142.345 234.107 140.974 232.471C139.39 233.983 138.4 236.113 138.4 238.47V240.683C138.4 241.6 139.144 242.343 140.06 242.343H153.34C154.256 242.343 155 241.6 155 240.683V238.47C155 236.113 154.01 233.983 152.426 232.471Z" fill="white"/>
<path d="M128.795 200.86C128.868 200.428 128.898 199.397 127.7 198.893V202.447C128.323 202.091 128.694 201.46 128.795 200.86Z" fill="white"/>
<path d="M126.67 210.031C133.393 210.031 138.843 204.581 138.843 197.858C138.843 191.136 133.393 185.686 126.67 185.686C119.947 185.686 114.497 191.136 114.497 197.858C114.497 204.581 119.947 210.031 126.67 210.031ZM122.483 202.381C122.817 201.869 123.503 201.726 124.014 202.061C124.612 202.452 124.987 202.622 125.487 202.692V198.018C124.78 197.694 124.252 197.382 123.818 197.042C122.9 196.322 122.481 195.073 122.724 193.781C122.989 192.374 123.969 191.254 125.28 190.859C125.35 190.838 125.419 190.819 125.487 190.801V190.112C125.487 189.501 125.982 189.005 126.593 189.005C127.205 189.005 127.7 189.501 127.7 190.112V190.679C128.774 190.865 129.534 191.394 129.902 191.816C130.303 192.277 130.255 192.976 129.794 193.378C129.336 193.777 128.642 193.732 128.239 193.278C128.214 193.252 128.038 193.083 127.7 192.958V196.534C127.896 196.607 128.093 196.677 128.285 196.745C130.231 197.433 131.313 199.234 130.978 201.226C130.717 202.775 129.539 204.346 127.7 204.812V205.605C127.7 206.216 127.205 206.711 126.593 206.711C125.982 206.711 125.487 206.216 125.487 205.605V204.918C124.593 204.841 123.853 204.6 122.803 203.913C122.291 203.578 122.148 202.892 122.483 202.381Z" fill="white"/>
<path d="M125.487 193.199C125.149 193.458 124.963 193.85 124.899 194.19C124.811 194.659 124.923 195.095 125.184 195.3C125.276 195.373 125.378 195.444 125.487 195.513V193.199Z" fill="white"/>
</g>
<path d="M147.26 149.959C154.326 101.264 219.547 21.4531 351.531 55.3708" stroke="#EC3637" stroke-dasharray="5 5 5 5 5 5"/>
<path d="M445.73 142.483C469.81 154.877 526.81 154.382 551.88 83.5978C583.217 -4.88303 665.239 15.3597 673.073 78.0337" stroke="#F44142" stroke-dasharray="5 5 5 5 5 5"/>
<defs>
<filter id="filter0_d" x="535.645" y="39.7422" width="251.482" height="251.482" filterUnits="userSpaceOnUse" color-interpolation-filters="sRGB">
<feFlood flood-opacity="0" result="BackgroundImageFix"/>
<feColorMatrix in="SourceAlpha" type="matrix" values="0 0 0 0 0 0 0 0 0 0 0 0 0 0 0 0 0 0 127 0" result="hardAlpha"/>
<feOffset dy="23"/>
<feGaussianBlur stdDeviation="31"/>
<feColorMatrix type="matrix" values="0 0 0 0 0.921569 0 0 0 0 0.211765 0 0 0 0 0.215686 0 0 0 0.3 0"/>
<feBlend mode="normal" in2="BackgroundImageFix" result="effect1_dropShadow"/>
<feBlend mode="normal" in="SourceGraphic" in2="effect1_dropShadow" result="shape"/>
</filter>
<filter id="filter1_d" x="271.469" y="0.0800781" width="251.482" height="251.482" filterUnits="userSpaceOnUse" color-interpolation-filters="sRGB">
<feFlood flood-opacity="0" result="BackgroundImageFix"/>
<feColorMatrix in="SourceAlpha" type="matrix" values="0 0 0 0 0 0 0 0 0 0 0 0 0 0 0 0 0 0 127 0" result="hardAlpha"/>
<feOffset dy="23"/>
<feGaussianBlur stdDeviation="31"/>
<feColorMatrix type="matrix" values="0 0 0 0 0.921569 0 0 0 0 0.211765 0 0 0 0 0.215686 0 0 0 0.3 0"/>
<feBlend mode="normal" in2="BackgroundImageFix" result="effect1_dropShadow"/>
<feBlend mode="normal" in="SourceGraphic" in2="effect1_dropShadow" result="shape"/>
</filter>
<filter id="filter2_d" x="0.925781" y="111.273" width="251.482" height="251.482" filterUnits="userSpaceOnUse" color-interpolation-filters="sRGB">
<feFlood flood-opacity="0" result="BackgroundImageFix"/>
<feColorMatrix in="SourceAlpha" type="matrix" values="0 0 0 0 0 0 0 0 0 0 0 0 0 0 0 0 0 0 127 0" result="hardAlpha"/>
<feOffset dy="23"/>
<feGaussianBlur stdDeviation="31"/>
<feColorMatrix type="matrix" values="0 0 0 0 0.921569 0 0 0 0 0.211765 0 0 0 0 0.215686 0 0 0 0.3 0"/>
<feBlend mode="normal" in2="BackgroundImageFix" result="effect1_dropShadow"/>
<feBlend mode="normal" in="SourceGraphic" in2="effect1_dropShadow" result="shape"/>
</filter>
<linearGradient id="paint0_linear" x1="661.385" y1="78.7422" x2="661.385" y2="206.224" gradientUnits="userSpaceOnUse">
<stop stop-color="#A5250A"/>
<stop offset="1" stop-color="#CB3313"/>
</linearGradient>
<linearGradient id="paint1_linear" x1="397.21" y1="39.0801" x2="397.21" y2="166.562" gradientUnits="userSpaceOnUse">
<stop stop-color="#A5250A"/>
<stop offset="1" stop-color="#CB3313"/>
</linearGradient>
<linearGradient id="paint2_linear" x1="126.667" y1="150.273" x2="126.667" y2="277.755" gradientUnits="userSpaceOnUse">
<stop stop-color="#A5250A"/>
<stop offset="1" stop-color="#CB3313"/>
</linearGradient>
<clipPath id="clip0">
<rect width="56.6586" height="56.6586" fill="white" transform="translate(368.879 74.4922)"/>
</clipPath>
<clipPath id="clip1">
<rect width="56.6586" height="56.6586" fill="white" transform="translate(98.3408 185.686)"/>
</clipPath>
</defs>
</svg>
