<svg width="24" height="24" viewBox="0 0 24 24" fill="none" xmlns="http://www.w3.org/2000/svg">
<path d="M24 12C24 18.627 18.627 24 12 24C5.37296 24 0 18.627 0 12C0 5.37296 5.37296 0 12 0C18.6284 0 24 5.37296 24 12Z" fill="#133534"/>
<path d="M5.9203 12.4032L5.97209 12.3218L9.09377 7.43837C9.13937 7.36685 9.24665 7.37427 9.28115 7.45192C9.80267 8.62072 10.2527 10.0743 10.0418 10.9792C9.95185 11.3515 9.70529 11.8558 9.42788 12.3218C9.39212 12.3897 9.35267 12.4562 9.31075 12.5203C9.29102 12.5499 9.25774 12.5672 9.22198 12.5672H6.01153C5.92524 12.5672 5.8747 12.4735 5.9203 12.4032Z" fill="white"/>
<path d="M19.8346 13.3106V14.0837C19.8346 14.128 19.8075 14.1675 19.7681 14.1847C19.5264 14.2883 18.6992 14.6681 18.3552 15.1464C17.4774 16.3682 16.8067 18.1152 15.3075 18.1152H9.05305C6.8363 18.1152 5.03998 16.3127 5.03998 14.0886V14.0171C5.03998 13.9579 5.08806 13.9098 5.14726 13.9098H8.63384C8.70288 13.9098 8.75344 13.9739 8.74728 14.0417C8.72262 14.2686 8.76454 14.5004 8.87179 14.7112C9.07894 15.1316 9.50798 15.3942 9.97155 15.3942H11.6976V14.0467H9.99126C9.90374 14.0467 9.85195 13.9456 9.90251 13.8741C9.92099 13.8457 9.94195 13.8161 9.96414 13.7828C10.1257 13.5535 10.3562 13.1972 10.5855 12.7916C10.7421 12.5179 10.8937 12.2257 11.0158 11.9323C11.0405 11.8793 11.0602 11.825 11.0799 11.772C11.1132 11.6783 11.1477 11.5908 11.1724 11.5032C11.197 11.4293 11.2168 11.3516 11.2365 11.2788C11.2944 11.0298 11.3191 10.766 11.3191 10.4922C11.3191 10.385 11.3142 10.2728 11.3043 10.1655C11.2994 10.0484 11.2846 9.93128 11.2698 9.81416C11.2599 9.71059 11.2414 9.60827 11.2217 9.50102C11.197 9.34443 11.1625 9.1891 11.123 9.03251L11.1095 8.97334C11.0799 8.86608 11.0553 8.76374 11.0207 8.65648C10.9233 8.3199 10.8111 7.99195 10.6928 7.68496C10.6496 7.56291 10.6003 7.44579 10.551 7.32867C10.4782 7.15235 10.4043 6.99208 10.3365 6.84043C10.302 6.77139 10.2724 6.70851 10.2428 6.6444C10.2095 6.57166 10.175 6.49894 10.1405 6.42987C10.1158 6.37686 10.0874 6.32755 10.0677 6.27824L9.85689 5.88864C9.82729 5.83563 9.87662 5.77275 9.93454 5.78878L11.2537 6.14632H11.2574C11.2599 6.14632 11.2612 6.14755 11.2624 6.14755L11.4362 6.19563L11.6273 6.24987L11.6976 6.2696V5.4855C11.6976 5.10699 12.0009 4.8 12.3757 4.8C12.5631 4.8 12.7332 4.87643 12.8553 5.00096C12.9773 5.1255 13.0538 5.29563 13.0538 5.4855V6.64934L13.1943 6.68878C13.2054 6.69248 13.2165 6.69742 13.2264 6.7048C13.2609 6.7307 13.3102 6.76894 13.3731 6.81576C13.4224 6.85523 13.4754 6.90331 13.5395 6.95262C13.6665 7.05496 13.8181 7.18688 13.9846 7.33851C14.029 7.37675 14.0721 7.41619 14.1116 7.45566C14.3261 7.65536 14.5665 7.88963 14.7958 8.14854C14.86 8.22126 14.9228 8.29523 14.9869 8.37291C15.051 8.45182 15.1189 8.5295 15.178 8.60718C15.2557 8.71072 15.3395 8.81798 15.4123 8.93019C15.4468 8.9832 15.4862 9.03744 15.5196 9.09046C15.6132 9.23224 15.6958 9.37896 15.7748 9.52566C15.808 9.59347 15.8426 9.66744 15.8721 9.74019C15.9597 9.93622 16.0287 10.136 16.0731 10.3357C16.0867 10.3788 16.0965 10.4257 16.1015 10.4676V10.4774C16.1162 10.5366 16.1212 10.5995 16.1261 10.6636C16.1458 10.8683 16.136 11.0729 16.0916 11.2788C16.0731 11.3664 16.0485 11.449 16.0189 11.5365C15.9893 11.6204 15.9597 11.7079 15.9215 11.7905C15.8475 11.9618 15.76 12.1332 15.6564 12.2935C15.6231 12.3527 15.5837 12.4156 15.5442 12.4747C15.501 12.5376 15.4567 12.5968 15.4172 12.6547C15.363 12.7287 15.305 12.8064 15.2458 12.8754C15.1928 12.9482 15.1386 13.0209 15.0794 13.085C14.9968 13.1824 14.9179 13.2749 14.8353 13.3637C14.786 13.4216 14.733 13.4808 14.6787 13.5338C14.6257 13.593 14.5714 13.646 14.5221 13.6953C14.4395 13.7779 14.3705 13.842 14.3125 13.895L14.1769 14.0196C14.1572 14.0368 14.1313 14.0467 14.1042 14.0467H13.0538V15.3942H14.3754C14.6713 15.3942 14.9524 15.2894 15.1793 15.0971C15.2569 15.0293 15.596 14.7358 15.9967 14.2933C16.0102 14.2785 16.0275 14.2674 16.0472 14.2624L19.6978 13.2071C19.7656 13.1873 19.8346 13.2391 19.8346 13.3106Z" fill="white"/>
</svg>
