<svg width="287" height="112" viewBox="0 0 287 112" fill="none" xmlns="http://www.w3.org/2000/svg">
<g clip-path="url(#clip0_151_187)">
<path d="M53.05 74.6901C76.75 58.4401 109.92 45.5701 116.05 42.8601C122.18 40.1501 149.49 28.6101 122.66 5.80011C115.05 -0.669886 123.8 -2.94989 135.96 5.42011C146.96 12.9801 160.88 33.2501 187.28 33.9301C213.68 34.6101 229.48 38.6801 240.7 63.5801C279.09 61.3001 292.11 67.3801 282.62 72.6601C282.62 72.6601 308.93 81.2901 218.29 91.6601C164.8 97.7501 82.87 65.2501 52.4 79.4701L53.05 74.6901Z" fill="#6A999E"/>
<path d="M184.71 33.88C203.07 37.94 215 42.39 233.18 50.7C233.18 50.7 223.78 32.17 184.71 33.88Z" fill="#88BCB7"/>
<path d="M62.8201 72.5201C80.8201 60.5201 220.31 7.89016 229.62 83.9202L222.97 88.4802C163.8 74.7702 125.1 70.7301 62.8201 72.5201Z" fill="#4F787A"/>
<path d="M210.71 70.2402C204 75.9502 196.16 61.7702 198.43 56.2402C200.7 50.7102 219.92 62.4102 210.71 70.2402Z" fill="#6A999E"/>
<path d="M222.78 71.0003C230.96 80.8703 279.49 72.7003 284.96 68.5103C284.96 68.5103 287.03 69.2803 283.96 71.5703L285.82 75.2803C257.71 83.7203 245.34 86.9502 223.95 85.8802L222.78 71.0003Z" fill="#4F787A"/>
<path d="M285.22 74.5102C203.77 101.41 186.31 71.1202 159.29 67.9502C138.19 65.4802 78.4801 57.2402 53.0301 74.6902L52.3501 79.4302C82.8201 65.2102 164.75 97.7102 218.24 91.6202C298.83 82.4302 285.65 75.5102 285.22 74.5102Z" fill="#436868"/>
<path d="M219.21 91.4801C208.35 89.4801 184.05 80.0801 99.22 78.0801C147.51 86.9601 191.44 95.7601 219.21 91.4801Z" fill="#64918A"/>
<path d="M181.44 83.92L178.87 91.33L161.48 89.76L166.75 80.5L181.44 83.92Z" fill="#436868"/>
<path d="M122.61 5.80029C149.34 28.5203 122.31 40.0603 116.08 42.8003C138.76 37.5103 152.43 40.6903 161.95 28.5803C149.4 21.8003 142.41 11.7103 135.15 6.72031C122.98 -1.61969 115.05 -0.669708 122.61 5.80029Z" fill="#436868"/>
<path d="M0.0500488 111.36C3.66005 97.1401 15.9801 86.4901 23.4301 81.0701C23.8369 76.9887 25.3093 73.0861 27.6997 69.7531C30.0902 66.4202 33.3147 63.7741 37.05 62.0801C40.28 64.1701 53.5901 70.4401 54.8301 75.2701C54.6201 82.9201 18.05 108.42 0.0500488 111.36Z" fill="#4F7577"/>
<path d="M4.05005 104.08C8.25005 91.2901 18.93 82.9101 26.05 78.4201C26.1893 74.6726 27.4344 71.0502 29.6285 68.009C31.8227 64.9678 34.8677 62.644 38.3801 61.3301C41.2101 63.4501 53.0001 70.0301 53.8301 74.5301C53.1401 81.5301 20.72 102.52 4.05005 104.08Z" fill="#6A999E"/>
<path d="M38.0501 61.4302C35.0501 68.9502 44.05 70.6102 42.59 78.3502C42.59 78.3502 50.5901 74.3502 50.7501 71.2302C50.8901 69.3202 45.79 65.7302 38.0501 61.4302Z" fill="#88BCB7"/>
<path d="M134.16 110.8C143.96 96.23 159.16 82.47 157.84 75.8C156.52 69.13 179.03 79.69 179.63 82.35C180.23 85.01 183.6 87.59 134.16 110.8Z" fill="#436868"/>
<path d="M140.05 108.08C148.6 95.3701 161.87 83.3601 160.7 77.5301C159.53 71.7001 179.2 80.9201 179.7 83.2401C180.2 85.5601 183.18 87.7801 140.05 108.08Z" fill="#6A999E"/>
<path d="M234.05 82.08C223.16 82.08 217.78 79.9099 215.14 78.8499C214.37 78.5299 213.88 77.14 215.44 77.77C220.53 79.77 237.67 85.6199 284.24 71.6899L284.55 73.5C261.65 80.32 244.46 82.08 234.05 82.08Z" fill="#223D3D"/>
<path d="M205.22 59.1802C201.54 61.4502 203.31 66.3902 207.05 68.0802C209.18 64.1402 208.36 62.0802 205.22 59.1802Z" fill="#365759"/>
<path d="M161.95 28.6104C145.81 47.4604 115.95 60.8603 103.01 62.3803C93.2901 63.5303 118.61 46.8604 116.08 42.8304L161.95 28.6104Z" fill="#4F787A"/>
<path d="M26.1901 73.23C32.8401 75.47 46.1201 74.91 24.1901 79.49L26.1901 73.23Z" fill="#4F7577"/>
<path d="M201.11 63.39C200.97 61.39 204.67 53.55 209.66 56.55C209.66 56.55 209.09 52.98 204.81 52.98C199.58 54.86 199.3 59.17 201.11 63.39Z" fill="#4F787A"/>
<path d="M209.78 63.79C210.29 65.73 208.06 74.11 202.61 72.07C202.61 72.07 203.82 75.47 208.03 74.69C212.84 71.9 212.33 67.61 209.78 63.79Z" fill="#4F787A"/>
<path d="M248.24 64.68C251.46 62.41 279.42 63.05 277.58 65.37C276.29 67.01 242.22 68.92 248.24 64.68Z" fill="#88BCB7"/>
<path d="M212.51 80.59C211.23 80.17 210.66 76.17 212.23 75.46C212.23 75.46 207.52 76.32 208.38 80.02L212.51 80.59Z" fill="#355655"/>
<path d="M127.97 35.88C136.1 31.46 143.97 25.18 134.97 28.61C134.97 28.61 145.09 22.76 135.68 25.33C135.68 25.33 143.81 16.33 133.68 20.62C133.94 26.58 132.54 31.3 127.97 35.88Z" fill="#355655"/>
</g>
<defs>
<clipPath id="clip0_151_187">
<rect width="286.27" height="111.35" fill="white"/>
</clipPath>
</defs>
</svg>
