<svg width="753" height="740" viewBox="0 0 753 740" fill="none" xmlns="http://www.w3.org/2000/svg">
<g clip-path="url(#clip0_108_2360)">
<path d="M97.6157 301.207C68.8899 321.233 56.4146 331.829 60.1896 352.599C63.9646 373.37 70.0241 380.142 72.6811 382.475C75.3382 384.808 80.6038 398.677 76.4562 410.44C72.6487 421.165 67.8854 417.957 64.7909 405.725C64.4993 404.607 64.2238 403.392 63.9808 402.128V401.885C61.0321 386.947 63.6568 381.714 63.6568 381.714C63.6568 381.714 45.1219 363.195 50.0311 335.231C53.0932 317.814 63.3489 311.625 73.5074 303.135C77.2363 300.103 80.6357 296.688 83.6498 292.944C84.9811 291.275 86.2041 289.521 87.3113 287.695C88.3902 285.917 89.364 284.078 90.2277 282.186C102.12 256.264 99.4789 235.784 99.4789 235.784L116.604 225.188C116.604 225.188 126.341 281.166 97.6157 301.207Z" fill="#FF6395"/>
<path opacity="0.2" d="M97.6157 301.207C68.8899 321.233 56.4145 331.829 60.1896 352.599C63.9646 373.37 70.024 380.142 72.6811 382.475C75.3382 384.808 80.6038 398.677 76.4561 410.44C72.6487 421.165 67.8854 417.957 64.7909 405.725C67.6424 403.829 71.4498 401.367 69.6514 392.196C66.9133 377.793 60.1572 373.419 56.1391 352.81C52.1211 332.201 65.6334 313.585 86.4202 299.911C107.207 286.237 107.402 269.128 107.402 269.128L99.4465 272.951C99.4465 272.951 95.5418 281.538 94.0837 283.709C92.198 285.621 89.856 287.021 87.2789 287.776C88.3578 285.998 89.3316 284.159 90.1953 282.267C102.087 256.345 99.4465 235.866 99.4465 235.866L116.572 225.27C116.572 225.27 126.341 281.166 97.6157 301.207Z" fill="#4E0E75"/>
<path d="M143.175 365.075C138.444 379.446 143.175 384.727 143.175 384.727C143.175 384.727 150.174 385.489 154.695 393.8C159.215 402.112 156.201 411.963 154.695 418.767C153.447 424.308 151.227 424.082 146.594 418.071C146.253 417.633 145.897 417.163 145.541 416.661C144.795 415.608 143.92 414.442 143.11 413.113C138.94 406.749 137.256 399.074 138.379 391.548C138.379 391.548 131.899 383.998 135.463 368.509C139.027 353.021 150.045 344.32 146.318 329.949C142.592 315.578 130.441 309.162 125.143 283.45C124.851 281.976 124.624 280.501 124.478 279.027C124.478 278.833 124.478 278.638 124.478 278.444C123.49 267.005 126.779 255.405 130.538 246.316C132.998 240.28 136.025 234.492 139.578 229.028C139.578 229.028 144.763 239.705 145.233 262.339C145.233 264.17 145.233 266.082 145.233 268.075C144.86 294.662 159.976 309.162 158.842 330.322C157.708 351.481 147.906 350.72 143.175 365.075Z" fill="#FF6395"/>
<path opacity="0.2" d="M143.175 365.075C138.444 379.446 143.175 384.727 143.175 384.727C143.175 384.727 150.174 385.489 154.695 393.8C159.215 402.112 156.201 411.963 154.695 418.767C153.366 424.713 150.903 424.001 145.605 416.645C147.128 413.583 150.466 410.261 149.429 404.785C147.955 397.122 140.486 394.562 138.477 378.7C136.468 362.839 144.309 358.448 150.596 342.943C156.882 327.438 147.776 304.658 147.776 304.658C147.776 304.658 140.842 301.175 141.62 294.791C142.397 288.408 135.917 286.415 133.179 285.492C130.441 284.568 127.719 273.81 127.719 273.81C127.719 273.81 126.098 275.835 124.478 278.428C123.49 266.989 126.779 255.389 130.538 246.299C132.401 247.288 134.41 249.669 136.289 251.16C139.569 254.615 142.56 258.332 145.233 262.274C145.233 264.105 145.233 266.017 145.233 268.01C144.86 294.597 159.976 309.098 158.842 330.257C157.708 351.417 147.906 350.72 143.175 365.075Z" fill="#4E0E75"/>
<path d="M198.893 105.393C195.863 112.586 186.418 120.136 186.418 120.136C186.418 120.136 184.797 171.075 182.416 175.66C181.59 177.28 175.352 178.56 166.976 179.127C160.501 179.564 154.003 179.532 147.533 179.03C145.006 178.835 142.462 178.544 140 178.187C130.846 176.842 122.664 174.283 118.403 170.086C105.555 157.19 100.921 151.989 100.921 151.989C99.5113 148.457 106.689 136.727 108.212 132.19C109.735 127.654 121.124 103.497 121.124 103.497C121.124 103.497 109.637 93.6787 116.701 74.3337C123.765 54.9888 158.923 29.7302 169.876 14.9866C172.774 10.9706 176.171 7.33928 179.986 4.18004C187.471 -1.71741 194.097 -1.99284 196.722 6.67511C200.497 19.1343 196.949 36.535 201.745 53.158C206.54 69.781 201.939 98.2151 198.893 105.393Z" fill="#FF6395"/>
<path opacity="0.2" d="M198.893 105.393C195.863 112.586 186.418 120.136 186.418 120.136C186.418 120.136 184.797 171.075 182.416 175.66C181.59 177.28 175.352 178.56 166.976 179.127C159.523 178.722 152.896 178.122 147.533 179.03C146.89 179.125 146.251 179.255 145.622 179.418C144.665 179.775 143.626 179.848 142.629 179.63C141.632 179.411 140.719 178.911 140 178.187C137.504 175.643 136.937 170.524 135.512 167.753C133.341 163.622 144.001 142.981 144.001 142.981C144.001 142.981 143.694 159.944 144.001 162.423C144.309 164.902 153.868 160.009 158.907 156.606C163.946 153.204 172.452 150.126 172.452 145.476C172.452 140.826 172.452 118.791 160.236 124.138C150.693 128.302 147.582 134.313 145.654 134.799C143.726 135.285 148.311 122.097 150.741 120.217C153.172 118.338 178.284 112.926 183.647 94.7642C189.01 76.602 182.513 52.9312 187.843 28.6933C191.635 11.4384 188.022 5.10355 179.937 4.39067C187.422 -1.50678 194.049 -1.7822 196.673 6.88575C200.448 19.3449 196.9 36.7456 201.696 53.3686C206.492 69.9917 201.939 98.2152 198.893 105.393Z" fill="#4E0E75"/>
<path d="M200.805 266.049C198.856 265.787 197.005 265.034 195.426 263.862C192.326 261.864 189.66 259.263 187.584 256.215C184.182 250.917 180.407 248.649 170.945 246.008C163.233 243.837 161.094 240.191 160.56 238.928C160.501 238.802 160.452 238.672 160.414 238.539C160.414 238.814 160.657 239.997 160.835 241.682C161.258 245.392 161.116 249.145 160.414 252.813C158.939 258.872 155.845 263.409 159.231 268.058C162.617 272.708 158.113 286.075 152.75 293.981C152.13 294.948 151.42 295.854 150.628 296.687C149.989 297.354 149.238 297.902 148.408 298.307C145.8 299.457 144.536 296.784 145.557 293.933C146.665 291.418 147.266 288.709 147.323 285.961C147.289 284.252 146.932 282.564 146.27 280.987C144.957 277.86 142.268 274.507 137.261 270.926C130.165 265.952 127.443 261.545 126.682 257.333C125.92 253.12 127.071 249.313 127.816 245.214C129.031 238.523 128.27 232.803 125.159 233.03C124.173 233.161 123.252 233.591 122.518 234.262L122.048 234.65L121.611 235.055C121.335 235.331 121.076 235.606 120.849 235.882C120.726 236.014 120.612 236.155 120.509 236.303C120.212 236.692 119.947 237.104 119.715 237.534C119.553 237.826 119.391 238.134 119.245 238.442V238.571L118.905 239.397C118.629 240.046 118.386 240.726 118.143 241.455C117.9 242.184 117.56 243.075 117.22 244.031C117.09 244.388 116.944 244.76 116.782 245.133L116.426 245.975C115.348 248.392 113.995 250.675 112.392 252.78C111.971 253.347 111.533 253.882 111.112 254.4C110.901 254.66 110.691 254.919 110.464 255.162C108.309 257.633 105.91 259.881 103.303 261.869L102.363 262.598C100.888 263.716 99.4789 264.753 98.199 265.839L97.2917 266.616C96.9839 266.892 96.6922 267.151 96.4168 267.427C96.1414 267.702 95.8821 267.945 95.6391 268.22C95.1654 268.73 94.7269 269.271 94.3268 269.841C93.7972 270.566 93.3515 271.348 92.9982 272.174C92.9982 272.352 92.8362 272.514 92.7714 272.692C92.7066 272.87 92.5446 273.275 92.4474 273.567C92.1196 274.534 91.8437 275.519 91.6211 276.516C91.6211 276.759 91.5077 277.018 91.4591 277.261C91.3133 277.942 91.1836 278.606 91.0702 279.238L90.973 279.74C90.8286 280.554 90.6393 281.36 90.406 282.154C90.3699 282.27 90.3266 282.384 90.2763 282.494L90.1467 282.786C90.0975 282.898 90.032 283.001 89.9523 283.094L89.7579 283.304C89.635 283.413 89.4918 283.495 89.3366 283.547C89.2036 283.58 89.0646 283.58 88.9316 283.547C88.7132 283.524 88.5029 283.452 88.3159 283.337C84.9135 281.441 82.2727 274.653 85.675 265.191C88.7756 256.996 89.5548 248.104 87.9271 239.495C86.4365 232.042 93.7597 219.437 93.9703 219.097L92.982 219.842C90.4221 221.689 83.261 226.193 76.9747 224.378C69.0358 222.094 66.7676 217.898 61.0969 218.692C55.4263 219.485 45.608 223.99 37.2965 221.349C34.1534 220.36 32.436 218.918 31.9175 217.444C31.0426 215.014 33.2947 212.454 37.2965 211.514C43.7772 210.007 45.2354 198.666 53.4983 194.13C61.7612 189.593 78.4652 191.489 82.2403 189.593C86.0153 187.698 86.0153 182.027 87.8947 170.686C89.3366 162.083 96.2224 157.838 99.6248 153.966C100.011 153.544 100.358 153.089 100.662 152.605L100.921 152.183L101.051 151.94C101.182 151.665 101.285 151.377 101.358 151.082C101.408 150.962 101.441 150.837 101.456 150.709C101.465 150.569 101.465 150.428 101.456 150.288C104.179 148.765 107.247 147.966 110.367 147.966C113.486 147.966 116.554 148.765 119.278 150.288C120.334 150.91 121.313 151.655 122.194 152.507C122.34 152.637 122.469 152.783 122.599 152.912C122.729 153.042 123.215 153.577 123.506 153.917C123.798 154.257 124.154 154.727 124.446 155.148C124.642 155.398 124.826 155.658 124.997 155.926C125.321 156.412 125.629 156.914 125.936 157.416L126.374 158.178C127.54 160.219 128.577 162.358 129.76 164.351C129.89 164.598 130.036 164.836 130.198 165.064C131.659 167.629 133.793 169.747 136.37 171.188L137.018 171.496L137.78 171.82C147.614 175.611 154.808 166.538 163.865 162.763C172.922 158.988 179.37 166.927 179.37 166.927L179.807 167.915C179.807 168.093 179.953 168.272 180.034 168.482C180.293 169.098 180.601 169.892 180.941 170.815C181.152 171.366 181.379 171.949 181.59 172.598C181.62 172.703 181.658 172.806 181.703 172.905C181.811 173.229 181.924 173.57 182.043 173.926L182.562 175.546C182.837 176.454 183.113 177.409 183.356 178.398C183.501 178.932 183.631 179.467 183.761 180.018C183.955 180.86 184.133 181.638 184.279 182.578C184.36 182.983 184.425 183.404 184.49 183.809C184.554 184.214 184.619 184.635 184.668 185.057C185.802 194.13 185.041 199.055 182.772 205.471C182.496 206.231 182.301 207.019 182.189 207.82C179.564 218.449 194.033 234.197 197.662 244.695C199.237 249.205 200.429 253.839 201.226 258.548C201.323 259.002 201.388 259.455 201.437 259.877C201.599 261.075 201.728 262.161 201.777 263.117C201.745 264.964 201.55 266.049 200.805 266.049Z" fill="#F883E3"/>
<path opacity="0.2" d="M125.207 232.998C124.222 233.128 123.3 233.558 122.566 234.229C117.285 238.393 119.18 243.675 112.376 252.748C105.571 261.821 98.3772 264.089 94.2133 269.76C90.0495 275.43 91.5724 285.248 88.1701 283.369C87.9108 274.037 86.5499 274.782 89.4176 267.994C92.2853 261.205 102.006 255.389 99.5113 247.288C97.0162 239.187 108.325 226.793 116.637 225.156C124.948 223.52 126.26 228.299 125.207 232.998Z" fill="#4E0E75"/>
<path opacity="0.2" d="M160.414 252.813C158.939 258.872 155.845 263.409 159.231 268.058C162.617 272.708 158.113 286.075 152.75 293.981C152.13 294.948 151.42 295.854 150.628 296.687C149.989 297.354 149.238 297.902 148.408 298.307C148.408 298.307 148.927 296.59 149.688 293.917C150.239 291.989 150.903 289.558 151.6 286.934C152.436 283.3 152.32 279.512 151.265 275.936C150.209 272.36 148.248 269.116 145.573 266.519C145.441 266.403 145.316 266.279 145.2 266.147C143.637 264.163 142.827 261.688 142.916 259.164C142.705 254.546 143.791 249.151 143.758 245.182C143.8 243.92 143.585 242.664 143.127 241.488C142.815 240.837 142.67 240.118 142.705 239.398C142.851 234.699 149.834 229.968 152.216 231.653C154.938 233.581 157.384 234.893 158.696 236.141C159.183 236.435 159.597 236.833 159.911 237.306C160.225 237.78 160.43 238.317 160.511 238.879C160.452 238.754 160.403 238.624 160.365 238.49C160.365 238.766 160.608 239.948 160.786 241.633C161.231 245.357 161.105 249.127 160.414 252.813Z" fill="#4E0E75"/>
<path opacity="0.2" d="M200.805 266.049C198.856 265.787 197.005 265.034 195.426 263.862C197.208 259.164 189.269 245.765 186.369 240.418C183.469 235.072 176.21 225.399 169.519 223.277C162.828 221.154 147.096 224.362 148.457 220.976C149.818 217.59 170.345 215.16 175.206 204.531C177.199 200.157 177.474 193.789 176.632 187.86C176.437 186.454 176.172 185.059 175.838 183.68C175.409 181.847 174.829 180.054 174.104 178.317C172.484 174.558 170.362 172.111 168.093 172.419C162.682 173.181 155.634 177.28 147.371 178.9C145.864 179.21 144.338 179.421 142.802 179.532H141.717C138.291 179.77 134.905 178.686 132.255 176.502C128.367 173.262 126.098 167.996 123.474 163.184C119.796 156.363 109.751 152.912 102.411 153.463C101.439 153.52 100.473 153.666 99.5275 153.901C99.9134 153.479 100.26 153.024 100.564 152.54L100.824 152.119L100.953 151.875C101.084 151.6 101.187 151.313 101.261 151.017C101.311 150.898 101.343 150.772 101.358 150.644C101.367 150.504 101.367 150.363 101.358 150.223C104.081 148.7 107.149 147.901 110.269 147.901C113.389 147.901 116.457 148.7 119.18 150.223C120.237 150.845 121.215 151.59 122.097 152.443C122.242 152.572 122.372 152.718 122.502 152.848C122.631 152.977 123.117 153.512 123.409 153.852C123.745 154.245 124.059 154.656 124.349 155.083C124.545 155.333 124.729 155.593 124.899 155.861C125.223 156.347 125.531 156.849 125.839 157.352L126.277 158.113C127.443 160.155 128.48 162.293 129.663 164.286C129.792 164.529 129.938 164.756 130.1 164.999C131.561 167.565 133.696 169.682 136.273 171.123L136.921 171.431L137.683 171.755C147.517 175.546 154.711 166.473 163.768 162.698C172.824 158.923 179.273 166.862 179.273 166.862L179.71 167.85L179.937 168.417C180.196 169.033 180.504 169.827 180.844 170.751C181.055 171.301 181.265 171.901 181.492 172.533C181.523 172.638 181.561 172.741 181.606 172.841C181.714 173.165 181.827 173.505 181.946 173.861L182.464 175.481C182.74 176.389 183.015 177.345 183.258 178.333C183.404 178.868 183.534 179.402 183.663 179.953C183.858 180.796 184.036 181.573 184.182 182.513C184.263 182.918 184.328 183.339 184.392 183.744C184.457 184.149 184.522 184.571 184.571 184.992C185.705 194.065 184.943 198.99 182.675 205.406C182.399 206.167 182.203 206.954 182.092 207.755C179.467 218.384 193.935 234.132 197.564 244.631C199.14 249.14 200.332 253.774 201.129 258.483C201.226 258.937 201.291 259.39 201.339 259.812C201.501 261.011 201.631 262.096 201.68 263.052C201.745 264.964 201.55 266.049 200.805 266.049Z" fill="#4E0E75"/>
<path d="M108.163 172.5C108.091 173.343 107.775 174.146 107.254 174.812C106.734 175.478 106.031 175.978 105.231 176.252C104.431 176.525 103.568 176.56 102.749 176.352C101.929 176.144 101.188 175.702 100.615 175.081C100.043 174.459 99.663 173.684 99.5228 172.85C99.3827 172.016 99.4881 171.16 99.8261 170.385C100.164 169.61 100.72 168.95 101.427 168.486C102.133 168.021 102.959 167.773 103.805 167.769C104.402 167.792 104.989 167.933 105.532 168.184C106.075 168.434 106.562 168.789 106.967 169.229C107.372 169.669 107.687 170.184 107.892 170.745C108.097 171.307 108.189 171.903 108.163 172.5Z" fill="#44034F"/>
<path d="M176.81 186.661C176.741 187.505 176.427 188.31 175.907 188.979C175.388 189.647 174.684 190.15 173.884 190.426C173.083 190.701 172.219 190.737 171.398 190.529C170.577 190.322 169.834 189.88 169.26 189.257C168.687 188.634 168.307 187.857 168.168 187.022C168.028 186.187 168.135 185.329 168.475 184.553C168.815 183.778 169.374 183.118 170.083 182.655C170.792 182.192 171.621 181.946 172.468 181.946C173.667 182.001 174.796 182.527 175.609 183.41C176.422 184.293 176.854 185.461 176.81 186.661Z" fill="#44034F"/>
<path d="M143.175 209.683C140.841 210.793 138.29 211.368 135.706 211.368C133.122 211.368 130.571 210.793 128.237 209.683C124.854 207.98 122.209 205.099 120.8 201.583C118.532 196.171 119.18 190.063 121.594 187.406C121.889 187.091 122.221 186.814 122.583 186.58C127.443 183.566 134.669 186.58 134.669 186.58C140.81 189.496 146.675 191.019 149.445 196.139C149.929 197.063 150.299 198.042 150.547 199.055C151.551 203.154 148.165 207.415 143.175 209.683Z" fill="#CC0A6B"/>
<path d="M149.445 196.22C144.449 196.839 139.377 196.38 134.573 194.874C129.768 193.367 125.343 190.849 121.594 187.487C121.889 187.172 122.221 186.894 122.583 186.661C127.443 183.647 134.669 186.661 134.669 186.661C140.81 189.577 146.675 191.1 149.445 196.22Z" fill="white"/>
<path d="M143.175 209.683C140.841 210.792 138.29 211.368 135.706 211.368C133.122 211.368 130.571 210.792 128.237 209.683C124.854 207.98 122.209 205.099 120.801 201.583C122.306 199.88 124.283 198.664 126.481 198.087C128.679 197.51 130.999 197.599 133.146 198.342C138.558 199.833 141.571 205.179 143.175 209.683Z" fill="#E761FF"/>
<path d="M128.61 67.9664C123.069 78.8216 122.129 84.1682 125.207 89.7092C128.286 95.2502 135.415 96.3357 138.072 89.7092C140.729 83.0827 140.243 78.935 141.62 71.7577C142.997 64.5803 131.575 62.1824 128.61 67.9664Z" fill="#9518AB"/>
<path d="M143.175 79.5021C141.555 85.6264 138.833 90.2763 143.175 92.9172C147.517 95.5581 152.054 95.5743 155.083 89.6768C158.113 83.7794 153.609 75.8729 152.264 74.7388C150.92 73.6047 144.957 72.3409 143.175 79.5021Z" fill="#9518AB"/>
<path d="M143.175 55.4911C143.062 63.43 142.608 70.9962 146.415 69.8621C150.223 68.728 155.991 68.6632 158.956 64.7261C161.921 60.7891 159.425 55.88 156.137 52.4776C152.848 49.0752 143.272 48.2975 143.175 55.4911Z" fill="#9518AB"/>
<path opacity="0.2" d="M182.011 17.903C176.907 13.7229 126.649 56.2526 121.594 79.4697C116.539 102.687 131.218 111.792 140.858 106.624C150.498 101.456 154.241 76.7316 158.923 64.8071C163.606 52.8826 187.341 22.2613 182.011 17.903Z" fill="#FFD1F7"/>
<path opacity="0.2" d="M121.594 113.882C117.042 122.129 107.353 138.606 112.683 139.092C118.014 139.578 121.756 142.495 125.207 143.467C128.658 144.439 129.274 138.606 132.611 131.834C135.949 125.061 125.45 106.932 121.594 113.882Z" fill="#FFD1F7"/>
<path opacity="0.2" d="M95.7201 214.722C94.8615 216.132 93.9542 217.963 92.8362 219.939C90.2764 221.786 83.1152 226.29 76.8289 224.476C68.89 222.207 66.6218 217.995 60.9511 218.789C55.2805 219.583 45.4622 224.087 37.1507 221.446C34.0076 220.458 32.2902 219.016 31.7717 217.541C38.9815 218.675 53.0771 208.89 56.9169 207.043C60.7567 205.196 72.4382 208.42 83.6822 204.596C94.9263 200.772 98.6203 209.878 95.7201 214.722Z" fill="#4E0E75"/>
<path d="M104.032 170.848C104.032 171.277 103.861 171.69 103.557 171.993C103.253 172.297 102.841 172.468 102.411 172.468C101.982 172.468 101.57 172.297 101.266 171.993C100.962 171.69 100.791 171.277 100.791 170.848C100.791 170.418 100.962 170.006 101.266 169.702C101.57 169.398 101.982 169.228 102.411 169.228C102.841 169.228 103.253 169.398 103.557 169.702C103.861 170.006 104.032 170.418 104.032 170.848Z" fill="white"/>
<path d="M172.792 185.316C172.792 185.636 172.697 185.95 172.519 186.216C172.341 186.483 172.088 186.69 171.792 186.813C171.496 186.935 171.17 186.968 170.856 186.905C170.541 186.843 170.253 186.688 170.026 186.462C169.799 186.235 169.645 185.946 169.583 185.632C169.52 185.318 169.552 184.992 169.675 184.696C169.797 184.4 170.005 184.147 170.272 183.969C170.538 183.791 170.851 183.696 171.172 183.696C171.601 183.696 172.013 183.866 172.317 184.17C172.621 184.474 172.792 184.886 172.792 185.316Z" fill="white"/>
<path opacity="0.2" d="M105.279 157.19C102.314 153.512 94.0676 159.571 90.0333 170.848C85.9991 182.124 88.4132 188.248 91.6535 189.966C94.8939 191.683 97.6644 187.228 96.6599 183.68C95.6554 180.131 96.7733 168.871 99.56 165.598C102.347 162.326 108.163 160.786 105.279 157.19Z" fill="#FFE0FA"/>
<path opacity="0.2" d="M83.6984 193.741C86.3555 196.981 80.296 201.226 75.9054 199.59C71.5147 197.953 60.9511 195.863 57.6784 199.995C54.3865 203.787 50.2605 206.765 45.6242 208.695C43.2588 209.44 47.455 205.05 50.4848 201.226C53.5145 197.402 59.0717 193.012 62.3445 193.741C65.6172 194.47 81.6246 191.197 83.6984 193.741Z" fill="#FFE0FA"/>
<path opacity="0.2" d="M100.743 217.282C107.483 219.129 107.515 222.742 103.983 226.76C100.451 230.778 93.7436 235.509 95.0073 241.342C96.2711 247.174 95.5582 252.278 93.0145 255.016C90.4708 257.754 90.2926 264.429 87.8785 264.85C85.4645 265.272 90.6328 254.66 90.8273 252.829C91.0217 250.998 89.9038 242.427 90.0982 238.247C90.2926 234.067 96.8219 216.18 100.743 217.282Z" fill="#FFE0FA"/>
<path opacity="0.2" d="M133.26 230.049C138.525 231.945 141.765 240.256 138.477 243.902C135.188 247.547 134.086 255.761 136.549 259.228C139.011 262.696 141.944 266.519 144.309 269.986C146.675 273.454 146.496 277.293 144.309 274.377C142.122 271.461 134.799 266.519 133.26 263.036C131.72 259.553 127.719 250.82 129.533 244.809C131.348 238.798 130.667 229.109 133.26 230.049Z" fill="#FFE0FA"/>
<path opacity="0.4" d="M53.482 331.278C48.0706 355.354 55.5073 364.103 64.8233 381.066C66.4435 384.015 64.5641 393.736 64.4668 398.774C64.459 399.83 64.2952 400.878 63.9808 401.885C61.0321 386.947 63.6568 381.714 63.6568 381.714C63.6568 381.714 45.1219 363.195 50.0311 335.231C53.0932 317.814 63.3489 311.625 73.5074 303.135C65.4552 311.171 55.7017 321.362 53.482 331.278Z" fill="#FFE0FA"/>
<path d="M87.3437 287.727C87.1817 288.942 85.7235 290.725 83.6821 292.977C85.0135 291.307 86.2365 289.553 87.3437 287.727Z" fill="#FFE0FA"/>
<path opacity="0.4" d="M146.027 416.953C146.286 417.29 146.499 417.66 146.659 418.054C146.318 417.617 145.962 417.147 145.605 416.645C144.86 415.592 143.985 414.425 143.175 413.097C139.005 406.733 137.321 399.057 138.444 391.532C138.444 391.532 131.964 383.982 135.528 368.493C139.092 353.004 150.109 344.304 146.383 329.933C142.657 315.562 130.505 309.146 125.207 283.434C124.916 281.959 124.689 280.485 124.543 279.011C126.909 287.695 141.895 313.747 147.226 321.135C152.783 328.766 150.32 337.71 144.309 350.655C138.298 363.6 136.208 378.328 137.326 384.954C138.444 391.581 141.458 393.347 141.604 394.432C141.749 395.518 143.191 413.194 146.027 416.953Z" fill="#FFE0FA"/>
<path d="M451.139 381.439C449.656 384.745 447.44 387.671 444.658 389.993C433.317 399.811 419.934 393.963 403.684 375.314C390.414 360.085 389.961 347.966 390.722 342.7C390.824 341.856 391.014 341.025 391.289 340.221C391.833 339.376 392.525 338.635 393.331 338.034C398.483 333.449 411.768 323.825 416.386 320.504L418.006 319.353C418.006 319.353 418.654 319.904 419.626 320.876C423.125 324.113 426.299 327.684 429.104 331.537C429.947 332.736 430.903 334.324 431.972 336.106L433.219 338.245C436.152 343.219 439.7 349.327 443.038 354.252C444.182 355.949 445.432 357.572 446.78 359.112C447.056 359.436 447.315 359.728 447.59 360.02C449.59 362.196 451.067 364.799 451.909 367.632C452.751 370.465 452.936 373.452 452.451 376.367C452.24 378.108 451.799 379.814 451.139 381.439Z" fill="#9BBC3E"/>
<path d="M432.069 336.106C427.565 339.751 420.177 344.207 415.365 338.633C408.884 331.262 413.243 328.005 419.723 320.811C423.222 324.048 426.396 327.619 429.201 331.472C430.044 332.736 431 334.324 432.069 336.106Z" fill="#E6DD7A"/>
<path d="M433.317 338.309C436.249 343.283 439.797 349.391 443.135 354.317C439.149 357.233 431.794 361.073 429.169 352.421C428.245 349.936 428.149 347.219 428.897 344.676C429.644 342.132 431.195 339.899 433.317 338.309Z" fill="#E6DD7A"/>
<path d="M452.58 376.384C447.947 376.87 439.311 376.837 439.02 370.065C438.728 363.293 443.88 360.344 446.877 359.129C447.153 359.453 447.412 359.744 447.688 360.036C449.693 362.209 451.175 364.811 452.023 367.644C452.871 370.477 453.062 373.466 452.58 376.384Z" fill="#E6DD7A"/>
<path opacity="0.4" d="M451.139 381.438C449.656 384.745 447.44 387.67 444.658 389.993C433.317 399.811 419.934 393.962 403.684 375.314C390.414 360.084 389.961 347.966 390.722 342.7C391.597 341.08 392.472 339.46 393.331 338.034C398.693 328.88 403.748 322.901 406.665 321.929C409.849 321.129 413.106 320.651 416.386 320.504L418.33 320.39C418.603 320.759 418.847 321.149 419.059 321.557C421.878 326.709 420.015 333.319 417.552 340.448C415.365 346.929 412.611 353.831 412.4 360.554C411.914 375.282 430.125 391.127 440.429 386.672C444.544 384.922 448.206 383.042 451.139 381.438Z" fill="#104718"/>
<path d="M351.562 415.608C350.486 416.972 349.208 418.163 347.771 419.14C345.953 420.491 343.713 421.152 341.453 421.003C335.685 420.096 315.902 409.37 313.569 381.989C311.236 354.608 341.647 363.033 341.647 363.033C342.627 363.788 343.529 364.64 344.336 365.577C347.546 369.268 350.1 373.482 351.886 378.036C352.647 379.858 353.312 381.718 353.879 383.609C353.948 383.788 354.002 383.973 354.041 384.16C354.766 386.585 355.366 389.046 355.84 391.532C356.614 395.397 356.8 399.358 356.391 403.278C356.391 403.635 356.391 403.959 356.277 404.283C355.745 408.411 354.117 412.322 351.562 415.608Z" fill="#9BBC3E"/>
<path d="M353.863 383.674C347.982 385.295 337.143 387.19 335.798 379.348C334.453 371.507 340.853 367.262 344.32 365.642C348.784 370.881 352.041 377.037 353.863 383.674Z" fill="#E6DD7A"/>
<path d="M347.528 395.68C345.908 390.09 350.493 386.234 354.009 384.177C354.733 386.602 355.333 389.062 355.807 391.548C356.582 395.414 356.768 399.374 356.358 403.295C354.276 403.104 352.306 402.268 350.723 400.902C349.14 399.537 348.023 397.711 347.528 395.68Z" fill="#E6DD7A"/>
<path d="M351.562 415.608C350.486 416.972 349.208 418.163 347.771 419.14C347.23 417.896 347.083 416.517 347.35 415.187C347.494 414.422 347.728 413.677 348.047 412.967C349.686 409.205 352.593 406.138 356.261 404.299C355.731 408.42 354.109 412.325 351.562 415.608Z" fill="#E6DD7A"/>
<path opacity="0.4" d="M351.562 415.608C350.486 416.972 349.208 418.163 347.771 419.14C345.953 420.491 343.713 421.152 341.452 421.003C335.685 420.096 315.902 409.37 313.569 381.989C311.236 354.608 341.647 363.033 341.647 363.033C342.627 363.788 343.529 364.64 344.336 365.577C347.546 369.268 350.1 373.482 351.886 378.036C344.093 381.762 333.141 384.857 332.136 391.354C330.905 399.455 337.645 414.701 347.366 415.171C348.772 415.237 350.173 415.383 351.562 415.608Z" fill="#104718"/>
<path d="M411.136 341.404C403.894 350.493 392.537 359.112 374.456 365.512C340.853 377.437 299.069 368.995 283.515 365.123L281.295 364.54C281.605 361.87 282.092 359.223 282.754 356.617C282.773 356.486 282.8 356.356 282.835 356.228C283.638 353.17 284.723 350.192 286.075 347.334C291.114 336.916 297.854 328.864 311.674 321.897C321.243 317.351 331.247 313.785 341.534 311.252C354.44 308.079 367.879 307.72 380.936 310.199C398.872 313.294 413.794 319.92 421.02 322.529C418.918 329.376 415.567 335.776 411.136 341.404Z" fill="#F07E26"/>
<path opacity="0.1" d="M411.136 341.404C403.894 350.493 392.537 359.112 374.456 365.512C340.853 377.437 299.069 368.996 283.515 365.123C282.745 362.358 282.487 359.475 282.753 356.617C282.867 354.09 283.207 351.255 283.677 348.014C286.059 331.488 313.035 317.231 313.035 317.231C312.44 318.727 312 320.279 311.722 321.865C310.459 328.556 310.572 341.08 325.542 349.732C344.045 360.425 378.409 324.117 380.985 310.167C398.92 313.261 413.842 319.888 421.068 322.496C418.956 329.359 415.588 335.77 411.136 341.404Z" fill="#7A062D"/>
<path d="M421.1 322.529C408.949 318.122 375.006 302.39 341.614 311.188C305.792 320.714 293.965 331.164 286.156 347.269C283.57 352.687 281.926 358.505 281.295 364.475C278.735 363.795 277.309 363.357 277.309 363.357C274.707 359.942 272.596 356.179 271.039 352.178C262.096 330.192 263.489 295.585 282.024 270.424C287.149 263.448 293.474 257.441 300.705 252.683C302.568 251.452 304.496 250.301 306.505 249.232C323.326 240.45 342.567 237.439 361.267 240.661C366.032 241.563 370.699 242.925 375.201 244.728C404.85 256.604 419.61 283.742 419.61 283.742C419.61 283.742 422.704 286.577 424.017 293.738C424.561 296.795 424.741 299.906 424.551 303.006C424.551 304.156 424.389 305.371 424.243 306.651C423.699 312.031 422.646 317.347 421.1 322.529Z" fill="#B53F09"/>
<path d="M379.51 298.809H360.749C360.749 298.809 351.822 291.065 348.597 287.727C347.658 286.846 346.558 286.153 345.357 285.686C340.302 283.531 331.602 282.446 325.558 284.568C324.343 285.006 323.161 285.411 321.994 285.799C315.724 287.954 310.151 290.19 305.096 298.161C299.085 307.639 296.217 322.934 296.217 322.934L281.101 336.155C281.101 336.155 289.898 302.131 290.401 296.59C290.854 291.632 285.248 288.068 282.057 270.489C287.181 263.513 293.507 257.506 300.737 252.748C301.693 262.939 303.151 276.5 305.517 277.391C307.466 277.759 309.46 277.83 311.431 277.601C321.054 277.083 338.893 274.264 344.385 271.25C349.019 268.674 356.553 252.181 361.3 240.726C366.065 241.628 370.731 242.989 375.233 244.793C369.806 254.352 362.985 267.475 361.883 275.187C361.509 278.052 362.035 280.963 363.39 283.515C367.764 292.475 379.51 298.809 379.51 298.809Z" fill="#7A062D"/>
<path opacity="0.5" d="M421.1 322.529C408.949 318.122 375.006 302.39 341.614 311.188C305.792 320.714 293.965 331.164 286.156 347.269C283.57 352.687 281.926 358.505 281.295 364.475C278.735 363.795 277.309 363.357 277.309 363.357C274.707 359.942 272.596 356.179 271.039 352.178C262.096 330.192 263.489 295.585 282.024 270.424C287.149 263.448 293.474 257.441 300.705 252.683C302.568 251.452 304.496 250.301 306.505 249.232C304.88 253.979 304.473 259.059 305.323 264.005C306.172 268.95 308.25 273.603 311.366 277.536C314.167 281.088 317.794 283.902 321.929 285.735C324.364 286.826 326.978 287.463 329.641 287.614C334.932 287.805 340.218 287.132 345.292 285.621C351.144 283.919 357.236 283.185 363.325 283.45C367.222 283.668 371.099 284.166 374.925 284.941C400.006 289.801 408.69 294.905 419.837 295.391C420.605 295.45 421.378 295.336 422.096 295.055C422.814 294.775 423.459 294.336 423.984 293.771C424.529 296.828 424.708 299.939 424.519 303.038C424.519 304.188 424.357 305.403 424.211 306.683C423.675 312.051 422.633 317.357 421.1 322.529Z" fill="#7A062D"/>
<path d="M365.107 358.756C363.454 361.089 361.759 363.249 360.02 365.237C359.156 366.187 358.297 367.111 357.444 368.007C354.232 371.357 350.669 374.35 346.815 376.934C342.587 379.837 337.857 381.93 332.866 383.107C326.061 384.549 320.293 383.253 316.923 379.284C308.595 369.563 317.668 353.571 332.25 335.539C346.038 318.462 342.23 304.14 341.777 302.633V302.487L342.246 302.39C349.046 301.096 355.974 300.607 362.887 300.932C375.476 301.385 378.085 302.001 378.085 302.001C378.499 306.2 378.618 310.423 378.441 314.639C378.441 315.287 378.441 315.935 378.36 316.615C377.995 324.429 376.661 332.168 374.391 339.654C374.212 340.286 374.002 340.902 373.791 341.517C371.766 347.662 368.84 353.472 365.107 358.756Z" fill="#9BBC3E"/>
<path d="M357.444 368.007C349.213 376.529 340.399 381.503 332.865 383.107C329.447 377.064 325.202 366.646 332.963 361.85C341.955 356.293 353.215 364.443 357.444 368.007Z" fill="#E6DD7A"/>
<path d="M360.992 324.068C363.568 315.627 372.673 314.444 378.393 314.606C378.154 323.087 376.792 331.499 374.342 339.622C368.477 337.645 359.76 333.4 360.603 325.964C360.675 325.321 360.805 324.687 360.992 324.068Z" fill="#E6DD7A"/>
<path d="M365.107 358.756C363.455 361.089 361.759 363.249 360.02 365.237C354.738 360.376 346.945 351.336 353.928 343.753C360.409 336.77 368.672 339.006 373.743 341.485C371.736 347.638 368.826 353.459 365.107 358.756Z" fill="#E6DD7A"/>
<path opacity="0.4" d="M346.815 376.934C342.587 379.837 337.857 381.93 332.866 383.107C326.061 384.549 320.293 383.253 316.923 379.284C308.595 369.563 317.668 353.571 332.25 335.539C346.038 318.462 342.23 304.14 341.777 302.633L342.198 302.39C348.997 301.096 355.925 300.607 362.839 300.932C375.428 301.385 378.036 302.001 378.036 302.001C378.451 306.2 378.57 310.423 378.393 314.639C378.393 315.287 378.393 315.935 378.312 316.615C367.764 315.659 361.089 317.749 348.792 332.817C333.433 351.757 322.545 364.151 330.597 372.706C334.632 377.015 341.209 377.501 346.815 376.934Z" fill="#186923"/>
<path d="M423.401 323.29C422.753 323.112 421.975 322.853 421.1 322.529C408.949 318.122 375.006 302.39 341.614 311.187C305.792 320.714 293.965 331.164 286.156 347.269C283.57 352.687 281.926 358.505 281.295 364.475C280.469 371.231 280.663 375.168 276.872 374.002C270.489 372.041 269.581 363.276 269.581 363.276C269.78 359.545 270.268 355.834 271.039 352.178C277.212 322.885 300.624 310.053 334.955 297.691C373.321 283.871 421.619 301.677 421.619 301.677C422.621 302.062 423.601 302.506 424.551 303.006C439.927 311.042 432.361 325.85 423.401 323.29Z" fill="#FBC634"/>
<path d="M486.961 307.931C483.72 311.171 481.371 306.602 476.267 309.551C474.012 310.935 472.123 312.841 470.759 315.108C470.03 316.249 469.417 317.459 468.928 318.721C468.928 318.721 456.696 321.767 454.93 310.621C453.164 299.474 455.902 294.759 460.73 294.419C465.558 294.078 485.519 300.608 485.519 300.608C486.761 301.28 487.797 302.277 488.516 303.492C488.127 305.014 487.607 306.499 486.961 307.931Z" fill="#668510"/>
<path d="M486.961 307.931C486.308 306.573 485.219 305.473 483.869 304.807C482.518 304.14 480.982 303.945 479.508 304.253C474.566 305.387 462.334 304.253 458.964 299.992C458.915 299.931 458.872 299.866 458.834 299.798L458.672 299.571V299.474C458.672 299.944 459.58 309.6 464.505 312.338C466.535 313.414 468.648 314.324 470.824 315.06C474.469 316.307 477.677 317.069 477.677 317.069C477.099 319.412 476.165 321.652 474.907 323.712C474.494 324.405 474.045 325.075 473.562 325.721C470.321 329.965 451.139 330.84 442.228 324.603C433.317 318.365 414.377 322.108 414.377 322.108C414.377 322.108 406.94 322.108 403.035 310.621C399.131 299.134 404.866 287.646 404.866 287.646C411.687 283.693 418.379 267.848 433.835 259.569C435.551 258.656 437.339 257.887 439.182 257.268C455.27 251.776 479.33 254.822 486.442 272.887C487.353 275.193 488.105 277.558 488.694 279.967C490.672 287.727 490.633 295.864 488.581 303.605C488.165 305.091 487.623 306.538 486.961 307.931Z" fill="#9BBC3E"/>
<path opacity="0.4" d="M462.707 257.9C455.886 257.3 450.604 258.613 449.745 263.117C448.886 267.621 456.226 272.465 464.116 270.991C472.006 269.517 474.502 283.077 480.026 278.719C485.551 274.361 478.795 259.309 462.707 257.9Z" fill="#E2FF8C"/>
<path d="M442.341 285.929C442.093 285.84 441.87 285.691 441.692 285.497C441.514 285.302 441.387 285.066 441.32 284.811C441.239 284.519 439.327 277.536 442.114 273.259C442.678 272.398 443.425 271.671 444.301 271.131C445.178 270.59 446.162 270.249 447.185 270.132C448.216 269.907 449.286 269.937 450.302 270.219C451.319 270.502 452.251 271.028 453.018 271.752C456.096 274.815 455.367 280.663 455.27 281.328C455.242 281.541 455.172 281.747 455.064 281.933C454.955 282.12 454.811 282.282 454.639 282.412C454.467 282.542 454.271 282.636 454.062 282.689C453.853 282.742 453.636 282.753 453.423 282.721C453.206 282.695 452.997 282.626 452.808 282.518C452.619 282.409 452.453 282.264 452.321 282.09C452.19 281.916 452.095 281.717 452.042 281.505C451.989 281.293 451.979 281.073 452.013 280.858C452.208 279.529 452.338 275.689 450.701 274.069C450.288 273.714 449.796 273.464 449.265 273.34C448.735 273.216 448.183 273.222 447.655 273.356C447.1 273.406 446.563 273.577 446.082 273.857C445.6 274.137 445.186 274.519 444.868 274.977C443.248 277.504 444.026 282.235 444.48 283.855C444.541 284.063 444.56 284.28 444.536 284.495C444.512 284.71 444.446 284.918 444.34 285.107C444.234 285.296 444.092 285.461 443.921 285.594C443.75 285.727 443.554 285.824 443.346 285.88C443.022 285.994 442.673 286.01 442.341 285.929Z" fill="#004015"/>
<path d="M278.849 386.574C271.638 396.409 261.211 403.409 249.378 406.357C245.588 407.298 241.672 407.631 237.777 407.345C232.706 406.908 228.785 405.142 226.922 402.323C220.798 393.055 238.733 368.412 254.984 356.958C271.234 345.503 281.717 343.591 286.156 347.237C287.802 350.482 288.715 354.049 288.829 357.687C288.829 358.643 288.91 359.647 288.829 360.716C288.683 367.473 286.383 376.4 278.849 386.574Z" fill="#9BBC3E"/>
<path d="M278.849 386.574C271.638 396.41 261.211 403.409 249.378 406.357C245.588 407.298 241.672 407.631 237.777 407.345C238.328 402.776 240.143 396.279 245.878 393.914C246.777 393.53 247.718 393.252 248.681 393.088C256.588 391.629 263.004 397.948 263.004 397.948C263.004 397.948 262.388 392.132 267.864 384.322C269.291 382.14 271.412 380.503 273.884 379.674C276.356 378.845 279.036 378.873 281.49 379.754C281.49 379.754 275.122 369.303 280.744 362.515C281.071 362.12 281.429 361.752 281.814 361.413C283.75 359.529 286.204 358.266 288.862 357.784C288.862 358.74 288.943 359.744 288.862 360.814C288.683 367.473 286.383 376.4 278.849 386.574Z" fill="#E6DD7A"/>
<path d="M432.976 268.463C428.035 269.371 425.977 276.013 432.182 277.828C438.388 279.643 438.436 267.475 432.976 268.463Z" fill="#E6DD7A"/>
<path d="M425.993 279.319C422.526 276.581 418.492 282.996 420.793 286.496C423.093 289.996 432.685 284.617 425.993 279.319Z" fill="#E6DD7A"/>
<path d="M422.769 271.509C423.279 271.873 423.639 272.41 423.782 273.02C423.924 273.63 423.84 274.271 423.544 274.823C423.248 275.376 422.761 275.801 422.174 276.02C421.587 276.239 420.941 276.237 420.355 276.013C417.147 274.863 420.452 270.148 422.769 271.509Z" fill="#E6DD7A"/>
<path opacity="0.4" d="M474.842 323.728C474.429 324.421 473.98 325.091 473.497 325.737C470.257 329.982 451.074 330.856 442.163 324.619C433.252 318.381 414.377 322.107 414.377 322.107C414.377 322.107 406.94 322.107 403.035 310.62C399.131 299.133 404.866 287.646 404.866 287.646C411.687 283.693 418.379 267.848 433.835 259.569C435.551 258.656 437.339 257.887 439.182 257.268C424.001 267.767 417.86 277.779 419.513 290.303C421.392 304.626 429.234 305.468 437.48 305.322C445.727 305.177 449.34 311.528 459.871 318.025C464.524 320.714 469.579 322.64 474.842 323.728Z" fill="#186923"/>
<path opacity="0.4" d="M473.092 287.452C471.245 288.813 473.529 293.852 476.413 293.414C479.297 292.977 476.802 284.714 473.092 287.452Z" fill="#186923"/>
<path opacity="0.4" d="M369.579 339.816C363.244 354.673 349.57 372.333 343.089 371.409C336.608 370.486 337.143 361.316 344.077 353.263C351.011 345.211 360.279 327.908 365.609 326.288C370.94 324.667 371.442 335.425 369.579 339.816Z" fill="#E2FF8C"/>
<path opacity="0.4" d="M426.463 335.782C418.605 335.782 419.351 351.417 425.037 367.1C430.724 382.783 445.598 379.154 447.801 375.201C450.004 371.248 433.819 335.798 426.463 335.782Z" fill="#E2FF8C"/>
<path opacity="0.4" d="M288.878 360.814C286.088 360.806 283.328 361.385 280.777 362.515C274.134 365.172 266.049 370.729 258.208 378.085C253.621 382.062 250.307 387.303 248.681 393.152C247.534 397.546 247.8 402.189 249.443 406.422C245.652 407.363 241.737 407.696 237.842 407.41C232.771 406.973 228.85 405.207 226.987 402.387C220.863 393.12 238.798 368.477 255.048 357.022C271.299 345.568 281.781 343.656 286.221 347.301C287.867 350.547 288.78 354.114 288.894 357.751C288.894 358.74 288.91 359.744 288.878 360.814Z" fill="#186923"/>
<path opacity="0.4" d="M285.767 365.852C282.17 358.562 247.563 385.7 251.533 393.898C255.502 402.096 290.87 376.254 285.767 365.852Z" fill="#E2FF8C"/>
<path opacity="0.2" d="M342.83 245.83C331.067 245.927 319.596 258.467 322.399 267.265C325.202 276.062 348.5 273.502 363.681 276.872C378.862 280.242 394.286 280.501 396.231 273.632C398.175 266.762 355.354 245.716 342.83 245.83Z" fill="#FFC0A3"/>
<path d="M627.997 264.705C619.896 275.398 616.024 289.396 615.263 292.394C615.182 292.766 615.117 292.977 615.117 292.977C615.619 279.61 621.597 270.165 626.928 260.573L627.301 259.893C630.833 253.412 633.959 246.786 634.705 238.83C636.536 218.773 619.977 210.234 612.443 190.225C609.3 181.849 608.118 169.746 607.81 158.47C607.558 148.477 607.823 138.478 608.604 128.513L621.986 129.517C621.986 129.517 614.793 145.071 616.802 169.487C618.811 193.903 630.006 198.747 639.387 222.337C648.768 245.927 637.2 252.667 627.997 264.705Z" fill="#578EE0"/>
<path d="M748.522 225.901C748.522 225.901 742.884 233.435 730.522 216.375C718.209 199.363 722.049 189.853 708.925 186.855C695.802 183.858 687.15 185.024 677.008 168.806C672.892 161.794 669.717 154.272 667.562 146.432C665.687 140.051 664.22 133.557 663.171 126.99L674.513 123.571C674.513 123.571 677.089 161.256 690.714 173.797C704.34 186.337 710.497 175.028 718.355 187.39C726.212 199.752 735.075 228.251 748.522 225.901Z" fill="#578EE0"/>
<path opacity="0.3" d="M627.997 264.705C619.896 275.398 616.024 289.396 615.263 292.393C615.182 284.617 623.363 267.264 626.928 260.573L627.301 259.893C631.205 252.829 641.623 245.311 639.679 232.35C637.734 219.388 628.337 210.655 619.475 197.208C610.613 183.761 611.666 154.225 611.666 154.225C610.772 155.921 609.44 157.347 607.81 158.356C607.558 148.363 607.823 138.364 608.604 128.399L621.986 129.404C621.986 129.404 614.793 144.957 616.802 169.373C618.811 193.789 630.006 198.634 639.387 222.224C648.768 245.813 637.2 252.667 627.997 264.705Z" fill="#401285"/>
<path opacity="0.3" d="M748.522 225.901C748.522 225.901 742.884 233.435 730.522 216.375C726.771 209.729 723.621 202.762 721.109 195.556C716.41 182.124 709.606 184.911 700.273 182.951C690.941 180.99 679.211 165.598 677.056 160.171C675.436 156.072 671.888 148.975 667.562 146.432C665.687 140.051 664.22 133.557 663.171 126.99L674.513 123.571C674.513 123.571 677.089 161.256 690.714 173.797C704.34 186.337 710.497 175.028 718.355 187.39C726.212 199.752 735.075 228.251 748.522 225.901Z" fill="#401285"/>
<path d="M582.017 151.827C582.017 151.827 566.463 179.921 554.474 183.777C542.484 187.633 525.877 184.279 519.186 183.437C512.495 182.594 499.955 182.432 489.585 192.137C479.216 201.842 484.725 205.179 483.234 218.886C482.457 225.934 479.475 228.785 476.754 229.903C475.213 230.525 473.532 230.71 471.893 230.438C485.098 225.415 476.754 217.217 478.925 202.004C480.836 188.556 489.942 182.805 502.774 180.617C504.448 180.347 506.181 180.121 507.974 179.937C510.226 179.71 512.624 179.613 515.103 179.532C529.685 179.143 547.604 180.018 560.322 166.57C563.968 162.609 566.647 157.856 568.148 152.686C572.49 138.477 569.185 123.393 569.185 123.393C569.185 123.393 578.695 122.761 581.401 127.006C584.107 131.251 582.017 151.827 582.017 151.827Z" fill="#578EE0"/>
<path opacity="0.3" d="M582.017 151.827C582.017 151.827 566.463 179.921 554.473 183.777C542.484 187.633 525.877 184.279 519.186 183.437C512.495 182.594 499.955 182.432 489.585 192.137C479.216 201.842 484.725 205.179 483.234 218.886C482.457 225.934 479.475 228.785 476.754 229.903C479.864 227.603 481.533 222.872 480.966 214.576C480.01 200.691 485.827 184.959 502.725 180.553C506.759 179.583 510.914 179.217 515.055 179.467H515.2C541.658 180.909 564.292 176.129 568.099 152.605C572.441 138.396 569.136 123.312 569.136 123.312C569.136 123.312 578.647 122.68 581.352 126.925C584.058 131.17 582.017 151.827 582.017 151.827Z" fill="#401285"/>
<path d="M586.699 154.338C586.699 154.338 579.003 180.909 572.992 193.222C566.981 205.536 551.233 207.61 530.511 223.649C509.789 239.689 518.975 257.77 518.975 257.77C518.841 257.788 518.705 257.788 518.57 257.77C517.274 257.495 513.467 255.324 516.124 238.895C519.364 219.34 538.045 212.146 552.254 201.777C566.463 191.408 569.8 170.378 570.076 162.309C570.238 158.567 571.145 150.612 572.101 143.126C573.187 134.491 574.288 126.52 574.288 126.52C574.288 126.52 583.118 125.013 584.787 129.533C586.456 134.053 586.699 154.338 586.699 154.338Z" fill="#578EE0"/>
<path opacity="0.3" d="M586.699 154.338C586.699 154.338 579.003 180.909 572.992 193.222C566.981 205.536 551.233 207.61 530.511 223.649C509.789 239.689 518.975 257.77 518.975 257.77C518.841 257.788 518.705 257.788 518.57 257.77C516.643 254.108 515.636 250.032 515.636 245.894C515.636 241.756 516.643 237.68 518.57 234.018C527.028 216.877 559.885 207.091 567.759 194.081C575.633 181.071 572.538 160.56 572.619 149.802C572.629 147.569 572.477 145.338 572.166 143.126C573.251 134.491 574.353 126.52 574.353 126.52C574.353 126.52 583.183 125.013 584.852 129.533C586.521 134.053 586.699 154.338 586.699 154.338Z" fill="#401285"/>
<path d="M675.339 299.425C674.837 300.43 670.656 298.259 670.478 292.232C670.3 286.204 673.978 286.399 668.421 284.131C662.863 281.862 665.618 281.619 665.456 279.772C665.294 277.925 661.259 273.292 656.95 269.905C656.074 269.378 655.44 268.529 655.184 267.54C654.925 265.92 656.512 264.462 655.945 261.4C655.815 260.847 655.642 260.305 655.427 259.779C653.061 253.931 653.24 258.775 650.404 254.757C647.569 250.739 650.064 245.894 652.575 242.557C654.659 240.083 656.006 237.074 656.464 233.873C656.522 233.012 656.389 232.149 656.075 231.345C655.718 230.373 655.297 229.563 654.973 228.785C654.05 226.744 653.564 224.946 655.249 221.316C656.484 219.136 657.048 216.639 656.869 214.139C656.627 212.698 656.074 211.327 655.249 210.121C654.017 208.554 652.54 207.197 650.874 206.103C648.201 204.029 645.446 201.68 645.544 198.002C645.657 193.806 648.379 192.623 649.967 190.97C650.342 190.635 650.639 190.223 650.838 189.761C651.036 189.299 651.132 188.8 651.117 188.297C651.117 186.92 650.275 186.564 649.14 186.256C647.148 185.721 644.086 185.413 642.368 179.953C640.327 173.472 643.648 171.301 645.122 169.989C645.576 169.584 645.835 169.26 645.706 168.904C645.576 168.547 645.171 168.369 644.442 167.996C640.602 166.052 629.455 161.856 630.152 151.017C630.233 149.899 630.346 148.83 630.492 147.776C632.112 137.132 637.702 132.288 637.702 132.288C641.551 130.396 645.783 129.412 650.072 129.412C654.361 129.412 658.593 130.396 662.442 132.288C675.485 139.044 670.786 156.153 669.458 160.495C668.129 164.837 674.82 167.51 675.485 173.327C676.149 179.143 670.3 183.048 668.129 187.26C665.958 191.473 671.467 195.361 673.152 198.115C674.837 200.87 669.911 206.313 669.133 209.829C668.356 213.345 673.314 216.31 672.471 220.684C671.629 225.059 666.784 230.227 664.273 233.079C661.762 235.93 664.775 242.946 667.967 247.66C669.187 249.484 669.852 251.623 669.88 253.817C669.909 256.012 669.301 258.167 668.129 260.022C666.509 262.712 667.627 266.714 670.138 269.047C672.649 271.38 672.973 278.59 673.152 280.388C673.33 282.186 676.651 282.721 678.822 286.075C680.993 289.429 675.841 298.502 675.339 299.425Z" fill="#57A5E0"/>
<path opacity="0.3" d="M675.339 299.425C674.836 300.43 670.656 298.259 670.478 292.232C671.628 291.146 672.779 290.206 673.556 289.526C676.651 286.804 673.151 280.372 668.923 278.33C664.694 276.289 667.092 274.005 663.106 271.412C659.866 269.355 657.873 269.565 655.184 267.459C654.924 265.839 656.512 264.381 655.945 261.319C659.023 260.282 663.025 259.455 663.317 257.625C663.868 254.174 661.486 254.611 658.181 252.019C654.876 249.426 664.516 241.115 661.114 238.668C659.232 237.402 657.646 235.744 656.464 233.808C655.835 232.759 655.262 231.677 654.746 230.568C654.563 230.281 654.485 229.94 654.527 229.603C654.568 229.266 654.726 228.954 654.973 228.721C656.593 227.1 661.907 226.89 663.317 223.244C665.164 218.497 666.655 215.046 660.644 214.593C659.374 214.517 658.112 214.344 656.869 214.074C656.627 212.633 656.074 211.262 655.248 210.056C654.017 208.489 652.54 207.132 650.874 206.038C652.3 204.418 659.072 207.788 662.102 203.835C665.731 199.104 666.233 195.653 662.102 191.943C658.618 188.816 653.223 192.364 649.967 190.97C650.342 190.635 650.639 190.223 650.837 189.761C651.036 189.299 651.132 188.8 651.117 188.297C651.117 186.92 650.274 186.564 649.14 186.256C651.911 183.582 658.861 181.087 661.114 176.956C664.192 171.188 659.769 168.061 652.624 169.795C648.525 170.783 646.143 171.139 645.122 169.989C644.673 169.423 644.433 168.719 644.442 167.996C644.405 166.868 644.481 165.739 644.669 164.626C645.706 157.951 661.065 155.132 658.068 149.105C655.816 144.536 641.995 142.624 630.525 147.825C632.145 137.18 637.734 132.336 637.734 132.336C641.584 130.444 645.815 129.461 650.104 129.461C654.393 129.461 658.625 130.444 662.474 132.336C675.517 139.092 670.818 156.201 669.49 160.543C668.161 164.886 674.853 167.559 675.517 173.375C676.181 179.192 670.332 183.096 668.161 187.309C665.99 191.521 671.499 195.41 673.184 198.164C674.869 200.918 669.943 206.362 669.166 209.878C668.388 213.394 673.346 216.359 672.503 220.733C671.661 225.108 666.817 230.276 664.305 233.127C661.794 235.979 664.808 242.994 667.999 247.709C669.219 249.533 669.884 251.672 669.913 253.866C669.942 256.06 669.333 258.216 668.161 260.071C666.541 262.76 667.659 266.762 670.17 269.095C672.682 271.428 673.006 278.638 673.184 280.437C673.362 282.235 676.683 282.77 678.854 286.123C681.025 289.477 675.841 298.502 675.339 299.425Z" fill="#401285"/>
<path d="M619.475 132.028C619.475 132.028 613.966 136.889 611.455 139.594C608.944 142.3 612.622 146.658 610.272 150.936C607.923 155.213 601.75 157.287 601.248 157.951C600.746 158.615 601.928 161.191 601.248 164.642C600.407 168.341 599.774 172.084 599.352 175.854C599.352 178.349 596.906 183.534 596.242 185.381C595.577 187.228 596.404 190.565 596.404 193.077C596.404 195.588 593.05 199.93 592.548 202.441C592.045 204.952 594.054 208.63 592.207 212.308C590.36 215.986 588.546 218.157 590.036 222.515C591.527 226.873 594.897 230.033 593.892 232.544C592.888 235.055 587.865 237.891 589.21 241.406C590.555 244.922 590.539 250.107 592.548 254.773C594.557 259.439 601.086 268.674 598.915 275.187C596.744 281.7 588.206 297.594 586.877 297.87C586.083 298.064 584.009 291.389 582.794 284.195C581.852 279.679 581.644 275.039 582.178 270.456C582.924 266.714 583.475 263.862 583.685 261.626C583.944 258.84 583.685 257.041 582.681 255.745C582.252 255.169 581.993 254.484 581.935 253.768C581.709 251.403 582.891 248.049 583.021 243.367C583.134 239.3 581.012 238.28 579.44 236.627C578.461 235.666 577.882 234.369 577.82 232.998C577.48 227.975 582.324 228.477 583.167 225.14C583.637 223.277 584.252 221.9 584.641 220.668C584.961 219.803 585.029 218.865 584.836 217.963C584.572 217.158 584.207 216.391 583.75 215.678C582.632 213.718 581.142 211.19 581.466 208.42C581.935 204.418 582.324 203.235 580.672 199.557C579.019 195.879 580.834 190.209 581.385 188.686C581.935 187.163 579.651 182.351 577.853 178.317C576.054 174.282 580.672 170.119 581.336 168.126C582 166.133 575.649 162.763 574.466 157.919C573.284 153.074 580.493 147.209 577.982 143.013C576.602 140.48 575.857 137.65 575.811 134.766C575.646 131.26 576.395 127.771 577.982 124.64C577.982 124.64 579.489 115.956 588.351 117.657C597.214 119.358 619.475 132.028 619.475 132.028Z" fill="#57A5E0"/>
<path opacity="0.3" d="M619.475 132.028C619.475 132.028 613.967 136.889 611.455 139.594C608.944 142.3 612.622 146.658 610.272 150.936C607.923 155.213 601.75 157.287 601.248 157.951C600.746 158.615 601.929 161.191 601.248 164.642C600.407 168.341 599.774 172.084 599.352 175.854C599.352 178.349 596.906 183.534 596.242 185.381C595.577 187.228 596.404 190.565 596.404 193.077C596.404 195.588 593.05 199.93 592.548 202.441C592.045 204.952 594.054 208.63 592.207 212.308C590.36 215.986 588.546 218.157 590.036 222.515C591.527 226.873 594.897 230.033 593.892 232.544C592.888 235.055 587.865 237.891 589.21 241.406C590.555 244.922 590.539 250.107 592.548 254.773C594.557 259.439 601.086 268.674 598.915 275.187C596.744 281.7 588.206 297.594 586.877 297.87C586.083 298.064 584.009 291.389 582.794 284.195C585.241 280.032 588.481 275.544 588.919 270.521C589.583 262.76 588.675 261.464 583.685 261.626C583.945 258.84 583.685 257.041 582.681 255.745C582.252 255.169 581.993 254.484 581.936 253.768C584.56 253.768 587.995 254.384 588.902 251.549C590.441 246.802 586.958 244.663 583.021 243.367C583.134 239.3 581.012 238.28 579.44 236.627C581.401 237.162 583.459 237.502 584.657 236.465C587.525 233.97 585.662 227.846 584.657 220.668C584.333 218.432 584.009 216.909 583.766 215.678C583.09 213.056 583.063 210.309 583.685 207.674C584.738 201.745 588.238 198.132 586.699 189.075C585.16 180.018 585.224 178.738 586.699 175.465C588.173 172.192 593.423 170.977 589.469 167.105C585.516 163.233 584.738 160.754 586.699 154.241C588.659 147.728 596.857 150.725 597.036 142.527C597.198 135.657 585.694 132.806 575.827 134.766C575.663 131.26 576.411 127.771 577.998 124.64C577.998 124.64 579.505 115.956 588.368 117.657C597.23 119.358 619.475 132.028 619.475 132.028Z" fill="#401285"/>
<path d="M684.12 120.736C672.665 126.196 624.838 122.907 617.223 117.755C617.223 117.755 566.997 122.907 559.269 115.908C555.441 112.209 552.648 107.573 551.168 102.46C548.595 93.8147 548.994 84.5562 552.302 76.1645C552.4 75.8729 552.513 75.5975 552.626 75.3221C554.462 70.4344 557.586 66.1347 561.667 62.8791C569.088 56.8844 579.91 53.158 595.901 42.1732C612.946 30.5403 637.151 33.5053 653.142 39.6457C660.385 42.4324 665.942 45.851 668.437 48.8646C676.408 58.5856 679.681 75.9701 686.259 83.3257C692.837 90.6813 695.575 115.292 684.12 120.736Z" fill="#5085DE"/>
<path opacity="0.3" d="M555.575 76.2132C554.629 75.7618 553.617 75.4611 552.578 75.3221C554.427 70.4288 557.568 66.1285 561.667 62.8792C562.85 65.2932 563.709 68.3554 564.907 71.5633C568.391 80.1178 562.38 79.2754 555.575 76.2132Z" fill="#401285"/>
<path opacity="0.3" d="M684.12 120.736C672.665 126.196 624.838 122.907 617.223 117.755C617.223 117.755 566.997 122.907 559.269 115.908C555.441 112.209 552.648 107.573 551.168 102.46C555.316 107.483 561.084 110.383 565.021 108.066C571.907 104.015 583.086 100.095 599.482 102.573C615.878 105.052 643.016 113.753 642.887 107.126C642.757 100.5 630.784 104.113 631.626 99.965C632.469 95.8173 650.777 95.2179 663.171 93.7759C675.566 92.334 673.184 83.1637 668.485 71.4337C664.005 60.5358 658.898 49.9059 653.191 39.5972C660.433 42.3839 665.99 45.8024 668.485 48.816C676.457 58.537 679.729 75.9215 686.307 83.2772C692.885 90.6328 695.575 115.292 684.12 120.736Z" fill="#401285"/>
<path d="M560.274 113.866C560.274 113.866 549.742 107.013 556.936 100.905C564.13 94.7966 567.467 109.767 567.808 109.767C568.148 109.767 572.992 108.941 572.992 108.941C572.992 108.941 567.305 96.9838 576.832 95.9793C586.359 94.9748 583.183 110.82 583.183 110.82L592.904 112.538C592.904 112.538 590.231 98.9442 601.928 99.7867C613.626 100.629 603.937 115.049 603.937 115.049L618.211 118.289C618.211 118.289 618.082 102.087 628.127 103.286C638.172 104.485 632.145 120.185 632.145 120.185L640.505 120.849C640.505 120.849 637.265 104.955 649.367 103.789C661.47 102.622 656.626 121.448 656.626 121.448L666.152 119.407C666.152 119.407 662.134 103.205 672.633 102.282C683.132 101.358 680.28 118.484 680.28 118.484C680.28 118.484 645.722 128.318 628.775 131.866C611.828 135.414 560.274 113.866 560.274 113.866Z" fill="#B41BC2"/>
<path d="M624.4 129.744C605.817 129.744 564.988 113.024 561.505 111.582C560.225 110.691 557.163 108.082 557.017 105.733C557.017 105.36 556.92 104.258 558.637 102.784C559.074 102.335 559.641 102.034 560.257 101.925C560.889 101.925 562.623 102.654 564.94 109.524C565.345 110.691 565.879 112.278 567.791 112.278C569.68 112.091 571.557 111.798 573.413 111.403L576.767 110.82L575.309 107.742C574.499 106.024 573.186 101.828 574.304 99.8192C574.466 99.5437 574.969 98.6526 577.107 98.4258C577.301 98.4097 577.496 98.4097 577.691 98.4258C578.077 98.393 578.466 98.4539 578.824 98.6034C579.183 98.7529 579.5 98.9865 579.748 99.2845C581.611 101.569 581.158 107.645 580.639 110.221L580.121 112.813L596.144 115.648L595.415 111.938C595.124 110.464 594.8 106.122 596.679 103.837C597.21 103.262 597.866 102.817 598.597 102.536C599.327 102.255 600.112 102.146 600.892 102.217H601.718C603.419 102.347 604.472 102.8 604.861 103.562C605.898 105.7 603.662 110.804 601.815 113.591L599.757 116.701L620.82 121.562V118.322C620.82 116.134 621.371 109.848 624.06 107.126C624.451 106.714 624.924 106.388 625.449 106.17C625.973 105.953 626.538 105.848 627.106 105.862H627.819C628.37 105.861 628.911 106.001 629.393 106.267C629.875 106.534 630.281 106.918 630.573 107.385C632.42 110.448 630.573 117.106 629.731 119.261L628.483 122.502L643.713 123.717L643.032 120.363C642.644 118.322 642.141 112.262 644.653 109.022C645.243 108.257 645.995 107.631 646.855 107.188C647.714 106.746 648.661 106.498 649.627 106.462H650.42C651.013 106.406 651.611 106.498 652.16 106.73C652.708 106.962 653.191 107.326 653.564 107.79C655.978 110.901 654.762 118.516 654.147 120.946L653.547 123.296C644.507 125.677 634.964 128.156 628.273 129.501C626.993 129.711 625.696 129.792 624.4 129.744ZM668.745 118.824C668.178 116.523 667.222 109.832 669.522 106.656C669.918 106.124 670.431 105.69 671.02 105.386C671.61 105.083 672.262 104.919 672.925 104.907H673.459C673.993 104.872 674.527 104.962 675.019 105.171C675.511 105.379 675.948 105.699 676.295 106.105C678.271 108.439 678.288 113.558 678.028 116.556L668.745 119.099V118.824Z" fill="#E173EB"/>
<path d="M689.11 128.561C685.335 136.565 645.576 139.627 636.698 139.594C627.819 139.562 586.197 129.582 578.371 129.258C570.546 128.934 555.98 128.966 555.689 120.898C555.521 119.273 555.682 117.632 556.16 116.07C556.639 114.509 557.426 113.06 558.475 111.808C569.655 99.3817 611.423 115.405 624.206 116.669C639.211 118.369 654.349 118.564 669.393 117.252C673.044 116.863 676.225 116.404 678.936 115.875C689.888 113.753 692.902 120.557 689.11 128.561Z" fill="#1850AD"/>
<path d="M593.892 55.1184C599.595 59.4605 591.073 73.8963 584.171 67.448C577.269 60.9996 589.356 51.7322 593.892 55.1184Z" fill="#B41BC2"/>
<path d="M587.898 66.4921C587.137 66.4481 586.423 66.1113 585.905 65.5524C585.34 65.1293 584.935 64.5276 584.756 63.8452C584.576 63.1628 584.633 62.4397 584.917 61.7936C585.519 60.4977 586.437 59.3736 587.586 58.5244C588.735 57.6752 590.079 57.1281 591.495 56.933C591.786 56.9117 592.076 56.9857 592.321 57.1436C593.455 57.9861 593.293 59.9466 592.775 61.5019C591.867 64.2724 589.664 66.4921 587.898 66.4921Z" fill="#E173EB"/>
<path d="M600.373 46.9366C604.035 49.9825 599.336 55.4425 595.756 52.6558C592.175 49.8691 596.663 43.8582 600.373 46.9366Z" fill="#B41BC2"/>
<path d="M597.878 50.8412C597.679 50.83 597.49 50.7498 597.343 50.6144C597.196 50.5178 597.089 50.3699 597.044 50.1993C597 50.0288 597.019 49.8476 597.1 49.6909C597.177 49.4412 597.318 49.2159 597.508 49.037C597.698 48.858 597.932 48.7316 598.186 48.6702C598.386 48.7026 598.571 48.7927 598.721 48.9294C599.158 49.2858 599.174 49.5613 599.061 49.8853C598.965 50.1343 598.805 50.3537 598.597 50.5214C598.39 50.6892 598.142 50.7995 597.878 50.8412Z" fill="#E173EB"/>
<path d="M601.702 56.042C596.452 57.8566 601.459 66.3949 605.477 64.3859C609.495 62.3769 604.877 54.9403 601.702 56.042Z" fill="#B41BC2"/>
<path d="M604.197 62.1014C603.565 62.1014 602.285 60.8214 602.058 59.4443C601.945 58.78 602.058 58.6342 602.415 58.537C603.171 58.9917 603.765 59.6715 604.116 60.4812C604.395 60.9423 604.499 61.4889 604.407 62.0204L604.197 62.1014Z" fill="#E173EB"/>
<path d="M656.901 60.9998C660.223 60.9998 663.382 69.6353 656.901 68.404C650.42 67.1726 652.105 60.9998 656.901 60.9998Z" fill="#B41BC2"/>
<path d="M658.068 65.9412C657.836 65.9686 657.603 65.9686 657.371 65.9412C655.913 65.6658 655.184 65.0825 655.232 64.6612C655.281 64.24 655.783 63.7053 656.853 63.6567C657.569 64.2526 658.032 65.098 658.149 66.0222L658.068 65.9412Z" fill="#E173EB"/>
<path d="M666.201 58.6828C670.64 59.2985 674.415 72.6164 668.437 71.4336C662.458 70.2509 661.778 58.0186 666.201 58.6828Z" fill="#B41BC2"/>
<path d="M668.89 68.8899C667.448 68.5659 666.671 66.7351 666.412 65.9574C665.874 64.505 665.784 62.9251 666.152 61.4209C667.015 62.2342 667.676 63.2386 668.08 64.3534C668.735 65.7711 669.014 67.3333 668.89 68.8899Z" fill="#E173EB"/>
<path d="M657.857 46.0778C663.139 49.0428 660.595 59.6711 655.654 55.9285C650.712 52.1859 653.58 43.68 657.857 46.0778Z" fill="#B41BC2"/>
<path d="M657.565 54.0977L657.225 53.8709C656.65 53.4293 656.199 52.8468 655.915 52.1798C655.632 51.5128 655.525 50.7839 655.605 50.0635C655.645 49.391 655.941 48.7592 656.431 48.2975L656.593 48.3785C657.108 48.7446 657.525 49.2315 657.808 49.7966C658.09 50.3616 658.23 50.9873 658.214 51.6189C658.275 52.4938 658.047 53.3648 657.565 54.0977Z" fill="#E173EB"/>
<path d="M632.177 95.8011C631.434 95.8043 630.691 95.7447 629.958 95.6229C626.927 95.2992 624.137 93.8211 622.167 91.4951C620.197 89.1692 619.198 86.1741 619.378 83.1313C619.407 82.7901 619.57 82.4742 619.831 82.2526C620.092 82.031 620.43 81.9217 620.771 81.9486C620.94 81.9587 621.105 82.0027 621.257 82.078C621.409 82.1533 621.544 82.2582 621.654 82.3867C621.765 82.5152 621.848 82.6645 621.899 82.8258C621.951 82.9871 621.969 83.1571 621.954 83.3258C621.81 85.7203 622.607 88.0765 624.174 89.8923C625.742 91.7081 627.957 92.84 630.346 93.0468C631.424 93.2903 632.54 93.3006 633.622 93.077C634.703 92.8535 635.724 92.4013 636.617 91.7507C638.27 90.1252 639.258 87.9415 639.387 85.6264C639.387 85.2826 639.524 84.953 639.767 84.7099C640.01 84.4668 640.339 84.3303 640.683 84.3303C641.027 84.3303 641.357 84.4668 641.6 84.7099C641.843 84.953 641.979 85.2826 641.979 85.6264C641.849 88.7012 640.531 91.6055 638.302 93.7273C636.575 95.1301 634.401 95.866 632.177 95.8011Z" fill="#360727"/>
<path d="M599.434 81.3815C599.434 82.3692 599.14 83.3346 598.591 84.1556C598.042 84.9766 597.262 85.6161 596.349 85.9934C595.436 86.3706 594.432 86.4684 593.464 86.2746C592.495 86.0807 591.606 85.6038 590.909 84.9043C590.212 84.2048 589.738 83.3142 589.547 82.3451C589.356 81.376 589.458 80.3722 589.838 79.4606C590.218 78.5491 590.86 77.7709 591.683 77.2245C592.506 76.6781 593.472 76.3882 594.46 76.3914C595.78 76.3957 597.045 76.9233 597.978 77.8587C598.91 78.794 599.434 80.0609 599.434 81.3815Z" fill="#360727"/>
<path d="M670.754 83.9413C670.754 84.929 670.461 85.8944 669.912 86.7154C669.362 87.5364 668.582 88.176 667.669 88.5532C666.757 88.9304 665.752 89.0283 664.784 88.8344C663.816 88.6405 662.926 88.1637 662.229 87.4642C661.532 86.7646 661.058 85.874 660.867 84.9049C660.677 83.9359 660.778 82.932 661.158 82.0205C661.538 81.1089 662.18 80.3307 663.003 79.7843C663.826 79.2379 664.792 78.948 665.78 78.9512C667.1 78.9555 668.366 79.4831 669.298 80.4185C670.23 81.3539 670.754 82.6207 670.754 83.9413Z" fill="#360727"/>
<path opacity="0.7" d="M610.645 42.1894C605.914 39.4837 601.896 41.914 593.568 47.7628C585.241 53.6116 582.6 52.5423 575.163 57.1598C567.727 61.7773 565.021 67.9664 571.113 74.5119C577.205 81.0575 586.31 66.8485 590.36 64.7909C594.411 62.7332 607.777 65.5199 613.043 62.4578C618.309 59.3957 622.051 56.7062 620.885 50.6143C619.718 44.5224 610.645 42.1894 610.645 42.1894Z" fill="#AEEEF5"/>
<path opacity="0.7" d="M642.822 41.2336C635.661 42.0599 635.191 48.0545 636.05 54.4056C636.908 60.7567 638.512 59.3958 646.824 63.6406C655.135 67.8855 661.178 62.4579 660.628 58.6505C660.077 54.8431 651.344 40.1967 642.822 41.2336Z" fill="#AEEEF5"/>
<path opacity="0.7" d="M633.927 65.1798C631.545 70.1538 629.407 76.0998 635.758 76.3914C642.109 76.6831 649.61 78.0116 648.233 70.7856C646.856 63.5596 636.114 60.5947 633.927 65.1798Z" fill="#AEEEF5"/>
<path opacity="0.7" d="M555.575 88.8019C554.684 99.4789 560.339 100.483 562.85 102.071C565.361 103.659 568.844 101.358 567.986 92.5932C567.127 83.828 556.094 82.6453 555.575 88.8019Z" fill="#AEEEF5"/>
<path opacity="0.7" d="M572.295 111.598C563.239 115.47 563.514 116.021 568.115 118.759C572.717 121.497 590.215 116.151 603.241 123.62C616.267 131.089 636.503 131.72 646.856 129.468C657.209 127.216 662.847 125.175 660.66 123.36C658.473 121.546 640.602 124.349 630.152 123.603C619.702 122.858 605.72 115.13 594.508 112.943C587.186 111.589 579.727 111.138 572.295 111.598Z" fill="#AEEEF5"/>
<path opacity="0.6" d="M689.11 128.561C685.335 136.565 645.576 139.627 636.698 139.595C627.819 139.562 586.197 129.582 578.371 129.258C570.546 128.934 555.98 128.966 555.689 120.898C555.521 119.273 555.682 117.632 556.16 116.07C556.639 114.509 557.426 113.06 558.475 111.808C558.77 112.106 559.002 112.461 559.155 112.851C559.308 113.241 559.38 113.658 559.366 114.077C559.269 120.428 569.233 123.36 582.843 123.555C596.452 123.749 614.193 130.554 627.122 134.896C640.051 139.238 654.665 135.317 665.861 130.586C676.214 126.212 676.667 122.907 669.393 117.301C673.044 116.912 676.225 116.453 678.936 115.924C689.888 113.753 692.902 120.557 689.11 128.561Z" fill="#401285"/>
<path d="M296.881 546.421C296.881 546.421 290.547 553.663 281.717 562.429C269.824 574.223 253.363 588.757 241.65 592.062C221.252 597.829 145.541 567.759 183.015 554.344C217.169 542.095 211.109 494.397 244.242 483.98C247.77 482.909 251.415 482.272 255.097 482.084C300.64 479.508 296.881 546.421 296.881 546.421Z" fill="#566C91"/>
<path opacity="0.3" d="M296.881 546.421C296.881 546.421 290.546 553.663 281.716 562.429C248.082 562.429 190.986 555.3 190.986 555.3C190.986 555.3 195.847 547.879 209.635 545.919C223.422 543.959 249.361 540.184 254.028 517.047C257.106 501.802 252.488 489.326 244.307 483.98C247.834 482.909 251.48 482.272 255.162 482.084C300.64 479.508 296.881 546.421 296.881 546.421Z" fill="#111961"/>
<path d="M296.897 545.465C296.897 545.465 291.373 603.354 277.65 621.614C271.039 630.411 257.689 639.014 239.721 645.916C220.279 653.369 195.572 658.878 168.126 660.498C149.591 661.6 134.102 659.882 120.93 656.123C105.054 651.724 90.6013 643.258 78.9998 631.562C75.1181 627.657 71.5177 623.483 68.2256 619.07C67.9177 618.633 67.5775 618.211 67.3021 617.79C49.4801 593.682 48.7996 581.709 37.2478 576.054C25.6959 570.4 11.3249 575.568 4.32576 566.447C-1.52308 558.783 0.0808978 543.764 0.745171 539.228C0.718038 541.009 1.00882 542.781 1.60386 544.461C3.07928 548.56 5.21354 552.39 7.92256 555.802C17.0604 568.051 18.7291 562.542 41.0714 563.255C63.4137 563.968 55.2642 578.387 76.8773 588.481C77.3796 588.708 77.8818 588.919 78.3841 589.097C85.1564 591.608 92.5607 590.117 101.067 586.488C119.601 578.614 143.515 560.711 177.717 551.719C197.159 546.616 218.935 544.493 238.555 543.813C258.018 543.136 277.504 543.688 296.897 545.465Z" fill="#2F5594"/>
<path opacity="0.3" d="M90.7623 595.059C90.7623 595.059 84.4112 619.637 81.0412 628.791C80.6272 629.884 79.921 630.842 78.9998 631.562C75.1181 627.657 71.5177 623.483 68.2256 619.07C67.9177 618.633 67.5775 618.211 67.3021 617.79C49.4801 593.682 48.7996 581.709 37.2478 576.054C25.6959 570.4 11.3249 575.568 4.32576 566.447C-1.52308 558.783 0.0808978 543.764 0.745171 539.228C0.718038 541.009 1.00882 542.781 1.60386 544.461C1.8955 550.293 2.72179 555.98 6.09176 560.403C12.054 568.213 25.8741 569.719 34.8175 569.671C43.7609 569.622 48.2488 573.073 55.3452 585.581C62.4415 598.089 72.114 596.128 90.7623 595.059Z" fill="#111961"/>
<path opacity="0.3" d="M296.898 545.465C296.898 545.465 291.373 603.354 277.65 621.614C271.04 630.411 257.689 639.014 239.722 645.916C220.279 653.369 195.572 658.878 168.126 660.498C149.591 661.6 134.102 659.882 120.93 656.124C108.341 638.302 109.411 614.242 109.411 614.242C109.411 614.242 213.831 647.618 244.096 614.242C271.121 584.414 268.026 558.265 238.587 543.764C258.041 543.105 277.516 543.673 296.898 545.465Z" fill="#111961"/>
<path opacity="0.3" d="M234.861 551.687C216.342 552.626 205.293 555.559 189.626 557.568C173.959 559.577 155.489 563.773 145.136 570.627C134.783 577.48 122.453 591.284 133.292 592.224C144.131 593.163 145.638 599.871 154.354 605.46C159.296 608.485 165.103 609.779 170.861 609.14C176.619 608.5 182.001 605.963 186.159 601.928C195.199 592.823 210.785 601.118 226.663 595.448C242.541 589.777 251.889 581.287 253.752 569.525C255.616 557.762 243.156 551.266 234.861 551.687Z" fill="#80DEE8"/>
<path d="M239.721 645.949C220.279 653.402 195.572 658.91 168.126 660.53C160.571 661 152.993 660.962 145.443 660.417C111.42 657.857 89.7093 644.102 74.1555 626.393C72.0331 623.979 70.0241 621.533 68.1123 618.94C67.8044 618.503 67.4642 618.082 67.1888 617.66C62.4579 606.319 64.7585 594.784 78.2708 589.032C80.6505 588.036 83.1187 587.265 85.6426 586.731C86.5985 586.521 87.5382 586.359 88.4779 586.229C92.6425 585.638 96.8738 585.704 101.018 586.423C101.861 586.553 102.638 586.731 103.562 586.909C121.789 590.83 141.814 605.541 165.89 627.09C192.072 650.518 221.008 649.562 239.721 645.949Z" fill="#C2D4F2"/>
<path d="M133.535 575.244C129.323 582.972 133.535 584.625 136.905 580.542C140.275 576.459 135.269 572.068 133.535 575.244Z" fill="#64277A"/>
<path d="M147.469 578.436C143.953 582.34 144.228 586.067 149.559 582.697C154.889 579.327 149.38 576.313 147.469 578.436Z" fill="#64277A"/>
<path d="M154.678 575.244C153.236 578.614 157.562 582.357 159.247 577.723C160.932 573.089 156.12 571.89 154.678 575.244Z" fill="#64277A"/>
<path d="M151.908 570.448C149.429 574.337 144.876 572.069 148.538 566.366C152.2 560.663 154.76 565.88 151.908 570.448Z" fill="#64277A"/>
<path d="M163.087 561.618C158.032 566.965 163.087 572.96 166.684 567.37C170.281 561.78 166.214 558.297 163.087 561.618Z" fill="#64277A"/>
<path d="M166.214 582.697C160.203 587.023 163.217 595.658 172.695 591.349C182.173 587.039 172.225 578.387 166.214 582.697Z" fill="#64277A"/>
<path d="M187.357 590.15C183.728 593.098 189.269 602.155 193.838 595.432C198.407 588.708 193.838 584.868 187.357 590.15Z" fill="#64277A"/>
<path d="M192.639 567.37C188.281 570.935 195.993 580.024 200.74 574.159C205.487 568.294 199.606 561.635 192.639 567.37Z" fill="#64277A"/>
<path d="M219.534 634.591C219.534 634.591 210.429 623.769 221.705 616.089C231.037 609.738 237.794 622.1 237.794 622.1" stroke="black" stroke-width="3" stroke-miterlimit="10" stroke-linecap="round"/>
<path d="M278.104 600.276C277.791 603.698 276.747 607.014 275.041 609.997C271.801 615.895 265.191 618.373 259.407 618.309C253.995 618.309 249.264 615.959 248.551 612.168C248.13 609.916 249.102 607.162 252.213 604.067C256.215 600.017 266.795 588.611 270.035 585.889C270.878 585.176 272.174 585.468 273.47 586.537C275.997 588.627 278.638 593.747 278.104 600.276Z" fill="#3D1D5C"/>
<path d="M273.421 586.537C272.569 591.561 270.292 596.234 266.859 600C261.059 605.995 252.813 610.256 248.551 612.216C248.13 609.964 249.102 607.21 252.213 604.116C256.215 600.065 266.795 588.659 270.035 585.937C270.829 585.176 272.125 585.467 273.421 586.537Z" fill="white"/>
<path d="M278.103 600.276C277.791 603.698 276.747 607.014 275.041 609.997C271.801 615.894 265.191 618.373 259.407 618.309C259.313 615.549 259.927 612.812 261.189 610.356C262.45 607.901 264.319 605.808 266.616 604.278C269.847 601.619 273.92 600.2 278.103 600.276Z" fill="#A754C4"/>
<path d="M273.68 580.866C273.68 580.866 260.249 570.368 269.743 561.619C276.597 555.3 286.091 567.37 286.091 567.37" stroke="black" stroke-width="3" stroke-miterlimit="10" stroke-linecap="round"/>
<path opacity="0.3" d="M239.722 493.846C231.459 489.812 226.938 503.179 222.45 518.846C217.963 534.513 208.128 538.288 209.764 541.966C211.401 545.643 222.823 547.944 230.665 533.022C238.506 518.1 244.258 496.147 239.722 493.846Z" fill="#80DEE8"/>
<path opacity="0.3" d="M239.721 645.949C220.279 653.402 195.572 658.91 168.126 660.53C160.571 661 152.993 660.963 145.443 660.417C152.507 656.14 153.868 647.164 147.177 637.151C134.086 617.385 114.644 598.04 101.212 592.207C96.8968 590.446 92.6735 588.467 88.5588 586.278C92.7234 585.687 96.9548 585.753 101.099 586.472C101.942 586.602 102.719 586.78 103.643 586.958C121.87 590.879 141.895 605.59 165.971 627.138C192.072 650.518 221.008 649.562 239.721 645.949Z" fill="#111961"/>
<path opacity="0.3" d="M78.8216 599.385C65.763 603.694 73.7343 623.25 90.3897 637.151C107.045 651.052 132.725 662.167 138.039 657.322C143.353 652.478 123.911 640.165 109.378 627.09C94.8452 614.015 87.1007 596.679 78.8216 599.385Z" fill="white"/>
<path d="M751.892 735.075C750.531 739.303 747.485 740.405 743.791 739.935C735.82 738.801 724.722 730.214 720.347 729.161C713.964 727.541 705.944 739.06 697.373 739.741C688.802 740.421 684.541 732.839 690.439 719.78C693.679 712.489 695.202 703.416 696.919 696.174C697.179 695.04 697.422 693.922 697.713 692.934C698.847 688.819 700.192 685.659 702.25 684.331C708.115 680.604 718.84 682.046 718.84 682.046C737.473 703.481 756.234 721.757 751.892 735.075Z" fill="#1C6E75"/>
<path d="M437.464 473.756C436.336 472.592 435.705 471.035 435.705 469.414C435.705 467.793 436.336 466.236 437.464 465.072C440.202 462.561 446.019 462.804 447.769 465.25C448.559 466.227 448.975 467.454 448.942 468.71C448.91 469.966 448.43 471.169 447.59 472.104C445.922 474.032 437.464 473.756 437.464 473.756Z" fill="#86B6BA"/>
<path d="M447.04 593.325C447.04 593.325 425.977 629.682 426.658 656.95C427.338 684.217 439.619 686.907 453.553 671.385C467.486 655.864 481.404 650.534 493.393 645.187C505.382 639.841 501.186 630.217 493.393 617.92C485.6 605.622 448.4 589.583 448.4 589.583L447.04 593.325Z" fill="#86B6BA"/>
<path d="M509.287 564.454C490.962 567.127 464.278 545.741 453.553 532.633C442.827 519.526 426.917 497.621 426.917 497.621C426.917 497.621 426.917 479.978 437.464 470.078C439.08 468.529 440.914 467.225 442.908 466.206C458.883 458.105 483.818 525.618 499.954 539.957L500.781 540.686C516.448 554.538 527.319 561.894 509.287 564.454Z" fill="#FFE79E"/>
<path opacity="0.4" d="M429.93 489.925C433.738 481.306 449.794 466.692 449.794 466.692L453.796 470.062L436.541 489.925L441.855 494.527L460.811 477.288L463.76 482.149L446.78 497.087L449.729 500.1L464.959 485.843V488.273L449.729 502.855L451.916 504.864L467.956 489.828L471.764 497.038L454.784 510.048L456.728 512.867L470.435 501.818L470.824 503.632L458.397 512.867L461.411 520.676L474.809 510.453L476.656 515.168L462.075 522.28L467.697 530.041L478.325 521.292V522.912L469.69 530.236L471.893 535.534L482.732 526.72L484.741 528.923L474.874 539.957L478.714 543.359L487.738 534.335L489.747 538.142L483.267 548.965L489.747 550.974L496.358 540.88L498.367 543.764L491.886 553.744C491.886 553.744 499.209 563.077 478.147 551.719C457.085 540.362 448.87 535.744 441.45 525.116C434.03 514.487 429.93 489.925 429.93 489.925Z" fill="#EDAB66"/>
<path opacity="0.4" d="M502.109 551.606C502.109 551.606 482.862 537.251 475.636 529.96C468.41 522.669 459.807 495.337 456.728 484.903C454.33 476.802 444.415 470.127 437.464 470.046C439.08 468.497 440.914 467.192 442.908 466.174C458.883 458.073 483.818 525.586 499.955 539.924L500.781 540.653C501.411 544.279 501.855 547.935 502.109 551.606Z" fill="#D1914D"/>
<path d="M709.46 705.604C707.435 703.319 703.4 698.621 697.649 692.82C685.676 680.734 666.314 663.884 642.563 654.568C640.359 653.677 638.091 652.948 635.806 652.138C629.082 650.282 622.064 649.732 615.133 650.518C591.916 652.332 562.299 662.41 531.337 660.077C507.845 658.343 483.591 649.448 460.779 624.433C398.029 555.462 426.107 487.544 426.107 487.544C440.445 482.683 445.452 488.079 462.269 518.327C468.75 530.041 474.842 538.191 480.172 543.359C487.236 550.164 493.134 551.816 497.508 549.71C498.388 549.301 499.198 548.754 499.906 548.09C499.906 548.09 495.564 544.331 490.428 539.066C485.729 534.398 481.507 529.275 477.823 523.771C470.597 512.284 468.977 496.747 458.834 480.707C448.692 464.667 437.367 465.283 437.367 465.283C440.079 462.419 443.463 460.277 447.211 459.049C450.959 457.822 454.954 457.547 458.834 458.251C472.784 460.39 472.719 472.152 505.609 510.664C513.134 519.219 521.847 526.65 531.483 532.731C547.685 543.278 566.171 550.925 585.516 558.54C604.343 565.96 623.931 573.349 642.806 583.41C692.529 609.884 707.516 656.901 716.605 676.149C717.482 677.999 718.208 679.917 718.776 681.884C723.831 698.75 715.39 712.344 709.46 705.604Z" fill="#1C6E75"/>
<path opacity="0.2" d="M751.892 735.075C750.531 739.303 747.485 740.405 743.791 739.935C735.82 738.801 724.722 730.214 720.347 729.161C713.964 727.541 705.944 739.06 697.373 739.741C688.802 740.421 684.541 732.839 690.439 719.78C693.679 712.489 695.202 703.416 696.919 696.174C697.179 695.04 697.422 693.922 697.713 692.934C685.74 680.847 666.379 663.997 642.627 654.681C640.424 653.79 638.156 653.061 635.871 652.251C629.147 650.395 622.129 649.845 615.198 650.631C591.981 652.446 562.364 662.523 531.402 660.19C508.541 642.903 487.916 625.534 477.936 613.578C460.892 593.309 468.215 556.175 480.285 543.343C483.526 539.957 487.025 538.255 490.541 539.001C493.782 539.697 497.022 542.5 500.019 548.025C518.198 582.049 578.225 612.298 600.308 615.603C622.391 618.908 654.276 635.644 662.555 639.03C670.835 642.417 673.897 635.272 645.608 602.139C631.027 584.965 607.388 570.578 585.581 558.734C604.407 566.155 623.995 573.543 642.87 583.604C692.594 610.078 707.58 657.096 716.669 676.343C717.547 678.193 718.273 680.111 718.84 682.079C737.472 703.481 756.234 721.757 751.892 735.075Z" fill="#10385E"/>
<path d="M642.611 654.568C640.408 653.677 638.139 652.948 635.855 652.138C597.36 639.841 523.577 693.323 460.876 624.336C456.836 619.896 453.158 615.468 449.842 611.05C401.626 546.891 426.204 487.447 426.204 487.447C440.543 482.586 445.549 487.981 462.366 518.23C477.515 545.368 489.909 553.339 497.605 549.613C499.123 552.158 500.823 554.589 502.693 556.888C521.454 580.202 567.5 611.342 599.725 625.47C615.614 632.582 630.131 642.432 642.611 654.568Z" fill="#86B6BA"/>
<path d="M515.444 645.722C513.272 645.722 486.134 645.187 464.343 618.908C442.001 591.964 438.226 556.855 435.18 528.648C434.354 521.033 433.56 513.839 432.507 507.585C432.495 507.196 432.625 506.816 432.871 506.514C433.117 506.212 433.464 506.009 433.848 505.942C434.232 505.875 434.627 505.949 434.96 506.15C435.294 506.35 435.545 506.664 435.666 507.035C436.751 513.337 437.545 520.579 438.355 528.243C441.353 556.013 445.079 590.587 466.806 616.785C487.868 642.206 514.86 642.449 515.492 642.449C515.922 642.449 516.334 642.62 516.638 642.924C516.942 643.227 517.112 643.64 517.112 644.069C517.112 644.499 516.942 644.911 516.638 645.215C516.334 645.519 515.922 645.689 515.492 645.689L515.444 645.722Z" fill="#D0E0DD"/>
<path d="M582.875 653.693C582.721 653.688 582.568 653.661 582.422 653.612C582.422 653.612 574.126 651.214 533.816 641.396C492.793 631.4 465.591 601.556 457.198 557.341C457.036 556.531 456.939 555.98 456.874 555.721C456.806 555.337 456.878 554.942 457.078 554.607C457.278 554.273 457.592 554.021 457.962 553.899C458.332 553.777 458.734 553.793 459.093 553.943C459.453 554.093 459.746 554.368 459.92 554.716C460.097 555.372 460.238 556.038 460.341 556.709C468.442 599.612 494.851 628.564 534.578 638.253C575.082 648.104 583.005 650.42 583.329 650.501C583.735 650.625 584.076 650.903 584.279 651.276C584.482 651.649 584.53 652.086 584.414 652.494C584.323 652.834 584.123 653.135 583.845 653.351C583.568 653.568 583.227 653.688 582.875 653.693Z" fill="#D0E0DD"/>
<path d="M618.098 641.979C617.942 642.002 617.784 642.002 617.628 641.979C617.482 641.979 602.253 637.297 584.171 631.642C578.096 629.747 570.967 629.423 563.433 629.083C548.446 628.402 531.467 627.624 515.233 614.76C494.057 597.975 491.886 579.376 491.805 578.582C491.783 578.369 491.802 578.154 491.863 577.949C491.924 577.744 492.025 577.552 492.159 577.386C492.294 577.22 492.46 577.082 492.648 576.98C492.836 576.878 493.042 576.814 493.255 576.791C493.468 576.769 493.683 576.789 493.888 576.85C494.093 576.91 494.284 577.011 494.45 577.146C494.617 577.28 494.755 577.446 494.857 577.634C494.959 577.822 495.023 578.029 495.045 578.241C495.045 578.42 497.233 596.339 517.274 612.265C532.698 624.481 549.127 625.227 563.627 625.891C571.388 626.247 578.711 626.588 585.176 628.597C603.257 634.235 618.454 638.885 618.616 638.933C618.96 639.066 619.248 639.312 619.432 639.631C619.617 639.949 619.688 640.321 619.633 640.685C619.579 641.049 619.402 641.384 619.131 641.634C618.861 641.884 618.514 642.034 618.146 642.06L618.098 641.979Z" fill="#D0E0DD"/>
<path opacity="0.3" d="M642.611 654.568C640.408 653.677 638.139 652.948 635.855 652.138C597.359 639.841 523.577 693.323 460.876 624.336C456.836 619.896 453.158 615.468 449.842 611.05C456.647 616.737 465.169 623.914 474.874 632.112C499.954 653.272 546.648 660.271 548.706 632.112C550.763 603.954 511.895 584.414 502.693 556.823C521.454 580.137 567.5 611.277 599.725 625.405C615.619 632.537 630.136 642.408 642.611 654.568Z" fill="#52668F"/>
<path d="M595.01 661.6C594.237 662.268 593.308 662.732 592.308 662.947C591.309 663.162 590.271 663.122 589.291 662.831C583.539 661.454 572.474 650.015 561.003 636.989C550.164 624.708 538.904 611.066 531.289 602.965C515.589 586.391 512.187 576.232 518.7 568.747C518.953 568.44 519.224 568.148 519.51 567.872C528.616 558.961 545.53 566.139 561.1 576.313C567.374 580.433 573.436 584.867 579.262 589.599C597.927 604.569 598.315 623.282 599.741 633.441C600.811 641.461 600.697 656.82 595.01 661.6Z" fill="#1C6E75"/>
<path d="M595.01 661.6C594.237 662.268 593.308 662.732 592.308 662.947C591.309 663.162 590.271 663.122 589.291 662.831C578.112 660.158 546.956 619.524 531.256 602.884C515.557 586.245 512.154 576.151 518.667 568.666C518.92 568.359 519.191 568.067 519.478 567.791C520.739 570.641 522.286 573.355 524.095 575.892C535.874 592.774 544.914 600.373 554.554 613.415C564.195 626.458 584.366 657.42 591.673 660.401C592.765 660.856 593.878 661.256 595.01 661.6Z" fill="#86B6BA"/>
<path d="M522.167 551.508C521.852 551.51 521.541 551.438 521.26 551.298C520.797 551.056 520.448 550.641 520.29 550.143C520.133 549.645 520.178 549.105 520.417 548.641C520.417 548.641 523.123 543.31 521.73 539.017C521.425 538.101 520.934 537.258 520.287 536.541C519.64 535.824 518.851 535.249 517.971 534.853C517.331 534.414 516.593 534.139 515.822 534.051C515.051 533.964 514.27 534.067 513.548 534.351C511.312 535.582 510.453 539.778 510.307 541.156C510.258 541.675 510.006 542.153 509.605 542.487C509.204 542.821 508.688 542.983 508.169 542.938C507.912 542.913 507.663 542.839 507.436 542.718C507.208 542.597 507.007 542.433 506.843 542.234C506.679 542.036 506.555 541.807 506.48 541.56C506.404 541.314 506.378 541.055 506.403 540.799C506.403 540.054 507.197 533.362 511.636 530.916C513.937 529.636 516.675 529.782 519.737 531.353C521.082 531.986 522.283 532.887 523.267 534.002C524.251 535.117 524.996 536.421 525.456 537.834C527.335 543.683 524.014 550.18 523.836 550.455C523.673 550.761 523.434 551.018 523.141 551.203C522.848 551.388 522.513 551.493 522.167 551.508Z" fill="#051A3B"/>
<path opacity="0.3" d="M423.547 510.356C427.97 499.63 438.631 497.395 446.586 512.462C454.541 527.53 472.33 570.222 490.622 582.551C508.914 594.881 485.665 634.202 462.334 617.466C439.003 600.73 413.469 534.821 423.547 510.356Z" fill="#FEFEFE"/>
<path opacity="0.2" d="M595.01 661.6C594.237 662.268 593.308 662.732 592.308 662.947C591.309 663.162 590.271 663.122 589.291 662.831C583.539 661.454 572.474 650.015 561.003 636.989C561.586 637.184 574.58 641.121 582.308 635.223C589.178 629.974 579.068 597.149 561.068 576.297C567.342 580.417 573.403 584.851 579.23 589.583C597.894 604.553 598.283 623.266 599.709 633.425C600.811 641.461 600.697 656.82 595.01 661.6Z" fill="#10385E"/>
<path opacity="0.2" d="M630.622 587.606C626.361 592.207 635.385 603.808 640.343 600.487C645.301 597.165 634.899 582.956 630.622 587.606Z" fill="#10385E"/>
<path opacity="0.2" d="M650.08 595.918C643.891 600.243 646.678 611.423 654.584 608.571C662.491 605.72 653.839 593.325 650.08 595.918Z" fill="#10385E"/>
<path opacity="0.2" d="M641.574 603.662C636.843 598.559 632.372 613.496 637.281 615.457C642.19 617.417 646.256 608.733 641.574 603.662Z" fill="#10385E"/>
<path d="M505.658 515.087C510.405 519.17 510.421 516.124 505.658 510.453C500.894 504.783 500.91 511.02 505.658 515.087Z" fill="#10385E"/>
<path opacity="0.3" d="M553.323 579.019C541.593 569.152 527.19 568.488 528.21 579.019C529.231 589.55 546.713 617.191 557.892 625.534C569.071 633.878 570.691 627.155 570.108 619.686C569.525 612.217 560.468 585.046 553.323 579.019Z" fill="#FEFEFE"/>
<path opacity="0.2" d="M460.471 460.989C454.233 460.163 455.869 468.199 459.239 471.682C462.609 475.166 476.251 492.745 488.014 508.558C499.776 524.37 510.696 527.821 511.539 523.803C512.381 519.785 499.242 511.506 489.618 499.209C479.994 486.912 466.627 461.783 460.471 460.989Z" fill="#FEFEFE"/>
<path opacity="0.2" d="M747.615 735.253C747.684 736.366 747.322 737.463 746.604 738.317C745.886 739.171 744.867 739.715 743.759 739.838C735.788 738.704 724.689 730.117 720.315 729.064C713.931 727.444 705.911 738.963 697.341 739.644C688.77 740.324 684.509 732.742 690.406 719.683C693.647 712.392 695.17 703.319 696.887 696.077C701.963 701.471 706.515 707.335 710.48 713.591C712.425 716.588 713.202 712.441 713.267 707.305C713.384 703.588 713.08 699.871 712.36 696.223C711.128 691.573 712.36 686.275 720.331 692.529C721.093 693.112 721.951 693.793 722.794 694.619C732.904 704 747.615 727.006 747.615 735.253Z" fill="#10385E"/>
</g>
<defs>
<clipPath id="clip0_108_2360">
<rect width="752.508" height="740" fill="white"/>
</clipPath>
</defs>
</svg>
