<svg width="173" height="423" viewBox="0 0 173 423" fill="none" xmlns="http://www.w3.org/2000/svg">
<path d="M65.8856 301.274C37.1598 321.299 24.6845 331.895 28.4595 352.666C32.2345 373.436 38.294 380.209 40.951 382.542C43.6081 384.875 48.8737 398.744 44.7261 410.506C40.9186 421.232 36.1553 418.024 33.0608 405.791C32.7692 404.673 32.4937 403.458 32.2507 402.195V401.951C29.302 387.013 31.9267 381.78 31.9267 381.78C31.9267 381.78 13.3918 363.262 18.301 335.297C21.3631 317.88 31.6188 311.691 41.7773 303.202C45.5062 300.17 48.9056 296.754 51.9197 293.011C53.251 291.341 54.474 289.587 55.5812 287.761C56.6601 285.984 57.6339 284.144 58.4976 282.253C70.3897 256.33 67.7488 235.851 67.7488 235.851L84.8741 225.255C84.8741 225.255 94.6113 281.232 65.8856 301.274Z" fill="#FF6395"/>
<path opacity="0.2" d="M65.8857 301.274C37.1599 321.299 24.6846 331.895 28.4596 352.666C32.2346 373.436 38.2941 380.209 40.9511 382.542C43.6082 384.875 48.8738 398.743 44.7262 410.506C40.9187 421.232 36.1554 418.024 33.0609 405.791C35.9124 403.896 39.7198 401.433 37.9214 392.263C35.1833 377.859 28.4272 373.485 24.4091 352.876C20.3911 332.268 33.9034 313.652 54.6903 299.977C75.4771 286.303 75.6716 269.194 75.6716 269.194L67.7165 273.018C67.7165 273.018 63.8119 281.605 62.3537 283.776C60.468 285.688 58.126 287.087 55.549 287.842C56.6278 286.065 57.6016 284.225 58.4653 282.334C70.3574 256.411 67.7165 235.932 67.7165 235.932L84.8418 225.336C84.8418 225.336 94.6114 281.232 65.8857 301.274Z" fill="#4E0E75"/>
<path d="M111.445 365.141C106.714 379.512 111.445 384.794 111.445 384.794C111.445 384.794 118.444 385.555 122.965 393.867C127.485 402.178 124.472 412.029 122.965 418.834C121.717 424.375 119.498 424.148 114.864 418.137C114.524 417.7 114.167 417.23 113.811 416.727C113.065 415.674 112.191 414.508 111.38 413.179C107.21 406.815 105.526 399.14 106.65 391.615C106.65 391.615 100.169 384.065 103.733 368.576C107.298 353.087 118.315 344.387 114.588 330.016C110.862 315.645 98.7107 309.229 93.4127 283.516C93.1211 282.042 92.8943 280.568 92.7484 279.093C92.7484 278.899 92.7484 278.705 92.7484 278.51C91.7601 267.072 95.0491 255.471 98.8079 246.382C101.268 240.347 104.295 234.558 107.848 229.095C107.848 229.095 113.033 239.772 113.503 262.406C113.503 264.236 113.503 266.148 113.503 268.141C113.13 294.728 128.247 309.229 127.112 330.388C125.978 351.548 116.176 350.786 111.445 365.141Z" fill="#FF6395"/>
<path opacity="0.2" d="M111.445 365.141C106.714 379.512 111.445 384.794 111.445 384.794C111.445 384.794 118.444 385.555 122.965 393.867C127.485 402.178 124.472 412.029 122.965 418.834C121.636 424.78 119.174 424.067 113.876 416.711C115.399 413.649 118.736 410.328 117.699 404.852C116.225 397.188 108.756 394.628 106.747 378.767C104.738 362.905 112.579 358.514 118.866 343.009C125.152 327.504 116.047 304.725 116.047 304.725C116.047 304.725 109.112 301.241 109.89 294.858C110.668 288.474 104.187 286.481 101.449 285.558C98.7107 284.634 95.9888 273.876 95.9888 273.876C95.9888 273.876 94.3686 275.902 92.7484 278.494C91.7601 267.055 95.0491 255.455 98.8079 246.366C100.671 247.354 102.68 249.736 104.56 251.226C107.839 254.681 110.83 258.398 113.503 262.341C113.503 264.172 113.503 266.083 113.503 268.076C113.13 294.663 128.247 309.164 127.112 330.323C125.978 351.483 116.176 350.786 111.445 365.141Z" fill="#4E0E75"/>
<path d="M167.163 105.459C164.133 112.652 154.688 120.202 154.688 120.202C154.688 120.202 153.067 171.141 150.686 175.726C149.86 177.346 143.622 178.626 135.246 179.193C128.771 179.63 122.273 179.598 115.803 179.096C113.276 178.902 110.732 178.61 108.27 178.253C99.1156 176.909 90.9337 174.349 86.6726 170.153C73.8246 157.256 69.1909 152.055 69.1909 152.055C67.7813 148.523 74.9587 136.793 76.4817 132.257C78.0047 127.72 89.3945 103.563 89.3945 103.563C89.3945 103.563 77.9074 93.745 84.9714 74.4001C92.0354 55.0552 127.193 29.7966 138.146 15.053C141.044 11.0369 144.441 7.40562 148.256 4.24639C155.741 -1.65106 162.367 -1.92649 164.992 6.74146C168.767 19.2006 165.219 36.6013 170.015 53.2244C174.81 69.8474 170.209 98.2815 167.163 105.459Z" fill="#FF6395"/>
<path opacity="0.2" d="M167.163 105.459C164.133 112.652 154.688 120.203 154.688 120.203C154.688 120.203 153.067 171.141 150.686 175.726C149.86 177.346 143.622 178.626 135.246 179.193C127.793 178.788 121.166 178.189 115.803 179.096C115.16 179.191 114.521 179.321 113.892 179.485C112.935 179.841 111.896 179.914 110.899 179.696C109.902 179.478 108.989 178.977 108.27 178.253C105.774 175.71 105.207 170.59 103.782 167.82C101.611 163.688 112.271 143.047 112.271 143.047C112.271 143.047 111.964 160.01 112.271 162.489C112.579 164.968 122.138 160.075 127.177 156.673C132.216 153.27 140.722 150.192 140.722 145.542C140.722 140.892 140.722 118.858 128.506 124.204C118.963 128.368 115.852 134.379 113.924 134.865C111.996 135.351 116.581 122.163 119.011 120.284C121.442 118.404 146.554 112.993 151.917 94.8305C157.28 76.6683 150.783 52.9975 156.113 28.7597C159.905 11.5048 156.292 5.16989 148.207 4.45702C155.692 -1.44043 162.319 -1.71586 164.943 6.95209C168.718 19.4113 165.17 36.812 169.966 53.435C174.762 70.058 170.209 98.2815 167.163 105.459Z" fill="#4E0E75"/>
<path d="M169.075 266.116C167.126 265.853 165.275 265.101 163.696 263.928C160.596 261.93 157.93 259.33 155.854 256.281C152.452 250.983 148.677 248.715 139.215 246.074C131.503 243.903 129.364 240.258 128.83 238.994C128.771 238.868 128.722 238.738 128.684 238.605C128.684 238.881 128.927 240.063 129.105 241.748C129.528 245.458 129.386 249.211 128.684 252.879C127.209 258.938 124.115 263.475 127.501 268.125C130.887 272.775 126.383 286.141 121.02 294.048C120.4 295.015 119.69 295.921 118.898 296.753C118.259 297.42 117.508 297.969 116.678 298.373C114.07 299.524 112.806 296.85 113.827 293.999C114.935 291.484 115.536 288.775 115.593 286.028C115.559 284.318 115.202 282.63 114.54 281.054C113.227 277.927 110.538 274.573 105.532 270.992C98.4351 266.019 95.7132 261.612 94.9518 257.399C94.1903 253.187 95.3406 249.379 96.0859 245.28C97.301 238.589 96.5395 232.87 93.4288 233.097C92.4433 233.227 91.5216 233.657 90.7879 234.328L90.318 234.717L89.8806 235.122C89.6052 235.397 89.3459 235.673 89.1191 235.948C88.996 236.08 88.8823 236.221 88.7789 236.369C88.4823 236.758 88.2169 237.17 87.985 237.601C87.823 237.892 87.6609 238.2 87.5151 238.508V238.638L87.1749 239.464C86.8995 240.112 86.6564 240.792 86.4134 241.521C86.1704 242.251 85.8301 243.142 85.4899 244.098C85.3603 244.454 85.2145 244.827 85.0525 245.199L84.696 246.042C83.6184 248.458 82.2646 250.741 80.6618 252.846C80.2405 253.414 79.8031 253.948 79.3818 254.467C79.1712 254.726 78.9606 254.985 78.7338 255.228C76.5791 257.7 74.1798 259.947 71.5726 261.936L70.6329 262.665C69.1585 263.783 67.749 264.82 66.469 265.905L65.5617 266.683C65.2539 266.958 64.9623 267.217 64.6868 267.493C64.4114 267.768 64.1522 268.011 63.9091 268.287C63.4354 268.796 62.997 269.338 62.5968 269.907C62.0672 270.632 61.6215 271.415 61.2683 272.24C61.2683 272.418 61.1062 272.58 61.0414 272.758C60.9766 272.937 60.8146 273.342 60.7174 273.633C60.3896 274.601 60.1138 275.585 59.8911 276.582C59.8911 276.825 59.7777 277.084 59.7291 277.327C59.5833 278.008 59.4537 278.672 59.3402 279.304L59.243 279.806C59.0986 280.621 58.9093 281.427 58.676 282.22C58.6399 282.336 58.5966 282.45 58.5464 282.561L58.4167 282.852C58.3675 282.964 58.302 283.068 58.2223 283.16L58.0279 283.371C57.905 283.479 57.7618 283.561 57.6066 283.614C57.4736 283.647 57.3346 283.647 57.2016 283.614C56.9833 283.59 56.7729 283.518 56.5859 283.403C53.1836 281.507 50.5427 274.719 53.9451 265.257C57.0456 257.062 57.8249 248.17 56.1971 239.561C54.7065 232.108 62.0297 219.503 62.2404 219.163L61.252 219.908C58.6922 221.755 51.531 226.259 45.2447 224.445C37.3058 222.16 35.0376 217.964 29.367 218.758C23.6963 219.552 13.8781 224.056 5.56654 221.415C2.42339 220.427 0.706005 218.985 0.187549 217.51C-0.687348 215.08 1.5647 212.52 5.56654 211.581C12.0472 210.074 13.5054 198.733 21.7683 194.196C30.0312 189.66 46.7353 191.555 50.5103 189.66C54.2853 187.764 54.2853 182.093 56.1647 170.752C57.6066 162.149 64.4924 157.904 67.8948 154.032C68.2807 153.61 68.6278 153.155 68.9317 152.671L69.1909 152.25L69.3205 152.007C69.4516 151.731 69.5548 151.444 69.6284 151.148C69.6779 151.029 69.7106 150.903 69.7256 150.775C69.7347 150.635 69.7347 150.494 69.7256 150.354C72.4488 148.831 75.5166 148.032 78.6366 148.032C81.7565 148.032 84.8244 148.831 87.5475 150.354C88.6038 150.976 89.5827 151.721 90.4639 152.574C90.6097 152.703 90.7393 152.849 90.8689 152.979C90.9985 153.108 91.4846 153.643 91.7762 153.983C92.0678 154.323 92.4243 154.793 92.7159 155.215C92.9125 155.464 93.0963 155.724 93.2668 155.992C93.5908 156.478 93.8986 156.981 94.2065 157.483L94.6439 158.244C95.8104 160.286 96.8474 162.424 98.0301 164.417C98.1604 164.664 98.3065 164.902 98.4675 165.13C99.9287 167.696 102.063 169.814 104.64 171.254L105.288 171.562L106.05 171.886C115.884 175.677 123.078 166.604 132.135 162.829C141.192 159.054 147.64 166.993 147.64 166.993L148.077 167.982C148.077 168.16 148.223 168.338 148.304 168.549C148.563 169.164 148.871 169.958 149.212 170.882C149.422 171.433 149.649 172.016 149.86 172.664C149.89 172.769 149.928 172.872 149.973 172.972C150.081 173.296 150.194 173.636 150.313 173.992L150.832 175.613C151.107 176.52 151.383 177.476 151.626 178.464C151.771 178.999 151.901 179.533 152.031 180.084C152.225 180.927 152.403 181.704 152.549 182.644C152.63 183.049 152.695 183.47 152.76 183.875C152.825 184.281 152.889 184.702 152.938 185.123C154.072 194.196 153.311 199.121 151.042 205.537C150.766 206.298 150.571 207.085 150.459 207.887C147.834 218.515 162.303 234.263 165.932 244.762C167.507 249.271 168.7 253.905 169.496 258.614C169.593 259.068 169.658 259.522 169.707 259.943C169.869 261.142 169.998 262.227 170.047 263.183C170.015 265.03 169.82 266.116 169.075 266.116Z" fill="#F883E3"/>
<path opacity="0.2" d="M93.4773 233.064C92.4918 233.195 91.5701 233.625 90.8364 234.295C85.5547 238.459 87.4503 243.741 80.6455 252.814C73.8408 261.887 66.6472 264.155 62.4833 269.826C58.3195 275.497 59.8425 285.315 56.4401 283.435C56.1809 274.103 54.8199 274.849 57.6876 268.06C60.5553 261.271 70.2764 255.455 67.7813 247.354C65.2863 239.253 76.5951 226.859 84.9066 225.222C93.2181 223.586 94.5304 228.366 93.4773 233.064Z" fill="#4E0E75"/>
<path opacity="0.2" d="M128.684 252.879C127.209 258.938 124.115 263.475 127.501 268.125C130.887 272.775 126.383 286.141 121.02 294.048C120.4 295.015 119.69 295.921 118.898 296.753C118.259 297.42 117.508 297.969 116.678 298.373C116.678 298.373 117.197 296.656 117.958 293.983C118.509 292.055 119.173 289.625 119.87 287C120.706 283.366 120.59 279.578 119.535 276.002C118.479 272.426 116.518 269.183 113.843 266.586C113.711 266.47 113.586 266.345 113.47 266.213C111.907 264.229 111.097 261.755 111.186 259.23C110.975 254.612 112.061 249.217 112.028 245.248C112.07 243.986 111.855 242.73 111.397 241.554C111.085 240.903 110.94 240.185 110.975 239.464C111.121 234.765 118.104 230.034 120.486 231.719C123.208 233.647 125.654 234.96 126.966 236.207C127.453 236.501 127.868 236.899 128.181 237.372C128.495 237.846 128.7 238.383 128.781 238.945C128.722 238.82 128.673 238.69 128.635 238.557C128.635 238.832 128.878 240.015 129.056 241.7C129.501 245.423 129.375 249.193 128.684 252.879Z" fill="#4E0E75"/>
<path opacity="0.2" d="M169.075 266.116C167.126 265.853 165.275 265.101 163.696 263.928C165.478 259.23 157.539 245.831 154.639 240.485C151.739 235.138 144.481 225.465 137.789 223.343C131.098 221.221 115.366 224.429 116.727 221.042C118.088 217.656 138.616 215.226 143.476 204.598C145.469 200.223 145.744 193.856 144.902 187.926C144.707 186.52 144.442 185.125 144.108 183.746C143.679 181.914 143.099 180.12 142.374 178.383C140.754 174.624 138.632 172.178 136.364 172.486C130.952 173.247 123.904 177.346 115.641 178.966C114.134 179.277 112.608 179.488 111.073 179.598H109.987C106.562 179.836 103.175 178.752 100.525 176.569C96.6368 173.328 94.3685 168.063 91.7438 163.251C88.066 156.43 78.0209 152.979 70.6815 153.53C69.7088 153.586 68.7434 153.733 67.7976 153.967C68.1836 153.546 68.5306 153.09 68.8345 152.606L69.0938 152.185L69.2234 151.942C69.3545 151.667 69.4576 151.379 69.5312 151.083C69.5807 150.964 69.6134 150.839 69.6284 150.71C69.6376 150.57 69.6376 150.43 69.6284 150.289C72.3516 148.767 75.4195 147.967 78.5394 147.967C81.6593 147.967 84.7272 148.767 87.4504 150.289C88.5066 150.911 89.4856 151.657 90.3667 152.509C90.5125 152.638 90.6421 152.784 90.7717 152.914C90.9013 153.044 91.3874 153.578 91.679 153.918C92.0152 154.311 92.3289 154.722 92.6187 155.15C92.8153 155.4 92.9991 155.659 93.1696 155.927C93.4936 156.414 93.8015 156.916 94.1093 157.418L94.5468 158.18C95.7133 160.221 96.7502 162.36 97.9329 164.352C98.0625 164.595 98.2084 164.822 98.3704 165.065C99.8315 167.631 101.966 169.749 104.543 171.19L105.191 171.497L105.953 171.821C115.787 175.613 122.981 166.54 132.038 162.765C141.094 158.99 147.543 166.928 147.543 166.928L147.98 167.917L148.207 168.484C148.466 169.099 148.774 169.893 149.114 170.817C149.325 171.368 149.536 171.967 149.762 172.599C149.793 172.704 149.831 172.807 149.876 172.907C149.984 173.231 150.097 173.571 150.216 173.928L150.735 175.548C151.01 176.455 151.285 177.411 151.528 178.399C151.674 178.934 151.804 179.469 151.933 180.019C152.128 180.862 152.306 181.64 152.452 182.579C152.533 182.984 152.598 183.406 152.663 183.811C152.727 184.216 152.792 184.637 152.841 185.058C153.975 194.131 153.213 199.057 150.945 205.472C150.669 206.233 150.474 207.02 150.362 207.822C147.737 218.45 162.205 234.198 165.835 244.697C167.41 249.206 168.602 253.84 169.399 258.549C169.496 259.003 169.561 259.457 169.61 259.878C169.772 261.077 169.901 262.162 169.95 263.118C170.015 265.03 169.82 266.116 169.075 266.116Z" fill="#4E0E75"/>
<path d="M76.433 172.567C76.3607 173.409 76.045 174.212 75.5243 174.878C75.0036 175.544 74.3005 176.044 73.5005 176.318C72.7005 176.591 71.8383 176.626 71.0188 176.418C70.1994 176.211 69.4581 175.769 68.8853 175.147C68.3125 174.525 67.9329 173.75 67.7927 172.916C67.6526 172.083 67.758 171.226 68.096 170.451C68.434 169.676 68.9902 169.017 69.6966 168.552C70.4031 168.088 71.2293 167.839 72.0747 167.836C72.672 167.859 73.2589 167.999 73.8017 168.25C74.3444 168.5 74.8323 168.856 75.2373 169.295C75.6423 169.735 75.9565 170.25 76.1617 170.812C76.3668 171.373 76.4591 171.969 76.433 172.567Z" fill="#44034F"/>
<path d="M145.08 186.727C145.011 187.571 144.697 188.377 144.177 189.045C143.658 189.714 142.954 190.217 142.154 190.492C141.353 190.767 140.489 190.803 139.668 190.596C138.847 190.388 138.104 189.946 137.53 189.323C136.957 188.7 136.577 187.924 136.438 187.088C136.298 186.253 136.405 185.395 136.745 184.62C137.086 183.844 137.644 183.184 138.353 182.721C139.062 182.258 139.891 182.012 140.738 182.012C141.937 182.067 143.066 182.593 143.879 183.476C144.692 184.359 145.124 185.527 145.08 186.727Z" fill="#44034F"/>
<path d="M111.445 209.75C109.111 210.859 106.56 211.434 103.976 211.434C101.392 211.434 98.8408 210.859 96.5071 209.75C93.1236 208.046 90.4789 205.165 89.0705 201.649C86.8022 196.238 87.4503 190.129 89.8643 187.472C90.1586 187.157 90.4905 186.88 90.8527 186.646C95.7132 183.633 102.939 186.646 102.939 186.646C109.08 189.562 114.945 191.085 117.715 196.205C118.199 197.129 118.569 198.108 118.817 199.121C119.821 203.22 116.435 207.482 111.445 209.75Z" fill="#CC0A6B"/>
<path d="M117.715 196.286C112.719 196.906 107.647 196.447 102.843 194.94C98.0385 193.434 93.6129 190.915 89.8645 187.553C90.1588 187.238 90.4907 186.961 90.8528 186.727C95.7133 183.714 102.939 186.727 102.939 186.727C109.08 189.643 114.945 191.166 117.715 196.286Z" fill="white"/>
<path d="M111.445 209.75C109.111 210.859 106.56 211.434 103.976 211.434C101.392 211.434 98.8409 210.859 96.5072 209.75C93.1237 208.046 90.479 205.165 89.0706 201.649C90.576 199.947 92.5531 198.73 94.7511 198.153C96.9491 197.576 99.2689 197.665 101.416 198.409C106.828 199.899 109.841 205.246 111.445 209.75Z" fill="#E761FF"/>
<path d="M96.8797 68.0328C91.3387 78.888 90.399 84.2346 93.4773 89.7756C96.5556 95.3166 103.684 96.4021 106.342 89.7756C108.999 83.149 108.513 79.0014 109.89 71.824C111.267 64.6466 99.8446 62.2487 96.8797 68.0328Z" fill="#9518AB"/>
<path d="M111.445 79.5685C109.825 85.6928 107.103 90.3427 111.445 92.9836C115.787 95.6245 120.324 95.6407 123.353 89.7432C126.383 83.8458 121.879 75.9393 120.534 74.8052C119.19 73.6711 113.227 72.4073 111.445 79.5685Z" fill="#9518AB"/>
<path d="M111.445 55.5575C111.332 63.4963 110.878 71.0626 114.685 69.9284C118.493 68.7943 124.261 68.7295 127.226 64.7925C130.191 60.8554 127.696 55.9463 124.407 52.5439C121.118 49.1416 111.542 48.3639 111.445 55.5575Z" fill="#9518AB"/>
<path opacity="0.2" d="M150.281 17.9693C145.177 13.7892 94.9194 56.3189 89.8645 79.536C84.8095 102.753 99.4883 111.859 109.128 106.69C118.768 101.522 122.511 76.798 127.193 64.8734C131.876 52.9489 155.611 22.3276 150.281 17.9693Z" fill="#FFD1F7"/>
<path opacity="0.2" d="M89.8643 113.949C85.3116 122.195 75.623 138.673 80.9533 139.159C86.2837 139.645 90.0263 142.561 93.4773 143.533C96.9283 144.505 97.5439 138.673 100.882 131.9C104.219 125.128 93.7203 106.998 89.8643 113.949Z" fill="#FFD1F7"/>
<path opacity="0.2" d="M63.9902 214.789C63.1315 216.198 62.2242 218.029 61.1063 220.005C58.5464 221.852 51.3852 226.357 45.0989 224.542C37.16 222.274 34.8918 218.061 29.2212 218.855C23.5505 219.649 13.7322 224.153 5.42074 221.512C2.27759 220.524 0.560205 219.082 0.041748 217.608C7.25154 218.742 21.3471 208.956 25.1869 207.109C29.0267 205.262 40.7082 208.486 51.9522 204.662C63.1963 200.839 66.8903 209.944 63.9902 214.789Z" fill="#4E0E75"/>
<path d="M72.3016 170.914C72.3016 171.344 72.1309 171.756 71.8271 172.06C71.5233 172.364 71.1112 172.534 70.6815 172.534C70.2518 172.534 69.8397 172.364 69.5358 172.06C69.232 171.756 69.0613 171.344 69.0613 170.914C69.0613 170.484 69.232 170.072 69.5358 169.768C69.8397 169.465 70.2518 169.294 70.6815 169.294C71.1112 169.294 71.5233 169.465 71.8271 169.768C72.1309 170.072 72.3016 170.484 72.3016 170.914Z" fill="white"/>
<path d="M141.062 185.382C141.062 185.703 140.967 186.016 140.789 186.282C140.611 186.549 140.358 186.757 140.062 186.879C139.766 187.002 139.44 187.034 139.126 186.971C138.811 186.909 138.523 186.754 138.296 186.528C138.069 186.301 137.915 186.013 137.853 185.698C137.79 185.384 137.822 185.058 137.945 184.762C138.068 184.466 138.275 184.213 138.542 184.035C138.808 183.857 139.121 183.762 139.442 183.762C139.871 183.762 140.284 183.933 140.587 184.237C140.891 184.54 141.062 184.953 141.062 185.382Z" fill="white"/>
<path opacity="0.2" d="M73.5492 157.256C70.5843 153.578 62.3376 159.638 58.3034 170.914C54.2691 182.191 56.6832 188.315 59.9235 190.032C63.1639 191.75 65.9344 187.294 64.9299 183.746C63.9254 180.198 65.0433 168.937 67.83 165.665C70.6167 162.392 76.4332 160.853 73.5492 157.256Z" fill="#FFE0FA"/>
<path opacity="0.2" d="M51.9684 193.807C54.6255 197.048 48.5661 201.292 44.1754 199.656C39.7847 198.02 29.2211 195.93 25.9484 200.061C22.6565 203.854 18.5305 206.832 13.8943 208.761C11.5288 209.507 15.7251 205.116 18.7548 201.292C21.7845 197.469 27.3417 193.078 30.6145 193.807C33.8873 194.536 49.8946 191.264 51.9684 193.807Z" fill="#FFE0FA"/>
<path opacity="0.2" d="M69.0128 217.348C75.7527 219.195 75.7851 222.808 72.2531 226.826C68.7211 230.844 62.0136 235.575 63.2773 241.408C64.5411 247.241 63.8282 252.344 61.2845 255.082C58.7408 257.82 58.5626 264.496 56.1486 264.917C53.7345 265.338 58.9029 254.726 59.0973 252.895C59.2917 251.064 58.1738 242.494 58.3682 238.314C58.5626 234.133 65.0919 216.247 69.0128 217.348Z" fill="#FFE0FA"/>
<path opacity="0.2" d="M101.53 230.115C106.795 232.011 110.036 240.323 106.747 243.968C103.458 247.613 102.356 255.828 104.819 259.295C107.281 262.762 110.214 266.586 112.579 270.053C114.945 273.52 114.766 277.36 112.579 274.443C110.392 271.527 103.069 266.586 101.53 263.102C99.9904 259.619 95.9886 250.886 97.8032 244.875C99.6178 238.864 98.9373 229.176 101.53 230.115Z" fill="#FFE0FA"/>
<path opacity="0.4" d="M21.7519 331.344C16.3405 355.42 23.7772 364.169 33.0932 381.132C34.7134 384.081 32.8339 393.802 32.7367 398.841C32.7289 399.896 32.5651 400.944 32.2507 401.951C29.302 387.013 31.9266 381.78 31.9266 381.78C31.9266 381.78 13.3918 363.262 18.301 335.297C21.3631 317.88 31.6188 311.691 41.7773 303.202C33.725 311.238 23.9716 321.429 21.7519 331.344Z" fill="#FFE0FA"/>
<path d="M55.6137 287.794C55.4517 289.009 53.9936 290.791 51.9521 293.043C53.2835 291.373 54.5065 289.62 55.6137 287.794Z" fill="#FFE0FA"/>
<path opacity="0.4" d="M114.297 417.019C114.556 417.356 114.769 417.727 114.929 418.121C114.588 417.683 114.232 417.214 113.876 416.711C113.13 415.658 112.255 414.492 111.445 413.163C107.275 406.799 105.591 399.124 106.714 391.599C106.714 391.599 100.234 384.048 103.798 368.56C107.362 353.071 118.38 344.37 114.653 329.999C110.927 315.628 98.7755 309.212 93.4775 283.5C93.1859 282.026 92.959 280.552 92.8132 279.077C95.1787 287.761 110.165 313.814 115.496 321.202C121.053 328.833 118.59 337.776 112.579 350.721C106.569 363.667 104.479 378.394 105.596 385.021C106.714 391.647 109.728 393.413 109.874 394.499C110.02 395.584 111.461 413.26 114.297 417.019Z" fill="#FFE0FA"/>
</svg>
