<svg width="297" height="179" viewBox="0 0 297 179" fill="none" xmlns="http://www.w3.org/2000/svg">
<path d="M296.849 64.4098C296.849 64.4098 290.514 71.652 281.684 80.4171C269.792 92.212 253.331 106.745 241.617 110.05C221.219 115.818 145.508 85.7475 182.983 72.3325C217.136 60.0839 211.077 12.3859 244.209 1.96815C247.737 0.897526 251.383 0.26094 255.065 0.0725178C300.608 -2.50356 296.849 64.4098 296.849 64.4098Z" fill="#566C91"/>
<path opacity="0.3" d="M296.849 64.4098C296.849 64.4098 290.514 71.6519 281.684 80.4171C248.049 80.4171 190.954 73.2883 190.954 73.2883C190.954 73.2883 195.815 65.8679 209.602 63.9075C223.39 61.9471 249.329 58.1721 253.995 35.0359C257.073 19.7901 252.456 7.31473 244.274 1.96815C247.802 0.897526 251.447 0.26094 255.129 0.0725178C300.608 -2.50356 296.849 64.4098 296.849 64.4098Z" fill="#111961"/>
<path d="M296.865 63.4539C296.865 63.4539 291.34 121.343 277.617 139.602C271.007 148.4 257.657 157.003 239.689 163.905C220.247 171.358 195.539 176.866 168.093 178.487C149.558 179.588 134.07 177.871 120.897 174.112C105.022 169.713 90.5688 161.246 78.9673 149.55C75.0856 145.646 71.4852 141.471 68.1931 137.059C67.8853 136.621 67.545 136.2 67.2696 135.779C49.4477 111.67 48.7672 99.6973 37.2153 94.0429C25.6634 88.3884 11.2925 93.5568 4.29329 84.4352C-1.55555 76.7718 0.0484271 61.7527 0.7127 57.2162C0.685567 58.9978 0.976349 60.7699 1.57139 62.4494C3.04681 66.5483 5.18107 70.379 7.89009 73.7906C17.0279 86.0392 18.6967 80.5306 41.0389 81.2435C63.3812 81.9563 55.2317 96.3759 76.8449 106.47C77.3471 106.696 77.8494 106.907 78.3516 107.085C85.124 109.597 92.5282 108.106 101.034 104.477C119.569 96.6027 143.483 78.6998 177.685 69.7078C197.127 64.6042 218.902 62.4818 238.522 61.8013C257.985 61.1245 277.472 61.6764 296.865 63.4539Z" fill="#2F5594"/>
<path opacity="0.3" d="M90.7298 113.048C90.7298 113.048 84.3787 137.626 81.0087 146.78C80.5947 147.873 79.8886 148.831 78.9673 149.55C75.0856 145.646 71.4852 141.471 68.1931 137.059C67.8853 136.621 67.545 136.2 67.2696 135.779C49.4477 111.67 48.7672 99.6973 37.2153 94.0428C25.6634 88.3884 11.2925 93.5568 4.29329 84.4352C-1.55555 76.7718 0.0484271 61.7527 0.7127 57.2162C0.685567 58.9978 0.976349 60.7699 1.57139 62.4494C1.86302 68.282 2.68932 73.9688 6.05929 78.3919C12.0215 86.2012 25.8417 87.7079 34.785 87.6593C43.7284 87.6107 48.2163 91.0617 55.3127 103.569C62.4091 116.077 72.0815 114.117 90.7298 113.048Z" fill="#111961"/>
<path opacity="0.3" d="M296.865 63.4539C296.865 63.4539 291.34 121.343 277.618 139.602C271.007 148.4 257.657 157.003 239.689 163.905C220.247 171.358 195.539 176.866 168.094 178.487C149.559 179.588 134.07 177.871 120.898 174.112C108.309 156.29 109.378 132.23 109.378 132.23C109.378 132.23 213.799 165.606 244.064 132.23C271.088 102.403 267.994 76.2533 238.555 61.7527C258.008 61.0934 277.484 61.6616 296.865 63.4539Z" fill="#111961"/>
<path opacity="0.3" d="M234.828 69.6754C216.31 70.6151 205.26 73.5475 189.593 75.5565C173.926 77.5656 155.456 81.7619 145.103 88.6152C134.75 95.4686 122.421 109.272 133.26 110.212C144.099 111.152 145.605 117.859 154.322 123.449C159.263 126.473 165.07 127.768 170.829 127.128C176.587 126.489 181.968 123.952 186.126 119.917C195.167 110.812 210.753 119.107 226.63 113.436C242.508 107.766 251.857 99.2759 253.72 87.5135C255.583 75.751 243.124 69.2541 234.828 69.6754Z" fill="#80DEE8"/>
<path d="M239.689 163.937C220.247 171.39 195.539 176.899 168.093 178.519C160.539 178.989 152.961 178.951 145.411 178.405C111.387 175.846 89.6768 162.09 74.1231 144.382C72.0006 141.968 69.9916 139.521 68.0798 136.929C67.772 136.491 67.4317 136.07 67.1563 135.649C62.4254 124.308 64.726 112.772 78.2383 107.02C80.6181 106.024 83.0862 105.254 85.6101 104.72C86.566 104.509 87.5057 104.347 88.4454 104.218C92.61 103.627 96.8414 103.693 100.986 104.412C101.828 104.542 102.606 104.72 103.529 104.898C121.756 108.819 141.782 123.53 165.858 145.078C192.04 168.506 220.976 167.55 239.689 163.937Z" fill="#C2D4F2"/>
<path d="M133.503 93.2326C129.29 100.961 133.503 102.614 136.873 98.5307C140.242 94.4478 135.236 90.0571 133.503 93.2326Z" fill="#64277A"/>
<path d="M147.436 96.4244C143.92 100.329 144.196 104.055 149.526 100.686C154.856 97.3155 149.348 94.302 147.436 96.4244Z" fill="#64277A"/>
<path d="M154.646 93.2327C153.204 96.6027 157.53 100.345 159.215 95.7116C160.9 91.0778 156.088 89.8789 154.646 93.2327Z" fill="#64277A"/>
<path d="M151.876 88.437C149.397 92.3254 144.844 90.0572 148.506 84.3542C152.167 78.6512 154.727 83.8681 151.876 88.437Z" fill="#64277A"/>
<path d="M163.055 79.607C158 84.9536 163.055 90.9483 166.651 85.3587C170.248 79.769 166.182 76.2856 163.055 79.607Z" fill="#64277A"/>
<path d="M166.182 100.686C160.171 105.011 163.184 113.647 172.662 109.337C182.14 105.028 172.192 96.3758 166.182 100.686Z" fill="#64277A"/>
<path d="M187.325 108.138C183.696 111.087 189.237 120.144 193.806 113.42C198.374 106.696 193.806 102.857 187.325 108.138Z" fill="#64277A"/>
<path d="M192.607 85.3587C188.248 88.9231 195.96 98.0122 200.708 92.1472C205.455 86.2822 199.573 79.6233 192.607 85.3587Z" fill="#64277A"/>
<path d="M219.502 152.58C219.502 152.58 210.396 141.757 221.673 134.077C231.005 127.726 237.761 140.088 237.761 140.088" stroke="black" stroke-width="3" stroke-miterlimit="10" stroke-linecap="round"/>
<path d="M278.071 118.264C277.759 121.687 276.714 125.002 275.009 127.986C271.769 133.883 265.158 136.362 259.374 136.297C253.963 136.297 249.232 133.948 248.519 130.157C248.098 127.905 249.07 125.15 252.181 122.056C256.182 118.005 266.762 106.599 270.003 103.877C270.845 103.164 272.141 103.456 273.437 104.525C275.965 106.615 278.606 111.735 278.071 118.264Z" fill="#3D1D5C"/>
<path d="M273.389 104.525C272.537 109.549 270.259 114.223 266.827 117.989C261.027 123.984 252.78 128.245 248.519 130.205C248.098 127.953 249.07 125.199 252.181 122.104C256.182 118.054 266.762 106.648 270.003 103.926C270.796 103.164 272.093 103.456 273.389 104.525Z" fill="white"/>
<path d="M278.071 118.265C277.759 121.687 276.714 125.002 275.009 127.986C271.768 133.883 265.158 136.362 259.374 136.297C259.281 133.538 259.894 130.801 261.156 128.345C262.418 125.889 264.286 123.797 266.584 122.266C269.815 119.608 273.888 118.189 278.071 118.265Z" fill="#A754C4"/>
<path d="M273.648 98.8548C273.648 98.8548 260.217 88.356 269.711 79.6071C276.564 73.2884 286.058 85.3587 286.058 85.3587" stroke="black" stroke-width="3" stroke-miterlimit="10" stroke-linecap="round"/>
<path opacity="0.3" d="M239.689 11.835C231.426 7.80074 226.906 21.1672 222.418 36.8343C217.93 52.5015 208.096 56.2765 209.732 59.9543C211.368 63.6321 222.791 65.9327 230.632 51.0109C238.474 36.089 244.226 14.1356 239.689 11.835Z" fill="#80DEE8"/>
<path opacity="0.3" d="M239.689 163.937C220.247 171.39 195.539 176.899 168.093 178.519C160.538 178.989 152.961 178.951 145.411 178.405C152.475 174.128 153.836 165.152 147.144 155.14C134.053 135.374 114.611 116.029 101.18 110.196C96.8644 108.435 92.6411 106.456 88.5264 104.266C92.6909 103.675 96.9223 103.741 101.067 104.461C101.909 104.59 102.687 104.768 103.61 104.947C121.837 108.867 141.863 123.579 165.938 145.127C192.04 168.506 220.976 167.55 239.689 163.937Z" fill="#111961"/>
<path opacity="0.3" d="M78.7893 117.373C65.7307 121.683 73.7019 141.239 90.3574 155.14C107.013 169.041 132.693 180.155 138.007 175.311C143.321 170.467 123.879 158.153 109.346 145.078C94.8128 132.004 87.0684 114.668 78.7893 117.373Z" fill="white"/>
</svg>
