<svg width="703" height="388" viewBox="0 0 703 388" fill="none" xmlns="http://www.w3.org/2000/svg">
<line x1="0.297729" y1="249.534" x2="702.252" y2="249.534" stroke="white" stroke-width="1.48092"/>
<path d="M124.292 353.605H134.244C135.334 353.605 136.352 353.783 137.3 354.138C138.248 354.47 139.065 354.944 139.753 355.56C140.463 356.152 141.02 356.851 141.423 357.657C141.826 358.463 142.027 359.327 142.027 360.252C142.027 361.602 141.696 362.739 141.032 363.664C140.392 364.564 139.587 365.251 138.615 365.725V366.009C139.918 366.483 140.961 367.23 141.743 368.248C142.549 369.244 142.951 370.488 142.951 371.98C142.951 373.07 142.726 374.054 142.276 374.93C141.85 375.783 141.257 376.518 140.499 377.134C139.741 377.75 138.852 378.224 137.833 378.556C136.838 378.887 135.76 379.053 134.599 379.053H124.292V353.605ZM133.888 363.983C135.002 363.983 135.855 363.687 136.447 363.095C137.063 362.479 137.371 361.756 137.371 360.927C137.371 360.097 137.075 359.387 136.483 358.794C135.89 358.202 135.073 357.906 134.03 357.906H129.09V363.983H133.888ZM134.421 374.646C135.63 374.646 136.554 374.35 137.194 373.757C137.833 373.141 138.153 372.359 138.153 371.412C138.153 370.464 137.822 369.682 137.158 369.066C136.518 368.426 135.559 368.106 134.279 368.106H129.09V374.646H134.421ZM155.956 379.622C154.464 379.622 153.101 379.385 151.869 378.911C150.661 378.413 149.63 377.703 148.777 376.779C147.924 375.854 147.261 374.741 146.787 373.438C146.313 372.111 146.076 370.606 146.076 368.924V353.605H150.874V369.208C150.874 370.061 150.981 370.843 151.194 371.554C151.407 372.265 151.727 372.881 152.153 373.402C152.58 373.923 153.113 374.338 153.753 374.646C154.393 374.93 155.127 375.073 155.956 375.073C156.809 375.073 157.556 374.93 158.196 374.646C158.835 374.338 159.368 373.923 159.795 373.402C160.221 372.881 160.541 372.265 160.755 371.554C160.968 370.843 161.074 370.061 161.074 369.208V353.605H165.873V368.924C165.873 370.511 165.636 371.969 165.162 373.295C164.712 374.599 164.048 375.724 163.171 376.672C162.318 377.596 161.276 378.319 160.044 378.84C158.835 379.361 157.473 379.622 155.956 379.622ZM176.853 367.218L168.288 353.605H174.01L179.092 362.029H179.377L184.281 353.605H190.075L181.651 367.218V379.053H176.853V367.218ZM204.839 379.053V358.155H197.731V353.605H216.746V358.155H209.637V379.053H204.839ZM225.261 353.605H230.734L240.295 379.053H234.999L232.902 372.976H223.093L220.996 379.053H215.7L225.261 353.605ZM231.338 368.568L229.064 362.206L228.14 359.114H227.855L226.931 362.206L224.657 368.568H231.338ZM249.636 365.761L241.924 353.605H247.859L252.799 361.922H253.084L258.024 353.605H263.96L256.247 365.761L264.599 379.053H258.628L253.084 369.883H252.799L247.255 379.053H241.284L249.636 365.761Z" fill="white"/>
<path d="M55.3167 278.523H58.5155V292.455H65.695V295.488H55.3167V278.523ZM67.9739 278.523H71.1727V295.488H67.9739V278.523ZM86.0655 295.109C85.5127 295.346 84.9282 295.528 84.3121 295.654C83.6961 295.796 83.0563 295.867 82.3929 295.867C81.1292 295.867 79.9523 295.638 78.8624 295.18C77.7882 294.722 76.8562 294.098 76.0664 293.308C75.2766 292.503 74.6526 291.563 74.1945 290.489C73.7522 289.399 73.5311 288.238 73.5311 287.006C73.5311 285.773 73.7522 284.62 74.1945 283.546C74.6526 282.456 75.2766 281.516 76.0664 280.727C76.8562 279.921 77.7882 279.289 78.8624 278.831C79.9523 278.373 81.1292 278.144 82.3929 278.144C83.6566 278.144 84.8255 278.373 85.8997 278.831C86.9896 279.289 87.9295 279.921 88.7193 280.727C89.5092 281.516 90.1252 282.456 90.5675 283.546C91.0256 284.62 91.2547 285.773 91.2547 287.006C91.2547 288.317 91.0098 289.533 90.5201 290.655C90.0305 291.776 89.3433 292.74 88.4587 293.545L89.7619 295.488L87.3924 297.076L86.0655 295.109ZM82.464 289.707L84.8334 288.096L86.6816 290.892C87.1081 290.402 87.4398 289.833 87.6768 289.186C87.9295 288.522 88.0559 287.795 88.0559 287.006C88.0559 286.137 87.9058 285.347 87.6057 284.636C87.3214 283.909 86.9186 283.293 86.3973 282.788C85.8918 282.282 85.2915 281.888 84.5965 281.603C83.9172 281.319 83.1827 281.177 82.3929 281.177C81.6031 281.177 80.8606 281.319 80.1656 281.603C79.4863 281.888 78.8861 282.282 78.3648 282.788C77.8593 283.293 77.4565 283.909 77.1564 284.636C76.872 285.347 76.7299 286.137 76.7299 287.006C76.7299 287.874 76.872 288.672 77.1564 289.399C77.4565 290.11 77.8593 290.718 78.3648 291.223C78.8861 291.729 79.4863 292.124 80.1656 292.408C80.8606 292.692 81.6031 292.834 82.3929 292.834C82.7404 292.834 83.0721 292.803 83.3881 292.74C83.704 292.677 84.012 292.59 84.3121 292.479L82.464 289.707ZM100.052 295.867C99.0565 295.867 98.1482 295.709 97.3268 295.394C96.5212 295.062 95.834 294.588 95.2654 293.972C94.6967 293.356 94.2544 292.613 93.9385 291.745C93.6225 290.86 93.4646 289.857 93.4646 288.735V278.523H96.6634V288.925C96.6634 289.494 96.7344 290.015 96.8766 290.489C97.0188 290.963 97.232 291.373 97.5164 291.721C97.8007 292.068 98.1561 292.345 98.5826 292.55C99.0091 292.74 99.4988 292.834 100.052 292.834C100.62 292.834 101.118 292.74 101.544 292.55C101.971 292.345 102.326 292.068 102.611 291.721C102.895 291.373 103.108 290.963 103.25 290.489C103.393 290.015 103.464 289.494 103.464 288.925V278.523H106.662V288.735C106.662 289.794 106.505 290.765 106.189 291.65C105.888 292.519 105.446 293.269 104.862 293.901C104.293 294.517 103.598 294.999 102.777 295.346C101.971 295.694 101.063 295.867 100.052 295.867ZM109.694 278.523H112.893V295.488H109.694V278.523ZM116.312 278.523H122.046C123.389 278.523 124.597 278.728 125.671 279.139C126.746 279.55 127.662 280.134 128.42 280.892C129.178 281.635 129.755 282.527 130.15 283.57C130.56 284.612 130.766 285.758 130.766 287.006C130.766 288.269 130.56 289.422 130.15 290.465C129.755 291.508 129.178 292.4 128.42 293.143C127.662 293.885 126.746 294.462 125.671 294.872C124.597 295.283 123.389 295.488 122.046 295.488H116.312V278.523ZM121.904 292.455C122.836 292.455 123.657 292.329 124.368 292.076C125.079 291.808 125.671 291.436 126.145 290.963C126.619 290.489 126.975 289.92 127.212 289.257C127.448 288.577 127.567 287.827 127.567 287.006C127.567 286.184 127.448 285.442 127.212 284.778C126.975 284.099 126.619 283.522 126.145 283.049C125.671 282.575 125.079 282.211 124.368 281.959C123.657 281.69 122.836 281.556 121.904 281.556H119.511V292.455H121.904ZM133.342 278.523H136.541V295.488H133.342V278.523ZM143.562 295.488V281.556H138.823V278.523H151.5V281.556H146.761V295.488H143.562ZM158.063 287.598L152.353 278.523H156.168L159.556 284.139H159.746L163.015 278.523H166.878L161.262 287.598V295.488H158.063V287.598ZM55.3167 324.488V307.523H61.2878C62.0934 307.523 62.8437 307.657 63.5388 307.926C64.2496 308.178 64.8657 308.542 65.387 309.016C65.9082 309.49 66.319 310.058 66.6191 310.722C66.9192 311.369 67.0693 312.088 67.0693 312.878C67.0693 313.684 66.9192 314.418 66.6191 315.082C66.319 315.729 65.9082 316.29 65.387 316.764C64.8657 317.238 64.2496 317.609 63.5388 317.877C62.8437 318.13 62.0934 318.257 61.2878 318.257H58.5155V324.488H55.3167ZM61.3352 315.224C62.1724 315.224 62.8042 314.987 63.2307 314.513C63.6573 314.039 63.8705 313.494 63.8705 312.878C63.8705 312.578 63.8152 312.286 63.7046 312.001C63.6099 311.717 63.4519 311.472 63.2307 311.267C63.0254 311.046 62.7648 310.872 62.4488 310.745C62.1329 310.619 61.7617 310.556 61.3352 310.556H58.5155V315.224H61.3352ZM77.1403 324.867C75.8765 324.867 74.6997 324.638 73.6097 324.18C72.5356 323.722 71.6036 323.098 70.8138 322.308C70.024 321.503 69.4 320.563 68.9419 319.489C68.4996 318.399 68.2785 317.238 68.2785 316.006C68.2785 314.773 68.4996 313.62 68.9419 312.546C69.4 311.456 70.024 310.516 70.8138 309.727C71.6036 308.921 72.5356 308.289 73.6097 307.831C74.6997 307.373 75.8765 307.144 77.1403 307.144C78.404 307.144 79.5729 307.373 80.6471 307.831C81.737 308.289 82.6769 308.921 83.4667 309.727C84.2565 310.516 84.8726 311.456 85.3149 312.546C85.773 313.62 86.0021 314.773 86.0021 316.006C86.0021 317.238 85.773 318.399 85.3149 319.489C84.8726 320.563 84.2565 321.503 83.4667 322.308C82.6769 323.098 81.737 323.722 80.6471 324.18C79.5729 324.638 78.404 324.867 77.1403 324.867ZM77.1403 321.834C77.9301 321.834 78.6646 321.692 79.3439 321.408C80.0389 321.124 80.6392 320.729 81.1447 320.223C81.6659 319.718 82.0687 319.11 82.3531 318.399C82.6532 317.672 82.8033 316.874 82.8033 316.006C82.8033 315.137 82.6532 314.347 82.3531 313.636C82.0687 312.909 81.6659 312.293 81.1447 311.788C80.6392 311.282 80.0389 310.888 79.3439 310.603C78.6646 310.319 77.9301 310.177 77.1403 310.177C76.3504 310.177 75.608 310.319 74.913 310.603C74.2337 310.888 73.6334 311.282 73.1122 311.788C72.6067 312.293 72.2039 312.909 71.9037 313.636C71.6194 314.347 71.4772 315.137 71.4772 316.006C71.4772 316.874 71.6194 317.672 71.9037 318.399C72.2039 319.11 72.6067 319.718 73.1122 320.223C73.6334 320.729 74.2337 321.124 74.913 321.408C75.608 321.692 76.3504 321.834 77.1403 321.834ZM96.3922 324.867C95.1284 324.867 93.9516 324.638 92.8617 324.18C91.7875 323.722 90.8555 323.098 90.0657 322.308C89.2759 321.503 88.6519 320.563 88.1938 319.489C87.7515 318.399 87.5304 317.238 87.5304 316.006C87.5304 314.773 87.7515 313.62 88.1938 312.546C88.6519 311.456 89.2759 310.516 90.0657 309.727C90.8555 308.921 91.7875 308.289 92.8617 307.831C93.9516 307.373 95.1284 307.144 96.3922 307.144C97.6559 307.144 98.8248 307.373 99.899 307.831C100.989 308.289 101.929 308.921 102.719 309.727C103.508 310.516 104.125 311.456 104.567 312.546C105.025 313.62 105.254 314.773 105.254 316.006C105.254 317.238 105.025 318.399 104.567 319.489C104.125 320.563 103.508 321.503 102.719 322.308C101.929 323.098 100.989 323.722 99.899 324.18C98.8248 324.638 97.6559 324.867 96.3922 324.867ZM96.3922 321.834C97.182 321.834 97.9165 321.692 98.5958 321.408C99.2908 321.124 99.8911 320.729 100.397 320.223C100.918 319.718 101.321 319.11 101.605 318.399C101.905 317.672 102.055 316.874 102.055 316.006C102.055 315.137 101.905 314.347 101.605 313.636C101.321 312.909 100.918 312.293 100.397 311.788C99.8911 311.282 99.2908 310.888 98.5958 310.603C97.9165 310.319 97.182 310.177 96.3922 310.177C95.6023 310.177 94.8599 310.319 94.1649 310.603C93.4856 310.888 92.8854 311.282 92.3641 311.788C91.8586 312.293 91.4558 312.909 91.1556 313.636C90.8713 314.347 90.7291 315.137 90.7291 316.006C90.7291 316.874 90.8713 317.672 91.1556 318.399C91.4558 319.11 91.8586 319.718 92.3641 320.223C92.8854 320.729 93.4856 321.124 94.1649 321.408C94.8599 321.692 95.6023 321.834 96.3922 321.834ZM107.843 307.523H111.042V321.455H118.221V324.488H107.843V307.523Z" fill="white" fill-opacity="0.7"/>
<path d="M191.561 278.523H194.712L199.902 287.503H200.091L205.28 278.523H208.455V295.488H205.28V287.124L205.47 284.281H205.28L200.968 291.887H199.049L194.712 284.281H194.523L194.712 287.124V295.488H191.561V278.523ZM216.829 278.523H220.478L226.852 295.488H223.322L221.924 291.436H215.384L213.986 295.488H210.456L216.829 278.523ZM220.881 288.498L219.365 284.257L218.749 282.196H218.559L217.943 284.257L216.427 288.498H220.881ZM228.838 278.523H235.023C235.876 278.523 236.65 278.657 237.345 278.926C238.04 279.194 238.632 279.565 239.122 280.039C239.627 280.513 240.014 281.082 240.283 281.745C240.551 282.393 240.686 283.104 240.686 283.878C240.686 284.447 240.591 284.984 240.401 285.489C240.212 285.979 239.951 286.429 239.619 286.84C239.288 287.235 238.901 287.59 238.458 287.906C238.016 288.206 237.55 288.443 237.06 288.617L237.037 288.783L241.586 295.299V295.488H237.913L233.53 289.114H232.037V295.488H228.838V278.523ZM234.999 286.176C235.726 286.176 236.318 285.955 236.776 285.513C237.25 285.071 237.487 284.51 237.487 283.831C237.487 283.53 237.432 283.238 237.321 282.954C237.226 282.669 237.076 282.417 236.871 282.196C236.666 281.974 236.405 281.801 236.089 281.674C235.789 281.532 235.441 281.461 235.046 281.461H232.037V286.176H234.999ZM243.532 278.523H246.731V285.797H246.92L253.128 278.523H256.99V278.712L250.854 285.726L257.63 295.299V295.488H253.721L248.674 288.261L246.731 290.512V295.488H243.532V278.523ZM262.581 281.556V285.489H269.381V288.522H262.581V292.455H270.14V295.488H259.382V278.523H270.14V281.556H262.581ZM276.682 295.488V281.556H271.943V278.523H284.62V281.556H279.881V295.488H276.682ZM286.895 278.523H290.094V295.488H286.895V278.523ZM293.513 278.523H297.233L304.057 289.896H304.246L304.057 286.626V278.523H307.232V295.488H303.867L296.664 283.475H296.475L296.664 286.745V295.488H293.513V278.523ZM318.461 286.176H326.778C326.825 286.366 326.864 286.595 326.896 286.863C326.928 287.132 326.943 287.401 326.943 287.669C326.943 288.759 326.778 289.786 326.446 290.749C326.114 291.713 325.593 292.574 324.882 293.332C324.124 294.138 323.215 294.762 322.157 295.204C321.099 295.646 319.89 295.867 318.532 295.867C317.3 295.867 316.139 295.646 315.049 295.204C313.959 294.762 313.011 294.146 312.205 293.356C311.4 292.566 310.76 291.634 310.286 290.56C309.812 289.47 309.575 288.285 309.575 287.006C309.575 285.726 309.812 284.549 310.286 283.475C310.76 282.385 311.4 281.445 312.205 280.655C313.011 279.866 313.959 279.25 315.049 278.807C316.139 278.365 317.3 278.144 318.532 278.144C319.906 278.144 321.13 278.381 322.204 278.855C323.294 279.329 324.226 279.984 325 280.821L322.797 282.978C322.244 282.393 321.628 281.951 320.949 281.651C320.269 281.335 319.456 281.177 318.508 281.177C317.734 281.177 317 281.319 316.304 281.603C315.609 281.872 315.001 282.259 314.48 282.764C313.959 283.27 313.54 283.886 313.224 284.612C312.924 285.323 312.774 286.121 312.774 287.006C312.774 287.89 312.924 288.696 313.224 289.422C313.54 290.133 313.959 290.741 314.48 291.247C315.017 291.752 315.633 292.147 316.328 292.432C317.023 292.7 317.766 292.834 318.555 292.834C319.456 292.834 320.214 292.708 320.83 292.455C321.462 292.187 321.999 291.847 322.441 291.436C322.757 291.152 323.026 290.797 323.247 290.37C323.484 289.928 323.666 289.438 323.792 288.901H318.461V286.176ZM202.769 321.005L204.546 323.138L202.295 324.867L201.063 323.375C199.941 324.37 198.59 324.867 197.011 324.867C196.126 324.867 195.297 324.725 194.523 324.441C193.765 324.141 193.101 323.73 192.532 323.209C191.964 322.672 191.514 322.04 191.182 321.313C190.866 320.587 190.708 319.789 190.708 318.92C190.708 317.972 190.937 317.072 191.395 316.219C191.869 315.366 192.525 314.639 193.362 314.039C193.062 313.628 192.817 313.202 192.627 312.759C192.438 312.317 192.343 311.851 192.343 311.361C192.343 310.777 192.446 310.232 192.651 309.727C192.872 309.205 193.18 308.755 193.575 308.376C193.97 307.997 194.436 307.697 194.973 307.476C195.51 307.254 196.102 307.144 196.75 307.144C197.887 307.144 198.796 307.412 199.475 307.949C200.17 308.471 200.668 309.134 200.968 309.94L198.456 311.267C198.33 310.888 198.132 310.564 197.864 310.295C197.595 310.011 197.24 309.869 196.798 309.869C196.339 309.869 195.976 310.003 195.708 310.271C195.439 310.54 195.305 310.88 195.305 311.29C195.305 311.543 195.36 311.78 195.471 312.001C195.581 312.207 195.731 312.428 195.921 312.665L201.015 318.873L202.413 316.598L204.664 318.02L202.769 321.005ZM197.153 322.071C198.038 322.071 198.764 321.811 199.333 321.29L195.044 316.1C194.602 316.432 194.262 316.843 194.025 317.332C193.788 317.806 193.67 318.296 193.67 318.802C193.67 319.307 193.765 319.765 193.954 320.176C194.144 320.571 194.396 320.91 194.712 321.195C195.044 321.479 195.415 321.7 195.826 321.858C196.253 322 196.695 322.071 197.153 322.071ZM212.109 307.523H218.743C219.47 307.523 220.149 307.641 220.781 307.878C221.413 308.099 221.958 308.415 222.416 308.826C222.89 309.221 223.261 309.687 223.53 310.224C223.798 310.761 223.932 311.338 223.932 311.954C223.932 312.854 223.711 313.612 223.269 314.228C222.842 314.829 222.305 315.287 221.658 315.603V315.792C222.526 316.108 223.222 316.606 223.743 317.285C224.28 317.949 224.548 318.778 224.548 319.773C224.548 320.5 224.398 321.155 224.098 321.74C223.814 322.308 223.419 322.798 222.913 323.209C222.408 323.619 221.816 323.935 221.136 324.157C220.473 324.378 219.754 324.488 218.98 324.488H212.109V307.523ZM218.506 314.442C219.249 314.442 219.817 314.244 220.212 313.849C220.623 313.439 220.828 312.957 220.828 312.404C220.828 311.851 220.631 311.377 220.236 310.982C219.841 310.587 219.296 310.39 218.601 310.39H215.307V314.442H218.506ZM218.862 321.55C219.667 321.55 220.283 321.353 220.71 320.958C221.136 320.547 221.35 320.026 221.35 319.394C221.35 318.762 221.128 318.241 220.686 317.83C220.26 317.404 219.62 317.19 218.767 317.19H215.307V321.55H218.862ZM233.218 324.867C232.223 324.867 231.315 324.709 230.494 324.394C229.688 324.062 229.001 323.588 228.432 322.972C227.863 322.356 227.421 321.613 227.105 320.745C226.789 319.86 226.631 318.857 226.631 317.735V307.523H229.83V317.925C229.83 318.494 229.901 319.015 230.043 319.489C230.186 319.963 230.399 320.373 230.683 320.721C230.967 321.068 231.323 321.345 231.749 321.55C232.176 321.74 232.666 321.834 233.218 321.834C233.787 321.834 234.285 321.74 234.711 321.55C235.138 321.345 235.493 321.068 235.777 320.721C236.062 320.373 236.275 319.963 236.417 319.489C236.559 319.015 236.63 318.494 236.63 317.925V307.523H239.829V317.735C239.829 318.794 239.671 319.765 239.355 320.65C239.055 321.519 238.613 322.269 238.028 322.901C237.46 323.517 236.765 323.999 235.943 324.346C235.138 324.694 234.229 324.867 233.218 324.867ZM247.15 316.598L241.439 307.523H245.254L248.642 313.139H248.832L252.102 307.523H255.964L250.348 316.598V324.488H247.15V316.598ZM257.948 307.523H264.582C265.309 307.523 265.988 307.641 266.62 307.878C267.252 308.099 267.797 308.415 268.255 308.826C268.729 309.221 269.1 309.687 269.369 310.224C269.637 310.761 269.771 311.338 269.771 311.954C269.771 312.854 269.55 313.612 269.108 314.228C268.681 314.829 268.144 315.287 267.497 315.603V315.792C268.365 316.108 269.06 316.606 269.582 317.285C270.119 317.949 270.387 318.778 270.387 319.773C270.387 320.5 270.237 321.155 269.937 321.74C269.653 322.308 269.258 322.798 268.752 323.209C268.247 323.619 267.655 323.935 266.975 324.157C266.312 324.378 265.593 324.488 264.819 324.488H257.948V307.523ZM264.345 314.442C265.088 314.442 265.656 314.244 266.051 313.849C266.462 313.439 266.667 312.957 266.667 312.404C266.667 311.851 266.47 311.377 266.075 310.982C265.68 310.587 265.135 310.39 264.44 310.39H261.146V314.442H264.345ZM264.701 321.55C265.506 321.55 266.122 321.353 266.549 320.958C266.975 320.547 267.189 320.026 267.189 319.394C267.189 318.762 266.967 318.241 266.525 317.83C266.099 317.404 265.459 317.19 264.606 317.19H261.146V321.55H264.701ZM277.57 307.523H281.219L287.593 324.488H284.063L282.665 320.436H276.125L274.727 324.488H271.196L277.57 307.523ZM281.622 317.498L280.106 313.257L279.489 311.196H279.3L278.684 313.257L277.167 317.498H281.622ZM303.949 321.763C303.112 322.774 302.125 323.548 300.987 324.085C299.85 324.607 298.578 324.867 297.173 324.867C295.909 324.867 294.732 324.638 293.642 324.18C292.568 323.722 291.636 323.098 290.846 322.308C290.056 321.519 289.432 320.587 288.974 319.512C288.516 318.422 288.287 317.254 288.287 316.006C288.287 314.758 288.516 313.597 288.974 312.522C289.432 311.433 290.056 310.493 290.846 309.703C291.636 308.913 292.568 308.289 293.642 307.831C294.732 307.373 295.909 307.144 297.173 307.144C298.531 307.144 299.724 307.381 300.75 307.855C301.793 308.329 302.717 309.016 303.523 309.916L301.272 312.096C300.766 311.512 300.182 311.046 299.518 310.698C298.871 310.35 298.097 310.177 297.196 310.177C296.406 310.177 295.664 310.319 294.969 310.603C294.274 310.872 293.666 311.259 293.144 311.764C292.639 312.27 292.236 312.886 291.936 313.612C291.636 314.323 291.486 315.121 291.486 316.006C291.486 316.89 291.636 317.696 291.936 318.422C292.236 319.133 292.639 319.741 293.144 320.247C293.666 320.752 294.274 321.147 294.969 321.432C295.664 321.7 296.406 321.834 297.196 321.834C298.144 321.834 298.981 321.645 299.708 321.266C300.45 320.871 301.106 320.318 301.675 319.607L303.949 321.763ZM306.517 307.523H309.716V314.797H309.905L316.113 307.523H319.976V307.712L313.839 314.726L320.615 324.299V324.488H316.706L311.659 317.261L309.716 319.512V324.488H306.517V307.523Z" fill="white" fill-opacity="0.7"/>
<rect x="189.855" y="130.321" width="94.7786" height="119.954" fill="white"/>
<path d="M213.704 202.825V198.595C215.102 197.221 216.393 195.941 217.578 194.757C218.075 194.259 218.585 193.75 219.106 193.228C219.627 192.707 220.113 192.221 220.563 191.771C221.013 191.321 221.416 190.918 221.772 190.563C222.127 190.184 222.4 189.887 222.589 189.674C222.968 189.224 223.3 188.821 223.584 188.466C223.892 188.11 224.129 187.767 224.295 187.435C224.485 187.08 224.627 186.736 224.722 186.404C224.816 186.049 224.864 185.67 224.864 185.267C224.864 184.485 224.556 183.81 223.94 183.241C223.324 182.649 222.482 182.353 221.416 182.353C220.35 182.353 219.521 182.661 218.928 183.277C218.336 183.869 217.933 184.544 217.72 185.303L213.49 183.561C213.68 182.921 213.988 182.27 214.414 181.606C214.841 180.919 215.386 180.315 216.049 179.794C216.713 179.249 217.495 178.81 218.395 178.478C219.319 178.123 220.35 177.945 221.487 177.945C222.719 177.945 223.833 178.135 224.828 178.514C225.823 178.869 226.665 179.367 227.352 180.007C228.039 180.647 228.572 181.405 228.951 182.281C229.33 183.134 229.52 184.059 229.52 185.054C229.52 186.57 229.141 187.968 228.382 189.248C227.648 190.503 226.748 191.676 225.681 192.766L222.625 195.823C221.819 196.629 220.907 197.529 219.888 198.524L220.03 198.737H229.875V202.825H213.704ZM232.574 184.023C232.574 183.194 232.728 182.412 233.036 181.677C233.367 180.943 233.806 180.303 234.351 179.758C234.919 179.189 235.583 178.751 236.341 178.443C237.099 178.111 237.929 177.945 238.829 177.945C239.729 177.945 240.559 178.111 241.317 178.443C242.099 178.751 242.762 179.189 243.307 179.758C243.876 180.303 244.314 180.943 244.622 181.677C244.954 182.412 245.12 183.194 245.12 184.023C245.12 184.852 244.954 185.646 244.622 186.404C244.314 187.139 243.876 187.779 243.307 188.324C242.762 188.869 242.099 189.307 241.317 189.639C240.559 189.947 239.729 190.101 238.829 190.101C237.929 190.101 237.099 189.947 236.341 189.639C235.583 189.307 234.919 188.869 234.351 188.324C233.806 187.779 233.367 187.139 233.036 186.404C232.728 185.646 232.574 184.852 232.574 184.023ZM236.377 184.023C236.377 184.805 236.614 185.433 237.087 185.907C237.561 186.381 238.142 186.618 238.829 186.618C239.516 186.618 240.097 186.381 240.571 185.907C241.044 185.433 241.281 184.805 241.281 184.023C241.281 183.241 241.044 182.613 240.571 182.139C240.097 181.665 239.516 181.428 238.829 181.428C238.142 181.428 237.561 181.665 237.087 182.139C236.614 182.613 236.377 183.241 236.377 184.023ZM237.087 201.51L252.868 177.945L255.676 179.829L239.895 203.393L237.087 201.51ZM247.643 197.316C247.643 196.486 247.797 195.704 248.105 194.97C248.437 194.235 248.876 193.596 249.421 193.051C249.989 192.482 250.653 192.044 251.411 191.736C252.169 191.404 252.998 191.238 253.899 191.238C254.799 191.238 255.629 191.404 256.387 191.736C257.169 192.044 257.832 192.482 258.377 193.051C258.946 193.596 259.384 194.235 259.692 194.97C260.024 195.704 260.19 196.486 260.19 197.316C260.19 198.145 260.024 198.939 259.692 199.697C259.384 200.432 258.946 201.071 258.377 201.616C257.832 202.161 257.169 202.588 256.387 202.896C255.629 203.228 254.799 203.393 253.899 203.393C252.998 203.393 252.169 203.228 251.411 202.896C250.653 202.588 249.989 202.161 249.421 201.616C248.876 201.071 248.437 200.432 248.105 199.697C247.797 198.939 247.643 198.145 247.643 197.316ZM251.446 197.316C251.446 198.098 251.683 198.726 252.157 199.199C252.631 199.673 253.212 199.91 253.899 199.91C254.586 199.91 255.166 199.673 255.64 199.199C256.114 198.726 256.351 198.098 256.351 197.316C256.351 196.534 256.114 195.906 255.64 195.432C255.166 194.958 254.586 194.721 253.899 194.721C253.212 194.721 252.631 194.958 252.157 195.432C251.683 195.906 251.446 196.534 251.446 197.316Z" fill="url(#paint0_linear_58_107)"/>
<rect x="53.6107" width="94.7786" height="250.275" fill="white"/>
<path d="M86.0853 138.233C85.1612 138.233 84.2371 138.102 83.313 137.842C82.4126 137.581 81.5714 137.178 80.7895 136.633C80.0076 136.088 79.3204 135.413 78.7281 134.607C78.1594 133.778 77.7329 132.795 77.4486 131.657L81.678 130.023C81.9387 131.207 82.4363 132.155 83.1708 132.866C83.929 133.577 84.8887 133.932 86.0497 133.932C86.6184 133.932 87.1397 133.837 87.6136 133.648C88.1111 133.435 88.5377 133.15 88.8931 132.795C89.2722 132.439 89.5565 132.025 89.7461 131.551C89.9593 131.053 90.066 130.508 90.066 129.916C90.066 129.347 89.9593 128.826 89.7461 128.352C89.5565 127.854 89.284 127.428 88.9286 127.073C88.5732 126.693 88.1467 126.409 87.6491 126.22C87.1752 126.006 86.6421 125.9 86.0497 125.9C85.3152 125.9 84.6636 126.066 84.0949 126.397C83.5262 126.705 83.0405 127.096 82.6377 127.57L78.1238 125.509L79.5455 113.353H93.2292V117.441H83.4196L82.4955 123.127L82.7799 123.198C83.2537 122.796 83.8343 122.452 84.5214 122.168C85.2086 121.883 86.0379 121.741 87.0093 121.741C88.0282 121.741 88.9997 121.943 89.9238 122.345C90.8479 122.725 91.6653 123.27 92.3762 123.98C93.087 124.691 93.6557 125.556 94.0822 126.575C94.5087 127.57 94.722 128.684 94.722 129.916C94.722 131.124 94.5087 132.238 94.0822 133.257C93.6557 134.276 93.0515 135.152 92.2696 135.887C91.5113 136.621 90.5991 137.202 89.5328 137.629C88.4903 138.031 87.3411 138.233 86.0853 138.233ZM97.226 118.862C97.226 118.033 97.38 117.251 97.688 116.517C98.0198 115.782 98.4581 115.142 99.0031 114.597C99.5718 114.029 100.235 113.59 100.993 113.282C101.752 112.951 102.581 112.785 103.481 112.785C104.382 112.785 105.211 112.951 105.969 113.282C106.751 113.59 107.415 114.029 107.96 114.597C108.528 115.142 108.967 115.782 109.275 116.517C109.606 117.251 109.772 118.033 109.772 118.862C109.772 119.692 109.606 120.485 109.275 121.244C108.967 121.978 108.528 122.618 107.96 123.163C107.415 123.708 106.751 124.146 105.969 124.478C105.211 124.786 104.382 124.94 103.481 124.94C102.581 124.94 101.752 124.786 100.993 124.478C100.235 124.146 99.5718 123.708 99.0031 123.163C98.4581 122.618 98.0198 121.978 97.688 121.244C97.38 120.485 97.226 119.692 97.226 118.862ZM101.029 118.862C101.029 119.644 101.266 120.272 101.74 120.746C102.214 121.22 102.794 121.457 103.481 121.457C104.169 121.457 104.749 121.22 105.223 120.746C105.697 120.272 105.934 119.644 105.934 118.862C105.934 118.08 105.697 117.453 105.223 116.979C104.749 116.505 104.169 116.268 103.481 116.268C102.794 116.268 102.214 116.505 101.74 116.979C101.266 117.453 101.029 118.08 101.029 118.862ZM101.74 136.349L117.52 112.785L120.328 114.668L104.548 138.233L101.74 136.349ZM112.296 132.155C112.296 131.326 112.45 130.544 112.758 129.809C113.09 129.075 113.528 128.435 114.073 127.89C114.642 127.321 115.305 126.883 116.063 126.575C116.821 126.243 117.651 126.077 118.551 126.077C119.452 126.077 120.281 126.243 121.039 126.575C121.821 126.883 122.485 127.321 123.029 127.89C123.598 128.435 124.037 129.075 124.345 129.809C124.676 130.544 124.842 131.326 124.842 132.155C124.842 132.984 124.676 133.778 124.345 134.536C124.037 135.271 123.598 135.911 123.029 136.456C122.485 137.001 121.821 137.427 121.039 137.735C120.281 138.067 119.452 138.233 118.551 138.233C117.651 138.233 116.821 138.067 116.063 137.735C115.305 137.427 114.642 137.001 114.073 136.456C113.528 135.911 113.09 135.271 112.758 134.536C112.45 133.778 112.296 132.984 112.296 132.155ZM116.099 132.155C116.099 132.937 116.336 133.565 116.81 134.039C117.284 134.513 117.864 134.75 118.551 134.75C119.238 134.75 119.819 134.513 120.293 134.039C120.767 133.565 121.004 132.937 121.004 132.155C121.004 131.373 120.767 130.745 120.293 130.271C119.819 129.797 119.238 129.56 118.551 129.56C117.864 129.56 117.284 129.797 116.81 130.271C116.336 130.745 116.099 131.373 116.099 132.155Z" fill="url(#paint1_linear_58_107)"/>
<path d="M466.942 379.622C465.852 379.622 464.809 379.468 463.814 379.16C462.819 378.852 461.907 378.39 461.077 377.774C460.248 377.158 459.525 376.411 458.909 375.535C458.293 374.634 457.808 373.592 457.452 372.407L461.966 370.63C462.298 371.909 462.878 372.976 463.708 373.829C464.537 374.658 465.627 375.073 466.977 375.073C467.475 375.073 467.949 375.013 468.399 374.895C468.873 374.753 469.288 374.563 469.643 374.326C470.022 374.065 470.318 373.746 470.532 373.367C470.745 372.987 470.851 372.549 470.851 372.051C470.851 371.578 470.769 371.151 470.603 370.772C470.437 370.393 470.152 370.037 469.75 369.706C469.371 369.374 468.861 369.054 468.221 368.746C467.605 368.438 466.835 368.118 465.911 367.786L464.347 367.218C463.66 366.981 462.961 366.661 462.25 366.258C461.563 365.855 460.935 365.37 460.367 364.801C459.798 364.232 459.324 363.569 458.945 362.811C458.589 362.029 458.412 361.152 458.412 360.18C458.412 359.185 458.601 358.261 458.98 357.408C459.383 356.531 459.94 355.773 460.651 355.133C461.385 354.47 462.25 353.961 463.245 353.605C464.264 353.226 465.39 353.036 466.622 353.036C467.901 353.036 469.003 353.214 469.927 353.57C470.875 353.901 471.669 354.34 472.309 354.885C472.972 355.406 473.505 355.986 473.908 356.626C474.311 357.266 474.607 357.87 474.797 358.439L470.567 360.216C470.33 359.505 469.892 358.865 469.252 358.297C468.636 357.728 467.783 357.444 466.693 357.444C465.65 357.444 464.786 357.692 464.098 358.19C463.411 358.664 463.068 359.292 463.068 360.074C463.068 360.832 463.4 361.484 464.063 362.029C464.726 362.55 465.781 363.059 467.226 363.557L468.826 364.09C469.844 364.445 470.769 364.86 471.598 365.334C472.451 365.784 473.174 366.329 473.766 366.969C474.382 367.609 474.844 368.343 475.152 369.173C475.484 369.978 475.65 370.914 475.65 371.98C475.65 373.307 475.377 374.456 474.832 375.428C474.311 376.376 473.636 377.158 472.806 377.774C471.977 378.39 471.041 378.852 469.998 379.16C468.956 379.468 467.937 379.622 466.942 379.622ZM484.4 358.155V364.055H494.6V368.604H484.4V374.504H495.738V379.053H479.602V353.605H495.738V358.155H484.4ZM500.149 353.605H504.948V374.504H515.717V379.053H500.149V353.605ZM519.135 353.605H523.933V374.504H534.703V379.053H519.135V353.605ZM549.91 379.053V358.155H542.802V353.605H561.816V358.155H554.708V379.053H549.91ZM570.332 353.605H575.805L585.366 379.053H580.07L577.973 372.976H568.163L566.067 379.053H560.771L570.332 353.605ZM576.409 368.568L574.135 362.206L573.21 359.114H572.926L572.002 362.206L569.727 368.568H576.409ZM594.707 365.761L586.994 353.605H592.93L597.87 361.922H598.155L603.095 353.605H609.03L601.318 365.761L609.67 379.053H603.699L598.155 369.883H597.87L592.326 379.053H586.355L594.707 365.761Z" fill="white"/>
<path d="M395.927 278.523H399.126V292.455H406.306V295.488H395.927V278.523ZM408.585 278.523H411.783V295.488H408.585V278.523ZM426.676 295.109C426.123 295.346 425.539 295.528 424.923 295.654C424.307 295.796 423.667 295.867 423.004 295.867C421.74 295.867 420.563 295.638 419.473 295.18C418.399 294.722 417.467 294.098 416.677 293.308C415.887 292.503 415.263 291.563 414.805 290.489C414.363 289.399 414.142 288.238 414.142 287.006C414.142 285.773 414.363 284.62 414.805 283.546C415.263 282.456 415.887 281.516 416.677 280.727C417.467 279.921 418.399 279.289 419.473 278.831C420.563 278.373 421.74 278.144 423.004 278.144C424.267 278.144 425.436 278.373 426.51 278.831C427.6 279.289 428.54 279.921 429.33 280.727C430.12 281.516 430.736 282.456 431.178 283.546C431.636 284.62 431.865 285.773 431.865 287.006C431.865 288.317 431.621 289.533 431.131 290.655C430.641 291.776 429.954 292.74 429.069 293.545L430.373 295.488L428.003 297.076L426.676 295.109ZM423.075 289.707L425.444 288.096L427.292 290.892C427.719 290.402 428.051 289.833 428.288 289.186C428.54 288.522 428.667 287.795 428.667 287.006C428.667 286.137 428.517 285.347 428.216 284.636C427.932 283.909 427.529 283.293 427.008 282.788C426.503 282.282 425.902 281.888 425.207 281.603C424.528 281.319 423.793 281.177 423.004 281.177C422.214 281.177 421.471 281.319 420.776 281.603C420.097 281.888 419.497 282.282 418.976 282.788C418.47 283.293 418.067 283.909 417.767 284.636C417.483 285.347 417.341 286.137 417.341 287.006C417.341 287.874 417.483 288.672 417.767 289.399C418.067 290.11 418.47 290.718 418.976 291.223C419.497 291.729 420.097 292.124 420.776 292.408C421.471 292.692 422.214 292.834 423.004 292.834C423.351 292.834 423.683 292.803 423.999 292.74C424.315 292.677 424.623 292.59 424.923 292.479L423.075 289.707ZM440.662 295.867C439.667 295.867 438.759 295.709 437.938 295.394C437.132 295.062 436.445 294.588 435.876 293.972C435.307 293.356 434.865 292.613 434.549 291.745C434.233 290.86 434.075 289.857 434.075 288.735V278.523H437.274V288.925C437.274 289.494 437.345 290.015 437.487 290.489C437.629 290.963 437.843 291.373 438.127 291.721C438.411 292.068 438.767 292.345 439.193 292.55C439.62 292.74 440.11 292.834 440.662 292.834C441.231 292.834 441.729 292.74 442.155 292.55C442.582 292.345 442.937 292.068 443.221 291.721C443.506 291.373 443.719 290.963 443.861 290.489C444.003 290.015 444.074 289.494 444.074 288.925V278.523H447.273V288.735C447.273 289.794 447.115 290.765 446.799 291.65C446.499 292.519 446.057 293.269 445.472 293.901C444.904 294.517 444.209 294.999 443.387 295.346C442.582 295.694 441.673 295.867 440.662 295.867ZM450.305 278.523H453.504V295.488H450.305V278.523ZM456.923 278.523H462.657C463.999 278.523 465.208 278.728 466.282 279.139C467.356 279.55 468.272 280.134 469.031 280.892C469.789 281.635 470.365 282.527 470.76 283.57C471.171 284.612 471.376 285.758 471.376 287.006C471.376 288.269 471.171 289.422 470.76 290.465C470.365 291.508 469.789 292.4 469.031 293.143C468.272 293.885 467.356 294.462 466.282 294.872C465.208 295.283 463.999 295.488 462.657 295.488H456.923V278.523ZM462.515 292.455C463.447 292.455 464.268 292.329 464.979 292.076C465.69 291.808 466.282 291.436 466.756 290.963C467.23 290.489 467.585 289.92 467.822 289.257C468.059 288.577 468.178 287.827 468.178 287.006C468.178 286.184 468.059 285.442 467.822 284.778C467.585 284.099 467.23 283.522 466.756 283.049C466.282 282.575 465.69 282.211 464.979 281.959C464.268 281.69 463.447 281.556 462.515 281.556H460.121V292.455H462.515ZM473.953 278.523H477.152V295.488H473.953V278.523ZM484.173 295.488V281.556H479.434V278.523H492.11V281.556H487.371V295.488H484.173ZM498.674 287.598L492.964 278.523H496.778L500.167 284.139H500.356L503.626 278.523H507.488L501.873 287.598V295.488H498.674V287.598ZM395.927 324.488V307.523H401.899C402.704 307.523 403.454 307.657 404.149 307.926C404.86 308.178 405.476 308.542 405.998 309.016C406.519 309.49 406.93 310.058 407.23 310.722C407.53 311.369 407.68 312.088 407.68 312.878C407.68 313.684 407.53 314.418 407.23 315.082C406.93 315.729 406.519 316.29 405.998 316.764C405.476 317.238 404.86 317.609 404.149 317.877C403.454 318.13 402.704 318.257 401.899 318.257H399.126V324.488H395.927ZM401.946 315.224C402.783 315.224 403.415 314.987 403.841 314.513C404.268 314.039 404.481 313.494 404.481 312.878C404.481 312.578 404.426 312.286 404.315 312.001C404.221 311.717 404.063 311.472 403.841 311.267C403.636 311.046 403.375 310.872 403.06 310.745C402.744 310.619 402.372 310.556 401.946 310.556H399.126V315.224H401.946ZM417.751 324.867C416.487 324.867 415.31 324.638 414.22 324.18C413.146 323.722 412.214 323.098 411.424 322.308C410.635 321.503 410.011 320.563 409.553 319.489C409.11 318.399 408.889 317.238 408.889 316.006C408.889 314.773 409.11 313.62 409.553 312.546C410.011 311.456 410.635 310.516 411.424 309.727C412.214 308.921 413.146 308.289 414.22 307.831C415.31 307.373 416.487 307.144 417.751 307.144C419.015 307.144 420.184 307.373 421.258 307.831C422.348 308.289 423.288 308.921 424.077 309.727C424.867 310.516 425.483 311.456 425.926 312.546C426.384 313.62 426.613 314.773 426.613 316.006C426.613 317.238 426.384 318.399 425.926 319.489C425.483 320.563 424.867 321.503 424.077 322.308C423.288 323.098 422.348 323.722 421.258 324.18C420.184 324.638 419.015 324.867 417.751 324.867ZM417.751 321.834C418.541 321.834 419.275 321.692 419.955 321.408C420.65 321.124 421.25 320.729 421.755 320.223C422.277 319.718 422.679 319.11 422.964 318.399C423.264 317.672 423.414 316.874 423.414 316.006C423.414 315.137 423.264 314.347 422.964 313.636C422.679 312.909 422.277 312.293 421.755 311.788C421.25 311.282 420.65 310.888 419.955 310.603C419.275 310.319 418.541 310.177 417.751 310.177C416.961 310.177 416.219 310.319 415.524 310.603C414.844 310.888 414.244 311.282 413.723 311.788C413.217 312.293 412.815 312.909 412.514 313.636C412.23 314.347 412.088 315.137 412.088 316.006C412.088 316.874 412.23 317.672 412.514 318.399C412.815 319.11 413.217 319.718 413.723 320.223C414.244 320.729 414.844 321.124 415.524 321.408C416.219 321.692 416.961 321.834 417.751 321.834ZM437.003 324.867C435.739 324.867 434.562 324.638 433.472 324.18C432.398 323.722 431.466 323.098 430.676 322.308C429.887 321.503 429.263 320.563 428.805 319.489C428.362 318.399 428.141 317.238 428.141 316.006C428.141 314.773 428.362 313.62 428.805 312.546C429.263 311.456 429.887 310.516 430.676 309.727C431.466 308.921 432.398 308.289 433.472 307.831C434.562 307.373 435.739 307.144 437.003 307.144C438.267 307.144 439.436 307.373 440.51 307.831C441.6 308.289 442.54 308.921 443.329 309.727C444.119 310.516 444.735 311.456 445.178 312.546C445.636 313.62 445.865 314.773 445.865 316.006C445.865 317.238 445.636 318.399 445.178 319.489C444.735 320.563 444.119 321.503 443.329 322.308C442.54 323.098 441.6 323.722 440.51 324.18C439.436 324.638 438.267 324.867 437.003 324.867ZM437.003 321.834C437.793 321.834 438.527 321.692 439.206 321.408C439.902 321.124 440.502 320.729 441.007 320.223C441.529 319.718 441.931 319.11 442.216 318.399C442.516 317.672 442.666 316.874 442.666 316.006C442.666 315.137 442.516 314.347 442.216 313.636C441.931 312.909 441.529 312.293 441.007 311.788C440.502 311.282 439.902 310.888 439.206 310.603C438.527 310.319 437.793 310.177 437.003 310.177C436.213 310.177 435.471 310.319 434.776 310.603C434.096 310.888 433.496 311.282 432.975 311.788C432.469 312.293 432.066 312.909 431.766 313.636C431.482 314.347 431.34 315.137 431.34 316.006C431.34 316.874 431.482 317.672 431.766 318.399C432.066 319.11 432.469 319.718 432.975 320.223C433.496 320.729 434.096 321.124 434.776 321.408C435.471 321.692 436.213 321.834 437.003 321.834ZM448.454 307.523H451.652V321.455H458.832V324.488H448.454V307.523Z" fill="white" fill-opacity="0.7"/>
<path d="M532.172 278.523H535.323L540.512 287.503H540.702L545.891 278.523H549.066V295.488H545.891V287.124L546.08 284.281H545.891L541.578 291.887H539.659L535.323 284.281H535.134L535.323 287.124V295.488H532.172V278.523ZM557.44 278.523H561.089L567.463 295.488H563.933L562.535 291.436H555.995L554.597 295.488H551.066L557.44 278.523ZM561.492 288.498L559.976 284.257L559.359 282.196H559.17L558.554 284.257L557.037 288.498H561.492ZM569.449 278.523H575.633C576.486 278.523 577.26 278.657 577.956 278.926C578.651 279.194 579.243 279.565 579.733 280.039C580.238 280.513 580.625 281.082 580.894 281.745C581.162 282.393 581.296 283.104 581.296 283.878C581.296 284.447 581.202 284.984 581.012 285.489C580.823 285.979 580.562 286.429 580.23 286.84C579.898 287.235 579.511 287.59 579.069 287.906C578.627 288.206 578.161 288.443 577.671 288.617L577.648 288.783L582.197 295.299V295.488H578.524L574.141 289.114H572.648V295.488H569.449V278.523ZM575.61 286.176C576.336 286.176 576.929 285.955 577.387 285.513C577.861 285.071 578.098 284.51 578.098 283.831C578.098 283.53 578.042 283.238 577.932 282.954C577.837 282.669 577.687 282.417 577.482 282.196C577.276 281.974 577.016 281.801 576.7 281.674C576.4 281.532 576.052 281.461 575.657 281.461H572.648V286.176H575.61ZM584.143 278.523H587.341V285.797H587.531L593.739 278.523H597.601V278.712L591.464 285.726L598.241 295.299V295.488H594.331L589.284 288.261L587.341 290.512V295.488H584.143V278.523ZM603.192 281.556V285.489H609.992V288.522H603.192V292.455H610.75V295.488H599.993V278.523H610.75V281.556H603.192ZM617.293 295.488V281.556H612.554V278.523H625.231V281.556H620.492V295.488H617.293ZM627.506 278.523H630.704V295.488H627.506V278.523ZM634.124 278.523H637.844L644.668 289.896H644.857L644.668 286.626V278.523H647.843V295.488H644.478L637.275 283.475H637.085L637.275 286.745V295.488H634.124V278.523ZM659.071 286.176H667.388C667.436 286.366 667.475 286.595 667.507 286.863C667.538 287.132 667.554 287.401 667.554 287.669C667.554 288.759 667.388 289.786 667.057 290.749C666.725 291.713 666.204 292.574 665.493 293.332C664.734 294.138 663.826 294.762 662.768 295.204C661.709 295.646 660.501 295.867 659.142 295.867C657.91 295.867 656.749 295.646 655.659 295.204C654.569 294.762 653.622 294.146 652.816 293.356C652.01 292.566 651.371 291.634 650.897 290.56C650.423 289.47 650.186 288.285 650.186 287.006C650.186 285.726 650.423 284.549 650.897 283.475C651.371 282.385 652.01 281.445 652.816 280.655C653.622 279.866 654.569 279.25 655.659 278.807C656.749 278.365 657.91 278.144 659.142 278.144C660.517 278.144 661.741 278.381 662.815 278.855C663.905 279.329 664.837 279.984 665.611 280.821L663.408 282.978C662.855 282.393 662.239 281.951 661.559 281.651C660.88 281.335 660.067 281.177 659.119 281.177C658.345 281.177 657.61 281.319 656.915 281.603C656.22 281.872 655.612 282.259 655.091 282.764C654.569 283.27 654.151 283.886 653.835 284.612C653.535 285.323 653.385 286.121 653.385 287.006C653.385 287.89 653.535 288.696 653.835 289.422C654.151 290.133 654.569 290.741 655.091 291.247C655.628 291.752 656.244 292.147 656.939 292.432C657.634 292.7 658.376 292.834 659.166 292.834C660.067 292.834 660.825 292.708 661.441 292.455C662.073 292.187 662.61 291.847 663.052 291.436C663.368 291.152 663.637 290.797 663.858 290.37C664.095 289.928 664.276 289.438 664.403 288.901H659.071V286.176ZM543.379 321.005L545.156 323.138L542.905 324.867L541.673 323.375C540.552 324.37 539.201 324.867 537.621 324.867C536.737 324.867 535.908 324.725 535.134 324.441C534.375 324.141 533.712 323.73 533.143 323.209C532.575 322.672 532.124 322.04 531.793 321.313C531.477 320.587 531.319 319.789 531.319 318.92C531.319 317.972 531.548 317.072 532.006 316.219C532.48 315.366 533.135 314.639 533.973 314.039C533.672 313.628 533.428 313.202 533.238 312.759C533.048 312.317 532.954 311.851 532.954 311.361C532.954 310.777 533.056 310.232 533.262 309.727C533.483 309.205 533.791 308.755 534.186 308.376C534.581 307.997 535.047 307.697 535.584 307.476C536.121 307.254 536.713 307.144 537.361 307.144C538.498 307.144 539.406 307.412 540.086 307.949C540.781 308.471 541.278 309.134 541.578 309.94L539.067 311.267C538.94 310.888 538.743 310.564 538.474 310.295C538.206 310.011 537.851 309.869 537.408 309.869C536.95 309.869 536.587 310.003 536.318 310.271C536.05 310.54 535.915 310.88 535.915 311.29C535.915 311.543 535.971 311.78 536.081 312.001C536.192 312.207 536.342 312.428 536.532 312.665L541.626 318.873L543.024 316.598L545.275 318.02L543.379 321.005ZM537.764 322.071C538.648 322.071 539.375 321.811 539.944 321.29L535.655 316.1C535.213 316.432 534.873 316.843 534.636 317.332C534.399 317.806 534.281 318.296 534.281 318.802C534.281 319.307 534.375 319.765 534.565 320.176C534.754 320.571 535.007 320.91 535.323 321.195C535.655 321.479 536.026 321.7 536.437 321.858C536.863 322 537.306 322.071 537.764 322.071ZM552.719 307.523H559.354C560.081 307.523 560.76 307.641 561.392 307.878C562.024 308.099 562.569 308.415 563.027 308.826C563.5 309.221 563.872 309.687 564.14 310.224C564.409 310.761 564.543 311.338 564.543 311.954C564.543 312.854 564.322 313.612 563.88 314.228C563.453 314.829 562.916 315.287 562.268 315.603V315.792C563.137 316.108 563.832 316.606 564.354 317.285C564.891 317.949 565.159 318.778 565.159 319.773C565.159 320.5 565.009 321.155 564.709 321.74C564.425 322.308 564.03 322.798 563.524 323.209C563.019 323.619 562.426 323.935 561.747 324.157C561.084 324.378 560.365 324.488 559.591 324.488H552.719V307.523ZM559.117 314.442C559.859 314.442 560.428 314.244 560.823 313.849C561.234 313.439 561.439 312.957 561.439 312.404C561.439 311.851 561.242 311.377 560.847 310.982C560.452 310.587 559.907 310.39 559.212 310.39H555.918V314.442H559.117ZM559.472 321.55C560.278 321.55 560.894 321.353 561.321 320.958C561.747 320.547 561.96 320.026 561.96 319.394C561.96 318.762 561.739 318.241 561.297 317.83C560.87 317.404 560.231 317.19 559.378 317.19H555.918V321.55H559.472ZM573.829 324.867C572.834 324.867 571.926 324.709 571.104 324.394C570.299 324.062 569.611 323.588 569.043 322.972C568.474 322.356 568.032 321.613 567.716 320.745C567.4 319.86 567.242 318.857 567.242 317.735V307.523H570.441V317.925C570.441 318.494 570.512 319.015 570.654 319.489C570.796 319.963 571.009 320.373 571.294 320.721C571.578 321.068 571.934 321.345 572.36 321.55C572.787 321.74 573.276 321.834 573.829 321.834C574.398 321.834 574.895 321.74 575.322 321.55C575.748 321.345 576.104 321.068 576.388 320.721C576.673 320.373 576.886 319.963 577.028 319.489C577.17 319.015 577.241 318.494 577.241 317.925V307.523H580.44V317.735C580.44 318.794 580.282 319.765 579.966 320.65C579.666 321.519 579.224 322.269 578.639 322.901C578.07 323.517 577.375 323.999 576.554 324.346C575.748 324.694 574.84 324.867 573.829 324.867ZM587.76 316.598L582.05 307.523H585.865L589.253 313.139H589.443L592.712 307.523H596.575L590.959 316.598V324.488H587.76V316.598ZM598.558 307.523H605.193C605.92 307.523 606.599 307.641 607.231 307.878C607.863 308.099 608.407 308.415 608.866 308.826C609.339 309.221 609.711 309.687 609.979 310.224C610.248 310.761 610.382 311.338 610.382 311.954C610.382 312.854 610.161 313.612 609.719 314.228C609.292 314.829 608.755 315.287 608.107 315.603V315.792C608.976 316.108 609.671 316.606 610.192 317.285C610.73 317.949 610.998 318.778 610.998 319.773C610.998 320.5 610.848 321.155 610.548 321.74C610.264 322.308 609.869 322.798 609.363 323.209C608.858 323.619 608.265 323.935 607.586 324.157C606.923 324.378 606.204 324.488 605.43 324.488H598.558V307.523ZM604.956 314.442C605.698 314.442 606.267 314.244 606.662 313.849C607.073 313.439 607.278 312.957 607.278 312.404C607.278 311.851 607.081 311.377 606.686 310.982C606.291 310.587 605.746 310.39 605.051 310.39H601.757V314.442H604.956ZM605.311 321.55C606.117 321.55 606.733 321.353 607.16 320.958C607.586 320.547 607.799 320.026 607.799 319.394C607.799 318.762 607.578 318.241 607.136 317.83C606.709 317.404 606.07 317.19 605.217 317.19H601.757V321.55H605.311ZM618.181 307.523H621.83L628.204 324.488H624.673L623.275 320.436H616.736L615.338 324.488H611.807L618.181 307.523ZM622.233 317.498L620.716 313.257L620.1 311.196H619.911L619.295 313.257L617.778 317.498H622.233ZM644.56 321.763C643.723 322.774 642.735 323.548 641.598 324.085C640.461 324.607 639.189 324.867 637.783 324.867C636.52 324.867 635.343 324.638 634.253 324.18C633.179 323.722 632.247 323.098 631.457 322.308C630.667 321.519 630.043 320.587 629.585 319.512C629.127 318.422 628.898 317.254 628.898 316.006C628.898 314.758 629.127 313.597 629.585 312.522C630.043 311.433 630.667 310.493 631.457 309.703C632.247 308.913 633.179 308.289 634.253 307.831C635.343 307.373 636.52 307.144 637.783 307.144C639.142 307.144 640.334 307.381 641.361 307.855C642.404 308.329 643.328 309.016 644.133 309.916L641.882 312.096C641.377 311.512 640.792 311.046 640.129 310.698C639.481 310.35 638.707 310.177 637.807 310.177C637.017 310.177 636.275 310.319 635.58 310.603C634.885 310.872 634.276 311.259 633.755 311.764C633.25 312.27 632.847 312.886 632.547 313.612C632.247 314.323 632.097 315.121 632.097 316.006C632.097 316.89 632.247 317.696 632.547 318.422C632.847 319.133 633.25 319.741 633.755 320.247C634.276 320.752 634.885 321.147 635.58 321.432C636.275 321.7 637.017 321.834 637.807 321.834C638.755 321.834 639.592 321.645 640.319 321.266C641.061 320.871 641.717 320.318 642.285 319.607L644.56 321.763ZM647.128 307.523H650.327V314.797H650.516L656.724 307.523H660.586V307.712L654.449 314.726L661.226 324.299V324.488H657.317L652.27 317.261L650.327 319.512V324.488H647.128V307.523Z" fill="white" fill-opacity="0.7"/>
<rect x="530.466" y="130.321" width="94.7786" height="119.954" fill="white"/>
<path d="M554.314 202.825V198.595C555.712 197.221 557.004 195.941 558.188 194.757C558.686 194.259 559.195 193.75 559.717 193.228C560.238 192.707 560.724 192.221 561.174 191.771C561.624 191.321 562.027 190.918 562.382 190.563C562.738 190.184 563.01 189.887 563.2 189.674C563.579 189.224 563.911 188.821 564.195 188.466C564.503 188.11 564.74 187.767 564.906 187.435C565.095 187.08 565.238 186.736 565.332 186.404C565.427 186.049 565.475 185.67 565.475 185.267C565.475 184.485 565.167 183.81 564.55 183.241C563.934 182.649 563.093 182.353 562.027 182.353C560.961 182.353 560.131 182.661 559.539 183.277C558.947 183.869 558.544 184.544 558.331 185.303L554.101 183.561C554.291 182.921 554.599 182.27 555.025 181.606C555.452 180.919 555.997 180.315 556.66 179.794C557.324 179.249 558.106 178.81 559.006 178.478C559.93 178.123 560.961 177.945 562.098 177.945C563.33 177.945 564.444 178.135 565.439 178.514C566.434 178.869 567.275 179.367 567.962 180.007C568.65 180.647 569.183 181.405 569.562 182.281C569.941 183.134 570.131 184.059 570.131 185.054C570.131 186.57 569.751 187.968 568.993 189.248C568.259 190.503 567.358 191.676 566.292 192.766L563.235 195.823C562.43 196.629 561.518 197.529 560.499 198.524L560.641 198.737H570.486V202.825H554.314ZM573.184 184.023C573.184 183.194 573.338 182.412 573.646 181.677C573.978 180.943 574.417 180.303 574.961 179.758C575.53 179.189 576.194 178.751 576.952 178.443C577.71 178.111 578.539 177.945 579.44 177.945C580.34 177.945 581.169 178.111 581.928 178.443C582.71 178.751 583.373 179.189 583.918 179.758C584.487 180.303 584.925 180.943 585.233 181.677C585.565 182.412 585.731 183.194 585.731 184.023C585.731 184.852 585.565 185.646 585.233 186.404C584.925 187.139 584.487 187.779 583.918 188.324C583.373 188.869 582.71 189.307 581.928 189.639C581.169 189.947 580.34 190.101 579.44 190.101C578.539 190.101 577.71 189.947 576.952 189.639C576.194 189.307 575.53 188.869 574.961 188.324C574.417 187.779 573.978 187.139 573.646 186.404C573.338 185.646 573.184 184.852 573.184 184.023ZM576.987 184.023C576.987 184.805 577.224 185.433 577.698 185.907C578.172 186.381 578.753 186.618 579.44 186.618C580.127 186.618 580.707 186.381 581.181 185.907C581.655 185.433 581.892 184.805 581.892 184.023C581.892 183.241 581.655 182.613 581.181 182.139C580.707 181.665 580.127 181.428 579.44 181.428C578.753 181.428 578.172 181.665 577.698 182.139C577.224 182.613 576.987 183.241 576.987 184.023ZM577.698 201.51L593.479 177.945L596.287 179.829L580.506 203.393L577.698 201.51ZM588.254 197.316C588.254 196.486 588.408 195.704 588.716 194.97C589.048 194.235 589.486 193.596 590.031 193.051C590.6 192.482 591.263 192.044 592.022 191.736C592.78 191.404 593.609 191.238 594.51 191.238C595.41 191.238 596.239 191.404 596.998 191.736C597.779 192.044 598.443 192.482 598.988 193.051C599.557 193.596 599.995 194.235 600.303 194.97C600.635 195.704 600.801 196.486 600.801 197.316C600.801 198.145 600.635 198.939 600.303 199.697C599.995 200.432 599.557 201.071 598.988 201.616C598.443 202.161 597.779 202.588 596.998 202.896C596.239 203.228 595.41 203.393 594.51 203.393C593.609 203.393 592.78 203.228 592.022 202.896C591.263 202.588 590.6 202.161 590.031 201.616C589.486 201.071 589.048 200.432 588.716 199.697C588.408 198.939 588.254 198.145 588.254 197.316ZM592.057 197.316C592.057 198.098 592.294 198.726 592.768 199.199C593.242 199.673 593.822 199.91 594.51 199.91C595.197 199.91 595.777 199.673 596.251 199.199C596.725 198.726 596.962 198.098 596.962 197.316C596.962 196.534 596.725 195.906 596.251 195.432C595.777 194.958 595.197 194.721 594.51 194.721C593.822 194.721 593.242 194.958 592.768 195.432C592.294 195.906 592.057 196.534 592.057 197.316Z" fill="url(#paint2_linear_58_107)"/>
<rect x="394.221" width="94.7786" height="250.275" fill="white"/>
<path d="M426.696 138.233C425.772 138.233 424.848 138.102 423.924 137.842C423.023 137.581 422.182 137.178 421.4 136.633C420.618 136.088 419.931 135.413 419.339 134.607C418.77 133.778 418.344 132.795 418.059 131.657L422.289 130.023C422.549 131.207 423.047 132.155 423.782 132.866C424.54 133.577 425.499 133.932 426.66 133.932C427.229 133.932 427.75 133.837 428.224 133.648C428.722 133.435 429.148 133.15 429.504 132.795C429.883 132.439 430.167 132.025 430.357 131.551C430.57 131.053 430.677 130.508 430.677 129.916C430.677 129.347 430.57 128.826 430.357 128.352C430.167 127.854 429.895 127.428 429.539 127.073C429.184 126.693 428.757 126.409 428.26 126.22C427.786 126.006 427.253 125.9 426.66 125.9C425.926 125.9 425.274 126.066 424.706 126.397C424.137 126.705 423.651 127.096 423.248 127.57L418.735 125.509L420.156 113.353H433.84V117.441H424.03L423.106 123.127L423.391 123.198C423.864 122.796 424.445 122.452 425.132 122.168C425.819 121.883 426.649 121.741 427.62 121.741C428.639 121.741 429.61 121.943 430.535 122.345C431.459 122.725 432.276 123.27 432.987 123.98C433.698 124.691 434.266 125.556 434.693 126.575C435.119 127.57 435.333 128.684 435.333 129.916C435.333 131.124 435.119 132.238 434.693 133.257C434.266 134.276 433.662 135.152 432.88 135.887C432.122 136.621 431.21 137.202 430.144 137.629C429.101 138.031 427.952 138.233 426.696 138.233ZM437.837 118.862C437.837 118.033 437.991 117.251 438.299 116.517C438.63 115.782 439.069 115.142 439.614 114.597C440.182 114.029 440.846 113.59 441.604 113.282C442.362 112.951 443.192 112.785 444.092 112.785C444.993 112.785 445.822 112.951 446.58 113.282C447.362 113.59 448.025 114.029 448.57 114.597C449.139 115.142 449.577 115.782 449.885 116.517C450.217 117.251 450.383 118.033 450.383 118.862C450.383 119.692 450.217 120.485 449.885 121.244C449.577 121.978 449.139 122.618 448.57 123.163C448.025 123.708 447.362 124.146 446.58 124.478C445.822 124.786 444.993 124.94 444.092 124.94C443.192 124.94 442.362 124.786 441.604 124.478C440.846 124.146 440.182 123.708 439.614 123.163C439.069 122.618 438.63 121.978 438.299 121.244C437.991 120.485 437.837 119.692 437.837 118.862ZM441.64 118.862C441.64 119.644 441.877 120.272 442.351 120.746C442.824 121.22 443.405 121.457 444.092 121.457C444.779 121.457 445.36 121.22 445.834 120.746C446.308 120.272 446.545 119.644 446.545 118.862C446.545 118.08 446.308 117.453 445.834 116.979C445.36 116.505 444.779 116.268 444.092 116.268C443.405 116.268 442.824 116.505 442.351 116.979C441.877 117.453 441.64 118.08 441.64 118.862ZM442.351 136.349L458.131 112.785L460.939 114.668L445.158 138.233L442.351 136.349ZM452.907 132.155C452.907 131.326 453.061 130.544 453.369 129.809C453.7 129.075 454.139 128.435 454.684 127.89C455.252 127.321 455.916 126.883 456.674 126.575C457.432 126.243 458.262 126.077 459.162 126.077C460.062 126.077 460.892 126.243 461.65 126.575C462.432 126.883 463.095 127.321 463.64 127.89C464.209 128.435 464.647 129.075 464.955 129.809C465.287 130.544 465.453 131.326 465.453 132.155C465.453 132.984 465.287 133.778 464.955 134.536C464.647 135.271 464.209 135.911 463.64 136.456C463.095 137.001 462.432 137.427 461.65 137.735C460.892 138.067 460.062 138.233 459.162 138.233C458.262 138.233 457.432 138.067 456.674 137.735C455.916 137.427 455.252 137.001 454.684 136.456C454.139 135.911 453.7 135.271 453.369 134.536C453.061 133.778 452.907 132.984 452.907 132.155ZM456.71 132.155C456.71 132.937 456.946 133.565 457.42 134.039C457.894 134.513 458.475 134.75 459.162 134.75C459.849 134.75 460.43 134.513 460.903 134.039C461.377 133.565 461.614 132.937 461.614 132.155C461.614 131.373 461.377 130.745 460.903 130.271C460.43 129.797 459.849 129.56 459.162 129.56C458.475 129.56 457.894 129.797 457.42 130.271C456.946 130.745 456.71 131.373 456.71 132.155Z" fill="url(#paint3_linear_58_107)"/>
<defs>
<linearGradient id="paint0_linear_58_107" x1="237.244" y1="168.825" x2="237.244" y2="211.771" gradientUnits="userSpaceOnUse">
<stop stop-color="#1E59E9" stop-opacity="0"/>
<stop offset="0.510417" stop-color="#1E59E9"/>
<stop offset="1" stop-color="#1E59E9" stop-opacity="0"/>
</linearGradient>
<linearGradient id="paint1_linear_58_107" x1="101" y1="103.664" x2="101" y2="146.611" gradientUnits="userSpaceOnUse">
<stop stop-color="#1E59E9" stop-opacity="0"/>
<stop offset="0.510417" stop-color="#1E59E9"/>
<stop offset="1" stop-color="#1E59E9" stop-opacity="0"/>
</linearGradient>
<linearGradient id="paint2_linear_58_107" x1="577.855" y1="168.825" x2="577.855" y2="211.771" gradientUnits="userSpaceOnUse">
<stop stop-color="#1E59E9" stop-opacity="0"/>
<stop offset="0.510417" stop-color="#1E59E9"/>
<stop offset="1" stop-color="#1E59E9" stop-opacity="0"/>
</linearGradient>
<linearGradient id="paint3_linear_58_107" x1="441.611" y1="103.664" x2="441.611" y2="146.611" gradientUnits="userSpaceOnUse">
<stop stop-color="#1E59E9" stop-opacity="0"/>
<stop offset="0.510417" stop-color="#1E59E9"/>
<stop offset="1" stop-color="#1E59E9" stop-opacity="0"/>
</linearGradient>
</defs>
</svg>
