<svg width="844" height="155" viewBox="0 0 844 155" fill="none" xmlns="http://www.w3.org/2000/svg">
<path d="M46.5556 61H30.5236L28.6996 51.592H17.3716L15.5476 61H0.283625L11.2276 1.384H35.6116L46.5556 61ZM26.8756 40.36L23.5156 19.048H22.8436L19.4836 40.36H26.8756ZM95.9041 29.896C95.9041 50.632 87.7121 61 71.3281 61H51.5521V1.384H71.7121C80.4801 1.384 86.6881 3.848 90.3361 8.776C94.0481 13.64 95.9041 20.68 95.9041 29.896ZM71.0401 47.176C74.4321 47.176 76.6081 45.992 77.5681 43.624C78.5921 41.192 79.1041 37.16 79.1041 31.528C79.1041 25.832 78.5601 21.8 77.4721 19.432C76.4481 17.064 74.2081 15.88 70.7521 15.88H67.8721V47.176H71.0401ZM105.635 7.62399C109.347 2.824 115.395 0.423996 123.779 0.423996C132.163 0.423996 138.147 2.792 141.731 7.528C145.379 12.264 147.203 19.976 147.203 30.664C147.203 41.288 145.347 49.16 141.635 54.28C137.923 59.4 131.907 61.96 123.587 61.96C115.267 61.96 109.283 59.432 105.635 54.376C101.987 49.32 100.163 41.48 100.163 30.856C100.163 20.168 101.987 12.424 105.635 7.62399ZM130.691 30.664C130.691 24.776 130.211 20.808 129.251 18.76C128.355 16.648 126.467 15.592 123.587 15.592C120.771 15.592 118.947 16.648 118.115 18.76C117.283 20.808 116.867 24.744 116.867 30.568V32.872C116.867 39.08 117.315 43.176 118.211 45.16C119.171 47.08 121.059 48.04 123.875 48.04C126.755 48.04 128.611 47.112 129.443 45.256C130.275 43.4 130.691 39.56 130.691 33.736V30.664ZM174.284 41.512H169.868V61H153.74V1.384H173.228C180.076 1.384 185.164 2.952 188.492 6.088C191.82 9.224 193.484 14.376 193.484 21.544C193.484 28.712 191.916 33.832 188.78 36.904C185.644 39.976 180.812 41.512 174.284 41.512ZM176.108 28.552C176.684 27.464 176.972 25.512 176.972 22.696C176.972 19.88 176.652 17.896 176.012 16.744C175.372 15.592 174.092 15.016 172.172 15.016H169.868V30.184H172.556C174.348 30.184 175.532 29.64 176.108 28.552ZM232.927 15.88H221.791V61H205.375V15.88H193.567L194.527 1.384H233.887L232.927 15.88ZM298.122 1.384L283.914 42.568V61H267.594V42.568L253.578 1.384H271.626L275.946 20.776H276.714L280.842 1.384H298.122ZM305.885 7.62399C309.597 2.824 315.645 0.423996 324.029 0.423996C332.413 0.423996 338.397 2.792 341.981 7.528C345.629 12.264 347.453 19.976 347.453 30.664C347.453 41.288 345.597 49.16 341.885 54.28C338.173 59.4 332.157 61.96 323.837 61.96C315.517 61.96 309.533 59.432 305.885 54.376C302.237 49.32 300.413 41.48 300.413 30.856C300.413 20.168 302.237 12.424 305.885 7.62399ZM330.941 30.664C330.941 24.776 330.461 20.808 329.501 18.76C328.605 16.648 326.717 15.592 323.837 15.592C321.021 15.592 319.197 16.648 318.365 18.76C317.533 20.808 317.117 24.744 317.117 30.568V32.872C317.117 39.08 317.565 43.176 318.461 45.16C319.421 47.08 321.309 48.04 324.125 48.04C327.005 48.04 328.861 47.112 329.693 45.256C330.525 43.4 330.941 39.56 330.941 33.736V30.664ZM370.79 41.416C370.79 43.4 371.206 44.872 372.038 45.832C372.87 46.792 374.214 47.272 376.07 47.272C377.99 47.272 379.302 46.824 380.006 45.928C380.774 44.968 381.158 43.432 381.158 41.32V1.384H397.67V42.28C397.67 49.128 395.782 54.12 392.006 57.256C388.294 60.392 382.79 61.96 375.494 61.96C368.262 61.96 362.854 60.424 359.27 57.352C355.75 54.216 353.99 49.256 353.99 42.472V1.384H370.79V41.416ZM446.915 20.296C446.915 23.88 446.371 26.856 445.283 29.224C444.195 31.592 442.499 33.736 440.195 35.656L448.163 61H430.403L424.451 39.496H422.243V61H406.115V1.384H428.387C434.787 1.384 439.459 2.888 442.403 5.896C445.411 8.904 446.915 13.704 446.915 20.296ZM424.739 29.416C426.403 29.416 427.587 28.936 428.291 27.976C428.995 27.016 429.347 25.288 429.347 22.792C429.347 20.232 428.995 18.472 428.291 17.512C427.587 16.488 426.435 15.976 424.835 15.976H422.243V29.416H424.739ZM517.196 61H501.452L489.068 33.256H488.3V61H473.708V1.384H489.932L501.74 29.992H502.508V1.384H517.196V61ZM557.902 16.072H542.062V25H554.83V37.672H542.062V61H525.646V1.384H558.862L557.902 16.072ZM597.239 15.88H586.103V61H569.687V15.88H557.879L558.839 1.384H598.199L597.239 15.88ZM625.667 7.62399C629.379 2.824 635.427 0.423996 643.811 0.423996C652.195 0.423996 658.179 2.792 661.763 7.528C665.411 12.264 667.235 19.976 667.235 30.664C667.235 41.288 665.379 49.16 661.667 54.28C657.955 59.4 651.939 61.96 643.619 61.96C635.299 61.96 629.315 59.432 625.667 54.376C622.019 49.32 620.195 41.48 620.195 30.856C620.195 20.168 622.019 12.424 625.667 7.62399ZM650.723 30.664C650.723 24.776 650.243 20.808 649.283 18.76C648.387 16.648 646.499 15.592 643.619 15.592C640.803 15.592 638.979 16.648 638.147 18.76C637.315 20.808 636.899 24.744 636.899 30.568V32.872C636.899 39.08 637.347 43.176 638.243 45.16C639.203 47.08 641.091 48.04 643.907 48.04C646.787 48.04 648.643 47.112 649.475 45.256C650.307 43.4 650.723 39.56 650.723 33.736V30.664ZM688.555 31.816C688.555 37.448 689.099 41.48 690.187 43.912C691.339 46.28 693.195 47.464 695.755 47.464C698.315 47.464 701.931 46.856 706.603 45.64L709.099 59.176C704.043 61.032 698.955 61.96 693.835 61.96C686.155 61.96 680.555 59.432 677.035 54.376C673.579 49.256 671.851 41.672 671.851 31.624C671.851 21.512 673.675 13.8 677.323 8.488C680.971 3.112 686.923 0.423996 695.179 0.423996C700.043 0.423996 704.683 1.448 709.099 3.496L706.507 18.376C701.515 16.712 698.027 15.88 696.043 15.88C693.227 15.88 691.275 17.128 690.187 19.624C689.099 22.056 688.555 26.12 688.555 31.816ZM745.402 61H713.146V1.384H746.362L745.402 16.072H729.562V25H743.29V37.672H729.562V47.56H746.362L745.402 61ZM794.774 61H778.742L776.918 51.592H765.59L763.766 61H748.502L759.446 1.384H783.83L794.774 61ZM775.094 40.36L771.734 19.048H771.062L767.702 40.36H775.094ZM843.259 61H827.515L815.131 33.256H814.363V61H799.771V1.384H815.995L827.803 29.992H828.571V1.384H843.259V61ZM326.831 95.384L321.455 155H301.679L296.495 128.6H295.727L291.407 155H271.535L265.295 95.384H281.039L283.535 126.968H284.495L288.527 95.384H304.559L308.975 126.968H309.935L311.663 95.384H326.831ZM350.223 155H333.903V95.384H350.223V155ZM389.998 155H359.662V95.384H376.078V141.656H390.958L389.998 155ZM438.795 123.896C438.795 144.632 430.603 155 414.219 155H394.443V95.384H414.603C423.371 95.384 429.579 97.848 433.227 102.776C436.939 107.64 438.795 114.68 438.795 123.896ZM413.931 141.176C417.323 141.176 419.499 139.992 420.459 137.624C421.483 135.192 421.995 131.16 421.995 125.528C421.995 119.832 421.451 115.8 420.363 113.432C419.339 111.064 417.099 109.88 413.643 109.88H410.763V141.176H413.931ZM485.674 135.512H481.258V155H465.13V95.384H484.618C491.466 95.384 496.554 96.952 499.882 100.088C503.21 103.224 504.874 108.376 504.874 115.544C504.874 122.712 503.306 127.832 500.17 130.904C497.034 133.976 492.202 135.512 485.674 135.512ZM487.498 122.552C488.074 121.464 488.362 119.512 488.362 116.696C488.362 113.88 488.042 111.896 487.402 110.744C486.762 109.592 485.482 109.016 483.562 109.016H481.258V124.184H483.946C485.738 124.184 486.922 123.64 487.498 122.552ZM541.918 155H509.662V95.384H542.878L541.918 110.072H526.078V119H539.806V131.672H526.078V141.56H542.878L541.918 155ZM583.13 109.88H571.994V155H555.578V109.88H543.77L544.73 95.384H584.09L583.13 109.88Z" fill="url(#paint0_linear_2_3747)"/>
<defs>
<linearGradient id="paint0_linear_2_3747" x1="188.5" y1="-169.5" x2="532.5" y2="330.5" gradientUnits="userSpaceOnUse">
<stop stop-color="white" stop-opacity="0"/>
<stop offset="0.53125" stop-color="white"/>
<stop offset="1" stop-color="white" stop-opacity="0"/>
</linearGradient>
</defs>
</svg>
