<svg width="277" height="266" viewBox="0 0 277 266" fill="none" xmlns="http://www.w3.org/2000/svg">
<path d="M156.104 230.461C148.003 241.154 144.131 255.153 143.37 258.15C143.289 258.523 143.224 258.733 143.224 258.733C143.726 245.367 149.704 235.921 155.035 226.33L155.408 225.649C158.94 219.169 162.066 212.542 162.812 204.587C164.643 184.529 148.084 175.991 140.55 155.982C137.407 147.605 136.225 135.503 135.917 124.226C135.665 114.233 135.93 104.234 136.711 94.269L150.093 95.2735C150.093 95.2735 142.9 110.827 144.909 135.243C146.918 159.659 158.113 164.504 167.494 188.094C176.875 211.683 165.307 218.423 156.104 230.461Z" fill="#578EE0"/>
<path d="M276.629 191.658C276.629 191.658 270.991 199.192 258.629 182.131C246.316 165.119 250.155 155.609 237.032 152.612C223.909 149.614 215.257 150.781 205.115 134.563C200.999 127.551 197.824 120.028 195.669 112.188C193.794 105.807 192.327 99.3135 191.278 92.7461L202.619 89.3275C202.619 89.3275 205.196 127.013 218.821 139.553C232.447 152.093 238.604 140.784 246.461 153.146C254.319 165.508 263.182 194.007 276.629 191.658Z" fill="#578EE0"/>
<path opacity="0.3" d="M156.104 230.461C148.003 241.154 144.131 255.153 143.37 258.15C143.289 250.373 151.47 233.021 155.035 226.33L155.408 225.649C159.312 218.585 169.73 211.068 167.786 198.106C165.841 185.145 156.444 176.412 147.582 162.965C138.72 149.517 139.773 119.981 139.773 119.981C138.879 121.677 137.547 123.104 135.917 124.113C135.665 114.12 135.93 104.121 136.711 94.1556L150.093 95.1601C150.093 95.1601 142.9 110.714 144.909 135.13C146.918 159.546 158.113 164.39 167.494 187.98C176.875 211.57 165.307 218.423 156.104 230.461Z" fill="#401285"/>
<path opacity="0.3" d="M276.629 191.658C276.629 191.658 270.991 199.192 258.629 182.131C254.878 175.485 251.728 168.518 249.216 161.312C244.517 147.881 237.712 150.667 228.38 148.707C219.048 146.747 207.318 131.355 205.163 125.927C203.543 121.828 199.995 114.732 195.669 112.188C193.794 105.807 192.327 99.3135 191.278 92.7461L202.619 89.3275C202.619 89.3275 205.196 127.013 218.821 139.553C232.447 152.093 238.604 140.784 246.461 153.146C254.319 165.508 263.182 194.007 276.629 191.658Z" fill="#401285"/>
<path d="M110.123 117.583C110.123 117.583 94.5698 145.677 82.5805 149.533C70.5911 153.389 53.9843 150.036 47.293 149.193C40.6017 148.351 28.0615 148.189 17.6924 157.893C7.32323 167.598 12.8318 170.936 11.3412 184.643C10.5636 191.69 7.58243 194.542 4.86053 195.66C3.32023 196.281 1.63853 196.466 0 196.194C13.2044 191.172 4.86053 182.974 7.03157 167.76C8.94338 154.313 18.0488 148.561 30.8806 146.374C32.5548 146.104 34.2883 145.877 36.0813 145.693C38.3334 145.467 40.7313 145.369 43.2102 145.288C57.7918 144.9 75.7109 145.774 88.4293 132.327C92.0753 128.365 94.7539 123.613 96.2548 118.442C100.597 104.233 97.2917 89.1493 97.2917 89.1493C97.2917 89.1493 106.802 88.5174 109.508 92.7623C112.214 97.0071 110.123 117.583 110.123 117.583Z" fill="#578EE0"/>
<path opacity="0.3" d="M110.123 117.583C110.123 117.583 94.5697 145.677 82.5804 149.533C70.5911 153.389 53.9843 150.036 47.2929 149.193C40.6016 148.351 28.0614 148.189 17.6923 157.893C7.32317 167.598 12.8318 170.936 11.3412 184.643C10.5635 191.69 7.58237 194.542 4.86047 195.66C7.97122 193.359 9.64001 188.628 9.07295 180.333C8.11704 166.448 13.9335 150.716 30.8319 146.309C34.8655 145.339 39.0206 144.974 43.1615 145.224H43.3073C69.7648 146.666 92.3987 141.886 96.2061 118.361C100.548 104.152 97.243 89.0683 97.243 89.0683C97.243 89.0683 106.753 88.4364 109.459 92.6813C112.165 96.9261 110.123 117.583 110.123 117.583Z" fill="#401285"/>
<path d="M114.806 120.095C114.806 120.095 107.11 146.666 101.099 158.979C95.0882 171.292 79.34 173.366 58.6179 189.406C37.8958 205.446 47.0822 223.527 47.0822 223.527C46.9478 223.545 46.8116 223.545 46.6772 223.527C45.381 223.251 41.5736 221.08 44.2307 204.652C47.4711 185.096 66.1518 177.903 80.3607 167.533C94.5697 157.164 97.9073 136.134 98.1827 128.066C98.3447 124.323 99.252 116.368 100.208 108.883C101.293 100.248 102.395 92.2762 102.395 92.2762C102.395 92.2762 111.225 90.7695 112.894 95.2898C114.563 99.8101 114.806 120.095 114.806 120.095Z" fill="#578EE0"/>
<path opacity="0.3" d="M114.806 120.095C114.806 120.095 107.11 146.666 101.099 158.979C95.0882 171.292 79.34 173.366 58.6179 189.406C37.8958 205.446 47.0823 223.527 47.0823 223.527C46.9479 223.545 46.8116 223.545 46.6772 223.527C44.7502 219.865 43.7432 215.789 43.7432 211.651C43.7432 207.513 44.7502 203.437 46.6772 199.775C55.1346 182.634 87.9918 172.848 95.8659 159.838C103.74 146.828 100.645 126.316 100.726 115.558C100.735 113.325 100.584 111.094 100.273 108.883C101.358 100.248 102.46 92.2762 102.46 92.2762C102.46 92.2762 111.29 90.7695 112.959 95.2898C114.628 99.8101 114.806 120.095 114.806 120.095Z" fill="#401285"/>
<path d="M203.446 265.182C202.943 266.186 198.763 264.015 198.585 257.988C198.407 251.961 202.085 252.155 196.528 249.887C190.97 247.619 193.725 247.376 193.563 245.529C193.401 243.682 189.366 239.048 185.057 235.662C184.181 235.135 183.547 234.286 183.291 233.297C183.031 231.676 184.619 230.218 184.052 227.156C183.922 226.603 183.749 226.062 183.534 225.536C181.168 219.687 181.346 224.531 178.511 220.513C175.676 216.495 178.171 211.651 180.682 208.313C182.766 205.84 184.113 202.831 184.571 199.629C184.629 198.768 184.496 197.905 184.182 197.102C183.825 196.13 183.404 195.32 183.08 194.542C182.157 192.5 181.671 190.702 183.356 187.073C184.591 184.892 185.155 182.395 184.976 179.895C184.734 178.454 184.181 177.083 183.356 175.877C182.124 174.31 180.647 172.953 178.981 171.859C176.308 169.786 173.553 167.436 173.651 163.758C173.764 159.562 176.486 158.379 178.074 156.727C178.449 156.392 178.746 155.979 178.944 155.517C179.143 155.056 179.239 154.556 179.224 154.054C179.224 152.676 178.382 152.32 177.247 152.012C175.255 151.478 172.192 151.17 170.475 145.71C168.434 139.229 171.755 137.058 173.229 135.746C173.683 135.341 173.942 135.017 173.813 134.66C173.683 134.304 173.278 134.125 172.549 133.753C168.709 131.809 157.562 127.612 158.259 116.773C158.34 115.655 158.453 114.586 158.599 113.533C160.219 102.888 165.809 98.0441 165.809 98.0441C169.658 96.1523 173.89 95.1686 178.179 95.1686C182.468 95.1686 186.7 96.1523 190.549 98.0441C203.591 104.8 198.893 121.909 197.564 126.251C196.236 130.593 202.927 133.267 203.592 139.083C204.256 144.9 198.407 148.804 196.236 153.017C194.065 157.229 199.573 161.118 201.258 163.872C202.943 166.626 198.018 172.07 197.24 175.586C196.463 179.102 201.42 182.066 200.578 186.441C199.735 190.815 194.891 195.984 192.38 198.835C189.869 201.687 192.882 208.702 196.074 213.417C197.294 215.241 197.959 217.38 197.987 219.574C198.016 221.768 197.408 223.924 196.236 225.779C194.616 228.468 195.734 232.47 198.245 234.803C200.756 237.136 201.08 244.346 201.258 246.145C201.437 247.943 204.758 248.478 206.929 251.831C209.1 255.185 203.948 264.258 203.446 265.182Z" fill="#57A5E0"/>
<path opacity="0.3" d="M203.446 265.182C202.943 266.186 198.763 264.015 198.585 257.988C199.735 256.902 200.886 255.963 201.663 255.282C204.758 252.56 201.258 246.128 197.03 244.087C192.801 242.045 195.199 239.761 191.213 237.169C187.973 235.111 185.98 235.322 183.291 233.215C183.031 231.595 184.619 230.137 184.052 227.075C187.13 226.038 191.132 225.212 191.424 223.381C191.975 219.93 189.593 220.367 186.288 217.775C182.983 215.183 192.623 206.871 189.22 204.425C187.339 203.158 185.753 201.5 184.571 199.564C183.942 198.515 183.368 197.433 182.853 196.324C182.67 196.038 182.592 195.697 182.634 195.36C182.675 195.022 182.833 194.71 183.08 194.477C184.7 192.857 190.014 192.646 191.424 189.001C193.271 184.254 194.761 180.803 188.751 180.349C187.481 180.274 186.219 180.1 184.976 179.831C184.734 178.39 184.181 177.018 183.355 175.813C182.124 174.246 180.647 172.889 178.981 171.795C180.407 170.174 187.179 173.544 190.209 169.591C193.838 164.86 194.34 161.409 190.209 157.699C186.725 154.572 181.33 158.12 178.074 156.727C178.448 156.392 178.746 155.979 178.944 155.517C179.143 155.056 179.238 154.556 179.224 154.054C179.224 152.676 178.381 152.32 177.247 152.012C180.018 149.339 186.968 146.844 189.22 142.712C192.299 136.945 187.876 133.818 180.731 135.551C176.632 136.539 174.25 136.896 173.229 135.746C172.78 135.179 172.54 134.476 172.549 133.753C172.511 132.625 172.587 131.496 172.776 130.383C173.813 123.708 189.172 120.889 186.174 114.862C183.922 110.293 170.102 108.381 158.631 113.582C160.252 102.937 165.841 98.0927 165.841 98.0927C169.69 96.2009 173.922 95.2172 178.211 95.2172C182.5 95.2172 186.732 96.2009 190.581 98.0927C203.624 104.849 198.925 121.958 197.597 126.3C196.268 130.642 202.96 133.315 203.624 139.132C204.288 144.948 198.439 148.853 196.268 153.065C194.097 157.278 199.606 161.166 201.291 163.92C202.976 166.675 198.05 172.119 197.273 175.634C196.495 179.15 201.453 182.115 200.61 186.49C199.768 190.864 194.923 196.032 192.412 198.884C189.901 201.735 192.914 208.751 196.106 213.466C197.326 215.29 197.991 217.428 198.02 219.622C198.048 221.817 197.44 223.972 196.268 225.827C194.648 228.517 195.766 232.519 198.277 234.852C200.789 237.185 201.113 244.395 201.291 246.193C201.469 247.992 204.79 248.526 206.961 251.88C209.132 255.234 203.948 264.258 203.446 265.182Z" fill="#401285"/>
<path d="M147.582 97.7848C147.582 97.7848 142.073 102.645 139.562 105.351C137.051 108.057 140.729 112.415 138.379 116.692C136.03 120.97 129.857 123.043 129.355 123.708C128.853 124.372 130.035 126.948 129.355 130.399C128.514 134.098 127.881 137.841 127.459 141.611C127.459 144.106 125.013 149.29 124.349 151.137C123.684 152.984 124.511 156.322 124.511 158.833C124.511 161.344 121.157 165.686 120.655 168.198C120.152 170.709 122.161 174.387 120.314 178.065C118.467 181.742 116.653 183.913 118.143 188.272C119.634 192.63 123.004 195.789 121.999 198.301C120.995 200.812 115.972 203.647 117.317 207.163C118.662 210.679 118.646 215.863 120.655 220.529C122.664 225.196 129.193 234.431 127.022 240.944C124.851 247.457 116.312 263.351 114.984 263.626C114.19 263.821 112.116 257.146 110.901 249.952C109.959 245.435 109.751 240.796 110.285 236.213C111.031 232.47 111.582 229.619 111.792 227.383C112.051 224.596 111.792 222.798 110.788 221.502C110.359 220.926 110.1 220.241 110.042 219.525C109.816 217.16 110.998 213.806 111.128 209.123C111.241 205.057 109.119 204.036 107.547 202.383C106.568 201.422 105.989 200.125 105.927 198.754C105.587 193.732 110.431 194.234 111.274 190.896C111.744 189.033 112.359 187.656 112.748 186.425C113.068 185.56 113.136 184.621 112.943 183.719C112.679 182.915 112.314 182.147 111.857 181.435C110.739 179.474 109.249 176.947 109.573 174.176C110.042 170.174 110.431 168.992 108.779 165.314C107.126 161.636 108.941 155.965 109.492 154.442C110.042 152.919 107.758 148.108 105.96 144.073C104.161 140.039 108.779 135.875 109.443 133.882C110.107 131.89 103.756 128.52 102.573 123.675C101.391 118.831 108.6 112.966 106.089 108.77C104.709 106.237 103.964 103.407 103.918 100.523C103.753 97.0165 104.502 93.5274 106.089 90.3968C106.089 90.3968 107.596 81.7126 116.458 83.4138C125.321 85.115 147.582 97.7848 147.582 97.7848Z" fill="#57A5E0"/>
<path opacity="0.3" d="M147.582 97.7848C147.582 97.7848 142.074 102.645 139.562 105.351C137.051 108.057 140.729 112.415 138.379 116.692C136.03 120.97 129.857 123.043 129.355 123.708C128.853 124.372 130.036 126.948 129.355 130.399C128.514 134.098 127.881 137.841 127.459 141.611C127.459 144.106 125.013 149.29 124.349 151.137C123.684 152.984 124.511 156.322 124.511 158.833C124.511 161.344 121.157 165.686 120.655 168.198C120.152 170.709 122.161 174.387 120.314 178.065C118.467 181.742 116.653 183.913 118.143 188.272C119.634 192.63 123.004 195.789 121.999 198.301C120.995 200.812 115.972 203.647 117.317 207.163C118.662 210.679 118.646 215.863 120.655 220.529C122.664 225.196 129.193 234.431 127.022 240.944C124.851 247.457 116.313 263.351 114.984 263.626C114.19 263.821 112.116 257.146 110.901 249.952C113.348 245.788 116.588 241.3 117.026 236.278C117.69 228.517 116.782 227.221 111.792 227.383C112.052 224.596 111.792 222.798 110.788 221.502C110.359 220.926 110.1 220.241 110.043 219.525C112.667 219.525 116.102 220.141 117.009 217.305C118.548 212.558 115.065 210.42 111.128 209.123C111.241 205.057 109.119 204.036 107.547 202.383C109.508 202.918 111.566 203.258 112.764 202.221C115.632 199.726 113.769 193.602 112.764 186.425C112.44 184.189 112.116 182.666 111.873 181.435C111.197 178.813 111.17 176.066 111.792 173.431C112.845 167.501 116.345 163.888 114.806 154.831C113.267 145.774 113.331 144.495 114.806 141.222C116.28 137.949 121.53 136.734 117.576 132.862C113.623 128.989 112.845 126.511 114.806 119.997C116.766 113.484 124.964 116.482 125.143 108.284C125.305 101.414 113.801 98.5625 103.934 100.523C103.77 97.0165 104.518 93.5274 106.105 90.3968C106.105 90.3968 107.612 81.7126 116.475 83.4138C125.337 85.115 147.582 97.7848 147.582 97.7848Z" fill="#401285"/>
<path d="M212.227 86.4922C200.772 91.9522 152.945 88.6632 145.33 83.5111C145.33 83.5111 95.1043 88.6632 87.3761 81.664C83.5478 77.9659 80.7548 73.3296 79.2752 68.2166C76.7017 59.5713 77.101 50.3127 80.4093 41.9211C80.5065 41.6294 80.6199 41.354 80.7333 41.0786C82.5685 36.1909 85.6925 31.8912 89.774 28.6356C97.1944 22.641 108.017 18.9146 124.008 7.92975C141.053 -3.70312 165.258 -0.738201 181.249 5.40227C188.491 8.18898 194.049 11.6076 196.544 14.6211C204.515 24.3421 207.788 41.7267 214.366 49.0823C220.944 56.4379 223.682 81.0484 212.227 86.4922Z" fill="#5085DE"/>
<path opacity="0.3" d="M83.6822 41.9697C82.7356 41.5183 81.7243 41.2176 80.6848 41.0786C82.5335 36.1853 85.6748 31.885 89.7741 28.6356C90.9568 31.0497 91.8155 34.1118 93.0144 37.3198C96.4978 45.8743 90.4869 45.0318 83.6822 41.9697Z" fill="#401285"/>
<path opacity="0.3" d="M212.227 86.4922C200.772 91.9522 152.945 88.6632 145.33 83.511C145.33 83.511 95.1043 88.6632 87.376 81.664C83.5477 77.9659 80.7548 73.3296 79.2751 68.2166C83.4228 73.2391 89.1907 76.1392 93.1277 73.8224C100.013 69.7719 111.193 65.8511 127.589 68.33C143.985 70.8088 171.123 79.5092 170.993 72.8827C170.864 66.2561 158.891 69.8691 159.733 65.7215C160.576 61.5738 178.884 60.9744 191.278 59.5324C203.672 58.0905 201.291 48.9202 196.592 37.1902C192.111 26.2923 187.005 15.6624 181.298 5.35367C188.54 8.14037 194.097 11.5589 196.592 14.5725C204.564 24.2935 207.836 41.678 214.414 49.0337C220.992 56.3893 223.682 81.0484 212.227 86.4922Z" fill="#401285"/>
<path d="M88.3806 79.6226C88.3806 79.6226 77.8494 72.7693 85.043 66.6612C92.2366 60.5532 95.5742 75.5236 95.9145 75.5236C96.2547 75.5236 101.099 74.6973 101.099 74.6973C101.099 74.6973 95.4122 62.7404 104.939 61.7359C114.465 60.7314 111.29 76.5767 111.29 76.5767L121.011 78.2941C121.011 78.2941 118.338 64.7008 130.035 65.5433C141.733 66.3858 132.044 80.8054 132.044 80.8054L146.318 84.0457C146.318 84.0457 146.189 67.844 156.234 69.0429C166.279 70.2418 160.252 85.9413 160.252 85.9413L168.612 86.6056C168.612 86.6056 165.372 70.7117 177.474 69.5451C189.577 68.3786 184.733 87.2051 184.733 87.2051L194.259 85.1636C194.259 85.1636 190.241 68.9619 200.74 68.0384C211.239 67.1149 208.387 84.2401 208.387 84.2401C208.387 84.2401 173.829 94.0746 156.882 97.6228C139.935 101.171 88.3806 79.6226 88.3806 79.6226Z" fill="#B41BC2"/>
<path d="M152.507 95.5004C133.924 95.5004 93.0953 78.7802 89.6119 77.3382C88.332 76.4471 85.2699 73.8386 85.1241 71.4894C85.1241 71.1167 85.0268 70.015 86.7442 68.5406C87.1807 68.0913 87.7475 67.7909 88.3644 67.6819C88.9963 67.6819 90.7298 68.411 93.0467 75.2806C93.4517 76.4471 93.9864 78.0349 95.8982 78.0349C97.7869 77.8471 99.6638 77.555 101.52 77.16L104.874 76.5767L103.416 73.4984C102.606 71.781 101.293 67.5847 102.411 65.5757C102.573 65.3003 103.076 64.4092 105.214 64.1824C105.408 64.1662 105.603 64.1662 105.798 64.1824C106.184 64.1496 106.573 64.2105 106.931 64.3599C107.29 64.5094 107.606 64.7431 107.855 65.0411C109.718 67.3255 109.265 73.4012 108.746 75.9773L108.228 78.5695L124.251 81.4048L123.522 77.6946C123.231 76.2203 122.907 71.8782 124.786 69.5938C125.317 69.0188 125.973 68.5737 126.703 68.2927C127.434 68.0118 128.219 67.9026 128.998 67.9736H129.825C131.526 68.1032 132.579 68.5568 132.968 69.3183C134.005 71.457 131.769 76.5605 129.922 79.3472L127.864 82.458L148.927 87.3185V84.0781C148.927 81.8909 149.478 75.6046 152.167 72.8827C152.558 72.4702 153.031 72.1446 153.556 71.9268C154.08 71.7091 154.645 71.6042 155.213 71.619H155.926C156.477 71.6179 157.018 71.7571 157.5 72.0236C157.982 72.2901 158.388 72.675 158.68 73.1419C160.527 76.2041 158.68 82.863 157.838 85.0178L156.59 88.2582L171.82 89.4733L171.139 86.1196C170.751 84.0781 170.248 78.0187 172.76 74.7783C173.35 74.0131 174.102 73.3872 174.962 72.9448C175.821 72.5024 176.767 72.2545 177.733 72.2184H178.527C179.12 72.1623 179.718 72.2544 180.267 72.4862C180.815 72.7181 181.298 73.0826 181.671 73.547C184.085 76.6577 182.869 84.2726 182.254 86.7028L181.654 89.0521C172.614 91.4337 163.071 93.9126 156.379 95.2574C155.1 95.4673 153.803 95.5487 152.507 95.5004ZM196.852 84.5804C196.285 82.2797 195.329 75.5884 197.629 72.4129C198.025 71.8807 198.538 71.4463 199.127 71.143C199.717 70.8397 200.369 70.6755 201.032 70.6631H201.566C202.1 70.6286 202.634 70.719 203.126 70.9271C203.618 71.1353 204.055 71.4554 204.402 71.862C206.378 74.1951 206.394 79.3148 206.135 82.3121L196.852 84.8558V84.5804Z" fill="#E173EB"/>
<path d="M217.217 94.3176C213.442 102.321 173.683 105.383 164.804 105.351C155.926 105.319 114.303 95.3383 106.478 95.0143C98.6526 94.6903 84.0871 94.7227 83.7955 86.6542C83.6281 85.0298 83.7884 83.3883 84.2671 81.827C84.7458 80.2657 85.5331 78.8164 86.5822 77.565C97.7615 65.1382 139.53 81.1618 152.313 82.4255C167.318 84.1253 182.456 84.3207 197.5 83.0088C201.15 82.6199 204.331 82.1609 207.043 81.6316C217.995 79.5092 221.008 86.3139 217.217 94.3176Z" fill="#1850AD"/>
<path d="M121.999 20.875C127.702 25.2171 119.18 39.6529 112.278 33.2045C105.376 26.7562 117.463 17.4888 121.999 20.875Z" fill="#B41BC2"/>
<path d="M116.005 32.2487C115.244 32.2047 114.53 31.8679 114.012 31.309C113.447 30.8858 113.042 30.2842 112.863 29.6018C112.683 28.9193 112.74 28.1963 113.024 27.5502C113.626 26.2543 114.543 25.1302 115.693 24.281C116.842 23.4318 118.186 22.8847 119.602 22.6896C119.893 22.6683 120.182 22.7423 120.428 22.9002C121.562 23.7427 121.4 25.7032 120.881 27.2585C119.974 30.029 117.771 32.2487 116.005 32.2487Z" fill="#E173EB"/>
<path d="M128.48 12.693C132.142 15.739 127.443 21.199 123.863 18.4123C120.282 15.6256 124.77 9.61471 128.48 12.693Z" fill="#B41BC2"/>
<path d="M125.985 16.5977C125.786 16.5865 125.597 16.5063 125.45 16.3709C125.303 16.2743 125.196 16.1264 125.151 15.9558C125.107 15.7853 125.126 15.6041 125.207 15.4474C125.284 15.1977 125.425 14.9724 125.615 14.7935C125.805 14.6145 126.039 14.4881 126.293 14.4267C126.493 14.4591 126.678 14.5492 126.828 14.6859C127.265 15.0423 127.281 15.3178 127.168 15.6418C127.072 15.8908 126.912 16.1102 126.704 16.2779C126.497 16.4457 126.249 16.556 125.985 16.5977Z" fill="#E173EB"/>
<path d="M129.809 21.7985C124.559 23.6131 129.566 32.1514 133.584 30.1424C137.602 28.1334 132.984 20.6968 129.809 21.7985Z" fill="#B41BC2"/>
<path d="M132.304 27.8579C131.672 27.8579 130.392 26.578 130.165 25.2009C130.052 24.5366 130.165 24.3908 130.522 24.2935C131.277 24.7483 131.872 25.4281 132.223 26.2378C132.502 26.6989 132.606 27.2455 132.514 27.7769L132.304 27.8579Z" fill="#E173EB"/>
<path d="M185.008 26.7563C188.329 26.7563 191.489 35.3918 185.008 34.1605C178.527 32.9291 180.212 26.7563 185.008 26.7563Z" fill="#B41BC2"/>
<path d="M186.175 31.6978C185.943 31.7251 185.71 31.7251 185.478 31.6978C184.02 31.4223 183.291 30.8391 183.339 30.4178C183.388 29.9966 183.89 29.4619 184.96 29.4133C185.676 30.0092 186.139 30.8546 186.256 31.7788L186.175 31.6978Z" fill="#E173EB"/>
<path d="M194.308 24.4394C198.747 25.0551 202.522 38.3729 196.544 37.1902C190.565 36.0075 189.885 23.7751 194.308 24.4394Z" fill="#B41BC2"/>
<path d="M196.997 34.6465C195.555 34.3224 194.778 32.4916 194.518 31.714C193.981 30.2615 193.891 28.6816 194.259 27.1775C195.122 27.9907 195.783 28.9952 196.187 30.11C196.842 31.5277 197.121 33.0899 196.997 34.6465Z" fill="#E173EB"/>
<path d="M185.964 11.8344C191.246 14.7993 188.702 25.4277 183.761 21.685C178.819 17.9424 181.687 9.4365 185.964 11.8344Z" fill="#B41BC2"/>
<path d="M185.672 19.8543L185.332 19.6274C184.757 19.1858 184.306 18.6034 184.022 17.9364C183.739 17.2694 183.632 16.5404 183.712 15.82C183.752 15.1475 184.048 14.5157 184.538 14.054L184.7 14.135C185.215 14.5011 185.632 14.9881 185.915 15.5531C186.197 16.1181 186.337 16.7439 186.32 17.3754C186.382 18.2504 186.154 19.1213 185.672 19.8543Z" fill="#E173EB"/>
<path d="M160.284 61.5576C159.541 61.5608 158.798 61.5012 158.064 61.3794C155.034 61.0558 152.244 59.5776 150.274 57.2517C148.304 54.9257 147.305 51.9306 147.485 48.8879C147.514 48.5466 147.676 48.2307 147.937 48.0091C148.199 47.7875 148.537 47.6782 148.878 47.7051C149.047 47.7153 149.212 47.7593 149.364 47.8345C149.516 47.9098 149.651 48.0148 149.761 48.1432C149.871 48.2717 149.955 48.421 150.006 48.5823C150.058 48.7436 150.076 48.9137 150.061 49.0823C149.917 51.4768 150.713 53.833 152.281 55.6488C153.849 57.4646 156.063 58.5965 158.453 58.8033C159.53 59.0468 160.647 59.0571 161.729 58.8336C162.81 58.61 163.831 58.1578 164.723 57.5072C166.377 55.8817 167.365 53.698 167.494 51.3829C167.494 51.0392 167.631 50.7095 167.874 50.4664C168.117 50.2233 168.446 50.0868 168.79 50.0868C169.134 50.0868 169.464 50.2233 169.707 50.4664C169.95 50.7095 170.086 51.0392 170.086 51.3829C169.956 54.4578 168.638 57.3621 166.408 59.4838C164.681 60.8866 162.508 61.6226 160.284 61.5576Z" fill="#360727"/>
<path d="M127.54 47.1381C127.54 48.1257 127.247 49.0911 126.698 49.9121C126.149 50.7331 125.369 51.3727 124.456 51.7499C123.543 52.1271 122.539 52.225 121.571 52.0311C120.602 51.8372 119.713 51.3604 119.016 50.6609C118.319 49.9614 117.845 49.0707 117.654 48.1016C117.463 47.1326 117.564 46.1287 117.945 45.2172C118.325 44.3056 118.967 43.5274 119.79 42.981C120.612 42.4346 121.579 42.1447 122.566 42.1479C123.887 42.1522 125.152 42.6798 126.085 43.6152C127.017 44.5506 127.54 45.8174 127.54 47.1381Z" fill="#360727"/>
<path d="M198.861 49.6979C198.861 50.6856 198.568 51.651 198.019 52.472C197.469 53.293 196.689 53.9326 195.776 54.3098C194.864 54.687 193.859 54.7848 192.891 54.591C191.923 54.3971 191.033 53.9203 190.336 53.2207C189.639 52.5212 189.165 51.6306 188.974 50.6615C188.784 49.6924 188.885 48.6886 189.265 47.777C189.645 46.8655 190.287 46.0873 191.11 45.5409C191.933 44.9945 192.899 44.7046 193.887 44.7078C195.207 44.7121 196.472 45.2397 197.405 46.1751C198.337 47.1105 198.861 48.3773 198.861 49.6979Z" fill="#360727"/>
<path opacity="0.7" d="M138.752 7.94594C134.021 5.24025 130.003 7.67051 121.675 13.5194C113.348 19.3682 110.707 18.2989 103.27 22.9164C95.8335 27.5339 93.1278 33.723 99.2197 40.2685C105.312 46.814 114.417 32.6051 118.467 30.5474C122.518 28.4898 135.884 31.2765 141.15 28.2144C146.415 25.1522 150.158 22.4627 148.992 16.3709C147.825 10.279 138.752 7.94594 138.752 7.94594Z" fill="#AEEEF5"/>
<path opacity="0.7" d="M170.929 6.99007C163.768 7.81636 163.298 13.811 164.156 20.1621C165.015 26.5132 166.619 25.1523 174.931 29.3971C183.242 33.642 189.285 28.2144 188.734 24.407C188.184 20.5996 179.451 5.95316 170.929 6.99007Z" fill="#AEEEF5"/>
<path opacity="0.7" d="M162.034 30.9363C159.652 35.9103 157.514 41.8563 163.865 42.1479C170.216 42.4396 177.717 43.7681 176.34 36.5421C174.963 29.3161 164.221 26.3512 162.034 30.9363Z" fill="#AEEEF5"/>
<path opacity="0.7" d="M83.6822 54.5585C82.7911 65.2354 88.4455 66.24 90.9568 67.8277C93.4681 69.4155 96.9514 67.1148 96.0927 58.3497C95.234 49.5845 84.2006 48.4018 83.6822 54.5585Z" fill="#AEEEF5"/>
<path opacity="0.7" d="M100.402 77.3544C91.3455 81.2266 91.621 81.7775 96.2223 84.5156C100.824 87.2537 118.322 81.9071 131.348 89.3761C144.374 96.8451 164.61 97.477 174.963 95.225C185.316 92.9729 190.954 90.9315 188.767 89.1169C186.58 87.3023 168.709 90.1052 158.259 89.3599C147.809 88.6146 133.827 80.8864 122.615 78.6991C115.293 77.346 107.834 76.8944 100.402 77.3544Z" fill="#AEEEF5"/>
<path opacity="0.6" d="M217.217 94.3176C213.442 102.321 173.683 105.383 164.804 105.351C155.926 105.319 114.303 95.3384 106.478 95.0143C98.6526 94.6903 84.0871 94.7227 83.7955 86.6542C83.6281 85.0298 83.7884 83.3883 84.2671 81.827C84.7458 80.2657 85.5331 78.8164 86.5822 77.565C86.8773 77.8625 87.1086 78.2172 87.2618 78.6072C87.415 78.9972 87.487 79.4144 87.4733 79.8333C87.3761 86.1843 97.3402 89.1169 110.95 89.3113C124.559 89.5057 142.3 96.3105 155.229 100.653C168.158 104.995 182.772 101.074 193.968 96.3429C204.321 91.9684 204.774 88.6632 197.5 83.0574C201.15 82.6686 204.331 82.2095 207.043 81.6803C217.995 79.5092 221.008 86.314 217.217 94.3176Z" fill="#401285"/>
</svg>
