<svg width="196" height="35" viewBox="0 0 196 35" fill="none" xmlns="http://www.w3.org/2000/svg">
<path d="M47.64 16.952C47.64 13.3893 48.344 10.808 49.752 9.208C51.1813 7.608 53.5173 6.808 56.76 6.808C60.024 6.808 62.3493 7.59733 63.736 9.176C65.144 10.7547 65.848 13.3253 65.848 16.888C65.848 20.4293 65.1227 23.0533 63.672 24.76C62.2427 26.4667 59.9173 27.32 56.696 27.32C53.496 27.32 51.1813 26.4773 49.752 24.792C48.344 23.1067 47.64 20.4933 47.64 16.952ZM58.552 13.144C58.2747 12.5893 57.6773 12.312 56.76 12.312C55.8427 12.312 55.256 12.5787 55 13.112C54.744 13.6453 54.616 14.7867 54.616 16.536V17.944C54.616 19.736 54.7547 20.8987 55.032 21.432C55.3093 21.9653 55.9173 22.232 56.856 22.232C57.7947 22.232 58.3813 21.976 58.616 21.464C58.8507 20.952 58.968 19.8107 58.968 18.04V16.568C58.968 14.8187 58.8293 13.6773 58.552 13.144ZM74.052 17.304C74.052 18.9253 74.2333 20.1093 74.596 20.856C74.9587 21.5813 75.5667 21.944 76.42 21.944C77.2733 21.944 78.692 21.7093 80.676 21.24L81.7 26.328C79.6093 26.9893 77.5933 27.32 75.652 27.32C72.6867 27.32 70.5213 26.4773 69.156 24.792C67.812 23.0853 67.14 20.5573 67.14 17.208C67.14 13.8373 67.844 11.2667 69.252 9.496C70.66 7.704 72.9533 6.808 76.132 6.808C77.988 6.808 79.844 7.17067 81.7 7.896L80.644 13.592C78.532 12.9733 77.0813 12.664 76.292 12.664C75.524 12.664 74.9587 13.0373 74.596 13.784C74.2333 14.5093 74.052 15.6827 74.052 17.304ZM95.327 27H82.655V7.128H95.775L95.327 12.408H89.503V14.808H94.591V19.416H89.503V22.136H95.775L95.327 27ZM114.141 27H107.421L106.781 23.928H103.229L102.557 27H96.125L100.253 7.128H110.013L114.141 27ZM106.301 19.8L105.085 13.144H104.957L103.709 19.8H106.301ZM132.3 27H125.772L121.74 19.16H121.516V27H115.436V7.128H122.188L125.964 15.224H126.156V7.128H132.3V27ZM142.97 20.792H141.594V27H134.874V7.128H142.618C145.242 7.128 147.151 7.66133 148.346 8.728C149.54 9.79467 150.138 11.5547 150.138 14.008C150.138 16.4613 149.562 18.2107 148.41 19.256C147.258 20.28 145.444 20.792 142.97 20.792ZM143.29 16.152C143.482 15.8107 143.578 15.2347 143.578 14.424C143.578 13.6133 143.471 13.0373 143.258 12.696C143.066 12.3547 142.692 12.184 142.138 12.184H141.466V16.664H142.298C142.788 16.664 143.119 16.4933 143.29 16.152ZM164.358 27H151.686V7.128H164.806L164.358 12.408H158.534V14.808H163.622V19.416H158.534V22.136H164.806L164.358 27ZM180.324 12.536H176.1V27H169.284V12.536H164.836L165.124 7.128H180.708L180.324 12.536ZM180.695 13.496C180.695 11.384 181.335 9.74133 182.615 8.568C183.895 7.39467 185.666 6.808 187.927 6.808C190.21 6.808 192.556 7.02133 194.967 7.448L194.231 13.08C191.564 12.5467 189.815 12.28 188.983 12.28C188.151 12.28 187.735 12.536 187.735 13.048C187.735 13.24 187.799 13.3787 187.927 13.464C188.055 13.528 188.151 13.5813 188.215 13.624C188.279 13.6667 188.396 13.72 188.567 13.784C188.759 13.848 188.908 13.912 189.015 13.976C189.143 14.0187 189.527 14.1787 190.167 14.456C190.828 14.712 191.319 14.9253 191.639 15.096C191.98 15.2453 192.439 15.5013 193.015 15.864C194.679 16.952 195.511 18.552 195.511 20.664C195.511 22.776 194.882 24.4187 193.623 25.592C192.364 26.744 190.551 27.32 188.183 27.32C185.836 27.32 183.532 27.032 181.271 26.456L181.719 21.048C184.578 21.7733 186.508 22.136 187.511 22.136C188.172 22.136 188.503 21.9013 188.503 21.432C188.503 21.2187 188.418 21.048 188.247 20.92C188.098 20.792 187.863 20.6533 187.543 20.504C187.244 20.3547 186.796 20.1627 186.199 19.928C185.602 19.672 185.1 19.4587 184.695 19.288C184.29 19.096 183.81 18.808 183.255 18.424C181.548 17.2507 180.695 15.608 180.695 13.496Z" fill="url(#paint0_linear_33_840)"/>
<path d="M25.6619 7.50504C25.6619 7.86758 25.5544 8.22197 25.353 8.5234C25.1516 8.82484 24.8653 9.05978 24.5304 9.19851C24.1955 9.33725 23.8269 9.37355 23.4713 9.30282C23.1158 9.23209 22.7892 9.05752 22.5328 8.80117C22.2765 8.54482 22.1019 8.21821 22.0312 7.86265C21.9604 7.50708 21.9967 7.13852 22.1355 6.80359C22.2742 6.46865 22.5091 6.18238 22.8106 5.98096C23.112 5.77955 23.4664 5.67205 23.8289 5.67205C24.3151 5.67205 24.7813 5.86517 25.1251 6.20892C25.4688 6.55267 25.6619 7.0189 25.6619 7.50504ZM31.4218 20.2586C28.3014 24.2226 23.2926 26.3854 16.526 26.6932L13.3463 34.2518C13.2531 34.4735 13.0965 34.6627 12.8963 34.7958C12.696 34.9289 12.4609 34.9999 12.2204 35C12.196 35 12.1714 34.9992 12.1468 34.9979C11.8942 34.9827 11.6526 34.8895 11.4552 34.7311C11.2578 34.5728 11.1145 34.3571 11.045 34.1137L8.78737 26.212L0.885622 23.9492C0.642422 23.8795 0.426827 23.7361 0.268587 23.5388C0.110347 23.3414 0.0172615 23.0998 0.00217548 22.8473C-0.0129105 22.5947 0.0507464 22.3437 0.184363 22.1289C0.317979 21.9141 0.514968 21.7461 0.748148 21.648L8.3033 18.4705C8.61277 11.7052 10.7763 6.69746 14.7408 3.5777C21.0214 -1.36498 29.9204 0.0727004 32.4979 0.631306C32.9562 0.731184 33.3761 0.960564 33.7078 1.29217C34.0394 1.62378 34.2689 2.04365 34.3688 2.50188C34.9273 5.07984 36.3653 13.9789 31.4218 20.2587V20.2586ZM31.9803 3.01924C29.6666 2.51838 21.6936 1.21573 16.2522 5.49837C15.6792 5.94998 15.1485 6.45282 14.6667 7.00067C14.6962 8.60161 15.3524 10.1271 16.4943 11.2496C17.6362 12.3721 19.1727 13.002 20.7739 13.004C21.098 13.004 21.4089 13.1328 21.638 13.362C21.8672 13.5911 21.9959 13.9019 21.9959 14.226C21.9979 15.8269 22.6276 17.3633 23.7497 18.5051C24.8718 19.647 26.3968 20.3033 27.9975 20.3333C28.546 19.8513 29.0494 19.3202 29.5015 18.7468C33.7842 13.3062 32.4816 5.33325 31.9803 3.01924Z" fill="white"/>
<defs>
<linearGradient id="paint0_linear_33_840" x1="121.5" y1="-2.42644e-06" x2="198" y2="43.5" gradientUnits="userSpaceOnUse">
<stop stop-color="white"/>
<stop offset="1" stop-color="white" stop-opacity="0"/>
</linearGradient>
</defs>
</svg>
