<svg width="35" height="35" viewBox="0 0 35 35" fill="none" xmlns="http://www.w3.org/2000/svg">
<path d="M25.6619 7.50504C25.6619 7.86758 25.5544 8.22197 25.353 8.5234C25.1516 8.82484 24.8653 9.05978 24.5304 9.19851C24.1955 9.33725 23.8269 9.37355 23.4713 9.30282C23.1158 9.23209 22.7892 9.05752 22.5328 8.80117C22.2765 8.54482 22.1019 8.21821 22.0312 7.86265C21.9604 7.50708 21.9967 7.13852 22.1355 6.80359C22.2742 6.46865 22.5091 6.18238 22.8106 5.98096C23.112 5.77955 23.4664 5.67205 23.8289 5.67205C24.3151 5.67205 24.7813 5.86517 25.1251 6.20892C25.4688 6.55267 25.6619 7.0189 25.6619 7.50504ZM31.4218 20.2586C28.3014 24.2226 23.2926 26.3854 16.526 26.6932L13.3463 34.2518C13.2531 34.4735 13.0965 34.6627 12.8963 34.7958C12.696 34.9289 12.4609 34.9999 12.2204 35C12.196 35 12.1714 34.9992 12.1468 34.9979C11.8942 34.9827 11.6526 34.8895 11.4552 34.7311C11.2578 34.5728 11.1145 34.3571 11.045 34.1137L8.78737 26.212L0.885622 23.9492C0.642422 23.8795 0.426827 23.7361 0.268587 23.5388C0.110347 23.3414 0.0172615 23.0998 0.00217548 22.8473C-0.0129105 22.5947 0.0507464 22.3437 0.184363 22.1289C0.317979 21.9141 0.514968 21.7461 0.748148 21.648L8.3033 18.4705C8.61277 11.7052 10.7763 6.69746 14.7408 3.5777C21.0214 -1.36498 29.9204 0.0727004 32.4979 0.631306C32.9562 0.731184 33.3761 0.960564 33.7078 1.29217C34.0394 1.62378 34.2689 2.04365 34.3688 2.50188C34.9273 5.07984 36.3653 13.9789 31.4218 20.2587V20.2586ZM31.9803 3.01924C29.6666 2.51838 21.6936 1.21573 16.2522 5.49837C15.6792 5.94998 15.1485 6.45282 14.6667 7.00067C14.6962 8.60161 15.3524 10.1271 16.4943 11.2496C17.6362 12.3721 19.1727 13.002 20.7739 13.004C21.098 13.004 21.4089 13.1328 21.638 13.362C21.8672 13.5911 21.9959 13.9019 21.9959 14.226C21.9979 15.8269 22.6276 17.3633 23.7497 18.5051C24.8718 19.647 26.3968 20.3033 27.9975 20.3333C28.546 19.8513 29.0494 19.3202 29.5015 18.7468C33.7842 13.3062 32.4816 5.33325 31.9803 3.01924Z" fill="white"/>
</svg>
