<svg width="583" height="427" viewBox="0 0 583 427" fill="none" xmlns="http://www.w3.org/2000/svg">
<g clip-path="url(#clip0_11_19)">
<path opacity="0.1" d="M159.515 397.384C100.99 429.884 379.242 437.643 433.898 410.57C496.827 379.39 203.989 372.684 159.515 397.384Z" fill="black"/>
<path opacity="0.1" d="M204.849 399.788C165.609 421.58 352.172 426.782 388.814 408.63C431.013 387.723 234.668 383.227 204.849 399.788Z" fill="black"/>
<path d="M541.879 179.635C523.463 181.608 510.973 208.532 519.102 225.364C527.232 242.197 559.461 243.652 573.007 231.425C586.553 219.198 574.952 176.077 541.879 179.635Z" fill="#CDF9F1"/>
<path opacity="0.3" d="M546.702 179.829C526.412 176.732 502.608 211.197 528.035 227.819C553.463 244.44 572.782 203.339 565.012 192.762C557.243 182.185 555.454 181.166 546.702 179.829Z" fill="white"/>
<path d="M547.139 176.732C516.179 176.732 491.62 242.45 547.139 240.688C602.658 238.926 586.582 176.732 547.139 176.732ZM532.149 225.519C506.991 215.265 522.391 177.882 544.767 182.276C572.913 187.801 560.472 237.065 532.149 225.519ZM543.001 234.835C551.421 233.704 566.153 221.651 566.655 207.199C582.932 223.892 563.646 240.943 543.001 234.835Z" fill="#9DF4ED"/>
<path d="M533.719 182.49C521.987 186.936 518.62 208.902 536.674 203.715C554.728 198.529 551.828 175.621 533.719 182.49Z" fill="white"/>
<path d="M539.931 220.205C534.411 221.965 535.704 230.446 541.879 229.411C548.054 228.376 547.514 217.783 539.931 220.205Z" fill="white"/>
<path d="M484.271 80.5299C468.783 82.0205 458.275 102.279 465.11 114.949C471.944 127.619 499.057 128.712 510.449 119.511C521.84 110.309 512.089 77.8553 484.271 80.5299Z" fill="#CDF9F1"/>
<path opacity="0.3" d="M488.327 80.6771C471.261 78.3471 451.237 104.286 472.626 116.804C494.015 129.323 510.257 98.3794 503.728 90.4193C497.199 82.4592 495.688 81.6835 488.327 80.6771Z" fill="white"/>
<path d="M488.694 78.3471C457.593 75.2778 447.637 128.204 488.694 126.483C529.674 124.77 520.054 81.4406 488.694 78.3471ZM476.091 115.066C454.93 107.347 467.884 79.2123 486.703 82.5184C510.374 86.6775 499.909 123.755 476.086 115.066H476.091ZM485.218 122.076C492.3 121.226 504.692 112.153 505.11 101.28C518.802 113.841 502.579 126.674 485.214 122.076H485.218Z" fill="#9DF4ED"/>
<path d="M477.406 82.6792C467.536 86.0186 464.707 102.564 479.892 98.654C495.076 94.7438 492.637 77.5151 477.406 82.6792Z" fill="white"/>
<path d="M482.631 111.065C477.989 112.39 479.076 118.774 484.271 117.994C489.465 117.214 489.011 109.243 482.631 111.065Z" fill="white"/>
<path d="M32.6723 134.236C10.4438 136.375 -4.63431 165.448 5.17483 183.63C14.984 201.812 53.891 203.381 70.2401 190.175C86.5892 176.969 72.5907 130.397 32.6723 134.236Z" fill="#CDF9F1"/>
<path opacity="0.3" d="M38.4879 134.447C13.9985 131.108 -14.7365 168.328 15.9573 186.28C46.6511 204.233 69.9607 159.841 60.5995 148.415C51.2383 136.99 49.0533 135.891 38.4879 134.447Z" fill="white"/>
<path d="M39.0164 131.102C-5.6167 126.699 -19.8992 202.651 39.0164 200.18C97.8242 197.715 84.02 135.548 39.0164 131.102ZM20.9211 183.797C-9.44774 172.716 9.14559 132.339 36.1541 137.088C70.1278 143.058 55.1119 196.265 20.9211 183.797ZM34.0222 193.859C44.1852 192.637 61.9692 179.618 62.569 164.009C82.2222 182.041 58.9414 200.455 34.0222 193.859Z" fill="#9DF4ED"/>
<path d="M22.8176 137.321C8.65662 142.123 4.59631 165.858 26.3844 160.242C48.1726 154.625 44.6756 129.908 22.8176 137.321Z" fill="white"/>
<path d="M30.3157 178.05C23.6543 179.952 25.2122 189.113 32.6678 187.994C40.1233 186.875 39.4704 175.441 30.3157 178.05Z" fill="white"/>
<path d="M528.43 1.31601C520.499 2.16302 515.12 13.6827 518.62 20.8853C522.12 28.0879 536.003 28.7118 541.835 23.4795C547.667 18.2471 542.675 -0.206485 528.43 1.31601Z" fill="#CDF9F1"/>
<path opacity="0.3" d="M530.507 1.39953C521.769 0.0728508 511.516 14.8227 522.469 21.9358C533.421 29.0488 541.738 11.462 538.394 6.93395C535.051 2.40593 534.278 1.96876 530.507 1.39953Z" fill="white"/>
<path d="M530.696 0.0727639C514.77 -1.67135 509.673 28.4218 530.696 27.4428C551.676 26.4667 546.753 1.83206 530.696 0.0727639ZM524.239 20.952C513.405 16.5637 520.038 0.566096 529.674 2.44531C541.797 4.81026 536.438 25.8929 524.239 20.952ZM528.915 24.9382C532.541 24.4539 538.885 19.296 539.102 13.1119C546.112 20.2553 537.805 27.5521 528.915 24.9382Z" fill="#9DF4ED"/>
<path d="M524.915 2.53793C519.863 4.43991 518.413 13.8436 526.189 11.6213C533.965 9.39902 532.715 -0.39929 524.915 2.53793Z" fill="white"/>
<path d="M527.59 18.6768C525.214 19.4358 525.768 23.0606 528.43 22.6235C531.092 22.1863 530.858 17.6416 527.59 18.6768Z" fill="white"/>
<path d="M112.828 40.1132C104.897 40.9602 99.5172 52.4799 103.017 59.684C106.517 66.8882 120.4 67.509 126.233 62.2767C132.065 57.0443 127.074 38.5922 112.828 40.1132Z" fill="#CDF9F1"/>
<path opacity="0.3" d="M114.905 40.1967C106.166 38.8716 95.9139 53.6199 106.866 60.7345C117.819 67.8491 126.135 50.2607 122.792 45.7311C119.448 41.2016 118.675 40.769 114.905 40.1967Z" fill="white"/>
<path d="M115.093 38.8715C99.168 37.1258 94.0706 67.2205 115.093 66.2415C136.078 65.267 131.151 40.6308 115.093 38.8715ZM108.637 59.7492C97.8029 55.3609 104.435 39.3633 114.071 41.2425C126.195 43.6075 120.836 64.6901 108.637 59.7492ZM113.312 63.7353C116.938 63.2526 123.284 58.0947 123.5 51.9091C130.51 59.054 122.203 66.3492 113.312 63.7353Z" fill="#9DF4ED"/>
<path d="M109.314 41.3349C104.261 43.2369 102.811 52.6421 110.587 50.4183C118.363 48.1945 117.113 38.3992 109.314 41.3349Z" fill="white"/>
<path d="M111.988 57.4753C109.612 58.2342 110.166 61.8576 112.828 61.4219C115.49 60.9863 115.256 56.4385 111.988 57.4753Z" fill="white"/>
<path d="M368.432 197.833C370.934 191.325 373.018 184.662 374.67 177.888C387.892 123.793 375.441 57.4254 306.402 39.6624C207.418 14.1944 151.869 103.871 182.775 174.047C197.959 208.514 214.758 195.683 222.528 214.463" fill="#E23040"/>
<path d="M220.985 207.788C233.035 232.955 166.412 242.654 138.978 205.815C111.545 168.976 145.66 140.857 156.618 160.752C171.449 187.692 149.564 180.344 149.564 188.181C149.564 196.018 187.194 193.662 182.48 168.98C177.767 144.299 131.523 110.603 105.658 156.058C79.7926 201.513 142.504 245.394 173.077 251.666C203.649 257.938 190.539 284.487 146.425 279.878L150.339 312.007C186.404 312.007 217.758 288.497 235.791 315.928C253.824 343.358 236.572 334.733 218.542 334.733C200.512 334.733 220.112 374.702 248.329 365.296C276.546 355.889 286.948 320.4 323.527 334.504C368.998 366.926 417.113 405.025 460.778 361.372C488.999 333.159 451.589 315.717 435.691 334.727C419.793 353.738 386.304 326.109 399.63 311.216C412.956 296.323 446.275 313.179 474.888 284.572C503.502 255.964 475.279 225.405 470.181 230.501C465.084 235.597 467.317 268.616 430.986 255.576C400.41 244.604 401.432 227.67 411.387 224.229C431.768 217.175 459.715 201.226 444.822 164.398C429.929 127.569 387.532 139.798 383.952 160.659C379.582 186.16 411.336 197.285 416.779 185.152C418.407 181.526 414.902 181.043 407.081 177.411C401.103 174.633 394.144 160.761 411.393 160.761C428.643 160.761 439.181 210.481 387.098 199.165C366.534 194.696 372.084 188.68 373.945 180.172" fill="#E23040"/>
<path d="M436.475 152.993C440.357 158.34 434.158 157.699 426.127 154.173C412.148 148.031 398.925 151.937 395.758 159.762C390.26 173.347 406.92 183.442 405.603 185.641C404.287 187.841 389.203 188.934 383.736 168.47C378.27 148.007 416.44 125.405 436.475 152.993Z" fill="#FF7881"/>
<path d="M174.226 152.6C185.321 162.781 188.749 190.345 158.131 188.14C155.314 185.711 173.906 175.729 166.203 158.213C158.5 140.698 169.687 146.733 174.226 152.6Z" fill="#FF7881"/>
<path d="M237.144 191.686C246.679 203.374 242.012 230.697 202.213 232.285C162.413 233.872 131.313 214.127 126.091 186.443C120.87 158.759 146.662 146.066 157.936 157.192C143.045 135.826 105.626 148.631 108.97 193.828C112.313 239.024 194.134 277.803 254.558 240.428C314.981 203.054 237.144 191.686 237.144 191.686Z" fill="#FC5161"/>
<path d="M386.904 178.167C386.94 182.759 393.512 181.163 391.28 176.427C389.048 171.691 386.887 175.846 386.904 178.167Z" fill="#FFBFBF"/>
<path d="M381.674 167.159C381.708 170.872 386.884 171.792 386.837 166.784C386.79 161.776 381.632 161.551 381.674 167.159Z" fill="#FFBFBF"/>
<path d="M382.522 156.04C381.866 159.655 386.831 161.454 387.719 156.571C388.607 151.688 383.525 150.563 382.522 156.04Z" fill="#FFBFBF"/>
<path d="M387.452 146.726C385.209 149.906 390.387 154.35 393.409 150.065C396.43 145.78 390.843 141.923 387.452 146.726Z" fill="#FFBFBF"/>
<path d="M396.084 139.767C392.671 142.603 397.102 148.763 401.702 144.939C406.303 141.115 401.244 135.479 396.084 139.767Z" fill="#FFBFBF"/>
<path d="M408.706 136.516C403.806 137.31 404.585 144.97 411.19 143.904C417.795 142.838 416.108 135.332 408.706 136.516Z" fill="#FFBFBF"/>
<path d="M421.515 138.845C416.307 138.196 414.735 145.812 421.755 146.691C428.775 147.57 429.387 139.833 421.515 138.845Z" fill="#FFBFBF"/>
<path d="M434.713 144.409C429.165 142.164 425.029 149.857 432.513 152.881C439.998 155.905 443.107 147.799 434.713 144.409Z" fill="#FFBFBF"/>
<path d="M445.707 157.649C441.899 152.687 433.614 157.042 438.746 163.733C443.879 170.424 451.459 165.147 445.707 157.649Z" fill="#FFBFBF"/>
<path d="M452.007 172.781C450.944 167.854 443.012 168.136 444.445 174.765C445.879 181.394 453.621 180.222 452.007 172.781Z" fill="#FFBFBF"/>
<path d="M451.924 186.889C452.835 182.443 445.857 179.896 444.635 185.883C443.413 191.869 450.548 193.595 451.924 186.889Z" fill="#FFBFBF"/>
<path d="M450.223 199.997C451.482 196.229 445.622 193.331 443.923 198.407C442.224 203.483 448.32 205.69 450.223 199.997Z" fill="#FFBFBF"/>
<path d="M484.922 270.008C512.066 215.909 453.056 184.7 428.588 204.377C404.12 224.054 435.339 248.013 438.862 239.95C442.385 231.887 418.144 227.12 439.317 215.654C457.747 205.673 471.892 229.11 462.445 250.752" fill="#E23040"/>
<path d="M437.711 216.563C428.955 222.369 431.32 232.778 439.855 231.937C446.08 231.33 441.894 223.232 444.392 222.222C450.498 219.737 458.723 240.711 442.634 244.607C426.544 248.504 413.375 230.89 419.869 216.571" fill="#E23040"/>
<path d="M449.89 232.523C451.62 223.444 444.284 219.848 443.523 227.058C442.814 233.765 432.378 237.403 428.536 226.381C424.695 215.359 443.287 200.036 468.121 210.982C478.712 215.176 474.346 208.831 468.678 205.062C448.217 192.718 417.722 201.654 417.538 224.11C417.355 246.567 447.072 247.317 449.89 232.523Z" fill="#FF7881"/>
<path d="M382.588 278.082C372.656 292.711 386.131 334.985 416.762 340.489C400.878 336.594 397.232 312.544 406.12 306.802C415.007 301.059 471.955 316.74 489.97 256.974C462.287 312.303 392.52 263.448 382.588 278.082Z" fill="#FF9B2E"/>
<path d="M390.905 283.313C379.348 287.987 387.359 310.317 393.551 321.512C399.744 332.707 397.67 325.82 396.787 315.416C395.905 305.012 399.988 303.459 422.063 302.031C444.138 300.603 444.644 290.822 427.554 290.127C410.464 289.432 403.847 278.082 390.905 283.313Z" fill="#F9C55D"/>
<path d="M291.788 286.214C305.91 272.451 323.989 304.126 363.447 335.86C407.081 370.947 454.447 364.805 458.368 334.243C427.01 371.081 363.447 328.407 376.695 267.109C392.504 258.513 432.018 294.598 465.808 266.654C485.071 250.715 480.841 218.213 455.416 213.89C464.697 216.774 471.493 233.956 465.102 249.166C458.711 264.375 436.306 266.274 410.942 247.027C400.265 238.926 398.411 225.103 415.01 216.571C436.142 205.71 442.011 179.258 424.701 167.52C439.565 200.88 400.495 210.478 378.341 200.843C356.187 191.209 366.906 183.263 371.668 163.725C375.069 151.545 375.827 141.474 357.452 120.471C318.747 76.2235 224.35 75.3643 218.097 131.601C212.608 180.975 273.976 188.169 239.158 239.715C216.495 273.261 160.562 299 117.353 271.724C139.439 313.54 182.429 306.996 228.047 287.946C245.611 280.611 261.101 325.992 241.75 346.778C271.789 334.702 279.535 298.16 291.788 286.214Z" fill="#FC5161"/>
<path d="M420.067 261.051C398.201 253.722 389.698 271.267 406.773 276.382C423.847 281.498 435.403 266.192 420.067 261.051Z" fill="#E23040"/>
<path d="M419.875 225.115C422.078 229.529 427.074 225.747 423.383 220.475C420.624 216.542 418.452 222.265 419.875 225.115Z" fill="#FFBFBF"/>
<path d="M421.804 210.484C419.47 215.018 424.441 218.368 427.592 212.258C430.743 206.149 425.325 203.633 421.804 210.484Z" fill="#FFBFBF"/>
<path d="M431.748 200.221C427.449 202.984 429.8 208.539 435.597 204.811C441.395 201.083 438.248 196.05 431.748 200.221Z" fill="#FFBFBF"/>
<path d="M445.071 196.992C439.891 198.111 439.679 206.223 446.661 204.725C453.642 203.227 452.906 195.32 445.071 196.992Z" fill="#FFBFBF"/>
<path d="M459.133 197.343C453.32 197.216 450.703 206.299 458.539 206.464C466.376 206.63 467.925 197.534 459.133 197.343Z" fill="#FFBFBF"/>
<path d="M473.751 203.772C468.786 200.623 461.535 208.174 468.224 212.424C474.913 216.674 481.252 208.539 473.751 203.772Z" fill="#FFBFBF"/>
<path d="M484.125 214.247C480.388 209.541 471.196 215.206 476.229 221.548C481.263 227.89 489.771 221.354 484.125 214.247Z" fill="#FFBFBF"/>
<path d="M491.471 229.618C489.093 223.2 477.638 226.916 480.842 235.56C484.046 244.205 495.076 239.308 491.471 229.618Z" fill="#FFBFBF"/>
<path d="M493.4 250.348C494.406 242.675 483.793 240.257 481.222 250.374C478.651 260.491 491.874 261.95 493.4 250.348Z" fill="#FFBFBF"/>
<path d="M482.687 271.153C486.864 265.851 479.867 259.832 474.232 266.985C468.598 274.137 476.361 279.166 482.687 271.153Z" fill="#FFBFBF"/>
<path d="M464.508 281.255C469.862 277.94 466.596 270.133 459.376 274.596C452.156 279.058 456.412 286.261 464.508 281.255Z" fill="#FFBFBF"/>
<path d="M444.591 284.566C450.021 285.545 452.722 278.535 445.405 277.213C438.087 275.891 436.384 283.079 444.591 284.566Z" fill="#FFBFBF"/>
<path d="M426.732 281.944C430.661 283.635 434.325 278.773 429.024 276.49C423.723 274.207 420.786 279.385 426.732 281.944Z" fill="#FFBFBF"/>
<path d="M413.112 276.539C416.728 276.704 418.17 271.768 413.302 271.54C408.434 271.312 407.656 276.291 413.112 276.539Z" fill="#FFBFBF"/>
<path d="M435.694 334.733C455.685 314.75 447.713 281.845 423.151 286.93C406.108 290.455 421.583 304.953 414.134 312.4C406.685 319.847 382.367 279.503 418.234 268.267C454.101 257.032 499.167 290.186 467.822 352.426" fill="#E23040"/>
<path d="M444.503 344.81C459.286 337.205 465.096 310.085 455.905 289.245C446.714 268.406 418.789 274.614 412.568 285.182C406.347 295.75 409.348 303.843 404.976 303.655C400.605 303.467 396.259 278.069 419.695 269.502C443.13 260.934 474.51 276.788 475.607 306.331C476.703 335.875 452.982 369.658 411.68 358.832" fill="#FC5161"/>
<path d="M363.521 198.715C378.484 173.546 389.883 101.757 348.553 64.6567C305.634 26.1313 237.366 39.5818 209.967 81.099C159.462 157.626 250.93 180.571 254.517 222.957" fill="#FC5161"/>
<path d="M304.51 49.2025C375.004 50.9679 411.316 173.293 321.202 190.285C225.385 208.35 183.466 46.1743 304.51 49.2025Z" fill="#FF7176"/>
<path d="M102.027 192.774C116.949 217.149 149.6 247.036 181.639 249.612C213.678 252.188 201.207 276.589 161.245 280.73C166.751 267.631 107.084 251.91 102.027 192.774Z" fill="#FF9B2E"/>
<path d="M119.013 225.332C131.982 237.488 154.787 249.735 169.145 254.492C182.435 258.894 173.61 273.023 159.318 267.85C145.026 262.677 126.796 246.08 118.259 233.745C109.723 221.41 113.05 219.745 119.013 225.332Z" fill="#F9C55D"/>
<path d="M221.491 294.932C237.695 300.416 247.54 326.54 233.055 333.657C233.69 324.269 225.326 301.038 196.096 306.348C212.823 294.596 221.491 294.932 221.491 294.932Z" fill="#FF9B2E"/>
<path d="M429.652 379.561C399.309 377.879 374.229 362.712 342.869 331.368C311.509 300.024 295.572 291.927 274.926 324.577C254.28 357.226 230.841 370.792 199.056 358.398C220.338 379.672 252.071 385.276 288.519 346.517C307.993 325.809 326.666 340.251 349.659 355.928C372.653 371.606 412.934 386.267 429.652 379.561Z" fill="#FF9B2E"/>
<path d="M239.981 322.76C239.981 328.495 232.653 338.934 215.291 329.742C197.929 320.551 209.747 294.021 228.096 298.978C237.238 301.446 241.053 299.792 236.721 293.297C226.122 277.428 193.594 271.159 179.354 309.655C163.008 353.814 231.622 394.357 263.425 340.488" fill="#E23040"/>
<path d="M194.538 351.53C157.262 321.06 196.88 256.461 232.471 291.182C209.343 282.029 184.131 305.243 199.144 329.237C208.262 343.809 251.208 349.699 250.467 316.183C261.198 300.302 275.357 294.872 272.738 314.25C268.556 345.212 228.626 379.393 194.538 351.53Z" fill="#FC5161"/>
<path d="M146.428 279.878C101.74 273.606 111.776 253.024 119.772 250.098C134.501 244.709 129.245 264.888 139.056 259.026C152.514 250.981 125.694 214.312 102.525 244.606C83.9152 268.926 113.692 316.476 156.811 311.759" fill="#E23040"/>
<path d="M301.496 316.486C322.754 312.345 342.082 338.308 350.906 345.919C359.73 353.53 357.671 356.766 343.848 348.827C330.026 340.889 318.847 330.501 302.671 334.812C286.495 339.123 273.777 362.701 265.283 362.085C256.788 361.469 278.848 320.888 301.496 316.486Z" fill="#F9C55D"/>
<path d="M135.135 245.623C124.244 234.086 109.539 243.81 106.018 253.073C101.027 266.2 107.068 277.217 100.864 276.779C94.6597 276.34 92.8771 249.68 105.137 240.718C117.397 231.756 135.51 231.389 135.135 245.623Z" fill="#FF7881"/>
<path d="M413.681 265.3C406.126 267.19 409.363 275.49 416.77 272.089C424.177 268.689 417.274 264.401 413.681 265.3Z" fill="#FFBFBF"/>
<path d="M400.933 279.448C398.093 284.732 404.503 287.19 406.399 281.208C408.296 275.225 402.283 276.942 400.933 279.448Z" fill="#FFBFBF"/>
<path d="M429.914 261.051C423.984 261.051 422.88 269.042 430.878 269.042C438.876 269.042 438.871 261.051 429.914 261.051Z" fill="#FFBFBF"/>
<path d="M446.087 264.369C440.256 263.307 437.735 270.972 445.599 272.404C453.463 273.835 454.901 265.978 446.087 264.369Z" fill="#FFBFBF"/>
<path d="M462.999 271.941C457.765 268.431 451.026 276.382 458.084 281.112C465.142 285.842 470.912 277.251 462.999 271.941Z" fill="#FFBFBF"/>
<path d="M474.421 285.391C469.65 280.078 460.12 286.851 466.552 294.015C472.984 301.178 481.629 293.432 474.421 285.391Z" fill="#FFBFBF"/>
<path d="M481.245 304.9C479.635 297.31 467.456 298.412 469.621 308.654C471.786 318.895 483.671 316.374 481.245 304.9Z" fill="#FFBFBF"/>
<path d="M482.556 325.583C483.228 317.538 470.956 315.009 470.048 325.861C469.14 336.713 481.544 337.748 482.556 325.583Z" fill="#FFBFBF"/>
<path d="M476.07 347.322C479.259 338.767 466.666 332.268 462.364 343.809C458.063 355.35 471.246 360.256 476.07 347.322Z" fill="#FFBFBF"/>
<path d="M460.266 369.136C467.925 363.31 460.375 350.439 450.05 358.293C439.724 366.147 448.688 377.934 460.266 369.136Z" fill="#FFBFBF"/>
<path d="M434.481 380.44C442.268 378.851 441.268 366.574 430.772 368.713C420.275 370.851 422.71 382.834 434.481 380.44Z" fill="#FFBFBF"/>
<path d="M410.683 381.642C417.839 383.104 421.42 372.355 411.77 370.385C402.12 368.415 399.859 379.432 410.683 381.642Z" fill="#FFBFBF"/>
<path d="M389.476 374.957C395.583 376.955 399.801 367.925 391.562 365.23C383.323 362.536 380.244 371.937 389.476 374.957Z" fill="#FFBFBF"/>
<path d="M371.11 363.987C375.452 366.591 380.28 360.397 374.434 356.879C368.588 353.36 364.555 360.03 371.11 363.987Z" fill="#FFBFBF"/>
<path d="M354.582 351.352C358.254 353.559 362.338 348.316 357.388 345.35C352.438 342.384 349.034 348.014 354.582 351.352Z" fill="#FFBFBF"/>
<path d="M179.998 161.301C183.398 166.023 175.802 169.067 174.442 162.638C173.081 156.21 178.291 158.924 179.998 161.301Z" fill="#FFBFBF"/>
<path d="M174.609 149.161C177.342 152.977 172.996 157.599 169.294 152.453C165.592 147.307 170.462 143.397 174.609 149.161Z" fill="#FFBFBF"/>
<path d="M165.105 140.382C168.445 143.611 164.953 148.981 160.443 144.633C155.933 140.284 160.045 135.499 165.105 140.382Z" fill="#FFBFBF"/>
<path d="M152.676 133.202C157.232 134.852 155.513 143.083 149.368 140.854C143.223 138.626 145.796 130.71 152.676 133.202Z" fill="#FFBFBF"/>
<path d="M139.215 132.443C144.65 132.911 144.937 142.349 137.609 141.72C130.281 141.09 130.99 131.731 139.215 132.443Z" fill="#FFBFBF"/>
<path d="M124.183 135.437C129.547 132.761 134.508 141.137 127.285 144.755C120.062 148.374 116.083 139.494 124.183 135.437Z" fill="#FFBFBF"/>
<path d="M110.994 146.867C115.582 142.503 122.803 149.16 116.612 155.052C110.421 160.943 104.062 153.477 110.994 146.867Z" fill="#FFBFBF"/>
<path d="M100.765 161.681C104.502 155.445 114.279 160.363 109.241 168.778C104.203 177.194 95.1259 171.115 100.765 161.681Z" fill="#FFBFBF"/>
<path d="M96.2404 183.97C96.2404 176.186 107.569 174.747 107.562 185.233C107.554 195.719 96.2404 195.719 96.2404 183.97Z" fill="#FFBFBF"/>
<path d="M101.412 203.096C98.7732 197.305 106.71 191.941 110.26 199.738C113.81 207.536 105.397 211.841 101.412 203.096Z" fill="#FFBFBF"/>
<path d="M110.131 220.552C105.92 216.656 110.811 209.096 116.472 214.344C122.133 219.591 116.472 226.433 110.131 220.552Z" fill="#FFBFBF"/>
<path d="M124.975 230.922C120.939 227.971 124.482 220.836 129.93 224.816C135.378 228.796 131.084 235.384 124.975 230.922Z" fill="#FFBFBF"/>
<path d="M141.224 239.423C137.636 237.906 139.167 231.77 144.02 233.807C148.873 235.844 146.662 241.713 141.224 239.423Z" fill="#FFBFBF"/>
<path d="M156.459 245.941C153.422 244.66 154.717 239.467 158.815 241.192C162.914 242.916 161.054 247.875 156.459 245.941Z" fill="#FFBFBF"/>
<path d="M111.347 264.289C113.411 275.682 143.929 285.258 171.132 282.234C183.335 283.18 190.394 301.627 166.576 302.547C142.758 303.467 110.945 290.391 111.347 264.289Z" fill="#FC5161"/>
<path d="M137.958 239.741C142.629 240.803 139.607 246.804 135.269 243.587C130.931 240.371 135.611 239.208 137.958 239.741Z" fill="#FFBFBF"/>
<path d="M129.059 232.318C132.829 233.176 132.663 238.39 127.584 237.236C122.505 236.082 123.37 231.026 129.059 232.318Z" fill="#FFBFBF"/>
<path d="M117.401 231.756C121.219 231.931 121.995 237.133 116.843 236.917C111.691 236.702 111.631 231.504 117.401 231.756Z" fill="#FFBFBF"/>
<path d="M106.868 235.454C110.575 233.992 114.005 239.996 108.994 241.967C103.983 243.939 101.27 237.67 106.868 235.454Z" fill="#FFBFBF"/>
<path d="M98.2113 243.394C101.819 240.726 107.134 246.382 102.276 249.985C97.4187 253.589 92.7617 247.441 98.2113 243.394Z" fill="#FFBFBF"/>
<path d="M92.6053 255.427C94.4486 250.864 102.064 253.32 99.581 259.481C97.0983 265.643 89.8174 262.335 92.6053 255.427Z" fill="#FFBFBF"/>
<path d="M93.076 267.482C93.5194 262.296 101.596 262.473 100.995 269.456C100.393 276.438 92.4079 275.324 93.076 267.482Z" fill="#FFBFBF"/>
<path d="M96.2845 280.731C95.1912 274.855 103.886 272.563 105.371 280.485C106.856 288.407 97.9517 289.61 96.2845 280.731Z" fill="#FFBFBF"/>
<path d="M105.939 294.848C101.71 290.06 107.893 283.008 113.601 289.468C119.309 295.929 112.35 302.09 105.939 294.848Z" fill="#FFBFBF"/>
<path d="M119.347 305.048C114.565 302.923 116.53 295.305 122.959 298.166C129.388 301.027 126.553 308.266 119.347 305.048Z" fill="#FFBFBF"/>
<path d="M134.426 311.369C129.719 311.258 128.604 303.94 134.946 304.091C141.287 304.241 141.534 311.536 134.426 311.369Z" fill="#FFBFBF"/>
<path d="M148.183 313.171C144.084 313.551 142.387 307.23 147.908 306.717C153.43 306.204 154.379 312.591 148.183 313.171Z" fill="#FFBFBF"/>
<path d="M162.499 311.003C159.462 312.025 157.069 307.411 161.171 306.025C165.272 304.639 167.102 309.454 162.499 311.003Z" fill="#FFBFBF"/>
<path d="M174.692 309.876C172.111 310.742 170.09 306.84 173.553 305.671C177.017 304.502 178.57 308.57 174.692 309.876Z" fill="#FFBFBF"/>
<path d="M235.627 288.225C239.02 292.746 232.65 295.988 229.144 289.505C226.523 284.663 233.435 285.314 235.627 288.225Z" fill="#FFBFBF"/>
<path d="M222.214 278.624C227.715 280.456 226.643 287.316 219.224 284.839C211.805 282.361 213.905 275.848 222.214 278.624Z" fill="#FFBFBF"/>
<path d="M205.831 276.394C211.841 275.948 214.577 284.845 206.475 285.444C198.372 286.044 196.745 277.064 205.831 276.394Z" fill="#FFBFBF"/>
<path d="M188.689 282.835C194.016 278.888 202.345 285.731 195.162 291.065C187.98 296.399 180.631 288.816 188.689 282.835Z" fill="#FFBFBF"/>
<path d="M177.094 298.591C179.667 292.341 191.319 294.692 187.86 303.125C184.401 311.559 173.213 308.039 177.094 298.591Z" fill="#FFBFBF"/>
<path d="M173.072 315.988C173.49 309.076 185.724 308.361 185.151 317.675C184.579 326.989 172.428 326.426 173.072 315.988Z" fill="#FFBFBF"/>
<path d="M176.469 335.184C174.516 327.555 187.582 323.496 190.214 333.792C192.845 344.088 179.413 346.722 176.469 335.184Z" fill="#FFBFBF"/>
<path d="M188.872 355.529C182.221 349.7 191.251 339.656 200.214 347.52C209.178 355.385 198.918 364.345 188.872 355.529Z" fill="#FFBFBF"/>
<path d="M212.357 368.127C205.02 365.871 207.621 355.57 217.508 358.604C227.394 361.639 223.442 371.528 212.357 368.127Z" fill="#FFBFBF"/>
<path d="M235.829 365.678C228.693 366.087 226.662 356.552 236.285 356.003C245.907 355.453 246.621 365.07 235.829 365.678Z" fill="#FFBFBF"/>
<path d="M256.517 355.674C252.101 360.183 245.031 355.337 250.977 349.262C256.924 343.187 263.182 348.853 256.517 355.674Z" fill="#FFBFBF"/>
<path d="M271.426 341.417C268.869 345.602 262.303 343.424 265.749 337.774C269.194 332.124 275.291 335.078 271.426 341.417Z" fill="#FFBFBF"/>
<path d="M280.584 327.329C277.331 329.87 272.781 326.149 277.163 322.732C281.545 319.316 285.505 323.487 280.584 327.329Z" fill="#FFBFBF"/>
<path d="M232.471 306.346C238.805 313.757 235.383 325.4 226.382 315.205C217.38 305.011 226.136 298.934 232.471 306.346Z" fill="#F9C55D"/>
<path d="M216.149 89.3019C232.679 91.9507 220.097 120.025 205.96 120.025C188.313 120.025 193.603 85.6877 216.149 89.3019Z" fill="#E23040"/>
<path d="M214.723 146.141C222.399 139.796 227.806 158.476 220.645 161.169C213.484 163.862 206.584 152.87 214.723 146.141Z" fill="#E23040"/>
<path d="M228.629 64.7735C237.609 68.2253 230.073 81.0003 221.296 78.696C213.271 76.5891 219.137 61.1259 228.629 64.7735Z" fill="#E23040"/>
<path d="M220.911 125.578C228.706 124.738 227.968 137.012 220.911 136.718C213.853 136.423 211.217 126.622 220.911 125.578Z" fill="#E23040"/>
<path d="M346.629 302.591C364.091 310.307 353.721 334.824 339.226 321.46C324.731 308.096 326.175 293.565 346.629 302.591Z" fill="#E23040"/>
<path d="M368.195 328.174C380.343 327.839 376.335 343.817 367.756 339.19C359.177 334.563 360.049 328.393 368.195 328.174Z" fill="#E23040"/>
<path d="M328.711 284.701C335.066 284.878 337.708 295.63 329.61 295.478C321.512 295.326 323.563 284.558 328.711 284.701Z" fill="#E23040"/>
<path d="M209.437 243.613C220.261 242.303 227.423 254.894 211.519 257.901C195.615 260.908 194.438 245.428 209.437 243.613Z" fill="#E23040"/>
<path d="M188.496 238.786C194.256 239.836 195.495 246.983 188.496 246.889C181.498 246.794 178.443 236.946 188.496 238.786Z" fill="#E23040"/>
<path d="M389.323 253.264C395.773 250.81 396.745 260.899 390.591 261.051C384.436 261.203 383.918 255.322 389.323 253.264Z" fill="#E23040"/>
<path d="M402.869 201.306C411.621 200.072 414.587 212.995 401.476 215.52C388.366 218.046 391.719 202.881 402.869 201.306Z" fill="#E23040"/>
<path d="M382.303 204.248C387.326 204.602 386.066 211.165 382.303 211.175C378.226 211.185 375.406 203.762 382.303 204.248Z" fill="#E23040"/>
<path d="M274.194 158.592C256.167 169.099 275.192 190.895 286.726 180.684C297.584 171.068 287.438 150.879 274.194 158.592Z" fill="#0A101B"/>
<path d="M280.482 172.151C280.358 168.508 289.145 169.921 288.908 172.338C288.1 180.583 280.762 180.271 280.482 172.151Z" fill="#2A6589"/>
<path d="M274.531 171.122C271.599 171.245 271.004 176.53 274.651 176.271C278.299 176.011 277.467 170.995 274.531 171.122Z" fill="#FFDBCC"/>
<path d="M351.829 146.26C371.504 142.075 374.058 170.091 358.406 171.458C345.927 172.54 343.64 149.001 351.829 146.26Z" fill="#0A101B"/>
<path d="M358.609 161.428C358.601 159.455 367.799 159.806 367.401 162.165C366.122 169.836 358.638 169.285 358.609 161.428Z" fill="#2A6589"/>
<path d="M351.513 158.022C353.703 156.369 356.081 160.205 353.32 162.18C350.56 164.155 349.325 159.683 351.513 158.022Z" fill="#FFDBCC"/>
<path d="M305.594 182.936C316.925 184.331 333.417 182.672 340.842 177.297C338.813 191.718 329.273 203.799 323.348 204.7C310.136 206.71 305.594 182.936 305.594 182.936Z" fill="#7A0000"/>
<path d="M308.769 184.638C306.29 185.833 310.657 196.713 313.366 198.176C316.963 200.118 325.017 190.266 323.217 187.261C321.307 184.07 311.601 183.276 308.769 184.638Z" fill="#3F0000"/>
<path d="M487.179 230.856C482.856 230.921 483.796 235.935 487.525 235.78C491.254 235.625 490.179 230.809 487.179 230.856Z" fill="#FF8F8F"/>
<path d="M487.598 248.622C483.276 248.689 484.215 253.703 487.944 253.548C491.673 253.393 490.595 248.577 487.598 248.622Z" fill="#FF8F8F"/>
<path d="M479.916 268.519C477.588 265.7 474.158 269.442 476.241 271.813C478.325 274.184 481.532 270.479 479.916 268.519Z" fill="#FF8F8F"/>
<path d="M480.962 215.847C476.639 215.914 477.579 220.926 481.308 220.771C485.038 220.616 483.963 215.803 480.962 215.847Z" fill="#FF8F8F"/>
<path d="M471.396 206.264C467.659 206.32 468.471 210.655 471.7 210.522C474.928 210.388 473.99 206.223 471.396 206.264Z" fill="#FF8F8F"/>
<path d="M458.899 199.093C456.035 199.137 456.658 202.457 459.127 202.355C461.596 202.254 460.884 199.063 458.899 199.093Z" fill="#FF8F8F"/>
<path d="M446.105 198.65C443.242 198.694 443.865 202.014 446.334 201.912C448.803 201.81 448.092 198.62 446.105 198.65Z" fill="#FF8F8F"/>
<path d="M432.349 200.986C430.437 202.335 432.39 204.289 434.009 203.081C435.628 201.872 433.676 200.048 432.349 200.986Z" fill="#FF8F8F"/>
<path d="M423.586 210.039C421.673 211.385 423.434 213.055 425.056 211.86C426.678 210.666 424.915 209.104 423.586 210.039Z" fill="#FF8F8F"/>
<path d="M420.651 224.033C421.504 226.213 423.545 224.903 422.766 223.04C421.987 221.178 420.06 222.526 420.651 224.033Z" fill="#FF8F8F"/>
<path d="M472.896 288.729C472.725 288.533 472.515 288.373 472.28 288.259C472.046 288.146 471.79 288.081 471.53 288.069C470.972 288.069 470.388 288.163 469.969 288.58C469.704 288.816 469.506 289.116 469.393 289.452C469.325 289.655 469.289 289.867 469.285 290.082C469.262 290.604 469.44 291.116 469.782 291.512C469.954 291.706 470.163 291.864 470.397 291.978C470.63 292.091 470.884 292.157 471.143 292.173C471.403 292.188 471.662 292.152 471.908 292.066C472.153 291.981 472.379 291.848 472.573 291.675C472.626 291.628 472.677 291.577 472.725 291.524C472.919 291.351 473.078 291.142 473.191 290.909C473.305 290.675 473.371 290.421 473.387 290.162C473.402 289.903 473.366 289.643 473.28 289.397C473.195 289.152 473.062 288.926 472.889 288.732L472.896 288.729Z" fill="#FF8F8F"/>
<path d="M476.349 304.697C473.661 304.697 473.4 308.875 476.103 308.875C478.806 308.875 479.052 304.697 476.349 304.697Z" fill="#FF8F8F"/>
<path d="M476.99 324.038C473.854 324.038 473.549 328.914 476.703 328.914C479.857 328.914 480.144 324.038 476.99 324.038Z" fill="#FF8F8F"/>
<path d="M469.257 344.309C467.738 344.309 466.4 345.345 466.306 346.932C466.221 348.383 467.406 349.881 468.929 349.881C470.452 349.881 471.786 348.846 471.88 347.259C471.965 345.808 470.78 344.309 469.257 344.309Z" fill="#FF8F8F"/>
<path d="M458.207 364.579C458.093 364.041 457.839 363.543 457.472 363.133C457.104 362.724 456.635 362.419 456.113 362.247C455.59 362.076 455.031 362.045 454.493 362.158C453.954 362.27 453.455 362.522 453.044 362.888C452.455 363.412 451.996 364.244 451.996 365.05V365.202C452.016 365.482 452.037 365.762 452.059 366.041C452.173 366.579 452.426 367.078 452.794 367.487C453.161 367.896 453.63 368.202 454.153 368.373C454.676 368.544 455.234 368.575 455.773 368.463C456.311 368.35 456.811 368.098 457.221 367.732C457.812 367.208 458.271 366.377 458.271 365.571V365.419L458.207 364.579Z" fill="#FF8F8F"/>
<path d="M431.567 373.456C430.049 373.456 428.71 374.491 428.615 376.078C428.53 377.529 429.716 379.027 431.239 379.027C432.762 379.027 434.097 377.992 434.19 376.405C434.279 374.954 433.095 373.456 431.567 373.456Z" fill="#FF8F8F"/>
<path d="M410.309 374.27C407.173 374.27 406.868 379.144 410.022 379.144C413.176 379.144 413.458 374.27 410.309 374.27Z" fill="#FF8F8F"/>
<path d="M389.819 368.145C386.981 368.145 386.706 372.556 389.559 372.556C392.413 372.556 392.672 368.145 389.819 368.145Z" fill="#FF8F8F"/>
<path d="M373.488 358.96C373.316 358.765 373.107 358.607 372.873 358.493C372.64 358.38 372.386 358.313 372.126 358.298C371.867 358.283 371.607 358.319 371.361 358.404C371.116 358.49 370.89 358.623 370.696 358.796C370.499 358.967 370.339 359.177 370.226 359.411C370.112 359.646 370.048 359.902 370.035 360.162V360.314C370.013 360.836 370.191 361.347 370.532 361.742C370.704 361.937 370.913 362.095 371.147 362.208C371.38 362.322 371.634 362.388 371.893 362.403C372.153 362.418 372.412 362.382 372.658 362.297C372.903 362.212 373.129 362.079 373.323 361.906C373.52 361.735 373.68 361.526 373.793 361.291C373.907 361.056 373.972 360.801 373.983 360.54V360.388C374.006 359.866 373.829 359.356 373.488 358.96Z" fill="#FF8F8F"/>
<path d="M450.198 186.247C449.973 185.993 449.655 185.839 449.316 185.819C448.651 185.781 447.965 186.323 447.965 187.021V187.173C447.95 187.51 448.064 187.841 448.285 188.097C448.51 188.351 448.827 188.505 449.166 188.525C449.833 188.563 450.519 188.021 450.519 187.323V187.171C450.534 186.834 450.419 186.503 450.198 186.247Z" fill="#FF8F8F"/>
<path d="M449.189 172.491C446.949 172.491 446.732 175.973 448.984 175.973C451.236 175.973 451.442 172.491 449.189 172.491Z" fill="#FF8F8F"/>
<path d="M444.913 159.199C444.732 158.992 444.511 158.823 444.263 158.703C444.016 158.583 443.747 158.514 443.472 158.5H443.32L442.76 158.543C442.405 158.618 442.076 158.784 441.806 159.026C441.6 159.208 441.433 159.429 441.312 159.677C441.192 159.924 441.122 160.193 441.106 160.467C441.09 160.742 441.128 161.017 441.218 161.277C441.308 161.536 441.449 161.776 441.631 161.981C441.813 162.188 442.034 162.357 442.282 162.477C442.529 162.597 442.799 162.666 443.074 162.679H443.226L443.786 162.637C444.141 162.562 444.469 162.396 444.74 162.154C445.154 161.785 445.406 161.266 445.438 160.712C445.47 160.158 445.282 159.614 444.913 159.199Z" fill="#FF8F8F"/>
<path d="M436.361 147.26C436.28 146.882 436.102 146.532 435.843 146.244C435.585 145.957 435.255 145.742 434.888 145.622C434.52 145.502 434.128 145.48 433.749 145.558C433.371 145.637 433.019 145.813 432.73 146.07C432.512 146.261 432.334 146.493 432.207 146.754C432.08 147.015 432.007 147.298 431.992 147.588V147.74C432.008 147.937 432.021 148.133 432.036 148.33C432.117 148.708 432.296 149.058 432.554 149.346C432.813 149.633 433.142 149.848 433.51 149.968C433.877 150.089 434.27 150.111 434.648 150.032C435.027 149.954 435.378 149.777 435.667 149.52C435.886 149.33 436.064 149.097 436.191 148.836C436.317 148.576 436.39 148.292 436.405 148.002V147.851L436.361 147.26Z" fill="#FF8F8F"/>
<path d="M422.224 140.051C419.537 140.051 419.275 144.23 421.978 144.23C424.681 144.23 424.928 140.051 422.224 140.051Z" fill="#FF8F8F"/>
<path d="M410.107 138.073C407.867 138.073 407.65 141.556 409.902 141.556C412.154 141.556 412.36 138.073 410.107 138.073Z" fill="#FF8F8F"/>
<path d="M400.366 140.595C400.226 140.433 400.054 140.302 399.862 140.208C399.669 140.114 399.459 140.061 399.246 140.05H399.094C398.664 140.031 398.243 140.177 397.917 140.458C397.594 140.745 397.399 141.149 397.374 141.58C397.348 142.011 397.495 142.435 397.782 142.758C397.923 142.919 398.094 143.05 398.287 143.144C398.479 143.237 398.689 143.291 398.902 143.301H399.054C399.484 143.32 399.905 143.174 400.231 142.893C400.554 142.606 400.749 142.203 400.774 141.772C400.8 141.341 400.653 140.918 400.366 140.595Z" fill="#FF8F8F"/>
<path d="M389.941 146.407C387.85 146.407 387.646 149.657 389.749 149.657C391.852 149.657 392.042 146.407 389.941 146.407Z" fill="#FF8F8F"/>
<path d="M385.126 154.895C383.184 154.895 383 157.913 384.948 157.913C386.896 157.913 387.077 154.895 385.126 154.895Z" fill="#FF8F8F"/>
<path d="M383.864 166.406C382.371 166.406 382.225 168.727 383.727 168.727C385.229 168.727 385.366 166.406 383.864 166.406Z" fill="#FF8F8F"/>
<path d="M388.983 177.878C387.488 177.878 387.344 180.199 388.846 180.199C390.348 180.199 390.484 177.878 388.983 177.878Z" fill="#FF8F8F"/>
<path d="M356.125 346.517C354.183 346.517 353.999 349.535 355.947 349.535C357.896 349.535 358.075 346.517 356.125 346.517Z" fill="#FF8F8F"/>
<path d="M280.399 323.611C280.268 323.462 280.108 323.34 279.929 323.253C279.75 323.167 279.556 323.117 279.357 323.107H279.205C278.806 323.09 278.415 323.225 278.112 323.485C277.814 323.753 277.633 324.127 277.609 324.527C277.586 324.926 277.721 325.319 277.986 325.62C278.117 325.77 278.276 325.892 278.455 325.979C278.634 326.065 278.829 326.115 279.028 326.125H279.179C279.579 326.142 279.97 326.007 280.273 325.746C280.571 325.478 280.752 325.104 280.775 324.704C280.799 324.305 280.664 323.912 280.399 323.611Z" fill="#FF8F8F"/>
<path d="M269.129 337.874C267.038 337.874 266.834 341.124 268.937 341.124C271.041 341.124 271.23 337.874 269.129 337.874Z" fill="#FF8F8F"/>
<path d="M254.74 350.626C251.902 350.626 251.627 355.037 254.48 355.037C257.334 355.037 257.593 350.626 254.74 350.626Z" fill="#FF8F8F"/>
<path d="M236.614 359.736C235.22 359.736 233.997 360.686 233.91 362.139C233.833 363.47 234.918 364.843 236.315 364.843C237.712 364.843 238.935 363.893 239.02 362.439C239.097 361.114 238.011 359.736 236.614 359.736Z" fill="#FF8F8F"/>
<path d="M215.517 362.328C212.382 362.328 212.076 367.202 215.23 367.202C218.384 367.202 218.671 362.328 215.517 362.328Z" fill="#FF8F8F"/>
<path d="M197.013 351.784C196.912 351.307 196.686 350.864 196.36 350.501C196.033 350.137 195.617 349.866 195.153 349.714C194.689 349.562 194.193 349.534 193.715 349.634C193.236 349.733 192.793 349.957 192.428 350.281C191.904 350.747 191.495 351.485 191.495 352.203V352.401C191.514 352.649 191.532 352.898 191.552 353.147C191.653 353.625 191.878 354.068 192.204 354.431C192.531 354.794 192.947 355.066 193.411 355.218C193.875 355.37 194.371 355.398 194.849 355.298C195.327 355.198 195.771 354.975 196.136 354.65C196.661 354.184 197.068 353.445 197.068 352.728V352.531L197.013 351.784Z" fill="#FF8F8F"/>
<path d="M182.201 333.032C180.616 333.032 179.225 334.111 179.128 335.764C179.038 337.282 180.273 338.837 181.861 338.837C183.449 338.837 184.837 337.757 184.934 336.104C185.022 334.592 183.788 333.032 182.201 333.032Z" fill="#FF8F8F"/>
<path d="M177.852 314.853C176.334 314.853 174.994 315.89 174.9 317.475C174.815 318.926 176.001 320.425 177.524 320.425C179.047 320.425 180.382 319.389 180.474 317.802C180.559 316.353 179.375 314.853 177.852 314.853Z" fill="#FF8F8F"/>
<path d="M180.784 298.188C179.39 298.188 178.165 299.136 178.08 300.59C178.001 301.92 179.088 303.294 180.484 303.294C181.879 303.294 183.103 302.345 183.19 300.891C183.267 299.561 182.181 298.188 180.784 298.188Z" fill="#FF8F8F"/>
<path d="M192.516 284.933C192.089 284.452 191.41 284.078 190.753 284.078H190.555L189.871 284.13C189.433 284.223 189.027 284.429 188.694 284.729C188.361 285.028 188.112 285.409 187.972 285.834C187.833 286.259 187.807 286.714 187.899 287.152C187.99 287.59 188.194 287.997 188.492 288.331C188.919 288.813 189.597 289.186 190.255 289.186H190.452L191.137 289.134C191.575 289.041 191.981 288.835 192.314 288.536C192.647 288.236 192.896 287.855 193.035 287.43C193.175 287.005 193.2 286.55 193.109 286.112C193.018 285.674 192.813 285.267 192.516 284.933Z" fill="#FF8F8F"/>
<path d="M205.423 277.451C202.585 277.451 202.31 281.861 205.163 281.861C208.016 281.861 208.276 277.451 205.423 277.451Z" fill="#FF8F8F"/>
<path d="M220.452 278.457C217.913 278.457 217.667 282.404 220.22 282.404C222.772 282.404 223.005 278.457 220.452 278.457Z" fill="#FF8F8F"/>
<path d="M233.452 287.293C231.511 287.293 231.326 290.312 233.274 290.312C235.222 290.312 235.404 287.293 233.452 287.293Z" fill="#FF8F8F"/>
<path d="M174.182 307.292C172.838 307.292 172.708 309.382 174.059 309.382C175.41 309.382 175.533 307.292 174.182 307.292Z" fill="#FF8F8F"/>
<path d="M162.261 307.719C160.469 307.719 160.287 310.506 162.097 310.506C163.907 310.506 164.063 307.719 162.261 307.719Z" fill="#FF8F8F"/>
<path d="M148.325 308.921C146.083 308.921 145.866 312.412 148.12 312.412C150.373 312.412 150.576 308.921 148.325 308.921Z" fill="#FF8F8F"/>
<path d="M134.987 306.906C132.747 306.906 132.528 310.389 134.782 310.389C137.035 310.389 137.24 306.906 134.987 306.906Z" fill="#FF8F8F"/>
<path d="M120.725 300.898C118.337 300.898 118.104 304.613 120.507 304.613C122.909 304.613 123.129 300.898 120.725 300.898Z" fill="#FF8F8F"/>
<path d="M109.276 291.137C106.289 291.137 105.999 295.78 109.003 295.78C112.006 295.78 112.28 291.137 109.276 291.137Z" fill="#FF8F8F"/>
<path d="M101.263 279.816C101.062 279.586 100.817 279.398 100.541 279.265C100.266 279.132 99.9669 279.055 99.6615 279.04H99.5096L98.887 279.086C98.4889 279.17 98.1199 279.358 97.8171 279.63C97.5143 279.902 97.2881 280.249 97.1613 280.636C97.0345 281.022 97.0115 281.436 97.0945 281.834C97.1775 282.233 97.3636 282.602 97.6343 282.906C97.8351 283.137 98.0806 283.325 98.3559 283.458C98.6312 283.591 98.9307 283.667 99.2363 283.682H99.3881L100.011 283.636C100.409 283.551 100.777 283.363 101.08 283.091C101.382 282.819 101.608 282.472 101.735 282.086C101.862 281.699 101.885 281.286 101.802 280.888C101.719 280.49 101.534 280.12 101.263 279.816Z" fill="#FF8F8F"/>
<path d="M95.9185 266.83C93.3797 266.83 93.1337 270.776 95.6862 270.776C98.2387 270.776 98.4725 266.83 95.9185 266.83Z" fill="#FF8F8F"/>
<path d="M95.299 255.512C92.7601 255.512 92.5126 259.459 95.0667 259.459C97.6207 259.459 97.8515 255.512 95.299 255.512Z" fill="#FF8F8F"/>
<path d="M99.007 244.427C96.7673 244.427 96.5487 247.909 98.802 247.909C101.055 247.909 101.26 244.427 99.007 244.427Z" fill="#FF8F8F"/>
<path d="M107.522 236.752C105.582 236.752 105.397 239.771 107.345 239.771C109.293 239.771 109.475 236.752 107.522 236.752Z" fill="#FF8F8F"/>
<path d="M116.963 232.605C115.47 232.605 115.324 234.926 116.826 234.926C118.328 234.926 118.464 232.605 116.963 232.605Z" fill="#FF8F8F"/>
<path d="M128.284 232.76H128.132C127.825 232.746 127.524 232.85 127.291 233.051C127.061 233.257 126.921 233.545 126.902 233.853C126.867 234.46 127.358 235.081 127.996 235.081H128.147C128.455 235.093 128.755 234.989 128.989 234.789C129.103 234.688 129.196 234.565 129.262 234.428C129.329 234.29 129.367 234.141 129.376 233.989C129.412 233.384 128.919 232.76 128.284 232.76Z" fill="#FF8F8F"/>
<path d="M136.807 240.163C135.463 240.163 135.333 242.251 136.684 242.251C138.036 242.251 138.159 240.163 136.807 240.163Z" fill="#FF8F8F"/>
<path d="M178.397 161.173C176.455 161.173 176.271 164.191 178.22 164.191C180.168 164.191 180.349 161.173 178.397 161.173Z" fill="#FF8F8F"/>
<path d="M174.175 149.276C174.034 149.115 173.862 148.983 173.669 148.89C173.476 148.797 173.266 148.743 173.052 148.733H172.825C172.395 148.714 171.974 148.86 171.648 149.141C171.488 149.283 171.358 149.455 171.264 149.647C171.171 149.84 171.116 150.048 171.104 150.262C171.091 150.475 171.121 150.689 171.191 150.891C171.261 151.093 171.371 151.279 171.513 151.439C171.653 151.6 171.825 151.731 172.018 151.825C172.21 151.918 172.42 151.972 172.633 151.982H172.866C173.296 152.001 173.717 151.855 174.044 151.574C174.366 151.287 174.562 150.884 174.587 150.453C174.613 150.022 174.466 149.599 174.179 149.276H174.175Z" fill="#FF8F8F"/>
<path d="M163.056 139.547C160.817 139.547 160.6 143.03 162.851 143.03C165.103 143.03 165.31 139.547 163.056 139.547Z" fill="#FF8F8F"/>
<path d="M152.673 135.27C152.597 134.912 152.428 134.58 152.183 134.307C151.938 134.035 151.626 133.831 151.278 133.717C150.93 133.603 150.558 133.582 150.199 133.657C149.841 133.731 149.508 133.899 149.234 134.142C149.027 134.323 148.858 134.544 148.738 134.792C148.618 135.04 148.549 135.309 148.536 135.584V135.816L148.577 136.376C148.653 136.734 148.822 137.066 149.067 137.338C149.312 137.611 149.624 137.814 149.972 137.928C150.32 138.042 150.692 138.063 151.051 137.988C151.409 137.913 151.742 137.746 152.016 137.503C152.224 137.322 152.393 137.101 152.513 136.854C152.633 136.606 152.702 136.337 152.716 136.062V135.83C152.701 135.643 152.687 135.457 152.673 135.27Z" fill="#FF8F8F"/>
<path d="M137.721 134.083C135.034 134.083 134.772 138.262 137.475 138.262C140.178 138.262 140.424 134.083 137.721 134.083Z" fill="#FF8F8F"/>
<path d="M126.846 138.709C126.762 138.311 126.574 137.943 126.302 137.64C126.03 137.337 125.683 137.111 125.296 136.984C124.91 136.857 124.496 136.834 124.098 136.917C123.699 137 123.33 137.186 123.026 137.457C122.795 137.658 122.607 137.903 122.473 138.178C122.34 138.454 122.263 138.753 122.248 139.059V139.291L122.295 139.913C122.38 140.311 122.568 140.679 122.84 140.982C123.112 141.284 123.459 141.51 123.845 141.637C124.232 141.764 124.645 141.787 125.044 141.704C125.442 141.621 125.812 141.436 126.116 141.165C126.346 140.964 126.534 140.719 126.668 140.444C126.801 140.169 126.878 139.869 126.893 139.564V139.332L126.846 138.709Z" fill="#FF8F8F"/>
<path d="M113.309 148.036C110.322 148.036 110.032 152.679 113.036 152.679C116.039 152.679 116.313 148.036 113.309 148.036Z" fill="#FF8F8F"/>
<path d="M104.004 163.384C101.017 163.384 100.727 168.027 103.731 168.027C106.734 168.027 107.008 163.384 104.004 163.384Z" fill="#FF8F8F"/>
<path d="M100.987 183.499C97.8499 183.499 97.5463 188.375 100.7 188.375C103.854 188.375 104.139 183.499 100.987 183.499Z" fill="#FF8F8F"/>
<path d="M105.64 199.545C102.502 199.545 102.199 204.421 105.353 204.421C108.506 204.421 108.792 199.545 105.64 199.545Z" fill="#FF8F8F"/>
<path d="M113.534 216.056C110.698 216.056 110.421 220.467 113.274 220.467C116.127 220.467 116.389 216.056 113.534 216.056Z" fill="#FF8F8F"/>
<path d="M128.182 226.87C125.493 226.87 125.232 231.049 127.936 231.049C130.641 231.049 130.887 226.87 128.182 226.87Z" fill="#FF8F8F"/>
<path d="M143.063 235.706C140.675 235.706 140.442 239.42 142.844 239.42C145.247 239.42 145.461 235.706 143.063 235.706Z" fill="#FF8F8F"/>
<path d="M159.089 242.799C157.147 242.799 156.963 245.817 158.911 245.817C160.859 245.817 161.041 242.799 159.089 242.799Z" fill="#FF8F8F"/>
</g>
<defs>
<clipPath id="clip0_11_19">
<rect width="583" height="427" fill="white"/>
</clipPath>
</defs>
</svg>
