<svg width="266" height="143" viewBox="0 0 266 143" fill="none" xmlns="http://www.w3.org/2000/svg">
<path d="M153.6 142.58C150.07 130.12 145.51 119.32 150.72 107.78C150.72 107.78 161.13 98.6603 166.1 101.94C166.1 101.94 172.35 120.83 153.6 142.58Z" fill="#A2AF85"/>
<path d="M73.28 111.03C75.28 105.48 76.4001 100.28 81.3701 97.37C81.3701 97.37 87.63 96.73 88.61 99.25C88.6 99.25 85.94 107.9 73.28 111.03Z" fill="#A2AF85"/>
<path d="M11 83.2302C1.5 65.5402 -0.219978 41.8102 0.210022 21.9602C0.210022 21.9602 21.79 44.4002 26.53 60.3602C31.27 76.3202 28.28 83.6602 56.28 71.1102C84.28 58.5602 133.94 41.7702 137.4 41.7702C140.86 41.7702 133.08 37.8802 133.08 37.8802C133.08 37.8802 132.22 3.3602 125.75 1.2102C119.28 -0.939796 152.07 -5.2698 178.39 41.7702C178.39 41.7702 249.67 44.3002 264.94 49.9302C266.02 50.3302 264.1 54.1602 263.83 55.1402C260.37 67.6602 251.31 62.0502 254.77 67.2302C258.23 72.4102 255.09 99.2302 180.55 120.73C116.25 139.29 60.55 88.8002 60.55 88.8002C52.35 85.8002 44.55 74.1302 35.55 87.5102C26.55 100.89 13.98 132.81 0.600036 136.7C-0.529964 112.71 2.44 93.8102 11 83.2302Z" fill="#5E7A75"/>
<path d="M58.55 72.9702C90.64 57.6502 135.93 54.7002 183.61 51.3502C210.731 49.3387 237.97 49.5293 265.06 51.9202C265.34 50.9202 265.44 50.1402 264.97 49.9702C249.7 44.3402 178.37 41.1902 178.37 41.1902C152.05 -5.80983 119.28 -0.80983 125.78 1.25017C152.08 9.61017 161.28 37.1102 161.28 37.1102C147.5 38.2302 118.17 43.5502 56.28 71.1102C28.28 83.6202 31.28 76.2902 26.5 60.3202C21.72 44.3502 0.180054 21.9202 0.180054 21.9202C4.70005 36.6702 17.58 47.4502 28.75 73.7902C31.9 81.1902 35.61 83.9302 58.55 72.9702Z" fill="#729B8F"/>
<path d="M46.53 78.9801C89.76 94.9801 160.76 51.2101 198.27 72.1101C143.01 119.93 97.28 111.02 46.53 78.9801Z" fill="#4C6863"/>
<path d="M195.22 92.7301C131.45 111.24 80.7 93.4401 47.1 78.4101C43.27 78.7601 40.68 81.4101 35.84 79.7501C30.68 78.0201 30.4 75.5501 29.35 75.6401C28.78 75.7001 32.2 80.7501 30.92 85.1401C22.92 112.62 6.73001 110.62 0.640015 136.74C14.08 134.81 26.72 101.64 36.03 88.4301C44.24 76.7901 52.2501 85.7601 58.9301 90.3401C66.1401 95.2801 115.08 140.77 179.37 122.22C242.96 103.87 256.48 80.6101 255.68 70.8701C240.28 77.9801 220.55 85.3801 195.22 92.7301Z" fill="#DCEFBF"/>
<path d="M255.33 71.0303C252.69 82.1903 235.62 102.26 179.33 118.49C115.04 137.05 66.1 91.5603 58.89 86.6203C52.28 82.1103 40.28 77.5503 34.07 84.7103C33.71 85.1303 12.74 133.53 0.640015 136.71C14.08 134.78 26.72 101.61 36.03 88.4003C44.24 76.7603 52.2501 85.7303 58.9301 90.3103C66.1401 95.2503 115.08 140.74 179.37 122.19C242.96 103.84 256.48 80.5803 255.68 70.8403L255.33 71.0303Z" fill="#C2D3A3"/>
<path d="M264.94 52.3203C253.62 69.7303 210.1 53.5003 196.17 60.6603C159.81 79.3403 181.47 95.8903 134.33 101.79C171.52 105.11 248.66 99.1103 255.72 73.5403C255.72 73.5403 257.43 65.9103 254.57 64.7703C257.82 64.0003 263.03 63.3003 264.94 52.3203Z" fill="#DCEFBF"/>
<path d="M160.47 94.3501C159.9 103.35 154.75 136.72 138.91 122.6L160.47 94.3501Z" fill="#C2D3A3"/>
<path d="M118.43 142.51C120.13 124.57 119.58 106.59 134.31 91.9003C134.31 91.9003 156.13 83.8403 160.93 92.4203C160.93 92.4203 156.28 123.78 118.43 142.51Z" fill="#4C6863"/>
<path d="M118.14 142.86C121.29 126.78 122.67 110.53 135.8 98.1C135.8 98.1 153.89 92.03 156.8 100.03C156.83 100.03 149.97 128.05 118.14 142.86Z" fill="#5E7A75"/>
<path d="M55.28 105.88C58.64 101.05 61.1201 96.3404 66.6801 94.8804C66.6801 94.8804 72.89 95.8804 73.17 98.6104C73.16 98.5704 68.28 106.21 55.28 105.88Z" fill="#C2D3A3"/>
<path d="M205.21 66.9602C208.46 69.0402 214.3 71.2201 225.09 68.5501C239.45 64.9801 251.74 63.8201 255.76 64.5501L255.68 65.8501C252.51 65.2501 241 66.2602 225.48 70.1202C214.48 72.8602 206.33 71.6801 202.36 69.3801C199.63 67.8201 199.91 63.6002 205.21 66.9602Z" fill="#545E49"/>
<path d="M219 50.6401C216.74 51.4701 216.78 55.6401 218.73 57.4501C220.96 56.3501 220.59 51.3801 219 50.6401Z" fill="#26423F"/>
<path d="M177.54 52.6699C175.19 57.0599 174.41 76.9699 185.06 86.0399C179.18 75.9999 177.04 66.4099 177.54 52.6699Z" fill="#314C49"/>
<path d="M168.65 56.5C166.58 60.37 165.9 77.92 175.29 85.93C170.1 77.11 168.21 68.61 168.65 56.5Z" fill="#314C49"/>
<path d="M159.97 60.02C158.21 63.3 157.63 78.19 165.6 85.02C161.19 77.46 159.59 70.29 159.97 60.02Z" fill="#314C49"/>
<path d="M195.98 69.1101C196.52 70.7801 196.36 63.3901 204.37 62.9101C204.37 62.9501 192.16 57.4201 195.98 69.1101Z" fill="#AFBC91"/>
<path d="M133.11 37.92C133.11 37.92 131.56 7.26996 125.11 1.20996C125.11 1.20996 154.89 3.30996 175.88 42.05L137.38 41.81C137.28 39.79 135.96 39.24 133.11 37.92Z" fill="#4C6863"/>
<path d="M249.69 57.0503C249.59 49.6603 250.69 45.9203 251.56 57.1703L249.69 57.0503Z" fill="#405E5B"/>
<path d="M175.93 42.05C153.6 46.78 123.57 66.1501 114.09 63.8101C108.71 62.4801 103.36 50.07 137.19 41.29L175.93 42.05Z" fill="#5E7A75"/>
<path d="M122.89 135.11C125.33 127.23 136.05 116.04 140.82 119.2C140.82 119.18 132.81 129.27 122.89 135.11Z" fill="#729B8F"/>
<path d="M255.95 47.6301C240.07 47.7801 200.84 45.2002 194.54 41.9102C219.33 42.9502 234.52 44.7301 255.95 47.6301Z" fill="#99C1AC"/>
<path d="M133.13 36.7601C152.03 35.1801 147.02 29.3101 132.56 30.0301L133.13 36.7601Z" fill="#5E7A75"/>
<path d="M131.62 20.0004C143.11 17.7504 139.62 14.4904 130.81 15.9104L131.62 20.0004Z" fill="#5E7A75"/>
<path d="M132.28 28.3001C144.83 26.7701 141.36 22.8101 131.74 23.6301L132.28 28.3001Z" fill="#5E7A75"/>
<path d="M11.0001 83.23C15.8901 78.55 17.1801 72.4 8.59009 77.98L11.0001 83.23Z" fill="#4C6863"/>
<path d="M7.76001 76.1902C11.76 73.1002 13.13 68.6502 6.38 72.1402L7.76001 76.1902Z" fill="#4C6863"/>
<path d="M4.7301 66.3901C9.0801 63.8801 10.7301 60.0301 3.58008 62.5301L4.7301 66.3901Z" fill="#4C6863"/>
<path d="M6.88 90.0099C21.05 87.7199 22.05 84.0099 11.1 82.4199L6.88 90.0099Z" fill="#4C6863"/>
<path d="M0.580017 118.78C24.05 102.53 15.89 133.38 0 137.39L0.580017 118.78Z" fill="#5E7A75"/>
<path d="M236.96 67.4703L237.77 71.5603L239.6 67.0703L236.96 67.4703Z" fill="#AFBC91"/>
<path d="M217.02 71.5402L217.63 79.3202L218.69 71.4902L217.02 71.5402Z" fill="#AFBC91"/>
<path d="M245.6 64.86L245.82 61.79L243.13 65.05L245.6 64.86Z" fill="#AFBC91"/>
<path style="mix-blend-mode:overlay" opacity="0.7" d="M265.22 51.29C265.22 51.29 265.22 51.24 265.22 51.22C265.258 51.0492 265.278 50.8749 265.28 50.7V50.62C265.285 50.4906 265.264 50.3616 265.22 50.24C265.2 50.1877 265.169 50.1402 265.129 50.1005C265.09 50.0609 265.042 50.0301 264.99 50.01C261.711 48.9523 258.35 48.1729 254.94 47.68H255.94C234.51 44.78 219.32 43 194.53 41.96L194.89 42.12C185.1 41.54 178.36 41.24 178.36 41.24C152.04 -5.76003 119.27 -0.760026 125.77 1.29997H125.84L125.15 1.22997C128.58 4.46997 130.62 14.78 131.77 23.65L132.31 28.32C132.89 33.83 133.1 37.94 133.1 37.94C133.1 37.94 135.02 38.94 136.52 39.87C136.933 40.2544 137.216 40.7576 137.33 41.31H137.18C135.72 41.69 134.35 42.08 133.03 42.47C116.03 47.03 92.03 55.33 57.92 70.47L56.28 71.11C28.28 83.62 31.28 76.29 26.5 60.32C21.72 44.35 0.180054 21.92 0.180054 21.92C-0.0999463 34.72 0.540049 49.13 3.55005 62.49V62.55C5.0573 69.6082 7.48821 76.437 10.78 82.86L9.60004 85.11C4.23004 92.91 1.39004 104.46 0.600037 118.74L0.0200195 137.35C2.90641 136.558 5.55179 135.063 7.72003 133C18.48 123.63 28.39 99.26 36.05 88.39C44.26 76.75 52.27 85.72 58.95 90.3C60.09 91.08 62.2601 92.87 65.3701 95.25C60.7201 97.09 58.37 101.42 55.29 105.84C64.59 106.07 69.71 102.26 71.89 100.05C73.25 101.05 74.72 102.05 76.27 103.05C75.1166 105.636 74.1149 108.287 73.27 110.99C76.5368 110.231 79.6265 108.849 82.3701 106.92C94.1475 114.141 106.92 119.595 120.28 123.11C119.51 128.78 119.16 134.58 118.66 140.38C118.51 141.22 118.35 142.07 118.18 142.91C125.451 139.56 132.144 135.078 138.01 129.63C139.21 128.58 140.36 127.52 141.44 126.46C144 126.62 146.61 126.7 149.25 126.68C150.25 131.81 152.06 137.05 153.64 142.68C158.085 137.602 161.617 131.793 164.08 125.51C169.246 124.766 174.355 123.667 179.37 122.22C235.65 105.97 252.71 85.89 255.37 74.74C255.52 74.34 255.65 73.95 255.76 73.54C255.76 73.54 256.93 68.31 255.7 65.86L255.78 64.56H255.55C258.78 63.8 263.23 62.29 264.96 52.34C265.05 51.97 265.15 51.61 265.22 51.29Z" fill="url(#paint0_linear_150_110)"/>
<defs>
<linearGradient id="paint0_linear_150_110" x1="143.29" y1="-6.23003" x2="106.65" y2="142.64" gradientUnits="userSpaceOnUse">
<stop stop-color="#FFE5A0"/>
<stop offset="1" stop-color="#360043"/>
</linearGradient>
</defs>
</svg>
