<svg width="22" height="22" viewBox="0 0 22 22" fill="none" xmlns="http://www.w3.org/2000/svg">
<path d="M11.4868 0.0185625C12.6864 0 13.8793 0.011 15.0707 0C15.1429 1.40319 15.6475 2.8325 16.6746 3.82456C17.6997 4.84138 19.1496 5.30681 20.5604 5.46425V9.15544C19.2383 9.11213 17.9101 8.83713 16.7104 8.26788C16.1879 8.03138 15.7011 7.72681 15.2247 7.41538C15.2185 10.0939 15.2357 12.7689 15.2075 15.4364C15.136 16.7179 14.7132 17.9933 13.9679 19.0493C12.7689 20.8072 10.6879 21.9532 8.55044 21.989C7.23938 22.0639 5.92969 21.7064 4.8125 21.0478C2.96107 19.9561 1.65825 17.9575 1.4685 15.8125C1.4446 15.3582 1.44093 14.9031 1.4575 14.4485C1.6225 12.7043 2.48532 11.0358 3.82457 9.90069C5.34257 8.57863 7.469 7.94888 9.46 8.3215C9.47857 9.67931 9.42425 11.0358 9.42425 12.3936C8.51469 12.0993 7.45182 12.1818 6.65707 12.7339C6.07561 13.1169 5.6362 13.6805 5.4065 14.3378C5.21675 14.8026 5.27107 15.3189 5.28207 15.8125C5.5 17.3167 6.9465 18.5811 8.49063 18.4442C9.51432 18.4332 10.4954 17.8393 11.0289 16.9696C11.2014 16.665 11.3946 16.3536 11.4049 15.9954C11.495 14.3557 11.4593 12.7229 11.4703 11.0832C11.4778 7.38788 11.4593 3.70287 11.4874 0.01925L11.4868 0.0185625Z" fill="white"/>
</svg>
