<svg width="22" height="22" viewBox="0 0 22 22" fill="none" xmlns="http://www.w3.org/2000/svg">
<path d="M11 0C4.92545 0 0 4.92545 0 11C0 17.0746 4.92545 22 11 22C17.0746 22 22 17.0746 22 11C22 4.92545 17.0746 0 11 0ZM9.90982 16.5C7.09844 16.5 4.22321 15.1348 4.22321 12.8882C4.22321 11.7145 4.96473 10.3567 6.24397 9.075C7.95045 7.36607 9.94174 6.58527 10.6906 7.33661C11.0221 7.66808 11.054 8.24018 10.8404 8.92277C10.7299 9.26652 11.1621 9.07746 11.1621 9.07746C12.542 8.49799 13.7451 8.46362 14.1846 9.09464C14.4203 9.43103 14.3958 9.9 14.1797 10.4475C14.079 10.698 14.2116 10.7373 14.4007 10.7937C15.179 11.0344 16.0433 11.6187 16.0433 12.6475C16.0482 14.354 13.5953 16.5 9.90982 16.5V16.5ZM14.9998 9.35982C15.0463 9.21701 15.0544 9.06449 15.0234 8.91754C14.9924 8.77059 14.9232 8.63437 14.823 8.52254C14.7227 8.41106 14.5947 8.32805 14.452 8.28191C14.3092 8.23578 14.1569 8.22816 14.0103 8.25982C13.9527 8.27207 13.8933 8.27287 13.8354 8.26216C13.7776 8.25146 13.7224 8.22946 13.673 8.19743C13.6237 8.16539 13.5811 8.12395 13.5478 8.07546C13.5144 8.02698 13.4909 7.9724 13.4787 7.91484C13.4664 7.85729 13.4656 7.79788 13.4763 7.74002C13.487 7.68215 13.509 7.62697 13.5411 7.5776C13.5731 7.52824 13.6146 7.48567 13.663 7.45233C13.7115 7.41898 13.7661 7.39551 13.8237 7.38326C14.4154 7.25804 15.0538 7.43973 15.4859 7.92098C15.9205 8.40223 16.0359 9.05781 15.8518 9.63482C15.8339 9.6907 15.8051 9.7425 15.7671 9.78722C15.7291 9.83194 15.6826 9.8687 15.6304 9.8954C15.5781 9.9221 15.5211 9.9382 15.4626 9.94278C15.4041 9.94737 15.3453 9.94034 15.2895 9.9221C15.2335 9.9043 15.1816 9.87562 15.1367 9.83771C15.0918 9.79979 15.0548 9.75338 15.0279 9.70113C15.0009 9.64889 14.9846 9.59185 14.9798 9.53328C14.975 9.47471 14.9818 9.41576 14.9998 9.35982V9.35982ZM17.6025 10.202C17.6025 10.202 17.6025 10.2045 17.6025 10.202C17.5818 10.2671 17.5485 10.3274 17.5045 10.3796C17.4604 10.4318 17.4065 10.4747 17.3458 10.506C17.2851 10.5372 17.2189 10.5562 17.1508 10.5618C17.0828 10.5673 17.0143 10.5594 16.9493 10.5384C16.8181 10.4957 16.7092 10.4027 16.6466 10.2798C16.584 10.1568 16.5728 10.014 16.6154 9.88281C16.8855 9.04308 16.7136 8.08549 16.0826 7.38326C15.7825 7.05043 15.4002 6.8024 14.9739 6.66406C14.5477 6.52571 14.0926 6.50193 13.6542 6.59509C13.5875 6.60935 13.5186 6.61031 13.4515 6.59791C13.3843 6.5855 13.3203 6.55998 13.2631 6.52281C13.2058 6.48563 13.1565 6.43753 13.1179 6.38126C13.0792 6.32499 13.0521 6.26165 13.0379 6.19487C13.0234 6.12827 13.0222 6.05946 13.0343 5.99239C13.0465 5.92532 13.0718 5.86131 13.1087 5.80404C13.1457 5.74677 13.1936 5.69737 13.2497 5.65867C13.3058 5.61998 13.369 5.59276 13.4357 5.57857C14.6487 5.32076 15.9598 5.69643 16.8511 6.68594C17.7424 7.67299 17.983 9.02098 17.6025 10.202V10.202ZM9.38929 10.3518C7.14509 10.5728 5.44353 11.9502 5.59085 13.4259C5.73571 14.9016 7.67299 15.9181 9.91719 15.6971C12.1614 15.4737 13.8629 14.0987 13.7156 12.6205C13.5708 11.1449 11.6335 10.1283 9.38929 10.3518V10.3518ZM11.3585 13.831C10.8993 14.8696 9.58326 15.4221 8.46607 15.0612C7.38817 14.7125 6.93147 13.6444 7.4029 12.6844C7.86696 11.7415 9.07254 11.2087 10.1406 11.4862C11.2455 11.7734 11.8103 12.817 11.3585 13.831V13.831ZM9.075 13.0404C8.72634 12.8955 8.27946 13.0453 8.06339 13.3817C7.84732 13.7205 7.94799 14.1232 8.29174 14.2804C8.64286 14.44 9.10692 14.2877 9.32299 13.9415C9.53906 13.5904 9.42612 13.1902 9.075 13.0404ZM9.93192 12.6844C9.79933 12.6304 9.63237 12.6967 9.55379 12.8268C9.47768 12.9594 9.51942 13.1092 9.65446 13.1656C9.78951 13.2221 9.96384 13.1583 10.0424 13.0232C10.1161 12.8857 10.067 12.7335 9.93192 12.6844V12.6844Z" fill="white"/>
</svg>
