<svg width="266" height="122" viewBox="0 0 266 122" fill="none" xmlns="http://www.w3.org/2000/svg">
<g clip-path="url(#clip0_150_147)">
<path d="M49.5 63.5497C74.57 23.4497 108.92 -26.5303 200.82 17.7497C200.82 17.7497 208.44 12.9997 212.62 14.2497C216.8 15.4997 220.97 16.9197 227.7 16.9997C232.29 17.0497 266.95 11.4597 263.37 20.5797C263.37 20.5797 267.45 20.7497 264.22 27.4197C259.7 36.7497 233.8 114.89 138.9 70.9597C133.26 68.3497 89.57 36.9597 46.37 77.1297C40.52 82.5597 29.24 121.83 0.629962 121.83C-2.09004 113.89 3.54996 84.2297 26.94 76.9197C35.3 74.1997 39.68 71.0697 28.82 69.3997C21.44 68.2597 7.51996 57.0797 9.60996 44.9597C20.05 44.5397 37.22 52.9597 43.03 64.5897C45.53 69.6097 49.5 63.5497 49.5 63.5497Z" fill="#4F656D"/>
<path d="M186.7 26.7501C189.87 28.5801 234.7 16.5801 259.03 19.5801C261.2 12.7501 233.13 16.8001 228.53 16.7501C223.133 16.6976 217.773 15.8554 212.62 14.2501C208.44 13.0001 200.82 17.7501 200.82 17.7501C117.42 -22.4399 81.41 15.0101 56.73 52.2601C85.87 15.9401 101.88 -14.1099 186.7 26.7501Z" fill="#60878C"/>
<path d="M7.88993 100.19C17.8099 96.9697 23.0099 93.2597 10.1199 91.2697C9.57643 91.1826 9.03877 91.0624 8.50994 90.9097C6.1296 94.4035 4.21354 98.1919 2.80994 102.18C4.45601 101.402 6.15328 100.737 7.88993 100.19V100.19Z" fill="#60878C"/>
<path d="M12.7299 89.7901C21.4899 86.3101 26.3999 83.2001 15.9699 83.7901C15.5566 83.7901 15.1266 83.7901 14.6799 83.7901C12.2528 86.2342 10.0754 88.9141 8.17993 91.7901C9.63993 91.0701 11.1999 90.4001 12.7299 89.7901Z" fill="#60878C"/>
<path d="M43.82 69.13C50.08 67.97 54.7 58.5 57.2 51.5C47.08 67.75 43.99 66.5 43.03 64.59C37.22 52.98 20.03 44.59 9.60999 44.96C14.82 50.25 20.03 73.5 43.82 69.13Z" fill="#60878C"/>
<path d="M203.51 17.82L211.7 15.75C211.7 15.75 228.2 20.01 203.51 17.82Z" fill="#4F656D"/>
<path d="M180.2 18.6899C176.53 17.5199 171.5 27.7499 183.84 30.7499L190.34 26.9199C182.37 25.5799 180.2 24.1899 180.2 18.6899Z" fill="#4F656D"/>
<path d="M34.2 70.7501C33.78 69.3301 27.2 67.5001 24.78 65.3301C20.25 61.2701 16.49 45.9001 9.52999 45.0801C7.27999 57.5001 17.95 68.5801 34.2 70.7501Z" fill="#3D5359"/>
<path d="M136.7 24.2501C114.28 19.6301 79.1999 32.0001 44.6999 73.7501C39.6999 79.7501 27.3899 112.12 0.159937 113.75C-0.212934 116.448 -0.0532553 119.193 0.629938 121.83C29.2399 121.83 40.5199 82.5601 46.3699 77.1301C89.5699 37.0001 133.26 68.3501 138.9 70.9601C233.8 114.89 259.7 36.7501 264.2 27.4201C264.727 26.3907 265.111 25.2938 265.34 24.1601C193.01 26.9201 185.51 38.0801 175.01 30.6501C162.91 29.1101 150.04 27.0001 136.7 24.2501Z" fill="#3D5359"/>
<path d="M171.31 24.7202C166.55 23.4802 153.79 27.0402 160.31 30.3602C175.73 38.1602 184.44 28.1202 171.31 24.7202Z" fill="#4F656D"/>
<path d="M180.02 18.6401L180.89 18.8601C179.34 24.7001 188.03 26.4101 195.27 25.2701C210.21 22.9301 236.39 16.9401 263.54 19.5801V20.7501C236.83 18.4701 209.22 25.0301 194.34 27.3601C185.2 28.8001 178.42 24.6301 180.02 18.6401Z" fill="#293E44"/>
<path d="M191.2 32.3697C163.94 113.15 120.67 25.2597 65.7599 63.5297C127.76 42.0597 217.2 147.92 265.45 24.2497C257.2 23.3697 218.7 26.1297 191.2 32.3697Z" fill="#B3DDD3"/>
<path d="M145.45 65.7498L144.87 74.2498L135.03 71.0898L139.2 64.0898L145.45 65.7498Z" fill="#97C6BA"/>
<path d="M191.37 32.0799C191.37 32.0799 186.53 57.4199 167.37 66.0799C201.97 74.1899 231.37 76.5799 258.2 24.2499C237.2 22.8499 214.37 26.7499 191.37 32.0799Z" fill="#C5EAE0"/>
<path d="M261.32 23.9997C235.04 85.4397 189.45 82.7497 150.87 70.4197C117.38 59.7097 86.7099 48.8697 65.4199 63.6997C121.42 44.3097 200.07 128.64 250.33 54.0497C255.72 46.0497 262.45 35.4997 265.45 24.2497C264.085 24.0285 262.701 23.9448 261.32 23.9997V23.9997Z" fill="#97C6BA"/>
<path d="M103.11 106.37C100.29 95.0899 104.36 76.9199 112.51 73.1599C120.66 69.3999 136.01 59.6899 136.01 59.6899C137.82 57.9999 150.31 58.3499 143.21 65.0099C135.45 71.2499 138.82 85.6899 103.11 106.37Z" fill="#3D5359"/>
<path d="M108.37 103.08C105.87 93.0797 109.65 76.7497 116.87 73.4197C124.09 70.0897 137.28 59.9697 137.28 59.9697C138.89 58.4797 149.95 58.7897 143.66 64.6897C136.79 70.2497 140.01 84.7697 108.37 103.08Z" fill="#4F656D"/>
<path d="M165.82 33.5C161.82 31.87 160.1 25.87 162.92 23C162.92 23 156.67 25.13 158.01 32.75L165.82 33.5Z" fill="#3D5359"/>
<path d="M171.46 34.8699C173.72 33.2499 174.89 26.9999 172.63 26.1299C172.63 26.1299 179.49 27.1299 176.14 33.7499L171.46 34.8699Z" fill="#3D5359"/>
<path d="M173.76 26.64C172.76 21.7 161.58 13.46 160.93 21.45C159.41 40.25 176.5 40.25 173.76 26.64Z" fill="#4F656D"/>
<path d="M171.74 30.0699C171.03 28.0699 165.36 28.0699 165.74 31.4099C168.59 32.7599 169.83 32.2999 171.74 30.0699Z" fill="#293E44"/>
<path d="M203.51 17.8199C206.15 17.9699 211.4 17.4599 212.08 15.9399C209.52 13.8699 203.51 17.8199 203.51 17.8199Z" fill="#384C51"/>
<path d="M135.82 57.2497C138.45 53.2497 145.08 53.2497 146.45 57.4997C142.11 55.6197 139.03 55.8197 135.82 57.2497Z" fill="#4F656D"/>
<path d="M144.82 52.5298C148.14 52.0398 151.24 55.5298 149.65 58.2198C148.63 55.0398 147.09 53.5298 144.82 52.5298Z" fill="#4F656D"/>
<path d="M248.03 27.7599L249.7 27.4399C249.7 27.4399 228.64 82.6 173.7 79.33C204.2 79.62 231.93 63.82 248.03 27.7599Z" fill="#97C6BA"/>
<path d="M224.91 31.0398L226.47 30.7798C226.47 30.7798 212.86 81.8298 158.11 77.2798C188.27 78.3298 213.81 63.8998 224.91 31.0398Z" fill="#97C6BA"/>
<path d="M204.2 32.3498L205.4 32.2397C205.4 32.2397 199.48 77.8097 146.4 73.2397C176.74 74.3897 198.45 60.6498 204.2 32.3498Z" fill="#97C6BA"/>
<path d="M163.09 23.9598C164.66 23.0898 169.69 22.2498 171.93 23.4398C171.93 23.4398 168.6 17.7198 163.09 23.9598Z" fill="#3D5359"/>
<path d="M164.99 39.5C162.99 39.5 158.6 36.8 158.44 33.5C158.44 33.49 154.2 43.78 164.99 39.5Z" fill="#4F656D"/>
<path d="M106.37 87.08C114.87 87.08 119.53 84.7499 109.87 81.4199L106.37 87.08Z" fill="#3D5359"/>
<path d="M107.53 81.42C116.03 81.42 120.7 79.08 111.03 75.75L107.53 81.42Z" fill="#3D5359"/>
<path d="M116.94 72.25C122.8 74.82 126.62 74.87 120.81 69.98L116.94 72.25Z" fill="#3D5359"/>
<path d="M131.45 75C129.642 82.0927 126.099 88.6246 121.14 94.008C116.181 99.3914 109.961 103.457 103.04 105.84C115.37 86.25 122.9 80.11 131.45 75Z" fill="#60878C"/>
<path d="M165.7 31.4098C165.2 27.9998 168.54 20.8998 171.7 30.0698C168.9 29.1398 167.3 29.5698 165.7 31.4098Z" fill="#60878C"/>
<path d="M189.2 12.5801C174.37 9.42008 155.2 3.75008 144.87 0.580078C160.294 1.61221 175.361 5.69077 189.2 12.5801V12.5801Z" fill="#74A4A8"/>
<path d="M69.5599 41.87C73.2299 34.94 93.5599 8.33997 111.01 16.87C94.7099 23.57 85.1999 30.04 69.5599 41.87Z" fill="#60878C"/>
<path style="mix-blend-mode:overlay" opacity="0.7" d="M265.45 24.2499H265.35C265.354 24.2268 265.354 24.2031 265.35 24.1799V24.1799C265.86 21.3099 264.16 20.7399 263.56 20.6299V19.9499C264.66 14.4999 250.38 15.0299 239.39 15.9499C234.46 16.2899 230.12 16.7599 228.54 16.7399C223.143 16.6874 217.783 15.8452 212.63 14.2399C208.45 12.9899 200.83 17.7399 200.83 17.7399C199.46 17.0799 198.1 16.4399 196.76 15.8199L195.42 15.2199L192.75 14.0199L191.2 13.3599C190.4 13.0199 189.6 12.6699 188.81 12.3599L188.12 12.0699C140.39 -10.6501 87.8799 -4.0801 54.4099 55.8299C47.7799 67.6899 44.0999 66.3999 43.1399 64.7799C43.1006 64.7199 43.0672 64.6562 43.0399 64.5899C37.2299 52.9799 20.0399 44.5899 9.61988 44.9599C9.61988 45.0099 9.61988 45.0499 9.61988 45.0899H9.55988C7.32988 57.4399 17.8599 68.4599 33.9599 70.7199C37.5599 72.4499 33.4699 74.8199 26.9599 76.9299C22.4591 78.3391 18.3102 80.6914 14.7899 83.8299H14.6999C14.5599 83.9799 14.4299 84.1299 14.2899 84.2699C10.9997 87.3365 8.2332 90.9204 6.09988 94.8799L5.94988 95.1599C5.73988 95.5499 5.52988 95.9399 5.32988 96.3299L5.16988 96.6599C4.96988 97.0599 4.77988 97.4599 4.58988 97.8599C4.58988 97.9199 4.58988 97.9799 4.50988 98.0499C3.87988 99.4199 3.31988 100.81 2.82988 102.18C1.48855 105.916 0.60543 109.801 0.199882 113.75C0.199882 114.1 0.13988 114.45 0.11988 114.75C0.124833 114.843 0.124833 114.937 0.11988 115.03C0.11988 115.34 0.11988 115.64 0.11988 115.93C0.11988 116.06 0.11988 116.18 0.11988 116.3C0.11988 116.42 0.11988 116.83 0.11988 117.08V117.5C0.11988 117.74 0.11988 117.96 0.11988 118.18C0.109617 118.333 0.109617 118.487 0.11988 118.64C0.11988 118.83 0.11988 119.03 0.11988 119.21L0.179882 119.7C0.179882 119.86 0.179881 120.01 0.249881 120.16C0.319881 120.31 0.309884 120.52 0.349884 120.69C0.367399 120.801 0.390764 120.911 0.419883 121.02C0.47995 121.28 0.553378 121.537 0.639881 121.79C29.2499 121.79 40.5299 82.5199 46.3799 77.0899C52.0701 71.7111 58.5064 67.1812 65.4899 63.6399C82.8499 57.6399 102.4 61.6399 122.61 67.7399C119 69.8099 115.33 71.8199 112.52 73.1199C104.37 76.8799 100.3 95.0499 103.12 106.33C104.12 105.75 105.12 105.18 106.03 104.61C110.822 102.558 115.22 99.6882 119.03 96.1299C131.69 86.7699 135.83 78.7299 138.59 72.8299C166.95 82.1099 195.81 91.5399 221.1 80.2099H221.2C221.63 80.0099 222.06 79.8199 222.48 79.6099L222.97 79.3699L223.85 78.9299L224.56 78.5599L225.2 78.2499L226.07 77.7699L226.52 77.5099L227.52 76.9099L227.77 76.7499C235.29 72.1099 242.45 65.3499 249.12 55.8699L249.18 55.7799C249.53 55.2799 249.88 54.7799 250.23 54.2599L250.35 54.0899L250.56 53.7699L250.95 53.1999C256.2 45.2499 262.56 35.0899 265.45 24.2499Z" fill="url(#paint0_linear_150_147)"/>
</g>
<defs>
<linearGradient id="paint0_linear_150_147" x1="148.69" y1="-19.5401" x2="117.69" y2="130.46" gradientUnits="userSpaceOnUse">
<stop stop-color="#FFE5A0"/>
<stop offset="1" stop-color="#360043"/>
</linearGradient>
<clipPath id="clip0_150_147">
<rect width="265.46" height="121.83" fill="white"/>
</clipPath>
</defs>
</svg>
