<svg width="333" height="283" viewBox="0 0 333 283" fill="none" xmlns="http://www.w3.org/2000/svg">
<path d="M332.048 277.205C330.687 281.433 327.641 282.535 323.947 282.065C315.975 280.931 304.877 272.344 300.503 271.291C294.119 269.671 286.099 281.19 277.529 281.871C268.958 282.551 264.697 274.969 270.594 261.91C273.835 254.619 275.358 245.546 277.075 238.304C277.334 237.17 277.577 236.052 277.869 235.064C279.003 230.948 280.348 227.789 282.405 226.461C288.27 222.734 298.996 224.176 298.996 224.176C317.628 245.611 336.39 263.887 332.048 277.205Z" fill="#1C6E75"/>
<path d="M17.6198 15.8861C16.4914 14.7223 15.8604 13.165 15.8604 11.544C15.8604 9.92302 16.4914 8.36566 17.6198 7.20189C20.3579 4.6906 26.1743 4.93365 27.9241 7.38013C28.7144 8.35696 29.1306 9.58353 29.0979 10.8396C29.0653 12.0957 28.5859 13.299 27.7459 14.2335C26.0771 16.1615 17.6198 15.8861 17.6198 15.8861Z" fill="#86B6BA"/>
<path d="M27.1951 135.455C27.1951 135.455 6.13278 171.812 6.81326 199.08C7.49373 226.347 19.7747 229.037 33.7082 213.515C47.6418 197.994 61.5591 192.664 73.5484 187.317C85.5377 181.971 81.3415 172.347 73.5484 160.05C65.7553 147.752 28.5561 131.713 28.5561 131.713L27.1951 135.455Z" fill="#86B6BA"/>
<path d="M89.4422 106.584C71.118 109.257 44.4337 87.8706 33.7081 74.7633C22.9825 61.6561 7.07239 39.7513 7.07239 39.7513C7.07239 39.7513 7.0724 22.1075 17.6198 12.2083C19.2359 10.659 21.0698 9.35447 23.0635 8.33606C39.0385 0.235168 63.973 67.748 80.11 82.0865L80.9363 82.8156C96.6034 96.6681 107.475 104.024 89.4422 106.584Z" fill="#FFE79E"/>
<path opacity="0.4" d="M10.0859 32.0554C13.8934 23.4361 29.9493 8.82208 29.9493 8.82208L33.9511 12.1921L16.6962 32.0554L22.0104 36.6568L40.9665 19.4181L43.9153 24.2786L26.9358 39.2166L29.8845 42.2301L45.1142 27.9726V30.4029L29.8845 44.9845L32.0718 46.9935L48.1115 31.9582L51.919 39.168L34.9395 52.1781L36.8837 54.9972L50.5904 43.9476L50.9792 45.7622L38.5525 54.9972L41.566 62.8064L54.9649 52.5831L56.8119 57.2978L42.2303 64.4104L47.8523 72.171L58.4807 63.4221V65.0423L49.8451 72.3655L52.0486 77.6635L62.8876 68.8497L64.8966 71.0531L55.0297 82.0865L58.8695 85.4889L67.8939 76.4645L69.9029 80.2719L63.4222 91.0947L69.9029 93.1038L76.5133 83.01L78.5223 85.894L72.0416 95.8743C72.0416 95.8743 79.3648 105.206 58.3024 93.849C37.2401 82.4916 29.0258 77.8741 21.6054 67.2457C14.185 56.6173 10.0859 32.0554 10.0859 32.0554Z" fill="#EDAB66"/>
<path opacity="0.4" d="M82.2649 93.7356C82.2649 93.7356 63.0171 79.3808 55.7912 72.09C48.5652 64.7993 39.962 37.4669 36.8837 27.0329C34.4858 18.932 24.5703 12.2569 17.6198 12.1759C19.2358 10.6266 21.0698 9.32209 23.0635 8.30368C39.0385 0.20279 63.9731 67.7156 80.11 82.0541L80.9363 82.7832C81.5667 86.4088 82.0102 90.0644 82.2649 93.7356Z" fill="#D1914D"/>
<path d="M289.615 247.734C287.59 245.449 283.556 240.751 277.804 234.95C265.831 222.864 246.47 206.014 222.718 196.698C220.515 195.807 218.247 195.078 215.962 194.268C209.238 192.412 202.22 191.862 195.289 192.647C172.071 194.462 142.455 204.54 111.493 202.207C88.0004 200.473 63.7464 191.578 40.9343 166.563C-21.8152 97.5916 6.26244 29.6738 6.26244 29.6738C20.601 24.8132 25.6074 30.2084 42.4248 60.4571C48.9055 72.171 54.9974 80.3205 60.3278 85.4889C67.3917 92.2936 73.2892 93.9463 77.6637 91.84C78.5439 91.4308 79.3534 90.8838 80.0616 90.2198C80.0616 90.2198 75.7195 86.461 70.5835 81.1954C65.8847 76.5282 61.6622 71.4048 57.9785 65.901C50.7525 54.4139 49.1324 38.8764 38.99 22.8367C28.8477 6.7969 17.5227 7.41253 17.5227 7.41253C20.235 4.54919 23.6181 2.40687 27.3662 1.17919C31.1143 -0.0484943 35.1093 -0.322833 38.99 0.380965C52.9398 2.5196 52.875 14.2821 85.7646 52.7937C93.2895 61.3489 102.003 68.7803 111.639 74.8605C127.841 85.4079 146.327 93.0551 165.672 100.67C184.498 108.09 204.086 115.478 222.961 125.54C272.684 152.013 287.671 199.031 296.76 218.279C297.638 220.129 298.364 222.047 298.931 224.014C303.986 240.88 295.545 254.473 289.615 247.734Z" fill="#1C6E75"/>
<path opacity="0.2" d="M332.048 277.205C330.687 281.433 327.641 282.535 323.947 282.065C315.975 280.931 304.877 272.344 300.503 271.291C294.119 269.671 286.099 281.19 277.529 281.871C268.958 282.551 264.697 274.969 270.594 261.91C273.835 254.619 275.358 245.546 277.075 238.304C277.334 237.17 277.577 236.052 277.869 235.064C265.896 222.977 246.535 206.127 222.783 196.811C220.579 195.92 218.311 195.191 216.027 194.381C209.302 192.525 202.285 191.975 195.353 192.761C172.136 194.576 142.519 204.653 111.558 202.32C88.6969 185.033 68.072 167.664 58.0917 155.707C41.0474 135.439 48.3706 98.3045 60.4409 85.4727C63.6813 82.0865 67.1809 80.3854 70.6967 81.1307C73.9371 81.8273 77.1774 84.6302 80.1747 90.1551C98.3531 124.179 158.381 154.428 180.464 157.733C202.547 161.038 234.432 177.774 242.711 181.16C250.99 184.547 254.052 177.402 225.764 144.269C211.182 127.095 187.544 112.708 165.736 100.864C184.563 108.285 204.151 115.673 223.026 125.734C272.749 152.208 287.736 199.225 296.825 218.473C297.702 220.323 298.428 222.241 298.996 224.209C317.628 245.611 336.39 263.887 332.048 277.205Z" fill="#10385E"/>
<path d="M222.767 196.698C220.563 195.807 218.295 195.078 216.011 194.268C177.515 181.971 103.732 235.453 41.0313 166.465C36.9917 162.026 33.3139 157.598 29.9979 153.18C-18.2186 89.021 6.3595 29.5766 6.3595 29.5766C20.6981 24.7161 25.7044 30.1113 42.5219 60.36C57.6705 87.498 70.0649 95.4693 77.7607 91.7429C79.2787 94.2874 80.9789 96.7186 82.8481 99.0175C101.61 122.332 147.655 153.472 179.881 167.6C195.77 174.712 210.286 184.561 222.767 196.698Z" fill="#86B6BA"/>
<path d="M95.599 187.852C93.4279 187.852 66.2899 187.317 44.4985 161.038C22.1563 134.094 18.3813 98.985 15.3353 70.7777C14.5091 63.1628 13.7152 55.9692 12.6621 49.7154C12.6508 49.326 12.7801 48.9456 13.0264 48.6438C13.2727 48.342 13.6195 48.1391 14.0033 48.0722C14.387 48.0053 14.782 48.0788 15.1159 48.2794C15.4498 48.48 15.7003 48.7943 15.8214 49.1645C16.9069 55.467 17.7008 62.7092 18.5109 70.3726C21.5082 98.1425 25.2346 132.717 46.9612 158.915C68.0235 184.336 95.0157 184.579 95.6476 184.579C96.0773 184.579 96.4894 184.75 96.7932 185.054C97.097 185.357 97.2678 185.769 97.2678 186.199C97.2678 186.629 97.097 187.041 96.7932 187.345C96.4894 187.649 96.0773 187.819 95.6476 187.819L95.599 187.852Z" fill="#D0E0DD"/>
<path d="M163.031 195.823C162.876 195.818 162.724 195.79 162.577 195.742C162.577 195.742 154.282 193.344 113.972 183.526C72.9489 173.529 45.7461 143.686 37.3536 99.471C37.1915 98.661 37.0944 98.1101 37.0296 97.8509C36.9615 97.4671 37.034 97.0718 37.2338 96.7372C37.4336 96.4026 37.7473 96.1512 38.1174 96.0291C38.4875 95.9071 38.8892 95.9225 39.2488 96.0726C39.6084 96.2227 39.9019 96.4974 40.0755 96.8464C40.2527 97.5023 40.3934 98.1676 40.4967 98.8391C48.5976 141.741 75.0065 170.694 114.733 180.383C155.238 190.233 163.16 192.55 163.484 192.631C163.89 192.755 164.231 193.033 164.434 193.406C164.637 193.779 164.686 194.216 164.57 194.624C164.479 194.964 164.279 195.265 164.001 195.481C163.723 195.698 163.383 195.818 163.031 195.823Z" fill="#D0E0DD"/>
<path d="M198.253 184.109C198.098 184.132 197.939 184.132 197.784 184.109C197.638 184.109 182.408 179.427 164.327 173.772C158.251 171.877 151.122 171.553 143.589 171.213C128.602 170.532 111.623 169.754 95.3883 156.89C74.2126 140.105 72.0416 121.505 71.9606 120.712C71.9382 120.499 71.958 120.284 72.0188 120.079C72.0795 119.874 72.1801 119.682 72.3148 119.516C72.4494 119.35 72.6155 119.212 72.8035 119.11C72.9916 119.008 73.1978 118.944 73.4106 118.921C73.6234 118.899 73.8385 118.919 74.0436 118.98C74.2487 119.04 74.4398 119.141 74.6061 119.276C74.7723 119.41 74.9104 119.576 75.0125 119.764C75.1146 119.952 75.1786 120.159 75.2009 120.371C75.2009 120.55 77.3882 138.469 97.4298 154.395C112.854 166.611 129.282 167.357 143.783 168.021C151.544 168.377 158.867 168.717 165.331 170.727C183.413 176.365 198.61 181.015 198.772 181.063C199.115 181.196 199.403 181.442 199.588 181.76C199.773 182.079 199.844 182.451 199.789 182.815C199.734 183.179 199.557 183.514 199.287 183.764C199.017 184.014 198.669 184.164 198.302 184.19L198.253 184.109Z" fill="#D0E0DD"/>
<path opacity="0.3" d="M222.766 196.698C220.563 195.807 218.295 195.078 216.01 194.268C177.515 181.97 103.732 235.453 41.0312 166.465C36.9916 162.026 33.3138 157.598 29.9978 153.18C36.8025 158.867 45.3247 166.044 55.0295 174.242C80.1099 195.402 126.803 202.401 128.861 174.242C130.919 146.084 92.0506 126.544 82.848 98.9526C101.61 122.267 147.655 153.407 179.88 167.535C195.775 174.667 210.291 184.538 222.766 196.698Z" fill="#52668F"/>
<path d="M175.166 203.729C174.392 204.398 173.463 204.861 172.464 205.077C171.464 205.292 170.427 205.252 169.447 204.961C163.695 203.584 152.629 192.145 141.158 179.119C130.319 166.838 119.059 153.196 111.444 145.095C95.7447 128.521 92.3424 118.362 98.8555 110.877C99.1085 110.57 99.379 110.278 99.6656 110.002C108.771 101.091 125.686 108.269 141.255 118.443C147.53 122.563 153.591 126.997 159.418 131.729C178.082 146.699 178.471 165.412 179.897 175.571C180.966 183.591 180.853 198.95 175.166 203.729Z" fill="#1C6E75"/>
<path d="M175.166 203.729C174.392 204.398 173.463 204.861 172.464 205.077C171.464 205.292 170.427 205.252 169.447 204.961C158.267 202.287 127.111 161.653 111.412 145.014C95.7123 128.375 92.3099 118.281 98.823 110.796C99.076 110.489 99.3465 110.197 99.6331 109.921C100.894 112.771 102.441 115.485 104.251 118.022C116.029 134.904 125.07 142.503 134.71 155.545C144.35 168.588 164.521 199.549 171.828 202.531C172.92 202.986 174.034 203.386 175.166 203.729Z" fill="#86B6BA"/>
<path d="M102.323 93.6384C102.008 93.6402 101.697 93.5681 101.415 93.4278C100.952 93.186 100.604 92.7709 100.446 92.273C100.288 91.7751 100.334 91.235 100.573 90.7707C100.573 90.7707 103.278 85.4403 101.885 81.1468C101.58 80.2306 101.089 79.3876 100.442 78.6709C99.7952 77.9542 99.0067 77.3794 98.1263 76.983C97.4863 76.5441 96.7484 76.2688 95.9773 76.1812C95.2062 76.0937 94.4254 76.1965 93.7032 76.4807C91.4674 77.712 90.6087 81.9083 90.4629 83.2855C90.4135 83.8046 90.1611 84.2831 89.7605 84.6169C89.36 84.9507 88.8438 85.1127 88.3243 85.0676C88.0679 85.0433 87.8187 84.9686 87.5912 84.848C87.3636 84.7273 87.1621 84.5629 86.9981 84.3643C86.8341 84.1657 86.7109 83.9367 86.6354 83.6904C86.5599 83.4441 86.5337 83.1854 86.5583 82.929C86.5583 82.1838 87.3522 75.4924 91.7914 73.0459C94.0921 71.766 96.8302 71.9118 99.8923 73.4834C101.238 74.1159 102.439 75.0173 103.423 76.1319C104.406 77.2465 105.151 78.5506 105.612 79.9641C107.491 85.8129 104.17 92.3099 103.991 92.5853C103.829 92.8906 103.589 93.1482 103.296 93.3329C103.004 93.5175 102.668 93.6228 102.323 93.6384Z" fill="#051A3B"/>
<path opacity="0.3" d="M3.70237 52.4859C8.12546 41.7603 18.7862 39.5245 26.7413 54.5921C34.6964 69.6598 52.486 112.352 70.7778 124.681C89.0696 137.011 65.8201 176.332 42.4895 159.596C19.1589 142.859 -6.37514 76.9506 3.70237 52.4859Z" fill="#FEFEFE"/>
<path opacity="0.2" d="M175.166 203.729C174.392 204.398 173.463 204.861 172.464 205.077C171.464 205.292 170.427 205.252 169.447 204.961C163.695 203.584 152.629 192.145 141.158 179.119C141.741 179.313 154.735 183.25 162.464 177.353C169.333 172.104 159.223 139.279 141.223 118.427C147.497 122.547 153.559 126.981 159.385 131.713C178.05 146.683 178.439 165.396 179.864 175.555C180.966 183.591 180.853 198.95 175.166 203.729Z" fill="#10385E"/>
<path opacity="0.2" d="M210.777 129.736C206.516 134.337 215.541 145.938 220.499 142.616C225.456 139.295 215.055 125.086 210.777 129.736Z" fill="#10385E"/>
<path opacity="0.2" d="M230.236 138.047C224.047 142.373 226.833 153.553 234.74 150.701C242.646 147.85 233.995 135.455 230.236 138.047Z" fill="#10385E"/>
<path opacity="0.2" d="M221.73 145.792C216.999 140.688 212.527 155.626 217.436 157.587C222.345 159.547 226.412 150.863 221.73 145.792Z" fill="#10385E"/>
<path d="M85.813 57.2167C90.5602 61.2996 90.5764 58.2537 85.813 52.583C81.0497 46.9124 81.0659 53.1501 85.813 57.2167Z" fill="#10385E"/>
<path opacity="0.3" d="M133.479 121.149C121.749 111.282 107.345 110.618 108.366 121.149C109.387 131.68 126.868 159.32 138.048 167.664C149.227 176.008 150.847 169.284 150.264 161.815C149.68 154.346 140.624 127.176 133.479 121.149Z" fill="#FEFEFE"/>
<path opacity="0.2" d="M40.6263 3.11903C34.3886 2.29274 36.0249 10.3288 39.3949 13.8122C42.7649 17.2956 56.4068 34.8745 68.1693 50.6874C79.9318 66.5004 90.8518 69.9513 91.6943 65.9333C92.5368 61.9153 79.3971 53.6362 69.7733 41.339C60.1494 29.0419 46.7829 3.91292 40.6263 3.11903Z" fill="#FEFEFE"/>
<path opacity="0.2" d="M327.77 277.383C327.84 278.496 327.478 279.593 326.76 280.447C326.042 281.3 325.023 281.845 323.914 281.968C315.943 280.834 304.845 272.247 300.47 271.194C294.087 269.573 286.067 281.093 277.496 281.773C268.925 282.454 264.664 274.872 270.562 261.813C273.802 254.522 275.325 245.449 277.043 238.207C282.119 243.601 286.671 249.465 290.636 255.721C292.58 258.718 293.358 254.571 293.423 249.435C293.539 245.718 293.235 242.001 292.515 238.353C291.284 233.703 292.515 228.405 300.487 234.659C301.248 235.242 302.107 235.922 302.949 236.749C313.059 246.13 327.77 269.136 327.77 277.383Z" fill="#10385E"/>
</svg>
