<svg width="341" height="194" viewBox="0 0 341 194" fill="none" xmlns="http://www.w3.org/2000/svg">
<g clip-path="url(#clip0_6_3715)">
<path fill-rule="evenodd" clip-rule="evenodd" d="M221.968 121.413C221.533 125.434 220.889 129.43 220.038 133.384L219.444 136.183C218.129 141.809 216.319 147.308 214.035 152.614C213.837 153.174 213.584 153.698 213.35 154.239C210.283 161.219 206.14 167.671 201.072 173.361L200.243 174.282C200.008 174.553 199.756 174.788 199.504 175.041C195.143 179.572 190.077 183.365 184.504 186.272L182.935 187.048C176.402 190.197 169.387 192.223 162.184 193.043C161.084 193.187 159.948 193.296 158.813 193.386C116.409 196.708 92.286 175.329 91.4026 174.499H92.3762C92.3762 174.499 110.784 177.189 140.513 169.082L141.685 168.793C146.535 167.439 151.655 165.832 157.028 163.9C159.047 163.177 160.994 162.401 162.923 161.625L163.464 161.408C168.206 159.458 172.695 157.363 176.913 155.16L177.959 154.619C180.88 153.066 183.674 151.483 186.343 149.87L187.334 149.274C199.253 142.041 210.222 133.342 219.984 123.381C220.796 122.55 221.373 121.936 221.679 121.575L221.913 121.304L221.968 121.413Z" fill="url(#paint0_radial_6_3715)"/>
<path style="mix-blend-mode:multiply" opacity="0.74" fill-rule="evenodd" clip-rule="evenodd" d="M214.467 132.608C215.459 133.42 220.038 133.384 220.038 133.384L219.443 136.183C212.625 136.253 206.109 139.01 201.306 143.857C200.603 145.03 213.44 152.289 214.053 152.614L213.35 154.221C213.35 154.221 200.351 144.742 198.927 145.193C197.502 145.644 181.168 157.219 181.403 159.403C181.637 161.588 200.297 172.838 201.072 173.325L200.225 174.246L199.522 175.004C198.728 174.427 179.906 160.559 177.581 160.559C175.255 160.559 156.919 165.976 157.064 168.721C157.208 171.465 184.522 186.2 184.522 186.2L182.953 186.976L153.566 170.165C138.318 174.259 122.688 176.764 106.925 177.641C113.181 184.863 160.002 192.555 162.22 192.917C128.272 191.111 93.2055 175.474 92.1058 174.986C92.1058 174.986 110.838 177.171 140.567 169.136L141.739 168.847C146.589 167.493 151.709 165.886 157.082 163.954C159.101 163.232 161.048 162.455 162.977 161.679L163.518 161.462C168.26 159.512 172.749 157.417 176.968 155.214L178.013 154.673C180.934 153.12 183.728 151.537 186.397 149.924L187.388 149.328C199.308 142.095 210.276 133.396 220.038 123.435C220.85 122.604 221.427 121.99 221.733 121.629C220.363 123.345 213.584 131.867 214.467 132.608Z" fill="url(#paint1_linear_6_3715)"/>
<path fill-rule="evenodd" clip-rule="evenodd" d="M201.18 53.5739H201.054L123.188 58.1242L62.7368 61.7355C62.7368 61.7355 91.9255 24.9362 107.052 18.815H113.506C113.506 18.815 135.141 7.60184 153.404 2.56406C155.044 2.09458 156.667 1.69734 158.236 1.35427H158.362C161.133 0.703498 163.957 0.298671 166.799 0.144479C171.041 -0.0298752 175.287 0.37715 179.419 1.35427L180.573 1.64318C185.617 2.95624 190.321 5.3393 194.365 8.63107L195.465 9.60611C199.233 12.9741 202.002 17.3158 203.47 22.1555C203.896 23.628 204.21 25.1311 204.407 26.6515L204.588 28.3127C205.814 40.3745 201.18 53.5739 201.18 53.5739Z" fill="url(#paint2_radial_6_3715)"/>
<path style="mix-blend-mode:multiply" opacity="0.74" fill-rule="evenodd" clip-rule="evenodd" d="M201.054 51.7682V53.5738L123.187 58.1241L72.9952 55.1087C72.9952 55.1087 92.2861 31.3642 107.052 18.7427C107.052 18.7427 85.9399 41.9995 83.6142 46.5137C83.6142 46.5137 96.4146 44.1664 99.2812 41.6385C102.148 39.1105 113.524 18.7427 113.524 18.7427C113.524 18.7427 104.329 36.7993 103.788 41.9995C103.788 41.9995 127.046 12.2784 153.422 2.43755L158.254 1.22776H158.38C157.352 1.62501 124.251 15.023 107.899 42.0176C107.899 42.0176 125.531 40.8801 132.923 38.0271C140.315 35.1742 179.528 1.20972 179.528 1.20972L180.682 1.49863C176.715 4.73076 143.073 32.1948 137.412 39.1466C146.435 39.2483 155.44 39.9662 164.365 41.2954C164.365 41.2954 185.117 20.9456 194.401 8.48652L195.501 9.46159C195.501 9.46159 172.37 35.1741 167.773 44.0219C167.773 44.0219 182.791 47.4526 186.938 46.0081C191.084 44.5636 204.444 26.507 204.444 26.507L204.624 28.1682C204.624 28.1682 190.363 47.4165 190.363 47.8679C190.363 48.3194 201.054 51.7682 201.054 51.7682Z" fill="url(#paint3_linear_6_3715)"/>
<path d="M67.2702 129.334C78.7725 124.519 84.2003 111.278 79.3935 99.7579C74.5867 88.2379 61.3656 82.8017 49.8633 87.6159C38.361 92.4301 32.9332 105.672 37.74 117.192C42.5468 128.712 55.7679 134.148 67.2702 129.334Z" fill="url(#paint4_radial_6_3715)"/>
<path fill-rule="evenodd" clip-rule="evenodd" d="M56.8233 115.436C56.9134 122.911 53.2175 129.033 48.5481 129.087C43.8786 129.141 40.0384 123.128 39.9483 115.635C39.8581 108.141 43.5541 102.056 48.2235 102.002C52.893 101.948 56.7331 107.961 56.8233 115.436Z" fill="#A45700"/>
<path fill-rule="evenodd" clip-rule="evenodd" d="M56.7331 115.436C56.8233 122.839 53.1274 128.87 48.548 128.942C43.9687 129.014 40.1286 123.038 40.0384 115.634C39.9483 108.231 43.6442 102.2 48.2235 102.146C52.8028 102.092 56.643 108.033 56.7331 115.436Z" fill="#A65900"/>
<path d="M48.5449 128.811C53.1048 128.754 56.728 122.775 56.6375 115.456C56.5469 108.136 52.7769 102.249 48.2169 102.305C43.6569 102.362 40.0337 108.341 40.1243 115.66C40.2149 122.98 43.9849 128.867 48.5449 128.811Z" fill="#A95B00"/>
<path d="M48.543 128.648C53.0532 128.592 56.6368 122.678 56.5473 115.439C56.4577 108.199 52.7288 102.376 48.2186 102.432C43.7084 102.488 40.1248 108.402 40.2144 115.641C40.304 122.881 44.0328 128.704 48.543 128.648Z" fill="#AB5E00"/>
<path fill-rule="evenodd" clip-rule="evenodd" d="M56.4627 115.436C56.4627 122.659 53.0012 128.437 48.548 128.491C44.0949 128.545 40.399 122.785 40.3089 115.635C40.2187 108.484 43.7704 102.634 48.2235 102.58C52.6766 102.526 56.3726 108.286 56.4627 115.436Z" fill="#AE6000"/>
<path fill-rule="evenodd" clip-rule="evenodd" d="M56.3726 115.436C56.3726 122.514 52.9471 128.292 48.5481 128.346C44.149 128.401 40.4892 122.713 40.4171 115.707C40.345 108.701 43.8245 102.869 48.2235 102.814C52.6226 102.76 56.2824 108.376 56.3726 115.436Z" fill="#B06200"/>
<path fill-rule="evenodd" clip-rule="evenodd" d="M56.2645 115.436C56.3546 122.424 52.8931 128.076 48.5481 128.202C44.2032 128.328 40.5793 122.623 40.5072 115.562C40.4351 108.502 43.8786 102.923 48.2236 102.814C52.5685 102.706 56.1923 108.448 56.2645 115.436Z" fill="#B26400"/>
<path fill-rule="evenodd" clip-rule="evenodd" d="M56.1743 115.436C56.2644 122.352 52.8389 127.985 48.5481 128.076C44.2572 128.166 40.6695 122.659 40.5973 115.671C40.5252 108.683 43.9327 103.121 48.2235 103.031C52.5144 102.941 56.1021 108.538 56.1743 115.436Z" fill="#B56600"/>
<path fill-rule="evenodd" clip-rule="evenodd" d="M56.0841 115.436C56.0841 122.261 52.7848 127.841 48.548 127.895C44.3113 127.949 40.7776 122.478 40.6875 115.634C40.5973 108.791 43.9867 103.23 48.2415 103.175C52.4963 103.121 55.9939 108.61 56.0841 115.436Z" fill="#B76800"/>
<path fill-rule="evenodd" clip-rule="evenodd" d="M55.994 115.436C56.0841 122.189 52.7307 127.696 48.53 127.751C44.3293 127.805 40.8678 122.334 40.7776 115.635C40.6875 108.936 44.0408 103.374 48.2416 103.32C52.4423 103.266 55.9038 108.701 55.994 115.436Z" fill="#B96A00"/>
<path fill-rule="evenodd" clip-rule="evenodd" d="M55.9038 115.436C55.9038 122.117 52.6947 127.552 48.53 127.606C44.3654 127.66 40.9579 122.298 40.8678 115.635C40.7776 108.972 44.0769 103.519 48.2415 103.465C52.4062 103.41 55.8137 108.773 55.9038 115.436Z" fill="#BB6C00"/>
<path fill-rule="evenodd" clip-rule="evenodd" d="M55.8137 115.454C55.8137 122.027 52.6406 127.408 48.6022 127.462C44.5637 127.516 41.1202 122.207 41.0301 115.635C40.9399 109.062 44.2031 103.681 48.2416 103.627C52.2801 103.573 55.8137 108.864 55.8137 115.454Z" fill="#BD6E00"/>
<path fill-rule="evenodd" clip-rule="evenodd" d="M55.8137 115.454C55.8137 121.954 52.6767 127.263 48.6022 127.299C44.5276 127.335 41.2104 122.135 41.1202 115.635C41.0301 109.134 44.2572 103.826 48.3317 103.771C52.4063 103.717 55.6334 108.954 55.8137 115.454Z" fill="#BF7000"/>
<path fill-rule="evenodd" clip-rule="evenodd" d="M55.6334 115.454C55.6334 121.864 52.5324 127.1 48.53 127.155C44.5276 127.209 41.2283 122.044 41.1382 115.634C41.048 109.224 44.2392 103.97 48.2416 103.916C52.244 103.862 55.5432 109.026 55.6334 115.454Z" fill="#C17200"/>
<path fill-rule="evenodd" clip-rule="evenodd" d="M55.5252 115.454C55.5252 121.792 52.4784 126.956 48.5301 127.01C44.5817 127.064 41.3185 121.954 41.3185 115.635C41.3185 109.315 44.3654 104.114 48.3137 104.06C52.262 104.006 55.4531 109.116 55.5252 115.454Z" fill="#C37300"/>
<path fill-rule="evenodd" clip-rule="evenodd" d="M55.4351 115.454C55.5252 121.702 52.4243 126.812 48.5301 126.866C44.6358 126.92 41.3185 121.882 41.3185 115.635C41.3185 109.387 44.3293 104.259 48.2235 104.205C52.1178 104.151 55.363 109.188 55.4351 115.454Z" fill="#C57500"/>
<path fill-rule="evenodd" clip-rule="evenodd" d="M55.3449 115.454C55.3449 121.629 52.3702 126.667 48.53 126.721C44.6899 126.775 41.4988 121.792 41.4266 115.616C41.3545 109.441 44.4014 104.403 48.2415 104.367C52.0817 104.331 55.2728 109.279 55.3449 115.454Z" fill="#C77700"/>
<path d="M48.5354 126.571C52.3287 126.524 55.3427 121.547 55.2673 115.455C55.1919 109.362 52.0557 104.461 48.2624 104.508C44.469 104.555 41.455 109.532 41.5304 115.625C41.6058 121.718 44.742 126.619 48.5354 126.571Z" fill="#C97900"/>
<path fill-rule="evenodd" clip-rule="evenodd" d="M55.1646 115.454C55.1646 121.467 52.262 126.378 48.512 126.414C44.762 126.45 41.679 121.629 41.6069 115.58C41.5348 109.531 44.5096 104.746 48.2596 104.62C52.0096 104.494 55.0925 109.441 55.1646 115.454Z" fill="#CB7A00"/>
<path fill-rule="evenodd" clip-rule="evenodd" d="M55.0745 115.454C55.0745 121.376 52.2079 126.288 48.512 126.288C44.8161 126.288 41.7692 121.575 41.6971 115.634C41.625 109.694 44.5637 104.801 48.2596 104.801C51.9555 104.801 55.0024 109.549 55.0745 115.454Z" fill="#CC7C00"/>
<path fill-rule="evenodd" clip-rule="evenodd" d="M54.9843 115.454C54.9843 121.304 52.1538 126.071 48.512 126.125C44.8701 126.18 41.8593 121.467 41.7872 115.616C41.7151 109.766 44.6177 104.999 48.2596 104.945C51.9014 104.891 54.9122 109.549 54.9843 115.454Z" fill="#CE7D00"/>
<path d="M48.51 125.976C52.1042 125.931 54.9601 121.223 54.8888 115.459C54.8175 109.696 51.8459 105.059 48.2517 105.104C44.6575 105.149 41.8016 109.857 41.8729 115.621C41.9443 121.384 44.9158 126.02 48.51 125.976Z" fill="#D07F00"/>
<path fill-rule="evenodd" clip-rule="evenodd" d="M54.8041 115.454C54.8041 121.142 52.0457 125.782 48.512 125.818C44.9784 125.854 42.0397 121.304 41.9676 115.616C41.8954 109.929 44.726 105.288 48.2596 105.252C51.7933 105.216 54.732 109.784 54.8041 115.454Z" fill="#D28100"/>
<path fill-rule="evenodd" clip-rule="evenodd" d="M54.6959 115.454C54.6959 121.052 52.0096 125.638 48.512 125.674C45.0144 125.71 42.1298 121.214 42.0757 115.617C42.0216 110.019 44.78 105.433 48.2596 105.397C51.7392 105.361 54.6418 109.857 54.6959 115.454Z" fill="#D38200"/>
<path fill-rule="evenodd" clip-rule="evenodd" d="M54.6058 115.454C54.6058 120.979 51.9555 125.494 48.512 125.53C45.0685 125.566 42.2199 121.142 42.1659 115.617C42.1118 110.091 44.8161 105.595 48.2596 105.541C51.7031 105.487 54.5517 109.947 54.6058 115.454Z" fill="#D58400"/>
<path fill-rule="evenodd" clip-rule="evenodd" d="M54.5156 115.454C54.5156 120.871 51.9014 125.349 48.512 125.385C45.1225 125.421 42.3281 121.051 42.256 115.616C42.1838 110.181 44.8701 105.739 48.2596 105.685C51.649 105.631 54.4435 110.019 54.5156 115.454Z" fill="#D68500"/>
<path fill-rule="evenodd" clip-rule="evenodd" d="M54.4255 115.472C54.4255 120.889 51.8473 125.186 48.512 125.24C45.1767 125.295 42.4183 120.961 42.3461 115.616C42.274 110.272 44.9964 105.938 48.2596 105.938C51.5228 105.938 54.3533 110.109 54.4255 115.472Z" fill="#D88600"/>
<path fill-rule="evenodd" clip-rule="evenodd" d="M54.3353 115.472C54.3353 120.745 51.7933 125.042 48.512 125.078C45.2308 125.114 42.5084 120.889 42.4363 115.617C42.3642 110.344 44.9784 106.029 48.2596 105.992C51.5409 105.956 54.2632 110.2 54.3353 115.472Z" fill="#D98800"/>
<path fill-rule="evenodd" clip-rule="evenodd" d="M54.2452 115.472C54.2452 120.654 51.7391 124.898 48.4939 124.934C45.2488 124.97 42.5985 120.799 42.5264 115.616C42.4543 110.434 45.0324 106.173 48.2776 106.137C51.5228 106.101 54.173 110.272 54.2452 115.472Z" fill="#DB8900"/>
<path fill-rule="evenodd" clip-rule="evenodd" d="M54.1551 115.472C54.1551 120.582 51.6851 124.753 48.494 124.789C45.3029 124.825 42.6887 120.727 42.6166 115.616C42.5445 110.506 45.0866 106.317 48.2777 106.281C51.4688 106.245 54.0108 110.362 54.1551 115.472Z" fill="#DC8A00"/>
<path fill-rule="evenodd" clip-rule="evenodd" d="M54.0108 115.472C54.0108 120.492 51.5769 124.609 48.4399 124.645C45.3029 124.681 42.7247 120.636 42.6526 115.616C42.5805 110.597 45.0865 106.48 48.2235 106.426C51.3606 106.371 54.0108 110.434 54.0108 115.472Z" fill="#DE8C00"/>
<path fill-rule="evenodd" clip-rule="evenodd" d="M54.0108 115.472C54.0108 120.42 51.6129 124.5 48.6021 124.5C45.5913 124.5 42.9771 120.546 42.923 115.599C42.869 110.651 45.3029 106.57 48.3317 106.57C51.3605 106.57 53.9026 110.525 54.0108 115.472Z" fill="#DF8D00"/>
<path d="M48.4899 124.351C51.5166 124.313 53.9214 120.338 53.8612 115.472C53.801 110.606 51.2986 106.692 48.2719 106.729C45.2452 106.767 42.8403 110.742 42.9005 115.608C42.9607 120.474 45.4632 124.389 48.4899 124.351Z" fill="#E08E00"/>
<path fill-rule="evenodd" clip-rule="evenodd" d="M53.7765 115.472C53.7765 120.257 51.4688 124.157 48.494 124.193C45.5193 124.23 43.0854 120.384 42.9952 115.599C42.9051 110.814 45.3029 106.913 48.2777 106.877C51.2525 106.841 53.7224 110.687 53.7765 115.472Z" fill="#E28F00"/>
<path fill-rule="evenodd" clip-rule="evenodd" d="M53.6863 115.472C53.6863 120.167 51.4147 124.013 48.494 124.049C45.5733 124.085 43.0853 120.311 43.0853 115.598C43.0853 110.886 45.357 107.058 48.2776 107.021C51.1983 106.985 53.6322 110.777 53.6863 115.472Z" fill="#E39000"/>
<path fill-rule="evenodd" clip-rule="evenodd" d="M53.5962 115.472C53.5962 120.095 51.3606 123.868 48.494 123.905C45.6274 123.941 43.2296 120.293 43.1755 115.598C43.1214 110.904 45.4111 107.202 48.2777 107.166C51.1443 107.13 53.5421 110.85 53.5962 115.472Z" fill="#E49200"/>
<path fill-rule="evenodd" clip-rule="evenodd" d="M53.5059 115.472C53.5059 120.004 51.3064 123.724 48.4939 123.76C45.6814 123.796 43.3196 120.149 43.2655 115.599C43.2115 111.048 45.4651 107.365 48.2776 107.329C51.0901 107.293 53.4519 110.94 53.5059 115.472Z" fill="#E59300"/>
<path fill-rule="evenodd" clip-rule="evenodd" d="M53.4159 115.472C53.4159 119.932 51.2704 123.579 48.494 123.616C45.7176 123.652 43.4099 120.004 43.3558 115.598C43.3017 111.193 45.5012 107.509 48.2777 107.473C51.0541 107.437 53.3618 111.012 53.4159 115.472Z" fill="#E79400"/>
<path d="M48.4789 123.466C51.207 123.432 53.3745 119.856 53.3204 115.479C53.2662 111.101 51.0108 107.58 48.2828 107.614C45.5548 107.648 43.3872 111.224 43.4413 115.601C43.4955 119.979 45.7509 123.5 48.4789 123.466Z" fill="#E89500"/>
<path fill-rule="evenodd" clip-rule="evenodd" d="M53.2356 115.472C53.2356 119.77 51.1622 123.273 48.476 123.309C45.7897 123.345 43.5902 119.896 43.5361 115.599C43.482 111.301 45.6094 107.798 48.2957 107.762C50.982 107.726 53.1815 111.193 53.2356 115.472Z" fill="#E99600"/>
<path fill-rule="evenodd" clip-rule="evenodd" d="M53.1454 115.472C53.1454 119.697 51.1081 123.128 48.4759 123.164C45.8437 123.2 43.6803 119.806 43.6442 115.598C43.6082 111.391 45.6635 107.942 48.2957 107.906C50.9279 107.87 53.0913 111.355 53.1454 115.472Z" fill="#EA9700"/>
<path fill-rule="evenodd" clip-rule="evenodd" d="M53.0373 115.472C53.0373 119.607 51.0541 122.984 48.4759 123.02C45.8978 123.056 43.7704 119.734 43.7344 115.599C43.6983 111.464 45.7175 108.087 48.2957 108.069C50.8738 108.051 53.0012 111.355 53.0373 115.472Z" fill="#EB9800"/>
<path fill-rule="evenodd" clip-rule="evenodd" d="M52.9471 115.49C52.9471 119.535 51 122.839 48.4759 122.875C45.9519 122.911 43.8786 119.643 43.8245 115.653C43.7704 111.662 45.7716 108.304 48.2957 108.267C50.8197 108.231 52.893 111.355 52.9471 115.49Z" fill="#EC9900"/>
<path fill-rule="evenodd" clip-rule="evenodd" d="M52.8569 115.49C52.8569 119.445 50.9458 122.713 48.4759 122.713C46.0059 122.713 43.9687 119.553 43.9146 115.599C43.8605 111.644 45.8257 108.376 48.2956 108.376C50.7656 108.376 52.8028 111.518 52.8569 115.49Z" fill="#ED9900"/>
<path fill-rule="evenodd" clip-rule="evenodd" d="M52.7668 115.49C52.7668 119.372 50.9639 122.532 48.4759 122.568C45.9879 122.604 44.0588 119.481 44.0048 115.598C43.9507 111.716 45.8076 108.538 48.2956 108.502C50.7836 108.466 52.7127 111.608 52.7668 115.49Z" fill="#EE9A00"/>
<path fill-rule="evenodd" clip-rule="evenodd" d="M52.6766 115.49C52.6766 119.282 50.8737 122.388 48.4759 122.424C46.078 122.46 44.149 119.39 44.0949 115.598C44.0408 111.806 45.8978 108.683 48.2956 108.647C50.6934 108.61 52.6225 111.68 52.6766 115.49Z" fill="#EF9B00"/>
<path fill-rule="evenodd" clip-rule="evenodd" d="M52.5865 115.49C52.5865 119.21 50.7836 122.243 48.4759 122.279C46.1683 122.315 44.2392 119.318 44.1851 115.598C44.131 111.879 45.988 108.827 48.2957 108.809C50.6034 108.791 52.5325 111.77 52.5865 115.49Z" fill="#F09C00"/>
<path fill-rule="evenodd" clip-rule="evenodd" d="M52.4964 115.49C52.4964 119.102 50.6935 122.099 48.4759 122.135C46.2584 122.171 44.3293 119.228 44.2752 115.58C44.2211 111.933 46.0781 108.972 48.3137 108.954C50.5493 108.936 52.4423 111.843 52.4964 115.49Z" fill="#F09D00"/>
<path fill-rule="evenodd" clip-rule="evenodd" d="M52.4062 115.49C52.4062 119.102 50.6033 121.955 48.4579 121.973C46.3125 121.991 44.4194 119.138 44.3653 115.581C44.3113 112.023 46.1682 109.134 48.3137 109.098C50.4591 109.062 52.3521 111.933 52.4062 115.49Z" fill="#F19D00"/>
<path d="M48.4769 121.841C50.6374 121.814 52.3539 118.971 52.3109 115.491C52.2678 112.011 50.4815 109.212 48.3209 109.239C46.1604 109.265 44.4439 112.108 44.487 115.588C44.53 119.069 46.3164 121.868 48.4769 121.841Z" fill="#F29E00"/>
<path fill-rule="evenodd" clip-rule="evenodd" d="M52.2079 115.49C52.2079 118.885 50.5853 121.647 48.4579 121.684C46.3305 121.72 44.5997 118.975 44.5636 115.58C44.5276 112.186 46.2043 109.423 48.3136 109.387C50.423 109.351 52.2079 112.096 52.2079 115.49Z" fill="#F39F00"/>
<path fill-rule="evenodd" clip-rule="evenodd" d="M52.2079 115.49C52.2079 118.794 50.6214 121.503 48.6021 121.539C46.5829 121.575 44.8341 118.903 44.798 115.58C44.762 112.258 46.3846 109.567 48.4038 109.549C50.423 109.531 52.0817 112.186 52.2079 115.49Z" fill="#F4A000"/>
<path fill-rule="evenodd" clip-rule="evenodd" d="M52.0276 115.49C52.0276 118.722 50.4771 121.359 48.4218 121.395C46.3666 121.431 44.8161 118.813 44.7079 115.58C44.5997 112.348 46.2584 109.712 48.3137 109.694C50.369 109.676 51.9916 112.258 52.0276 115.49Z" fill="#F4A000"/>
<path fill-rule="evenodd" clip-rule="evenodd" d="M51.9375 115.49C51.9375 118.65 50.423 121.214 48.4579 121.232C46.4927 121.25 44.8521 118.722 44.8521 115.58C44.8521 112.439 46.3666 109.857 48.3317 109.838C50.2968 109.82 51.9014 112.348 51.9375 115.49Z" fill="#F5A100"/>
<path fill-rule="evenodd" clip-rule="evenodd" d="M51.8474 115.49C51.8474 118.56 50.369 121.07 48.4579 121.088C46.5469 121.106 44.9603 118.65 44.8522 115.58C44.744 112.511 46.3305 110.001 48.2416 109.983C50.1526 109.965 51.8113 112.42 51.8474 115.49Z" fill="#F6A100"/>
<path fill-rule="evenodd" clip-rule="evenodd" d="M51.7572 115.49C51.7572 118.487 50.3149 120.907 48.4579 120.907C46.601 120.907 45.0505 118.523 45.0144 115.49C44.9784 112.456 46.4567 110.073 48.3137 110.073C50.1707 110.073 51.7212 112.511 51.7572 115.49Z" fill="#F6A200"/>
<path fill-rule="evenodd" clip-rule="evenodd" d="M51.667 115.49C51.667 118.397 50.2608 120.781 48.4579 120.799C46.655 120.817 45.1406 118.488 45.1045 115.58C45.0685 112.673 46.5108 110.308 48.3137 110.29C50.1166 110.272 51.631 112.601 51.667 115.49Z" fill="#F7A300"/>
<path fill-rule="evenodd" clip-rule="evenodd" d="M51.5769 115.49C51.5769 118.325 50.2067 120.618 48.4579 120.654C46.7091 120.69 45.2308 118.397 45.1947 115.58C45.1586 112.764 46.5649 110.452 48.3317 110.434C50.0986 110.416 51.5408 112.673 51.5769 115.49Z" fill="#F7A300"/>
<path fill-rule="evenodd" clip-rule="evenodd" d="M51.4687 115.508C51.4687 118.235 50.1526 120.474 48.4399 120.492C46.7271 120.51 45.3209 118.307 45.3028 115.58C45.2848 112.854 46.6189 110.597 48.3317 110.579C50.0444 110.561 51.4507 112.764 51.4687 115.508Z" fill="#F8A400"/>
<path fill-rule="evenodd" clip-rule="evenodd" d="M51.3786 115.508C51.3786 118.163 50.0986 120.329 48.4399 120.347C46.7813 120.366 45.4291 118.235 45.393 115.58C45.357 112.926 46.6731 110.741 48.3317 110.723C49.9904 110.705 51.3425 112.836 51.3786 115.508Z" fill="#F9A400"/>
<path fill-rule="evenodd" clip-rule="evenodd" d="M51.2885 115.508C51.2885 118.072 50.0445 120.185 48.4399 120.203C46.8353 120.221 45.5192 118.144 45.4832 115.58C45.4471 113.016 46.7272 110.886 48.3317 110.868C49.9363 110.849 51.2524 112.926 51.2885 115.508Z" fill="#F9A500"/>
<path fill-rule="evenodd" clip-rule="evenodd" d="M51.1983 115.508C51.1983 118 49.9904 120.04 48.4399 120.058C46.8894 120.077 45.6094 118.072 45.5733 115.58C45.5373 113.089 46.7813 111.048 48.3317 111.03C49.8822 111.012 51.1623 113.016 51.1983 115.508Z" fill="#FAA500"/>
<path fill-rule="evenodd" clip-rule="evenodd" d="M51.1082 115.508C51.1082 117.91 49.9363 119.896 48.4399 119.914C46.9435 119.932 45.6995 117.982 45.6634 115.58C45.6274 113.179 46.8353 111.193 48.3317 111.175C49.8281 111.157 51.0721 113.161 51.1082 115.508Z" fill="#FAA500"/>
<path d="M48.4331 119.783C49.8868 119.765 51.0417 117.859 51.0129 115.525C50.984 113.192 49.7822 111.315 48.3286 111.333C46.875 111.351 45.72 113.257 45.7488 115.591C45.7777 117.924 46.9795 119.801 48.4331 119.783Z" fill="#FAA600"/>
<path fill-rule="evenodd" clip-rule="evenodd" d="M50.9279 115.508C50.9279 117.747 49.8461 119.589 48.4399 119.607C47.0336 119.625 45.8798 117.801 45.8437 115.562C45.8077 113.323 46.9435 111.482 48.3317 111.464C49.7199 111.445 50.8918 113.251 50.9279 115.508Z" fill="#FBA600"/>
<path fill-rule="evenodd" clip-rule="evenodd" d="M50.8378 115.508C50.8378 117.675 49.7921 119.445 48.4399 119.463C47.0878 119.481 45.97 117.657 45.9339 115.562C45.8978 113.468 46.9796 111.626 48.3317 111.608C49.6839 111.59 50.8017 113.341 50.8378 115.508Z" fill="#FBA700"/>
<path fill-rule="evenodd" clip-rule="evenodd" d="M50.7475 115.508C50.7475 117.603 49.7379 119.3 48.4398 119.318C47.1418 119.336 46.06 117.657 46.042 115.562C46.024 113.468 47.0336 111.771 48.3317 111.771C49.6297 111.771 50.7115 113.432 50.7475 115.508Z" fill="#FCA700"/>
<path fill-rule="evenodd" clip-rule="evenodd" d="M50.6394 115.508C50.6394 117.512 49.6839 119.119 48.4399 119.119C47.1959 119.119 46.1502 117.512 46.1322 115.508C46.1142 113.504 47.0877 111.897 48.3498 111.897C49.6118 111.897 50.6214 113.504 50.6394 115.508Z" fill="#FCA700"/>
<path fill-rule="evenodd" clip-rule="evenodd" d="M50.5493 115.508C50.5493 117.44 49.6298 119.011 48.4219 119.011C47.2139 119.011 46.2404 117.494 46.2223 115.562C46.2043 113.63 47.1418 112.078 48.3498 112.059C49.5577 112.041 50.5313 113.594 50.5493 115.508Z" fill="#FCA700"/>
<path fill-rule="evenodd" clip-rule="evenodd" d="M50.405 115.508C50.405 117.314 49.5216 118.849 48.3677 118.867C47.2139 118.885 46.2764 117.404 46.2584 115.562C46.2403 113.721 47.1418 112.222 48.2956 112.204C49.4495 112.186 50.405 113.666 50.405 115.508Z" fill="#FDA800"/>
<path fill-rule="evenodd" clip-rule="evenodd" d="M50.405 115.508C50.405 117.314 49.5577 118.704 48.4579 118.722C47.3582 118.74 46.4567 117.314 46.4387 115.562C46.4207 113.811 47.2861 112.366 48.3858 112.348C49.4856 112.33 50.405 113.757 50.405 115.508Z" fill="#FDA800"/>
<path fill-rule="evenodd" clip-rule="evenodd" d="M50.2789 115.508C50.2789 117.187 49.4676 118.56 48.476 118.578C47.4844 118.596 46.5649 117.242 46.5469 115.562C46.5289 113.883 47.3582 112.511 48.3498 112.511C49.3414 112.511 50.2608 113.847 50.2789 115.508Z" fill="#FDA800"/>
<path fill-rule="evenodd" clip-rule="evenodd" d="M50.1887 115.508C50.1887 117.115 49.4134 118.415 48.3858 118.433C47.3582 118.451 46.5829 117.151 46.5829 115.562C46.5829 113.973 47.3582 112.655 48.3858 112.655C49.4134 112.655 50.1707 113.919 50.1887 115.508Z" fill="#FDA800"/>
<path fill-rule="evenodd" clip-rule="evenodd" d="M50.0985 115.508C50.0985 117.025 49.3593 118.271 48.4218 118.271C47.4843 118.271 46.6189 117.079 46.6189 115.562C46.6189 114.046 47.3581 112.818 48.2956 112.8C49.2331 112.782 50.0805 114.01 50.0985 115.508Z" fill="#FEA900"/>
<path fill-rule="evenodd" clip-rule="evenodd" d="M50.0084 115.526C50.0084 116.953 49.3052 118.126 48.4218 118.126C47.5384 118.126 46.7812 116.989 46.7632 115.562C46.7451 114.136 47.4663 112.962 48.3497 112.944C49.2331 112.926 49.9904 114.082 50.0084 115.526Z" fill="#FEA900"/>
<path fill-rule="evenodd" clip-rule="evenodd" d="M49.9002 115.526C49.9002 116.862 49.2512 117.964 48.4218 117.982C47.5925 118 46.8713 116.899 46.8713 115.562C46.8713 114.226 47.5204 113.107 48.3497 113.089C49.1791 113.071 49.9002 114.172 49.9002 115.526Z" fill="#FEA900"/>
<path fill-rule="evenodd" clip-rule="evenodd" d="M49.8101 115.526C49.8101 116.79 49.1971 117.819 48.4218 117.837C47.6466 117.855 46.9795 116.826 46.9615 115.562C46.9435 114.298 47.5745 113.251 48.3497 113.251C49.125 113.251 49.792 114.244 49.8101 115.526Z" fill="#FEA900"/>
<path fill-rule="evenodd" clip-rule="evenodd" d="M49.7199 115.526C49.7199 116.7 49.143 117.675 48.4038 117.693C47.6646 117.711 47.0697 116.736 47.0517 115.562C47.0336 114.389 47.6286 113.396 48.3678 113.396C49.1069 113.396 49.7019 114.334 49.7199 115.526Z" fill="#FEA900"/>
<path fill-rule="evenodd" clip-rule="evenodd" d="M49.6298 115.526C49.6298 116.628 49.1069 117.531 48.4038 117.531C47.7007 117.531 47.1598 116.664 47.1418 115.562C47.1238 114.461 47.6646 113.54 48.3678 113.54C49.0709 113.54 49.6118 114.425 49.6298 115.526Z" fill="#FEA900"/>
<path fill-rule="evenodd" clip-rule="evenodd" d="M49.5397 115.526C49.5397 116.556 49.0529 117.332 48.4038 117.332C47.7548 117.332 47.25 116.519 47.232 115.526C47.2139 114.533 47.7187 113.721 48.3678 113.721C49.0168 113.721 49.5216 114.497 49.5397 115.526Z" fill="#FFAA00"/>
<path fill-rule="evenodd" clip-rule="evenodd" d="M49.4495 115.526C49.4495 116.465 48.9988 117.242 48.4039 117.242C47.8089 117.242 47.3401 116.501 47.3221 115.544C47.3041 114.587 47.7728 113.847 48.3678 113.829C48.9627 113.811 49.4315 114.587 49.4495 115.526Z" fill="#FFAA00"/>
<path fill-rule="evenodd" clip-rule="evenodd" d="M49.3594 115.526C49.3594 116.393 48.9447 117.079 48.4038 117.097C47.863 117.115 47.4303 116.411 47.4123 115.544C47.3942 114.677 47.8269 113.991 48.3678 113.973C48.9086 113.955 49.3413 114.659 49.3594 115.526Z" fill="#FFAA00"/>
<path fill-rule="evenodd" clip-rule="evenodd" d="M49.2692 115.526C49.2692 116.303 48.8906 116.935 48.4038 116.953C47.917 116.971 47.5204 116.321 47.5024 115.544C47.4843 114.768 47.881 114.136 48.3677 114.136C48.8545 114.136 49.2512 114.75 49.2692 115.526Z" fill="#FFAA00"/>
<path fill-rule="evenodd" clip-rule="evenodd" d="M49.1791 115.526C49.1791 116.23 48.8365 116.79 48.4038 116.79C47.9711 116.79 47.6106 116.248 47.5925 115.544C47.5745 114.84 47.9351 114.28 48.3677 114.28C48.8004 114.28 49.161 114.84 49.1791 115.526Z" fill="#FFAA00"/>
<path fill-rule="evenodd" clip-rule="evenodd" d="M49.0709 115.526C49.0709 116.14 48.7824 116.646 48.4038 116.646C48.0252 116.646 47.7007 116.158 47.7007 115.544C47.7007 114.93 47.9892 114.425 48.3678 114.425C48.7464 114.425 49.0709 114.966 49.0709 115.526Z" fill="#FFAA00"/>
<path fill-rule="evenodd" clip-rule="evenodd" d="M48.9807 115.526C48.9807 116.068 48.7283 116.501 48.4038 116.501C48.0793 116.501 47.7908 116.086 47.7908 115.544C47.7908 115.003 48.0432 114.587 48.3677 114.569C48.6923 114.551 48.9807 114.967 48.9807 115.526Z" fill="#FFAA00"/>
<path fill-rule="evenodd" clip-rule="evenodd" d="M48.8906 115.526C48.8906 115.978 48.6742 116.357 48.4038 116.357C48.1334 116.357 47.881 115.996 47.881 115.544C47.881 115.093 48.0973 114.732 48.3677 114.714C48.6382 114.696 48.8906 115.075 48.8906 115.526Z" fill="#FFAA00"/>
<path fill-rule="evenodd" clip-rule="evenodd" d="M48.8005 115.526C48.8005 115.905 48.6202 116.194 48.3858 116.212C48.1515 116.23 47.9712 115.905 47.9712 115.544C47.9712 115.183 48.1515 114.876 48.3858 114.876C48.6202 114.876 48.8005 115.165 48.8005 115.526Z" fill="#FFAA00"/>
<path fill-rule="evenodd" clip-rule="evenodd" d="M48.7103 115.526C48.7103 115.815 48.5661 116.05 48.3858 116.05C48.2055 116.05 48.0613 115.833 48.0613 115.544C48.0613 115.255 48.2055 115.021 48.3858 115.021C48.5661 115.021 48.7103 115.255 48.7103 115.526Z" fill="#FFAA00"/>
<path fill-rule="evenodd" clip-rule="evenodd" d="M48.6021 115.544C48.6021 115.743 48.494 115.905 48.3677 115.905C48.2415 115.905 48.1334 115.743 48.1334 115.544C48.1334 115.346 48.2415 115.165 48.3677 115.165C48.494 115.165 48.6021 115.328 48.6021 115.544Z" fill="#FFAA00"/>
<path fill-rule="evenodd" clip-rule="evenodd" d="M48.6021 115.544C48.6021 115.653 48.6021 115.761 48.4579 115.761C48.3137 115.761 48.3137 115.671 48.3137 115.544C48.3137 115.418 48.3137 115.31 48.4579 115.31C48.6021 115.31 48.6021 115.418 48.6021 115.544Z" fill="#FFAA00"/>
<path style="mix-blend-mode:screen" fill-rule="evenodd" clip-rule="evenodd" d="M53.3979 111.987C53.3979 117.115 50.982 121.268 47.9892 121.268C44.9964 121.268 42.5806 117.115 42.5806 111.987C42.5806 106.859 44.9964 102.706 47.9892 102.706C50.982 102.706 53.3979 106.859 53.3979 111.987Z" fill="url(#paint5_radial_6_3715)"/>
<path fill-rule="evenodd" clip-rule="evenodd" d="M51.8113 111.987C51.8113 115.598 50.0985 118.542 47.9892 118.542C45.8798 118.542 44.167 115.617 44.167 111.987C44.167 108.358 45.9699 105.433 47.9892 105.433C50.0084 105.433 51.8113 108.376 51.8113 111.987Z" fill="url(#paint6_radial_6_3715)"/>
<path fill-rule="evenodd" clip-rule="evenodd" d="M263.001 116.916C262.659 116.736 260.243 115.472 255.663 112.511L255.122 112.131C254.185 111.554 253.175 110.886 252.094 110.145C252.094 110.145 252.094 110.145 252.004 110.055C251.925 110.018 251.852 109.969 251.787 109.911C248.434 107.672 244.359 104.746 239.51 101.063C239.51 101.063 238.193 100.521 235.471 103.753C232.749 106.985 206.084 152.271 149.564 168.486C106.727 180.783 71.5168 174.029 51.8293 163.466C46.5133 160.823 41.7806 157.139 37.9111 152.632C38.7736 150.322 40.4374 148.399 42.5985 147.215C47.5487 135.917 50.472 123.833 51.2344 111.518C51.9555 92.7387 55.9219 70.3846 62.7548 61.7175C62.7548 61.7175 95.8918 34.1992 154.486 41.8552C171.839 43.9502 188.823 48.4155 204.966 55.1268L205.237 55.2352L206.012 55.5782L207.202 56.1018C209.257 57.0047 211.222 57.9075 213.043 58.8465L215.495 60.0743C230.531 67.9289 237.58 75.0252 238.59 75.0252C239.311 75.0252 243.223 71.5583 249.173 66.665L249.696 66.2316C259.612 58.1242 274.936 46.4597 290.946 40.501V40.6273C291.857 68.7236 281.838 96.0762 263.001 116.916Z" fill="url(#paint7_radial_6_3715)"/>
<path style="mix-blend-mode:multiply" opacity="0.74" fill-rule="evenodd" clip-rule="evenodd" d="M74.8161 68.9401C65.8017 74.953 60.393 88.0801 63.2235 103.374C66.0541 118.668 83.6682 122.478 99.2812 115.887C114.894 109.297 118.482 89.651 110.748 77.192C108.977 74.235 106.629 71.6666 103.843 69.6409C101.057 67.6151 97.8917 66.1737 94.5362 65.4031C91.1808 64.6325 87.7045 64.5486 84.3158 65.1564C80.9272 65.7641 77.696 67.0511 74.8161 68.9401Z" fill="url(#paint8_linear_6_3715)"/>
<path d="M110.084 99.466C112.932 87.3109 105.403 75.1444 93.267 72.2912C81.1306 69.438 68.9828 76.9787 66.134 89.1337C63.2852 101.289 70.8143 113.455 82.9506 116.308C95.087 119.162 107.235 111.621 110.084 99.466Z" fill="url(#paint9_radial_6_3715)"/>
<path d="M93.7516 114.634C101.846 114.576 108.365 108.466 108.312 100.987C108.258 93.5079 101.653 87.492 93.5581 87.55C85.4632 87.608 78.9443 93.718 78.9978 101.197C79.0512 108.676 85.6567 114.692 93.7516 114.634Z" fill="#A45700"/>
<path fill-rule="evenodd" clip-rule="evenodd" d="M108.097 101.008C108.097 108.412 101.715 114.443 93.6743 114.515C85.6334 114.587 79.143 108.61 79.089 101.207C79.0349 93.8039 85.4712 87.773 93.512 87.7189C101.553 87.6647 108.097 93.6053 108.097 101.008Z" fill="#A65900"/>
<path d="M93.7676 114.345C101.683 114.288 108.058 108.309 108.005 100.989C107.953 93.6696 101.494 87.782 93.5782 87.8387C85.6625 87.8954 79.288 93.8751 79.3403 101.195C79.3926 108.514 85.8519 114.402 93.7676 114.345Z" fill="#A95B00"/>
<path fill-rule="evenodd" clip-rule="evenodd" d="M107.809 101.008C107.809 108.231 101.553 114.154 93.7284 114.208C85.9039 114.262 79.5036 108.448 79.4495 101.207C79.3954 93.9664 85.7056 88.0619 93.5301 88.0077C101.355 87.9535 107.755 93.7677 107.809 101.008Z" fill="#AB5E00"/>
<path fill-rule="evenodd" clip-rule="evenodd" d="M107.647 101.009C107.647 108.231 101.463 114.009 93.7284 114.063C85.994 114.118 79.6659 108.358 79.6118 101.207C79.5578 94.0568 85.7957 88.2064 93.5301 88.1522C101.265 88.0981 107.593 93.8581 107.647 101.009Z" fill="#AE6000"/>
<path fill-rule="evenodd" clip-rule="evenodd" d="M107.484 101.008C107.484 108.087 101.373 113.865 93.7284 113.919C86.0841 113.973 79.8282 108.285 79.7741 101.279C79.72 94.2733 85.8858 88.423 93.5301 88.3688C101.174 88.3146 107.43 93.9302 107.484 101.008Z" fill="#B06200"/>
<path d="M93.7273 113.767C101.284 113.713 107.37 108.002 107.32 101.012C107.27 94.0215 101.104 88.3985 93.5464 88.4527C85.9892 88.5069 79.9033 94.2176 79.9533 101.208C80.0032 108.199 86.17 113.822 93.7273 113.767Z" fill="#B26400"/>
<path fill-rule="evenodd" clip-rule="evenodd" d="M107.16 101.008C107.16 107.924 101.192 113.648 93.7103 113.648C90.2643 113.805 86.8967 112.588 84.3453 110.262C81.7939 107.937 80.2668 104.694 80.0986 101.243C80.0986 94.3275 86.0661 88.6938 93.5481 88.6035C96.9928 88.4513 100.358 89.6704 102.908 91.9947C105.458 94.3189 106.987 97.5593 107.16 101.008Z" fill="#B56600"/>
<path fill-rule="evenodd" clip-rule="evenodd" d="M106.998 101.009C106.998 107.834 101.102 113.414 93.7103 113.468C90.3056 113.62 86.9793 112.415 84.4588 110.118C81.9384 107.82 80.429 104.616 80.2608 101.207C80.2608 94.3818 86.1563 88.8024 93.5481 88.7482C96.9528 88.596 100.279 89.8005 102.8 92.098C105.32 94.3956 106.829 97.5994 106.998 101.009Z" fill="#B76800"/>
<path fill-rule="evenodd" clip-rule="evenodd" d="M106.835 101.009C106.722 104.384 105.277 107.576 102.816 109.885C100.355 112.194 97.0805 113.43 93.7103 113.323C86.4988 113.323 80.4591 107.906 80.4231 101.207C80.536 97.8321 81.9815 94.6397 84.4423 92.3309C86.903 90.0221 90.1779 88.7855 93.5481 88.8927C100.886 88.8385 106.799 94.2735 106.835 101.009Z" fill="#B96A00"/>
<path fill-rule="evenodd" clip-rule="evenodd" d="M106.673 101.008C106.902 103.636 106.333 106.272 105.043 108.571C103.752 110.87 101.799 112.725 99.4382 113.895C97.0778 115.065 94.42 115.494 91.8121 115.127C89.2041 114.76 86.7674 113.614 84.8203 111.838C82.8732 110.062 81.5063 107.739 80.8982 105.173C80.2902 102.606 80.4692 99.9159 81.4119 97.4531C82.3546 94.9903 84.0172 92.8696 86.1824 91.3681C88.3476 89.8666 90.9146 89.0542 93.5481 89.0369C96.869 88.8993 100.11 90.0793 102.568 92.3207C105.025 94.5622 106.5 97.684 106.673 101.008Z" fill="#BB6C00"/>
<path fill-rule="evenodd" clip-rule="evenodd" d="M106.529 101.008C106.757 103.603 106.199 106.206 104.927 108.478C103.655 110.75 101.728 112.585 99.3987 113.743C97.0692 114.9 94.4451 115.328 91.8693 114.969C89.2935 114.609 86.8857 113.48 84.9607 111.729C83.0356 109.978 81.6827 107.686 81.0788 105.152C80.4749 102.619 80.648 99.9617 81.5755 97.5283C82.503 95.0949 84.1418 92.9983 86.2778 91.5124C88.4137 90.0265 90.9475 89.2205 93.5481 89.1995C96.829 89.0569 100.034 90.2176 102.464 92.429C104.895 94.6405 106.356 97.7239 106.529 101.008Z" fill="#BD6E00"/>
<path fill-rule="evenodd" clip-rule="evenodd" d="M106.294 101.027C106.519 103.593 105.966 106.167 104.707 108.414C103.447 110.66 101.541 112.473 99.2359 113.617C96.9311 114.761 94.3354 115.182 91.7881 114.824C89.2408 114.467 86.8603 113.348 84.9579 111.614C83.0555 109.881 81.7196 107.612 81.1249 105.106C80.5301 102.6 80.7042 99.9719 81.6243 97.5662C82.5445 95.1605 84.1678 93.0889 86.2823 91.6219C88.3967 90.155 90.9038 89.3611 93.476 89.344C96.7223 89.1919 99.8961 90.3371 102.3 92.5277C104.703 94.7184 106.14 97.7753 106.294 101.027Z" fill="#BF7000"/>
<path fill-rule="evenodd" clip-rule="evenodd" d="M106.295 101.027C106.516 103.562 105.968 106.105 104.723 108.323C103.477 110.541 101.592 112.331 99.3147 113.459C97.0368 114.586 94.4722 114.999 91.9563 114.643C89.4404 114.287 87.0904 113.179 85.2138 111.463C83.3372 109.747 82.0214 107.504 81.4386 105.027C80.8557 102.55 81.033 99.9548 81.9472 97.5804C82.8614 95.206 84.4699 93.1633 86.5622 91.7195C88.6546 90.2757 91.1334 89.4981 93.6743 89.4884C96.8721 89.3559 99.9926 90.494 102.356 92.6551C104.72 94.8162 106.136 97.8251 106.295 101.027Z" fill="#C17200"/>
<path fill-rule="evenodd" clip-rule="evenodd" d="M106.042 101.027C106.26 103.528 105.719 106.036 104.491 108.224C103.262 110.413 101.403 112.179 99.1569 113.292C96.9105 114.406 94.3809 114.815 91.8987 114.466C89.4165 114.116 87.0972 113.026 85.2438 111.335C83.3905 109.645 82.0893 107.435 81.5103 104.992C80.9312 102.55 81.1013 99.9889 81.9983 97.6448C82.8953 95.3006 84.4774 93.282 86.538 91.8526C88.5985 90.4233 91.0416 89.6497 93.5481 89.6329C96.7119 89.4906 99.8031 90.6097 102.145 92.7452C104.487 94.8807 105.888 97.8585 106.042 101.027Z" fill="#C37300"/>
<path d="M93.7357 112.431C100.506 112.383 105.959 107.275 105.914 101.022C105.869 94.7696 100.345 89.7403 93.5739 89.7888C86.8033 89.8374 81.3508 94.9454 81.3955 101.198C81.4402 107.45 86.9651 112.48 93.7357 112.431Z" fill="#C57500"/>
<path fill-rule="evenodd" clip-rule="evenodd" d="M105.717 101.027C105.931 103.463 105.407 105.906 104.212 108.039C103.017 110.171 101.207 111.893 99.0198 112.979C96.8322 114.065 94.3684 114.465 91.9504 114.127C89.5323 113.788 87.2725 112.727 85.4663 111.081C83.6602 109.436 82.3917 107.283 81.8267 104.904C81.2617 102.525 81.4265 100.03 82.2995 97.7467C83.1725 95.463 84.7131 93.4961 86.7199 92.1033C88.7268 90.7105 91.1065 89.9566 93.548 89.9399C96.6288 89.7976 99.6401 90.8849 101.921 92.9633C104.203 95.0417 105.568 97.9415 105.717 101.027Z" fill="#C77700"/>
<path d="M93.7337 112.124C100.325 112.077 105.633 107.099 105.59 101.006C105.546 94.9135 100.167 90.0125 93.576 90.0597C86.9846 90.107 81.6765 95.0846 81.72 101.178C81.7636 107.27 87.1423 112.172 93.7337 112.124Z" fill="#C97900"/>
<path fill-rule="evenodd" clip-rule="evenodd" d="M105.393 101.026C105.592 103.396 105.074 105.771 103.905 107.841C102.736 109.911 100.971 111.581 98.8407 112.631C96.7102 113.681 94.3131 114.064 91.9622 113.728C89.6113 113.393 87.4159 112.356 85.6625 110.753C83.9091 109.149 82.6792 107.053 82.1333 104.738C81.5873 102.424 81.7508 99.9984 82.6022 97.7784C83.4537 95.5583 84.9537 93.6469 86.9063 92.2937C88.859 90.9404 91.1736 90.2082 93.5481 90.1925C95.0368 90.1222 96.5246 90.3469 97.9264 90.8538C99.3282 91.3606 100.616 92.1397 101.717 93.1462C102.817 94.1528 103.708 95.367 104.339 96.7192C104.97 98.0715 105.328 99.5353 105.393 101.026Z" fill="#CB7A00"/>
<path fill-rule="evenodd" clip-rule="evenodd" d="M105.231 101.027C105.434 103.365 104.928 105.709 103.78 107.755C102.631 109.8 100.893 111.451 98.7932 112.492C96.6931 113.533 94.3284 113.915 92.008 113.589C89.6877 113.262 87.5196 112.242 85.787 110.663C84.0545 109.083 82.8379 107.016 82.2965 104.733C81.7551 102.45 81.9139 100.056 82.7522 97.8645C83.5905 95.6731 85.0692 93.7858 86.9953 92.4494C88.9213 91.1129 91.205 90.3894 93.5481 90.3733C96.5062 90.2408 99.3963 91.2873 101.586 93.2839C103.775 95.2805 105.086 98.0645 105.231 101.027Z" fill="#CC7C00"/>
<path fill-rule="evenodd" clip-rule="evenodd" d="M105.087 101.027C105.29 103.336 104.792 105.653 103.66 107.674C102.527 109.696 100.812 111.329 98.7385 112.358C96.6649 113.388 94.3293 113.768 92.037 113.447C89.7446 113.126 87.6023 112.12 85.8898 110.561C84.1774 109.001 82.9747 106.96 82.4387 104.705C81.9028 102.45 82.0586 100.085 82.8859 97.9202C83.7131 95.7552 85.1733 93.8905 87.0755 92.5698C88.9778 91.2491 91.2336 90.5339 93.5481 90.5177C96.468 90.3852 99.3214 91.4165 101.484 93.3861C103.646 95.3556 104.942 98.1029 105.087 101.027Z" fill="#CE7D00"/>
<path fill-rule="evenodd" clip-rule="evenodd" d="M104.924 101.026C105.127 103.303 104.64 105.589 103.525 107.584C102.411 109.578 100.721 111.19 98.6771 112.208C96.6332 113.225 94.3303 113.601 92.0695 113.287C89.8088 112.973 87.6953 111.982 86.0056 110.446C84.3159 108.909 83.1284 106.897 82.5987 104.674C82.0689 102.45 82.2215 100.118 83.0363 97.9827C83.8511 95.8473 85.2904 94.008 87.1659 92.7051C89.0413 91.4022 91.2657 90.6964 93.5481 90.68C94.9748 90.6048 96.4024 90.8133 97.7483 91.2936C99.0941 91.774 100.332 92.5165 101.389 93.4785C102.447 94.4405 103.304 95.6028 103.911 96.8983C104.517 98.1938 104.862 99.5969 104.924 101.026Z" fill="#D07F00"/>
<path fill-rule="evenodd" clip-rule="evenodd" d="M104.762 101.027C104.962 103.271 104.48 105.523 103.381 107.489C102.282 109.455 100.616 111.043 98.6015 112.045C96.5868 113.048 94.3169 113.418 92.0887 113.108C89.8605 112.798 87.7777 111.821 86.1124 110.306C84.4472 108.791 83.2772 106.808 82.7553 104.617C82.2333 102.425 82.3839 100.127 83.1872 98.0222C83.9904 95.9176 85.409 94.1048 87.2576 92.8206C89.1061 91.5365 91.2985 90.8409 93.5481 90.8248C94.9533 90.7567 96.3582 90.9667 97.6824 91.4426C99.0066 91.9186 100.224 92.6512 101.266 93.5987C102.307 94.5461 103.152 95.6897 103.752 96.9643C104.352 98.2388 104.695 99.6193 104.762 101.027Z" fill="#D28100"/>
<path d="M93.7274 111.258C99.7811 111.214 104.656 106.636 104.616 101.031C104.576 95.4271 99.6361 90.9191 93.5824 90.9625C87.5286 91.0058 82.6535 95.5842 82.6936 101.189C82.7336 106.793 87.6736 111.301 93.7274 111.258Z" fill="#D38200"/>
<path fill-rule="evenodd" clip-rule="evenodd" d="M104.492 101.027C104.677 103.199 104.203 105.377 103.132 107.275C102.062 109.174 100.444 110.705 98.4907 111.668C96.5376 112.63 94.3397 112.981 92.1846 112.673C90.0294 112.364 88.0172 111.412 86.4111 109.94C84.805 108.468 83.6796 106.546 83.1822 104.423C82.6848 102.3 82.8385 100.077 83.6231 98.0427C84.4077 96.0089 85.7868 94.2595 87.5801 93.0232C89.3733 91.787 91.4973 91.1214 93.6743 91.1135C96.4176 91.0055 99.0927 91.9861 101.118 93.8423C103.144 95.6985 104.356 98.2803 104.492 101.027Z" fill="#D58400"/>
<path d="M93.7432 110.932C99.6277 110.89 104.366 106.45 104.328 101.015C104.289 95.5807 99.487 91.2091 93.6026 91.2513C87.7181 91.2934 82.9793 95.7334 83.0181 101.168C83.0569 106.603 87.8587 110.975 93.7432 110.932Z" fill="#D68500"/>
<path fill-rule="evenodd" clip-rule="evenodd" d="M104.113 101.027C104.298 103.137 103.843 105.253 102.808 107.1C101.773 108.947 100.205 110.438 98.3105 111.379C96.4157 112.32 94.2817 112.666 92.1873 112.373C90.0928 112.08 88.1354 111.16 86.5708 109.735C85.0062 108.31 83.9072 106.446 83.4174 104.385C82.9277 102.325 83.0698 100.164 83.8254 98.186C84.581 96.2078 85.9149 94.5039 87.6527 93.2969C89.3905 92.0898 91.4514 91.4359 93.5662 91.4205C96.2343 91.3026 98.8407 92.2465 100.817 94.0462C102.793 95.8458 103.978 98.3552 104.113 101.027Z" fill="#D88600"/>
<path d="M93.687 110.68C99.3923 110.639 103.987 106.329 103.949 101.054C103.911 95.7787 99.2558 91.5355 93.5505 91.5764C87.8453 91.6172 83.2508 95.9268 83.2885 101.202C83.3262 106.477 87.9818 110.721 93.687 110.68Z" fill="#D98800"/>
<path fill-rule="evenodd" clip-rule="evenodd" d="M103.806 101.045C103.984 103.093 103.541 105.147 102.535 106.939C101.528 108.731 100.006 110.177 98.1662 111.089C96.3264 112.001 94.2548 112.336 92.222 112.05C90.1892 111.764 88.2897 110.871 86.7717 109.487C85.2536 108.103 84.1876 106.293 83.7128 104.293C83.238 102.293 83.3766 100.196 84.1104 98.2756C84.8443 96.3556 86.1392 94.7018 87.8261 93.5304C89.513 92.359 91.5134 91.7243 93.5661 91.7093C96.159 91.5916 98.6927 92.508 100.612 94.2578C102.532 96.0076 103.68 98.4481 103.806 101.045Z" fill="#DB8900"/>
<path fill-rule="evenodd" clip-rule="evenodd" d="M103.644 101.045C103.818 103.06 103.381 105.081 102.391 106.844C101.4 108.607 99.9013 110.03 98.0906 110.927C96.28 111.823 94.2414 112.152 92.2412 111.871C90.241 111.589 88.3721 110.71 86.8786 109.347C85.385 107.985 84.3363 106.204 83.8694 104.236C83.4025 102.268 83.5391 100.204 84.2613 98.3148C84.9836 96.4255 86.2579 94.7983 87.9179 93.6457C89.5778 92.493 91.5463 91.8685 93.5661 91.8537C96.119 91.736 98.6141 92.6377 100.504 94.3609C102.393 96.0841 103.523 98.488 103.644 101.045Z" fill="#DC8A00"/>
<path d="M93.7018 110.21C99.1382 110.171 103.516 106.065 103.48 101.039C103.444 96.0135 99.0082 91.9708 93.5717 92.0098C88.1353 92.0487 83.7573 96.1546 83.7932 101.181C83.8291 106.207 88.2654 110.249 93.7018 110.21Z" fill="#DE8C00"/>
<path fill-rule="evenodd" clip-rule="evenodd" d="M103.32 101.045C103.486 102.995 103.062 104.95 102.102 106.655C101.143 108.36 99.6919 109.735 97.9395 110.602C96.1872 111.468 94.2148 111.786 92.2797 111.512C90.3446 111.238 88.5368 110.387 87.0923 109.069C85.6478 107.75 84.6338 106.026 84.1826 104.122C83.7314 102.218 83.864 100.221 84.5631 98.3935C85.2622 96.5657 86.4953 94.9915 88.1014 93.8764C89.7075 92.7613 91.6119 92.1571 93.5661 92.1427C96.0364 92.0347 98.4489 92.9105 100.277 94.5785C102.104 96.2465 103.198 98.5712 103.32 101.045Z" fill="#DF8D00"/>
<path fill-rule="evenodd" clip-rule="evenodd" d="M103.157 101.045C103.324 102.963 102.91 104.886 101.968 106.564C101.026 108.242 99.6006 109.597 97.878 110.451C96.1555 111.306 94.2157 111.62 92.3122 111.352C90.4086 111.085 88.6298 110.249 87.208 108.954C85.7862 107.658 84.7876 105.963 84.3426 104.091C83.8976 102.218 84.0268 100.254 84.7135 98.4561C85.4002 96.658 86.6124 95.1092 88.1917 94.0119C89.771 92.9146 91.644 92.3198 93.5661 92.3053C95.9946 92.1925 98.3686 93.0494 100.167 94.6879C101.965 96.3264 103.041 98.6126 103.157 101.045Z" fill="#E08E00"/>
<path fill-rule="evenodd" clip-rule="evenodd" d="M102.995 101.045C103.158 102.93 102.75 104.82 101.824 106.47C100.897 108.119 99.4959 109.45 97.8025 110.289C96.1091 111.128 94.2024 111.436 92.3314 111.173C90.4604 110.91 88.7121 110.088 87.3149 108.814C85.9176 107.541 84.9363 105.875 84.4992 104.034C84.062 102.193 84.1893 100.263 84.8644 98.4954C85.5395 96.7281 86.731 95.2057 88.2834 94.1272C89.8358 93.0487 91.6769 92.464 93.5661 92.4497C94.7488 92.3939 95.9308 92.5719 97.0448 92.9736C98.1587 93.3754 99.1827 93.9929 100.058 94.791C100.934 95.5892 101.644 96.5523 102.148 97.6253C102.652 98.6983 102.94 99.8602 102.995 101.045Z" fill="#E28F00"/>
<path fill-rule="evenodd" clip-rule="evenodd" d="M102.833 101.045C102.992 102.897 102.59 104.755 101.68 106.375C100.769 107.995 99.3911 109.302 97.7269 110.126C96.0626 110.95 94.1889 111.253 92.3505 110.994C90.5121 110.735 88.7944 109.927 87.4217 108.675C86.049 107.423 85.085 105.786 84.6557 103.977C84.2264 102.168 84.3517 100.271 85.0152 98.5345C85.6787 96.798 86.8497 95.3022 88.3751 94.2425C89.9006 93.1827 91.7096 92.6082 93.5661 92.5941C95.9132 92.4862 98.2072 93.3154 99.9446 94.8997C101.682 96.484 102.721 98.694 102.833 101.045Z" fill="#E39000"/>
<path fill-rule="evenodd" clip-rule="evenodd" d="M102.689 101.045C102.833 102.85 102.432 104.658 101.538 106.232C100.643 107.806 99.2964 109.074 97.6727 109.872C96.0489 110.67 94.2232 110.96 92.4327 110.704C90.6422 110.449 88.9698 109.66 87.6328 108.441C86.2958 107.221 85.356 105.627 84.9356 103.865C84.5152 102.103 84.6336 100.256 85.2755 98.5622C85.9173 96.8688 87.0529 95.4079 88.5346 94.3693C90.0164 93.3308 91.7758 92.7626 93.5842 92.7387C94.7265 92.6853 95.8682 92.8578 96.944 93.2463C98.0198 93.6348 99.0087 94.2318 99.8541 95.0031C100.7 95.7744 101.385 96.7049 101.871 97.7415C102.358 98.7782 102.635 99.9006 102.689 101.045Z" fill="#E49200"/>
<path fill-rule="evenodd" clip-rule="evenodd" d="M102.526 101.045C102.682 102.833 102.296 104.628 101.419 106.193C100.542 107.759 99.2137 109.024 97.6083 109.824C96.003 110.623 94.1944 110.92 92.4184 110.675C90.6423 110.43 88.9811 109.655 87.6512 108.45C86.3212 107.246 85.3842 105.669 84.9622 103.924C84.5403 102.179 84.6529 100.347 85.2854 98.6666C85.9179 96.9865 87.041 95.5362 88.5084 94.5046C89.9758 93.4729 91.7194 92.9078 93.512 92.8829C95.7876 92.7699 98.0149 93.5658 99.705 95.0961C101.395 96.6263 102.41 98.7657 102.526 101.045Z" fill="#E59300"/>
<path fill-rule="evenodd" clip-rule="evenodd" d="M102.364 101.045C102.52 102.803 102.143 104.568 101.281 106.109C100.42 107.65 99.1141 108.894 97.5352 109.68C95.9564 110.465 94.1775 110.756 92.4313 110.513C90.685 110.27 89.0525 109.505 87.7472 108.318C86.4418 107.132 85.5243 105.578 85.1145 103.86C84.7047 102.143 84.8217 100.342 85.4502 98.6921C86.0787 97.0424 87.1896 95.621 88.6375 94.6136C90.0854 93.6062 91.8031 93.0597 93.5661 93.0455C94.6682 92.992 95.7701 93.1566 96.8088 93.5296C97.8474 93.9027 98.8025 94.4771 99.6195 95.2199C100.436 95.9627 101.099 96.8594 101.57 97.8588C102.041 98.8582 102.311 99.9408 102.364 101.045Z" fill="#E79400"/>
<path d="M93.7115 109.037C98.441 109.003 102.25 105.427 102.218 101.049C102.187 96.671 98.3277 93.1496 93.5982 93.1835C88.8687 93.2174 85.0601 96.7937 85.0913 101.172C85.1226 105.549 88.982 109.071 93.7115 109.037Z" fill="#E89500"/>
<path fill-rule="evenodd" clip-rule="evenodd" d="M102.04 101.045C102.188 102.738 101.824 104.437 100.993 105.92C100.162 107.402 98.9047 108.599 97.3841 109.355C95.8636 110.11 94.1508 110.389 92.4697 110.154C90.7886 109.92 89.2172 109.182 87.9609 108.039C86.7046 106.896 85.8217 105.4 85.4276 103.747C85.0336 102.093 85.1466 100.359 85.752 98.7707C86.3574 97.1825 87.427 95.8141 88.821 94.8443C90.2151 93.8744 91.8688 93.3482 93.5661 93.3344C95.7095 93.2362 97.8043 93.9923 99.3923 95.4373C100.98 96.8823 101.932 98.8985 102.04 101.045Z" fill="#E99600"/>
<path fill-rule="evenodd" clip-rule="evenodd" d="M101.877 101.045C102.023 102.706 101.664 104.373 100.848 105.827C100.032 107.281 98.7972 108.455 97.3047 109.195C95.8122 109.935 94.1314 110.206 92.4823 109.974C90.8332 109.742 89.2923 109.017 88.0612 107.894C86.83 106.771 85.9659 105.302 85.5817 103.679C85.1975 102.056 85.3111 100.355 85.9077 98.7976C86.5043 97.2404 87.5562 95.8997 88.9257 94.9508C90.2953 94.002 91.9189 93.489 93.5842 93.479C95.6844 93.3858 97.736 94.1294 99.2902 95.5472C100.844 96.9651 101.775 98.9417 101.877 101.045Z" fill="#EA9700"/>
<path fill-rule="evenodd" clip-rule="evenodd" d="M101.715 101.045C101.857 102.674 101.504 104.307 100.704 105.732C99.9034 107.157 98.6924 108.307 97.2291 109.032C95.7657 109.757 94.1181 110.023 92.5015 109.795C90.885 109.567 89.3747 108.856 88.168 107.754C86.9614 106.653 86.1146 105.213 85.7382 103.622C85.3619 102.031 85.4735 100.363 86.0586 98.8368C86.6436 97.3104 87.6748 95.9962 89.0175 95.0661C90.3601 94.136 91.9517 93.6332 93.5842 93.6234C95.6431 93.535 97.6534 94.2657 99.1766 95.6559C100.7 97.0462 101.612 98.9832 101.715 101.045Z" fill="#EB9800"/>
<path fill-rule="evenodd" clip-rule="evenodd" d="M101.553 101.045C101.702 102.642 101.365 104.247 100.588 105.65C99.8106 107.052 98.6283 108.187 97.1959 108.905C95.7636 109.623 94.1481 109.892 92.561 109.674C90.974 109.457 89.4893 108.765 88.3017 107.689C87.114 106.612 86.2787 105.202 85.9051 103.642C85.5316 102.082 85.6372 100.445 86.2082 98.9462C86.7792 97.4473 87.7889 96.1561 89.105 95.2418C90.4212 94.3274 91.9824 93.8325 93.5842 93.8219C95.5954 93.7285 97.5619 94.4354 99.0547 95.7884C100.548 97.1415 101.446 99.031 101.553 101.045Z" fill="#EC9900"/>
<path fill-rule="evenodd" clip-rule="evenodd" d="M101.391 101.045C101.529 102.609 101.192 104.178 100.425 105.547C99.6581 106.916 98.4965 108.022 97.0921 108.719C95.6877 109.417 94.1058 109.673 92.5533 109.456C91.0009 109.238 89.5501 108.557 88.3907 107.5C87.2312 106.443 86.4171 105.061 86.0548 103.534C85.6925 102.006 85.7988 100.405 86.3599 98.9387C86.921 97.4727 87.9106 96.2104 89.1996 95.3169C90.4885 94.4233 92.0166 93.9401 93.5842 93.9304C95.5613 93.8372 97.4944 94.5343 98.9584 95.8685C100.422 97.2026 101.297 99.0645 101.391 101.045Z" fill="#ED9900"/>
<path fill-rule="evenodd" clip-rule="evenodd" d="M101.228 101.063C101.359 102.593 101.025 104.128 100.272 105.466C99.5176 106.804 98.3783 107.884 97.0024 108.563C95.6265 109.242 94.078 109.49 92.5591 109.275C91.0403 109.059 89.6217 108.39 88.4887 107.354C87.3556 106.318 86.5608 104.964 86.208 103.469C85.8552 101.974 85.9609 100.407 86.5112 98.9725C87.0615 97.5384 88.0309 96.3038 89.2927 95.43C90.5545 94.5563 92.0501 94.0839 93.5842 94.0747C95.523 93.9865 97.4174 94.6731 98.8509 95.9835C100.284 97.2939 101.14 99.1208 101.228 101.063Z" fill="#EE9A00"/>
<path fill-rule="evenodd" clip-rule="evenodd" d="M101.084 101.063C101.215 102.565 100.89 104.072 100.152 105.386C99.4138 106.7 98.2972 107.761 96.9477 108.429C95.5983 109.098 94.0789 109.343 92.5881 109.133C91.0973 108.923 89.7044 108.267 88.5915 107.252C87.4786 106.236 86.6974 104.908 86.3502 103.441C86.0029 101.974 86.1056 100.436 86.6449 99.0283C87.1842 97.6206 88.135 96.4085 89.373 95.5505C90.611 94.6926 92.0787 94.2286 93.5842 94.2193C95.4823 94.1407 97.3346 94.8153 98.7389 96.0967C100.143 97.378 100.986 99.1626 101.084 101.063Z" fill="#EF9B00"/>
<path d="M93.6849 107.845C97.7075 107.816 100.947 104.777 100.92 101.058C100.894 97.3381 97.6112 94.3462 93.5887 94.375C89.5661 94.4039 86.3268 97.4425 86.3533 101.162C86.3799 104.882 89.6624 107.874 93.6849 107.845Z" fill="#F09C00"/>
<path fill-rule="evenodd" clip-rule="evenodd" d="M100.76 101.063C100.898 102.512 100.595 103.97 99.8912 105.245C99.1873 106.519 98.1153 107.55 96.8157 108.204C95.516 108.857 94.0495 109.102 92.6086 108.905C91.1678 108.709 89.8198 108.081 88.7416 107.104C87.6635 106.127 86.9055 104.846 86.5671 103.429C86.2287 102.013 86.3258 100.527 86.8456 99.167C87.3653 97.8068 88.2835 96.6358 89.4796 95.8076C90.6757 94.9794 92.0939 94.5326 93.5481 94.5261C94.4504 94.4799 95.3529 94.6124 96.204 94.9161C97.0551 95.2198 97.838 95.6887 98.5079 96.2958C99.1777 96.903 99.7215 97.6366 100.108 98.4546C100.494 99.2725 100.716 100.159 100.76 101.063Z" fill="#F09D00"/>
<path fill-rule="evenodd" clip-rule="evenodd" d="M100.597 101.063C100.721 102.467 100.418 103.876 99.729 105.106C99.04 106.335 97.9965 107.328 96.7352 107.954C95.4738 108.58 94.0532 108.81 92.6591 108.615C91.2649 108.419 89.9622 107.807 88.921 106.858C87.8798 105.909 87.1487 104.668 86.8233 103.296C86.4979 101.924 86.5933 100.486 87.0971 99.1695C87.6008 97.8529 88.4895 96.7192 89.6469 95.9166C90.8042 95.114 92.1765 94.6798 93.5842 94.6707C95.3604 94.5873 97.097 95.2138 98.4121 96.4124C99.7273 97.6111 100.513 99.2838 100.597 101.063Z" fill="#F19D00"/>
<path d="M93.6999 107.394C97.4635 107.367 100.494 104.524 100.47 101.043C100.445 97.563 97.3735 94.7635 93.6098 94.7905C89.8461 94.8175 86.8152 97.6607 86.8401 101.141C86.865 104.621 89.9362 107.421 93.6999 107.394Z" fill="#F29E00"/>
<path fill-rule="evenodd" clip-rule="evenodd" d="M100.273 101.063C100.389 102.402 100.099 103.745 99.4409 104.916C98.7828 106.088 97.7871 107.033 96.5841 107.629C95.381 108.225 94.0265 108.443 92.6975 108.256C91.3685 108.069 90.1268 107.484 89.1347 106.579C88.1426 105.674 87.4462 104.49 87.1365 103.182C86.8269 101.874 86.9183 100.503 87.3989 99.2479C87.8795 97.9928 88.7269 96.9122 89.8304 96.1471C90.9339 95.3821 92.2421 94.9681 93.5842 94.9595C95.2791 94.881 96.9357 95.4798 98.19 96.6242C99.4442 97.7687 100.193 99.3651 100.273 101.063Z" fill="#F39F00"/>
<path fill-rule="evenodd" clip-rule="evenodd" d="M100.111 101.063C100.223 102.373 99.9377 103.687 99.2912 104.832C98.6447 105.976 97.6677 106.898 96.4883 107.477C95.309 108.055 93.9825 108.263 92.6833 108.072C91.384 107.881 90.1726 107.302 89.2084 106.409C88.2441 105.516 87.572 104.352 87.2804 103.07C86.9887 101.788 87.0912 100.447 87.5743 99.2242C88.0574 98.0013 88.8985 96.9534 89.9872 96.2181C91.0759 95.4827 92.3612 95.0944 93.6743 95.1041C95.3127 95.0549 96.9049 95.6516 98.1085 96.7659C99.3122 97.8802 100.031 99.4231 100.111 101.063Z" fill="#F4A000"/>
<path fill-rule="evenodd" clip-rule="evenodd" d="M99.9484 101.063C100.061 102.337 99.7868 103.615 99.1621 104.731C98.5374 105.847 97.5912 106.748 96.447 107.316C95.3029 107.885 94.0142 108.094 92.7493 107.917C91.4844 107.74 90.3022 107.185 89.3573 106.325C88.4124 105.464 87.7487 104.338 87.4531 103.094C87.1574 101.849 87.2436 100.545 87.7002 99.35C88.1568 98.1554 88.9627 97.1266 90.0124 96.3981C91.0622 95.6695 92.3071 95.2752 93.5842 95.2666C94.3828 95.2253 95.1817 95.3429 95.9348 95.6124C96.6879 95.8819 97.3802 96.2981 97.9719 96.8369C98.5635 97.3758 99.0428 98.0266 99.382 98.7519C99.7212 99.4772 99.9137 100.263 99.9484 101.063Z" fill="#F4A000"/>
<path fill-rule="evenodd" clip-rule="evenodd" d="M99.8041 101.063C99.9128 102.303 99.6455 103.548 99.037 104.634C98.4286 105.721 97.5073 106.598 96.3934 107.152C95.2795 107.706 94.0248 107.91 92.7931 107.739C91.5613 107.567 90.4098 107.028 89.4887 106.191C88.5677 105.354 87.92 104.259 87.6302 103.048C87.3404 101.836 87.4219 100.566 87.8642 99.4017C88.3064 98.2376 89.0888 97.2341 90.1092 96.5222C91.1296 95.8103 92.3406 95.4231 93.5841 95.4111C95.1565 95.3374 96.694 95.8908 97.8598 96.9501C99.0256 98.0094 99.7247 99.4882 99.8041 101.063Z" fill="#F5A100"/>
<path fill-rule="evenodd" clip-rule="evenodd" d="M99.6418 101.063C99.7506 102.276 99.4915 103.493 98.8983 104.556C98.305 105.619 97.4053 106.478 96.3168 107.02C95.2283 107.562 94.0017 107.763 92.7974 107.596C91.5931 107.429 90.4672 106.902 89.567 106.083C88.6668 105.265 88.0341 104.193 87.7518 103.009C87.4695 101.825 87.5506 100.582 87.9847 99.4449C88.4187 98.3075 89.1854 97.3277 90.1844 96.6338C91.1834 95.9398 92.3684 95.564 93.5841 95.5555C95.1165 95.4819 96.6153 96.0206 97.7512 97.0533C98.8871 98.086 99.5671 99.5281 99.6418 101.063Z" fill="#F6A100"/>
<path fill-rule="evenodd" clip-rule="evenodd" d="M99.4795 101.063C99.5737 102.241 99.3111 103.421 98.726 104.449C98.1409 105.476 97.2603 106.303 96.1992 106.822C95.138 107.341 93.9453 107.527 92.7767 107.357C91.6081 107.188 90.5177 106.669 89.6475 105.87C88.7774 105.07 88.1679 104.027 87.8985 102.875C87.629 101.724 87.7122 100.518 88.1371 99.414C88.562 98.3106 89.3088 97.3609 90.2804 96.6887C91.252 96.0165 92.4033 95.653 93.5841 95.6456C94.3274 95.6093 95.0704 95.721 95.7703 95.9743C96.4701 96.2276 97.1128 96.6175 97.6611 97.1213C98.2095 97.6251 98.6525 98.2329 98.9647 98.9094C99.2768 99.586 99.4518 100.318 99.4795 101.063Z" fill="#F6A200"/>
<path fill-rule="evenodd" clip-rule="evenodd" d="M99.3173 101.063C99.4151 102.205 99.1668 103.351 98.6048 104.35C98.0428 105.35 97.1932 106.156 96.1667 106.664C95.1403 107.173 93.9847 107.36 92.8507 107.201C91.7167 107.042 90.6568 106.544 89.8094 105.773C88.9619 105.001 88.3663 103.992 88.1 102.877C87.8338 101.761 87.9093 100.591 88.3168 99.5195C88.7244 98.4477 89.4448 97.5238 90.3844 96.8682C91.324 96.2126 92.4391 95.8559 93.5842 95.8444C94.3049 95.8006 95.027 95.9017 95.708 96.1419C96.3891 96.382 97.0153 96.7563 97.5496 97.2426C98.0839 97.729 98.5156 98.3175 98.8192 98.9736C99.1228 99.6297 99.2922 100.34 99.3173 101.063Z" fill="#F7A300"/>
<path fill-rule="evenodd" clip-rule="evenodd" d="M99.0829 101.063C99.1846 102.179 98.9474 103.299 98.4023 104.278C97.8572 105.256 97.0297 106.047 96.0282 106.547C95.0267 107.046 93.8979 107.231 92.7897 107.077C91.6815 106.923 90.6456 106.437 89.8178 105.683C88.9899 104.93 88.4087 103.943 88.1503 102.853C87.8919 101.763 87.9683 100.62 88.3696 99.5736C88.7709 98.5277 89.4783 97.6275 90.3991 96.9911C91.3199 96.3546 92.4113 96.0116 93.5301 96.0069C94.935 95.9431 96.308 96.4393 97.3486 97.3868C98.3893 98.3343 99.0129 99.656 99.0829 101.063Z" fill="#F7A300"/>
<path fill-rule="evenodd" clip-rule="evenodd" d="M99.0829 101.063C99.1847 102.15 98.956 103.243 98.4269 104.197C97.8978 105.152 97.0929 105.924 96.1179 106.413C95.1428 106.901 94.0431 107.083 92.963 106.935C91.8828 106.787 90.8726 106.315 90.0649 105.581C89.2572 104.848 88.6897 103.887 88.4368 102.825C88.1838 101.763 88.2573 100.649 88.6476 99.6294C89.0378 98.6098 89.7266 97.7321 90.6236 97.1115C91.5207 96.4908 92.584 96.1562 93.6743 96.1514C95.041 96.0875 96.3773 96.5684 97.3909 97.4888C98.4045 98.4092 99.0129 99.6943 99.0829 101.063Z" fill="#F8A400"/>
<path fill-rule="evenodd" clip-rule="evenodd" d="M98.8305 101.063C98.9212 102.108 98.6948 103.157 98.181 104.072C97.6671 104.987 96.8897 105.726 95.9502 106.191C95.0108 106.657 93.953 106.828 92.9151 106.682C91.8771 106.536 90.9073 106.079 90.1322 105.373C89.3572 104.666 88.8129 103.742 88.5706 102.72C88.3282 101.699 88.3991 100.628 88.7739 99.6481C89.1486 98.6678 89.8099 97.8234 90.6713 97.2253C91.5327 96.6273 92.5541 96.3033 93.6022 96.2957C94.9258 96.2368 96.2189 96.7052 97.1986 97.5985C98.1784 98.4918 98.7651 99.7373 98.8305 101.063Z" fill="#F9A400"/>
<path fill-rule="evenodd" clip-rule="evenodd" d="M98.6683 101.081C98.7516 102.093 98.5283 103.108 98.0274 103.991C97.5266 104.875 96.7715 105.587 95.8607 106.035C94.9498 106.482 93.9254 106.645 92.921 106.501C91.9167 106.356 90.979 105.912 90.2303 105.227C89.4817 104.541 88.9567 103.645 88.7239 102.656C88.491 101.667 88.5612 100.631 88.9252 99.682C89.2892 98.7335 89.9301 97.9168 90.7644 97.3385C91.5987 96.7603 92.5876 96.4471 93.6022 96.4401C94.8875 96.3861 96.1419 96.844 97.0912 97.7135C98.0405 98.5831 98.6074 99.7936 98.6683 101.081Z" fill="#F9A500"/>
<path fill-rule="evenodd" clip-rule="evenodd" d="M98.524 101.081C98.6074 102.065 98.3926 103.051 97.9077 103.911C97.4228 104.771 96.6904 105.465 95.806 105.901C94.9215 106.338 93.9262 106.497 92.9499 106.359C91.9736 106.22 91.0616 105.79 90.3331 105.125C89.6046 104.459 89.0933 103.589 88.866 102.628C88.6387 101.667 88.7059 100.66 89.0589 99.7378C89.4119 98.8157 90.0342 98.0216 90.8447 97.4591C91.6552 96.8966 92.6161 96.5919 93.6021 96.5847C94.8492 96.5308 96.067 96.9734 96.9892 97.8158C97.9115 98.6583 98.4633 99.8321 98.524 101.081Z" fill="#FAA500"/>
<path fill-rule="evenodd" clip-rule="evenodd" d="M98.3618 101.081C98.4452 102.033 98.24 102.987 97.7731 103.821C97.3061 104.654 96.5991 105.326 95.7444 105.751C94.8898 106.175 93.9272 106.331 92.9824 106.199C92.0376 106.067 91.1547 105.653 90.4488 105.01C89.7429 104.367 89.2471 103.526 89.0259 102.597C88.8048 101.667 88.8687 100.693 89.2093 99.8005C89.5498 98.908 90.1513 98.1392 90.935 97.5945C91.7187 97.0498 92.6482 96.7545 93.6021 96.7473C94.8062 96.6932 95.9827 97.1187 96.8745 97.9307C97.7664 98.7427 98.3011 99.8752 98.3618 101.081Z" fill="#FAA500"/>
<path fill-rule="evenodd" clip-rule="evenodd" d="M98.1996 101.081C98.2833 102.003 98.0861 102.93 97.634 103.738C97.1819 104.546 96.4962 105.198 95.6669 105.608C94.8376 106.018 93.9038 106.167 92.9883 106.036C92.0728 105.904 91.2185 105.498 90.538 104.871C89.8574 104.243 89.3825 103.424 89.1757 102.522C88.9689 101.619 89.0399 100.674 89.3793 99.8126C89.7188 98.9509 90.3108 98.2124 91.0774 97.6942C91.8441 97.1761 92.7494 96.9026 93.6743 96.9097C94.8231 96.8751 95.9399 97.2922 96.7856 98.0717C97.6313 98.8512 98.1388 99.9313 98.1996 101.081Z" fill="#FAA600"/>
<path fill-rule="evenodd" clip-rule="evenodd" d="M98.0373 101.081C98.1134 101.967 97.9209 102.856 97.4849 103.631C97.0489 104.406 96.3897 105.032 95.5934 105.426C94.797 105.82 93.9005 105.964 93.0209 105.84C92.1413 105.716 91.3194 105.33 90.6626 104.731C90.0058 104.132 89.5446 103.348 89.3391 102.483C89.1337 101.617 89.1936 100.71 89.5111 99.8789C89.8285 99.048 90.3887 98.3322 91.1185 97.8251C91.8484 97.3179 92.7139 97.0429 93.6022 97.036C94.7249 96.9869 95.8215 97.3847 96.6524 98.1425C97.4833 98.9003 97.9812 99.9566 98.0373 101.081Z" fill="#FBA600"/>
<path fill-rule="evenodd" clip-rule="evenodd" d="M97.875 101.081C97.9475 101.934 97.7613 102.79 97.3408 103.536C96.9203 104.282 96.285 104.884 95.5178 105.263C94.7506 105.642 93.8871 105.781 93.0401 105.661C92.193 105.541 91.4017 105.168 90.7695 104.591C90.1372 104.014 89.6933 103.259 89.4957 102.426C89.2981 101.592 89.3561 100.718 89.6619 99.9182C89.9678 99.118 90.5074 98.4287 91.2103 97.9403C91.9132 97.452 92.7467 97.1872 93.6022 97.1805C94.6849 97.1314 95.7428 97.5145 96.5438 98.2457C97.3449 98.9769 97.8236 99.9964 97.875 101.081Z" fill="#FBA700"/>
<path fill-rule="evenodd" clip-rule="evenodd" d="M97.7128 101.081C97.7816 101.902 97.6018 102.725 97.1968 103.442C96.7918 104.159 96.1804 104.737 95.4423 105.101C94.7043 105.465 93.8738 105.598 93.0593 105.482C92.2448 105.366 91.4841 105.007 90.8764 104.452C90.2686 103.897 89.842 103.171 89.6523 102.369C89.4626 101.567 89.5186 100.727 89.8128 99.9575C90.1071 99.1881 90.6261 98.5254 91.302 98.0558C91.978 97.5862 92.7796 97.3316 93.6022 97.3251C94.6436 97.2809 95.6603 97.651 96.4303 98.3545C97.2004 99.0581 97.6613 100.038 97.7128 101.081Z" fill="#FCA700"/>
<path fill-rule="evenodd" clip-rule="evenodd" d="M97.5505 101.081C97.6157 101.869 97.4422 102.659 97.0527 103.347C96.6631 104.035 96.0757 104.59 95.3668 104.939C94.6579 105.288 93.8605 105.414 93.0785 105.303C92.2966 105.191 91.5665 104.846 90.9832 104.312C90.4 103.779 89.9908 103.082 89.8089 102.312C89.6271 101.542 89.681 100.736 89.9637 99.9969C90.2464 99.2582 90.7448 98.622 91.3938 98.1712C92.0428 97.7204 92.8124 97.4759 93.6022 97.4696C94.0986 97.4453 94.5949 97.5197 95.0625 97.6883C95.5301 97.857 95.9598 98.1166 96.3267 98.4523C96.6937 98.788 96.9908 99.193 97.2008 99.6441C97.4109 100.095 97.5297 100.584 97.5505 101.081Z" fill="#FCA700"/>
<path d="M93.7182 104.563C95.7992 104.547 97.4747 102.975 97.4607 101.05C97.4466 99.1255 95.7482 97.5777 93.6672 97.5929C91.5863 97.6082 89.9107 99.1808 89.9248 101.105C89.9389 103.03 91.6373 104.578 93.7182 104.563Z" fill="#FCA700"/>
<path fill-rule="evenodd" clip-rule="evenodd" d="M97.28 101.081C97.3417 101.805 97.1838 102.531 96.8269 103.164C96.47 103.796 95.9308 104.307 95.2797 104.628C94.6287 104.949 93.8961 105.065 93.1777 104.963C92.4593 104.86 91.7886 104.543 91.2532 104.052C90.7178 103.561 90.3427 102.92 90.1769 102.213C90.0111 101.505 90.0623 100.764 90.3239 100.086C90.5854 99.4081 91.0451 98.825 91.6429 98.4129C92.2406 98.0008 92.9486 97.779 93.6743 97.7764C94.5895 97.7372 95.483 98.063 96.1589 98.6823C96.8348 99.3017 97.2379 100.164 97.28 101.081Z" fill="#FDA800"/>
<path d="M93.6415 104.306C95.5432 104.292 97.0747 102.858 97.0622 101.103C97.0496 99.3482 95.4978 97.9365 93.596 97.9502C91.6943 97.9638 90.1628 99.3976 90.1753 101.153C90.1879 102.908 91.7397 104.32 93.6415 104.306Z" fill="#FDA800"/>
<path fill-rule="evenodd" clip-rule="evenodd" d="M96.9194 101.081C96.9774 101.743 96.8348 102.407 96.5101 102.986C96.1854 103.566 95.6938 104.034 95.0994 104.329C94.5051 104.625 93.8356 104.734 93.1784 104.642C92.5212 104.551 91.9068 104.263 91.4154 103.816C90.9241 103.37 90.5787 102.785 90.4242 102.139C90.2697 101.492 90.3134 100.814 90.5495 100.193C90.7857 99.5724 91.2033 99.0371 91.7479 98.6574C92.2924 98.2777 92.9386 98.0714 93.6021 98.0652C94.4397 98.0307 95.2572 98.3276 95.878 98.8919C96.4987 99.4561 96.8728 100.242 96.9194 101.081Z" fill="#FDA800"/>
<path fill-rule="evenodd" clip-rule="evenodd" d="M96.7572 101.081C96.8153 101.71 96.6822 102.343 96.3755 102.896C96.0688 103.448 95.6026 103.896 95.038 104.179C94.4734 104.462 93.8367 104.568 93.211 104.483C92.5854 104.398 92 104.125 91.5313 103.701C91.0626 103.278 90.7326 102.722 90.5842 102.107C90.4359 101.493 90.4763 100.848 90.7 100.256C90.9237 99.6648 91.3205 99.1548 91.8383 98.7929C92.356 98.431 92.9708 98.2341 93.6022 98.2278C94.398 98.1885 95.1769 98.4666 95.7682 99.0013C96.3596 99.5361 96.7153 100.284 96.7572 101.081Z" fill="#FDA800"/>
<path fill-rule="evenodd" clip-rule="evenodd" d="M96.5949 101.081C96.6493 101.678 96.5226 102.277 96.2313 102.801C95.9401 103.325 95.4978 103.748 94.9624 104.016C94.4269 104.285 93.8232 104.384 93.2301 104.303C92.637 104.222 92.0822 103.964 91.638 103.562C91.1939 103.16 90.8812 102.633 90.7408 102.05C90.6003 101.468 90.6387 100.856 90.8508 100.295C91.063 99.7349 91.4391 99.2514 91.9299 98.9083C92.4208 98.5652 93.0036 98.3784 93.6021 98.3722C93.9763 98.3528 94.3507 98.4075 94.7037 98.5331C95.0568 98.6588 95.3816 98.853 95.6596 99.1046C95.9376 99.3562 96.1633 99.6603 96.3238 99.9994C96.4843 100.338 96.5764 100.706 96.5949 101.081Z" fill="#FEA900"/>
<path fill-rule="evenodd" clip-rule="evenodd" d="M96.4327 101.081C96.4835 101.646 96.3628 102.213 96.0862 102.708C95.8097 103.204 95.3903 103.604 94.8829 103.856C94.3755 104.109 93.8039 104.202 93.2428 104.123C92.6817 104.045 92.1573 103.799 91.7383 103.417C91.3193 103.035 91.0253 102.535 90.8947 101.983C90.7642 101.431 90.8031 100.852 91.0065 100.322C91.2099 99.7926 91.5683 99.3369 92.0346 99.0148C92.501 98.6926 93.0537 98.519 93.6202 98.5167C94.3316 98.4872 95.0259 98.7399 95.5525 99.2199C96.079 99.7 96.3953 100.369 96.4327 101.081Z" fill="#FEA900"/>
<path fill-rule="evenodd" clip-rule="evenodd" d="M96.2705 101.099C96.3252 101.634 96.2162 102.174 95.9578 102.646C95.6994 103.118 95.3038 103.5 94.8236 103.741C94.3433 103.983 93.8011 104.073 93.2688 103.998C92.7365 103.924 92.2393 103.69 91.8432 103.326C91.447 102.962 91.1706 102.487 91.0506 101.962C90.9307 101.437 90.9728 100.889 91.1715 100.388C91.3701 99.8883 91.7158 99.4605 92.1628 99.1617C92.6098 98.8629 93.1369 98.7073 93.6743 98.7154C94.3294 98.7046 94.9636 98.9457 95.4466 99.389C95.9295 99.8324 96.2244 100.444 96.2705 101.099Z" fill="#FEA900"/>
<path fill-rule="evenodd" clip-rule="evenodd" d="M96.1082 101.099C96.1481 101.598 96.0367 102.098 95.7887 102.533C95.5407 102.968 95.1675 103.318 94.7178 103.537C94.2681 103.757 93.7628 103.835 93.2679 103.763C92.773 103.69 92.3114 103.47 91.9433 103.131C91.5752 102.792 91.3178 102.349 91.2047 101.861C91.0915 101.373 91.1278 100.862 91.3088 100.395C91.4899 99.9284 91.8072 99.5269 92.2196 99.2433C92.6319 98.9597 93.12 98.8071 93.6202 98.8055C93.9342 98.791 94.2481 98.8389 94.5435 98.9466C94.839 99.0542 95.1102 99.2194 95.3415 99.4327C95.5729 99.6459 95.7597 99.9029 95.8913 100.189C96.0229 100.475 96.0966 100.784 96.1082 101.099Z" fill="#FEA900"/>
<path fill-rule="evenodd" clip-rule="evenodd" d="M95.946 101.099C95.9859 101.566 95.8841 102.034 95.654 102.443C95.4239 102.851 95.0762 103.18 94.6563 103.387C94.2363 103.594 93.7638 103.67 93.3004 103.604C92.837 103.537 92.4043 103.333 92.0589 103.016C91.7136 102.7 91.4715 102.286 91.3645 101.83C91.2575 101.374 91.2906 100.896 91.4592 100.458C91.6279 100.021 91.9244 99.6448 92.3099 99.3789C92.6955 99.1131 93.1522 98.97 93.6202 98.9683C93.913 98.9538 94.2057 98.9975 94.4815 99.0969C94.7572 99.1964 95.0106 99.3496 95.2269 99.5477C95.4431 99.7459 95.618 99.985 95.7415 100.251C95.8649 100.517 95.9344 100.806 95.946 101.099Z" fill="#FEA900"/>
<path fill-rule="evenodd" clip-rule="evenodd" d="M95.8017 101.099C95.7783 101.651 95.5377 102.172 95.1324 102.547C94.7271 102.923 94.19 103.123 93.6383 103.103C93.3607 103.13 93.0807 103.098 92.8162 103.009C92.5516 102.921 92.3085 102.779 92.1022 102.591C91.896 102.403 91.7311 102.174 91.6183 101.919C91.5056 101.663 91.4473 101.387 91.4473 101.108C91.4473 100.829 91.5056 100.552 91.6183 100.297C91.7311 100.042 91.896 99.8128 92.1022 99.6249C92.3085 99.437 92.5516 99.2944 92.8162 99.2062C93.0807 99.118 93.3607 99.0861 93.6383 99.1125C94.187 99.0929 94.7215 99.2901 95.1263 99.6618C95.5311 100.033 95.7737 100.55 95.8017 101.099Z" fill="#FEA900"/>
<path fill-rule="evenodd" clip-rule="evenodd" d="M95.6394 101.099C95.6831 101.505 95.6029 101.915 95.4092 102.275C95.2156 102.635 94.9177 102.927 94.5547 103.114C94.1917 103.301 93.7807 103.373 93.3759 103.321C92.971 103.27 92.5914 103.096 92.287 102.824C91.9825 102.552 91.7677 102.193 91.6706 101.796C91.5735 101.399 91.5988 100.982 91.7432 100.6C91.8875 100.218 92.1441 99.8882 92.4792 99.6549C92.8143 99.4216 93.2121 99.2954 93.6202 99.2931C94.1261 99.2683 94.6213 99.4438 94.9991 99.7816C95.3769 100.119 95.6069 100.593 95.6394 101.099Z" fill="#FFAA00"/>
<path fill-rule="evenodd" clip-rule="evenodd" d="M95.4772 101.099C95.454 101.562 95.2539 101.998 94.9183 102.318C94.5827 102.637 94.1372 102.815 93.6743 102.814C93.3399 102.796 93.0181 102.681 92.7485 102.482C92.479 102.283 92.2735 102.01 92.1576 101.695C92.0417 101.38 92.0204 101.039 92.0963 100.712C92.1722 100.386 92.342 100.088 92.5848 99.8575C92.8275 99.6265 93.1325 99.4719 93.4621 99.4127C93.7916 99.3535 94.1313 99.3923 94.439 99.5244C94.7468 99.6565 95.0091 99.876 95.1936 100.156C95.3781 100.436 95.4767 100.763 95.4772 101.099Z" fill="#FFAA00"/>
<path fill-rule="evenodd" clip-rule="evenodd" d="M95.3149 101.099C95.3439 101.439 95.2697 101.78 95.102 102.078C94.9343 102.375 94.6809 102.615 94.3749 102.766C94.0689 102.917 93.7246 102.972 93.387 102.924C93.0493 102.875 92.734 102.726 92.4824 102.496C92.2307 102.265 92.0544 101.964 91.9765 101.631C91.8985 101.299 91.9226 100.95 92.0455 100.632C92.1684 100.313 92.3845 100.039 92.6654 99.8451C92.9464 99.6514 93.2791 99.5471 93.6202 99.5459C94.0494 99.5311 94.4673 99.6854 94.7841 99.9758C95.101 100.266 95.2916 100.669 95.3149 101.099Z" fill="#FFAA00"/>
<path fill-rule="evenodd" clip-rule="evenodd" d="M95.1527 101.099C95.1118 101.475 94.9337 101.822 94.6525 102.075C94.3713 102.328 94.0069 102.467 93.6292 102.467C93.2516 102.467 92.8871 102.328 92.606 102.075C92.3248 101.822 92.1467 101.475 92.1058 101.099C92.1467 100.723 92.3248 100.375 92.606 100.122C92.8871 99.8699 93.2516 99.7302 93.6292 99.7302C94.0069 99.7302 94.3713 99.8699 94.6525 100.122C94.9337 100.375 95.1118 100.723 95.1527 101.099Z" fill="#FFAA00"/>
<path fill-rule="evenodd" clip-rule="evenodd" d="M94.9904 101.099C95.0159 101.374 94.9576 101.651 94.8233 101.892C94.689 102.134 94.485 102.33 94.2379 102.453C93.9908 102.577 93.7123 102.622 93.4387 102.585C93.1652 102.547 92.9094 102.427 92.705 102.241C92.5006 102.055 92.3569 101.812 92.293 101.543C92.2291 101.274 92.2479 100.992 92.3468 100.733C92.4458 100.475 92.6203 100.253 92.8475 100.096C93.0747 99.9388 93.3441 99.8541 93.6202 99.8529C93.7922 99.8432 93.9644 99.8678 94.1267 99.9254C94.2891 99.983 94.4384 100.072 94.5659 100.188C94.6935 100.304 94.7967 100.445 94.8695 100.601C94.9424 100.757 94.9835 100.926 94.9904 101.099Z" fill="#FFAA00"/>
<path fill-rule="evenodd" clip-rule="evenodd" d="M94.8282 101.099C94.85 101.342 94.798 101.585 94.6792 101.798C94.5604 102.011 94.3803 102.182 94.1624 102.291C93.9445 102.399 93.6989 102.439 93.458 102.405C93.217 102.372 92.9918 102.266 92.8119 102.102C92.632 101.938 92.5057 101.723 92.4496 101.486C92.3936 101.249 92.4103 101 92.4977 100.773C92.5851 100.545 92.7389 100.35 92.9392 100.211C93.1395 100.073 93.3769 99.9984 93.6202 99.9974C93.7718 99.9901 93.9233 100.013 94.0661 100.064C94.2089 100.116 94.3401 100.195 94.4523 100.297C94.5645 100.4 94.6555 100.523 94.7199 100.661C94.7844 100.798 94.8212 100.947 94.8282 101.099Z" fill="#FFAA00"/>
<path fill-rule="evenodd" clip-rule="evenodd" d="M94.6658 101.099C94.6635 101.231 94.635 101.361 94.5819 101.482C94.5287 101.603 94.4521 101.712 94.3564 101.802C94.2607 101.893 94.1479 101.964 94.0246 102.01C93.9013 102.057 93.7699 102.079 93.6382 102.074C93.3734 102.084 93.1153 101.989 92.9197 101.81C92.724 101.631 92.6065 101.382 92.5925 101.117C92.5948 100.985 92.6234 100.855 92.6765 100.734C92.7297 100.613 92.8063 100.504 92.902 100.413C92.9977 100.323 93.1105 100.252 93.2338 100.205C93.3571 100.159 93.4885 100.137 93.6202 100.142C93.885 100.132 94.143 100.227 94.3387 100.406C94.5343 100.585 94.6518 100.834 94.6658 101.099Z" fill="#FFAA00"/>
<path fill-rule="evenodd" clip-rule="evenodd" d="M94.5036 101.099C94.5037 101.211 94.4811 101.322 94.4372 101.425C94.3933 101.528 94.3289 101.621 94.2481 101.699C94.1672 101.777 94.0715 101.837 93.9666 101.877C93.8618 101.916 93.7501 101.934 93.6382 101.929C93.4759 101.922 93.3192 101.867 93.1877 101.772C93.0561 101.677 92.9555 101.544 92.8982 101.392C92.8409 101.24 92.8296 101.074 92.8655 100.916C92.9015 100.757 92.9832 100.612 93.1005 100.5C93.2178 100.387 93.3655 100.312 93.5253 100.282C93.6851 100.253 93.85 100.271 93.9994 100.335C94.1489 100.399 94.2763 100.505 94.3659 100.641C94.4556 100.777 94.5034 100.936 94.5036 101.099Z" fill="#FFAA00"/>
<path fill-rule="evenodd" clip-rule="evenodd" d="M94.3594 101.099C94.3502 101.284 94.2701 101.459 94.1359 101.586C94.0016 101.714 93.8234 101.785 93.6383 101.785C93.4541 101.786 93.2762 101.718 93.1395 101.594C93.0028 101.471 92.917 101.3 92.8991 101.117C92.9014 101.025 92.922 100.935 92.9597 100.851C92.9974 100.768 93.0515 100.693 93.1187 100.63C93.186 100.568 93.265 100.52 93.3511 100.489C93.4373 100.458 93.5288 100.444 93.6202 100.449C93.8038 100.439 93.9841 100.501 94.1222 100.623C94.2604 100.744 94.3455 100.915 94.3594 101.099Z" fill="#FFAA00"/>
<path fill-rule="evenodd" clip-rule="evenodd" d="M94.1971 101.099C94.1966 101.215 94.1609 101.329 94.0948 101.425C94.0287 101.52 93.9352 101.594 93.8266 101.636C93.718 101.677 93.5994 101.685 93.4863 101.658C93.3731 101.631 93.2708 101.57 93.1927 101.484C93.1146 101.398 93.0643 101.29 93.0486 101.175C93.0328 101.059 93.0522 100.942 93.1043 100.837C93.1564 100.733 93.2387 100.647 93.3404 100.591C93.4421 100.534 93.5585 100.51 93.6743 100.521C93.7469 100.523 93.8183 100.54 93.8843 100.571C93.9503 100.601 94.0094 100.645 94.0582 100.699C94.107 100.752 94.1445 100.816 94.1683 100.884C94.1922 100.953 94.202 101.026 94.1971 101.099Z" fill="#FFAA00"/>
<path fill-rule="evenodd" clip-rule="evenodd" d="M94.0349 101.099C94.0458 101.182 94.0312 101.267 93.9928 101.342C93.9544 101.417 93.8941 101.479 93.82 101.519C93.7458 101.559 93.6613 101.575 93.5776 101.566C93.4939 101.556 93.4151 101.522 93.3516 101.466C93.2881 101.411 93.2429 101.338 93.222 101.256C93.2011 101.174 93.2056 101.088 93.2347 101.009C93.2639 100.93 93.3163 100.862 93.3852 100.813C93.454 100.765 93.536 100.738 93.6202 100.738C93.6714 100.733 93.723 100.738 93.772 100.754C93.821 100.77 93.8662 100.795 93.905 100.829C93.9438 100.863 93.9754 100.904 93.9977 100.95C94.02 100.997 94.0327 101.047 94.0349 101.099Z" fill="#FFAA00"/>
<path fill-rule="evenodd" clip-rule="evenodd" d="M93.8726 101.099C93.8726 101.161 93.8479 101.221 93.804 101.265C93.76 101.309 93.7004 101.334 93.6382 101.334C93.6074 101.336 93.5764 101.332 93.5471 101.323C93.5177 101.313 93.4905 101.298 93.467 101.278C93.4436 101.258 93.4243 101.233 93.4104 101.205C93.3965 101.178 93.3881 101.148 93.3858 101.117C93.3858 101.055 93.4105 100.995 93.4545 100.951C93.4984 100.907 93.558 100.882 93.6202 100.882C93.651 100.88 93.682 100.883 93.7114 100.893C93.7407 100.902 93.768 100.918 93.7914 100.938C93.8149 100.958 93.8341 100.983 93.848 101.01C93.862 101.038 93.8703 101.068 93.8726 101.099Z" fill="#FFAA00"/>
<path style="mix-blend-mode:screen" fill-rule="evenodd" clip-rule="evenodd" d="M102.202 97.1986C102.202 99.0342 101.658 100.829 100.64 102.355C99.6219 103.881 98.1747 105.071 96.4814 105.773C94.7881 106.476 92.9248 106.659 91.1272 106.301C89.3297 105.943 87.6785 105.059 86.3825 103.761C85.0865 102.463 84.2039 100.81 83.8463 99.0092C83.4888 97.2089 83.6723 95.3427 84.3736 93.6468C85.075 91.9509 86.2628 90.5015 87.7867 89.4817C89.3107 88.4619 91.1023 87.9175 92.9351 87.9175C95.3928 87.9175 97.7498 88.8953 99.4877 90.6359C101.226 92.3764 102.202 94.7371 102.202 97.1986Z" fill="url(#paint10_radial_6_3715)"/>
<path fill-rule="evenodd" clip-rule="evenodd" d="M99.4976 97.1986C99.5012 98.4993 99.1193 99.7718 98.4004 100.855C97.6815 101.938 96.6578 102.783 95.4589 103.284C94.2601 103.784 92.9401 103.917 91.6659 103.665C90.3917 103.414 89.2207 102.789 88.3011 101.871C87.3815 100.952 86.7547 99.781 86.5 98.5056C86.2453 97.2301 86.3743 95.9077 86.8704 94.7056C87.3666 93.5036 88.2077 92.476 89.2873 91.753C90.3669 91.03 91.6364 90.644 92.9351 90.644C94.6724 90.644 96.3389 91.334 97.5691 92.5627C98.7993 93.7914 99.4928 95.4586 99.4976 97.1986Z" fill="url(#paint11_radial_6_3715)"/>
<path fill-rule="evenodd" clip-rule="evenodd" d="M82.4243 90.6442C82.4243 91.3235 82.2229 91.9875 81.8457 92.5521C81.4685 93.1166 80.9325 93.5564 80.3055 93.8155C79.6785 94.0746 78.9888 94.1415 78.3239 94.0076C77.6589 93.8738 77.0486 93.5453 76.5703 93.0636C76.0919 92.582 75.7671 91.969 75.637 91.3023C75.5068 90.6357 75.5772 89.9453 75.8393 89.3187C76.1013 88.6922 76.5432 88.1576 77.1089 87.7828C77.6745 87.408 78.3386 87.2099 79.0168 87.2134C79.4658 87.2134 79.9104 87.3023 80.325 87.4749C80.7396 87.6475 81.116 87.9005 81.4327 88.2194C81.7493 88.5382 81.9999 88.9165 82.1701 89.3326C82.3403 89.7488 82.4267 90.1945 82.4243 90.6442Z" fill="white"/>
<path fill-rule="evenodd" clip-rule="evenodd" d="M42.3101 103.735C42.3101 104.909 41.7872 105.848 41.1382 105.848C40.4892 105.848 39.9663 104.909 39.9663 103.735C39.9663 102.561 40.4892 101.604 41.1382 101.604C41.7872 101.604 42.3101 102.561 42.3101 103.735Z" fill="white"/>
<path style="mix-blend-mode:multiply" opacity="0.96" fill-rule="evenodd" clip-rule="evenodd" d="M37.893 152.632C50.4474 146.667 63.3847 141.545 76.619 137.302C98.9387 130.08 115.507 115.165 123.494 97.1987H126.379C126.379 97.1987 121.691 95.0861 119.708 95.393L120.069 97.1987C114.874 109.376 106.35 119.836 95.4771 127.371C77.8449 139.289 54.2452 141.979 42.5445 147.233C42.5805 147.215 38.2536 150.104 37.893 152.632Z" fill="url(#paint12_linear_6_3715)"/>
<path fill-rule="evenodd" clip-rule="evenodd" d="M37.893 152.632C51.881 149.198 65.6204 144.819 79.0168 139.523C98.2897 131.578 115.075 116.772 120.087 103.735C113.042 116.748 101.752 126.946 88.1034 132.626C64.6478 142.178 58.6082 142.051 37.893 152.632Z" fill="url(#paint13_radial_6_3715)"/>
<path style="mix-blend-mode:multiply" opacity="0.74" fill-rule="evenodd" clip-rule="evenodd" d="M119.654 95.4473C119.654 95.4473 110.171 117.115 92.0337 128.184C73.8966 139.253 56.8053 136.761 42.5806 147.215C42.5806 147.215 76.2945 140.282 94.3053 128.184C112.316 116.086 121.907 97.1988 121.907 97.1988L119.654 95.4473Z" fill="url(#paint14_linear_6_3715)"/>
<path style="mix-blend-mode:screen" fill-rule="evenodd" clip-rule="evenodd" d="M65.5313 70.0235C65.4051 72.4431 77.0697 60.273 92.1959 61.7175C107.322 63.162 114.137 79.3949 117.725 79.1602C121.312 78.9254 116.769 56.3185 95.8738 53.6642C74.9783 51.0099 65.6755 67.1344 65.5313 70.0235Z" fill="url(#paint15_linear_6_3715)"/>
<path style="mix-blend-mode:screen" fill-rule="evenodd" clip-rule="evenodd" d="M64.0529 106.462C64.6607 109.306 65.8934 111.98 67.6616 114.288C69.4297 116.596 71.689 118.481 74.2752 119.805C83.3978 124.843 99.2091 115.887 99.2091 115.887C99.2091 115.887 88.1935 120.401 77.5745 118.361C74.4907 117.706 71.627 116.267 69.2589 114.183C66.8908 112.1 65.098 109.44 64.0529 106.462Z" fill="url(#paint16_linear_6_3715)"/>
<path fill-rule="evenodd" clip-rule="evenodd" d="M67.262 66.1052C65.7836 68.2539 65.1166 70.0776 65.7836 70.1498C66.4507 70.222 73.6081 66.1232 73.6081 64.7328C73.6081 63.3425 68.7945 63.9022 67.262 66.1052Z" fill="white"/>
<path style="mix-blend-mode:multiply" opacity="0.74" fill-rule="evenodd" clip-rule="evenodd" d="M251.751 109.892C248.398 107.653 244.323 104.728 239.474 101.045C239.474 101.045 238.157 100.503 235.435 103.735C232.713 106.967 206.084 152.271 149.564 168.486C106.727 180.783 71.5168 174.029 51.8293 163.466C51.8293 163.466 116.192 179.717 177.058 139.018C237.923 98.3181 204.894 55.1628 204.894 55.1628L205.165 55.2712L205.94 55.6143C207.292 56.2101 209.816 57.4199 212.971 58.8825L215.423 60.1103C223.103 63.9744 233.073 69.59 238.518 75.0612L249.101 66.701L249.624 66.2676C249.624 66.2676 240.465 80.2254 239.96 90.644C239.51 100.088 249.858 108.448 251.751 109.892Z" fill="url(#paint17_linear_6_3715)"/>
<path style="mix-blend-mode:multiply" opacity="0.74" fill-rule="evenodd" clip-rule="evenodd" d="M263.001 116.916C260.403 115.719 257.942 114.242 255.663 112.511L255.123 112.131C252.562 110.326 250.345 108.719 250.074 108.52L263.037 115.165C263.037 115.165 266.463 109.91 264.299 108.502C262.136 107.094 245.423 103.789 245.423 103.789L243.764 101.64C243.764 101.64 264.66 108.285 269.005 106.498C273.35 104.71 276.919 95.5012 276.919 95.5012C276.919 95.5012 277.46 92.4135 269.906 91.8899C262.352 91.3663 240.663 95.5012 240.663 95.5012L240.285 94.0928C240.285 94.0928 278.722 90.0662 281.427 84.4506C284.131 78.835 285.032 71.1429 281.427 72.5693C278.163 73.8875 247.695 82.5727 242.016 84.1798C248.29 82.2477 285.086 70.7998 285.754 67.0802C286.457 62.9994 286.655 56.7156 284.113 56.8782C281.571 57.0407 244.143 78.5461 242.971 79.178L243.62 77.6432C243.62 77.6432 282.869 57.0768 287.016 50.9376C289.266 47.9687 290.617 44.4152 290.91 40.6995C291.812 68.7661 281.807 96.0886 263.001 116.916Z" fill="url(#paint18_linear_6_3715)"/>
<path style="mix-blend-mode:screen" fill-rule="evenodd" clip-rule="evenodd" d="M98.2897 47.9041C97.0096 48.3736 109.323 47.3083 134.78 53.3211C160.237 59.3339 190.002 65.1482 202.496 56.2643C202.496 56.3185 146.553 30.1003 98.2897 47.9041Z" fill="url(#paint19_linear_6_3715)"/>
<path fill-rule="evenodd" clip-rule="evenodd" d="M112.623 46.3512C111.667 49.0236 127.208 49.5472 127.929 46.1165C128.65 42.6857 114.065 42.4149 112.623 46.3512Z" fill="white"/>
<path style="mix-blend-mode:screen" fill-rule="evenodd" clip-rule="evenodd" d="M47.9892 138.927C50.3289 127.904 51.6087 116.682 51.8113 105.414C52.4784 84.6313 58.6082 71.5764 59.8702 71.7028C61.1322 71.8292 60.2308 81.3811 59.8702 99.9614C59.6968 111.56 60.5657 123.151 62.4663 134.594C62.4663 134.594 53.2176 139.812 47.9892 138.927Z" fill="url(#paint20_linear_6_3715)"/>
<path fill-rule="evenodd" clip-rule="evenodd" d="M193.572 57.745C194.023 59.5506 200.297 61.6091 201.541 59.984C202.514 58.702 198.963 56.9324 197.16 56.9686C195.357 57.0047 193.428 57.1852 193.572 57.745Z" fill="white"/>
<path style="mix-blend-mode:screen" fill-rule="evenodd" clip-rule="evenodd" d="M142.136 193.494C142.136 193.494 171.234 195.444 193.554 175.961C215.874 156.478 221.427 125.565 221.427 125.565C221.427 125.565 216.541 161.281 197.178 178.056C176.102 196.329 154.269 194.415 142.136 193.494Z" fill="url(#paint21_linear_6_3715)"/>
<path style="mix-blend-mode:screen" fill-rule="evenodd" clip-rule="evenodd" d="M263.001 116.916C262.659 116.736 260.243 115.472 255.663 112.511L255.123 112.131C254.185 111.554 253.175 110.885 252.094 110.145C252.094 110.145 252.094 110.145 252.004 110.055C251.925 110.018 251.852 109.969 251.787 109.91C248.434 107.671 244.359 104.746 239.51 101.063C239.51 101.063 262.28 110.308 263.632 110.091C264.984 109.874 290.171 78.4377 290.892 40.6995C291.799 68.7636 281.801 96.0858 263.001 116.916Z" fill="url(#paint22_linear_6_3715)"/>
<path style="mix-blend-mode:screen" fill-rule="evenodd" clip-rule="evenodd" d="M92.0517 175.113C92.0517 175.113 132.725 176.485 171.757 156.587C213.782 135.19 232.587 107.834 232.587 107.834C232.587 107.834 215.405 138.223 172.334 159.801C129.263 181.378 92.0517 175.113 92.0517 175.113Z" fill="url(#paint23_linear_6_3715)"/>
</g>
<defs>
<radialGradient id="paint0_radial_6_3715" cx="0" cy="0" r="1" gradientUnits="userSpaceOnUse" gradientTransform="translate(127.965 122.135) scale(115.727 115.905)">
<stop offset="0.01" stop-color="#FFD700"/>
<stop offset="0.15" stop-color="#FCD500"/>
<stop offset="0.26" stop-color="#F1CE00"/>
<stop offset="0.38" stop-color="#E0C200"/>
<stop offset="0.48" stop-color="#C7B100"/>
<stop offset="0.56" stop-color="#B1A200"/>
<stop offset="0.61" stop-color="#B5A707"/>
<stop offset="0.69" stop-color="#C0B31A"/>
<stop offset="0.78" stop-color="#D1C93A"/>
<stop offset="0.88" stop-color="#EAE665"/>
<stop offset="0.96" stop-color="#FFFF8B"/>
</radialGradient>
<linearGradient id="paint1_linear_6_3715" x1="156.847" y1="193.043" x2="156.847" y2="121.756" gradientUnits="userSpaceOnUse">
<stop stop-color="#FAFAF5"/>
<stop offset="1" stop-color="#A2B794"/>
</linearGradient>
<radialGradient id="paint2_radial_6_3715" cx="0" cy="0" r="1" gradientUnits="userSpaceOnUse" gradientTransform="translate(102.563 0.613951) scale(116.737 116.916)">
<stop offset="0.01" stop-color="#FFD700"/>
<stop offset="0.21" stop-color="#FCD500"/>
<stop offset="0.39" stop-color="#F1CE00"/>
<stop offset="0.56" stop-color="#E0C200"/>
<stop offset="0.71" stop-color="#C7B100"/>
<stop offset="0.82" stop-color="#B1A200"/>
<stop offset="0.84" stop-color="#B5A507"/>
<stop offset="0.87" stop-color="#C0AC1A"/>
<stop offset="0.9" stop-color="#D1B93A"/>
<stop offset="0.93" stop-color="#EACA65"/>
<stop offset="0.96" stop-color="#FFD98B"/>
</radialGradient>
<linearGradient id="paint3_linear_6_3715" x1="39174.6" y1="15399.4" x2="39174.6" y2="13604.9" gradientUnits="userSpaceOnUse">
<stop stop-color="#FAFAF5"/>
<stop offset="1" stop-color="#A2B794"/>
</linearGradient>
<radialGradient id="paint4_radial_6_3715" cx="0" cy="0" r="1" gradientUnits="userSpaceOnUse" gradientTransform="translate(50.3922 100.604) scale(32.0374 32.0867)">
<stop offset="0.01" stop-color="#F0E6DB"/>
<stop offset="0.23" stop-color="#EEE3D9"/>
<stop offset="0.42" stop-color="#E7D8D3"/>
<stop offset="0.59" stop-color="#DCC7C8"/>
<stop offset="0.76" stop-color="#CDAEB9"/>
<stop offset="0.82" stop-color="#C7A4B3"/>
<stop offset="0.86" stop-color="#CEA4B4"/>
<stop offset="0.93" stop-color="#E1A3B8"/>
<stop offset="1" stop-color="#FFA2BD"/>
</radialGradient>
<radialGradient id="paint5_radial_6_3715" cx="0" cy="0" r="1" gradientUnits="userSpaceOnUse" gradientTransform="translate(49.5152 113.522) scale(5.64663 9.75057)">
<stop stop-color="#FF4000"/>
<stop offset="0.25" stop-color="#FD3F00"/>
<stop offset="0.38" stop-color="#F53D00"/>
<stop offset="0.49" stop-color="#E73A00"/>
<stop offset="0.59" stop-color="#D33500"/>
<stop offset="0.68" stop-color="#BA2F00"/>
<stop offset="0.76" stop-color="#9B2700"/>
<stop offset="0.83" stop-color="#751D00"/>
<stop offset="0.9" stop-color="#4A1300"/>
<stop offset="0.97" stop-color="#1B0700"/>
<stop offset="1"/>
</radialGradient>
<radialGradient id="paint6_radial_6_3715" cx="0" cy="0" r="1" gradientUnits="userSpaceOnUse" gradientTransform="translate(49.4837 113.071) scale(3.99448 6.89762)">
<stop offset="0.01" stop-color="#3B1400"/>
<stop offset="0.38" stop-color="#391203"/>
<stop offset="0.66" stop-color="#340D0D"/>
<stop offset="0.92" stop-color="#2B041D"/>
<stop offset="1" stop-color="#270024"/>
</radialGradient>
<radialGradient id="paint7_radial_6_3715" cx="0" cy="0" r="1" gradientUnits="userSpaceOnUse" gradientTransform="translate(108.8 41.8733) scale(153.425 153.662)">
<stop offset="0.01" stop-color="#FFD700"/>
<stop offset="0.21" stop-color="#FCD500"/>
<stop offset="0.39" stop-color="#F1CE00"/>
<stop offset="0.56" stop-color="#E0C200"/>
<stop offset="0.71" stop-color="#C7B100"/>
<stop offset="0.82" stop-color="#B1A200"/>
<stop offset="0.84" stop-color="#B6A707"/>
<stop offset="0.87" stop-color="#C3B41A"/>
<stop offset="0.91" stop-color="#D8C93A"/>
<stop offset="0.95" stop-color="#F6E765"/>
<stop offset="0.96" stop-color="#FFF072"/>
</radialGradient>
<linearGradient id="paint8_linear_6_3715" x1="88.536" y1="118.993" x2="88.536" y2="64.7329" gradientUnits="userSpaceOnUse">
<stop stop-color="#CACA93"/>
<stop offset="1" stop-color="#6D6E8D"/>
</linearGradient>
<radialGradient id="paint9_radial_6_3715" cx="0" cy="0" r="1" gradientUnits="userSpaceOnUse" gradientTransform="translate(11999.9 13012.3) scale(802.212 803.446)">
<stop offset="0.01" stop-color="#F0E6DB"/>
<stop offset="0.23" stop-color="#EEE3D9"/>
<stop offset="0.42" stop-color="#E7D8D3"/>
<stop offset="0.59" stop-color="#DCC7C8"/>
<stop offset="0.76" stop-color="#CDAEB9"/>
<stop offset="0.82" stop-color="#C7A4B3"/>
<stop offset="0.86" stop-color="#CEA4B4"/>
<stop offset="0.93" stop-color="#E1A3B8"/>
<stop offset="1" stop-color="#FFA2BD"/>
</radialGradient>
<radialGradient id="paint10_radial_6_3715" cx="0" cy="0" r="1" gradientUnits="userSpaceOnUse" gradientTransform="translate(5119.46 5526.83) scale(100.082 100.236)">
<stop stop-color="#FF4000"/>
<stop offset="0.25" stop-color="#FD3F00"/>
<stop offset="0.38" stop-color="#F53D00"/>
<stop offset="0.49" stop-color="#E73A00"/>
<stop offset="0.59" stop-color="#D33500"/>
<stop offset="0.68" stop-color="#BA2F00"/>
<stop offset="0.76" stop-color="#9B2700"/>
<stop offset="0.83" stop-color="#751D00"/>
<stop offset="0.9" stop-color="#4A1300"/>
<stop offset="0.97" stop-color="#1B0700"/>
<stop offset="1"/>
</radialGradient>
<radialGradient id="paint11_radial_6_3715" cx="0" cy="0" r="1" gradientUnits="userSpaceOnUse" gradientTransform="translate(3652.05 3939.03) scale(50.1376 50.2147)">
<stop offset="0.01" stop-color="#3B1400"/>
<stop offset="0.38" stop-color="#391203"/>
<stop offset="0.66" stop-color="#340D0D"/>
<stop offset="0.92" stop-color="#2B041D"/>
<stop offset="1" stop-color="#270024"/>
</radialGradient>
<linearGradient id="paint12_linear_6_3715" x1="23537.9" y1="18585.5" x2="23537.9" y2="16770.6" gradientUnits="userSpaceOnUse">
<stop stop-color="#CACA93"/>
<stop offset="1" stop-color="#6D6E8D"/>
</linearGradient>
<radialGradient id="paint13_radial_6_3715" cx="0" cy="0" r="1" gradientUnits="userSpaceOnUse" gradientTransform="translate(78.9988 128.184) scale(33.8041 33.8561)">
<stop offset="0.01" stop-color="#FFEC00"/>
<stop offset="0.28" stop-color="#FFE903"/>
<stop offset="0.51" stop-color="#FFDF0E"/>
<stop offset="0.73" stop-color="#FFCF1F"/>
<stop offset="0.93" stop-color="#FFB938"/>
<stop offset="1" stop-color="#FFB042"/>
</radialGradient>
<linearGradient id="paint14_linear_6_3715" x1="21116.6" y1="16654" x2="21116.6" y2="15169.8" gradientUnits="userSpaceOnUse">
<stop stop-color="#CACA93"/>
<stop offset="1" stop-color="#6D6E8D"/>
</linearGradient>
<linearGradient id="paint15_linear_6_3715" x1="65.5313" y1="66.2677" x2="118.843" y2="66.2677" gradientUnits="userSpaceOnUse">
<stop offset="0.01" stop-color="#FFC048"/>
<stop offset="0.07" stop-color="#F4BA42"/>
<stop offset="0.38" stop-color="#BE9B26"/>
<stop offset="0.65" stop-color="#968511"/>
<stop offset="0.87" stop-color="#7E7705"/>
<stop offset="1" stop-color="#757200"/>
</linearGradient>
<linearGradient id="paint16_linear_6_3715" x1="9048.93" y1="4591.81" x2="9734.48" y2="4591.81" gradientUnits="userSpaceOnUse">
<stop offset="0.01" stop-color="#FFC048"/>
<stop offset="0.07" stop-color="#F4BA42"/>
<stop offset="0.38" stop-color="#BE9B26"/>
<stop offset="0.65" stop-color="#968511"/>
<stop offset="0.87" stop-color="#7E7705"/>
<stop offset="1" stop-color="#757200"/>
</linearGradient>
<linearGradient id="paint17_linear_6_3715" x1="49788.4" y1="36283.3" x2="71959.7" y2="36283.3" gradientUnits="userSpaceOnUse">
<stop stop-color="#FAFAF5"/>
<stop offset="1" stop-color="#A2B794"/>
</linearGradient>
<linearGradient id="paint18_linear_6_3715" x1="18859" y1="23140.5" x2="18859" y2="19921.9" gradientUnits="userSpaceOnUse">
<stop stop-color="#FAFAF5"/>
<stop offset="1" stop-color="#A2B794"/>
</linearGradient>
<linearGradient id="paint19_linear_6_3715" x1="150.339" y1="60.8868" x2="150.339" y2="41.7107" gradientUnits="userSpaceOnUse">
<stop/>
<stop offset="0.08" stop-color="#090703"/>
<stop offset="0.22" stop-color="#211909"/>
<stop offset="0.4" stop-color="#493715"/>
<stop offset="0.6" stop-color="#806024"/>
<stop offset="0.82" stop-color="#C59438"/>
<stop offset="0.99" stop-color="#FFC048"/>
</linearGradient>
<linearGradient id="paint20_linear_6_3715" x1="3677.12" y1="21301.1" x2="3677.12" y2="18791.2" gradientUnits="userSpaceOnUse">
<stop/>
<stop offset="0.08" stop-color="#090703"/>
<stop offset="0.22" stop-color="#211909"/>
<stop offset="0.4" stop-color="#493715"/>
<stop offset="0.6" stop-color="#806024"/>
<stop offset="0.82" stop-color="#C59438"/>
<stop offset="0.99" stop-color="#FFC048"/>
</linearGradient>
<linearGradient id="paint21_linear_6_3715" x1="181.781" y1="194" x2="181.781" y2="125.565" gradientUnits="userSpaceOnUse">
<stop stop-color="#00B000"/>
<stop offset="0.08" stop-color="#09B203"/>
<stop offset="0.22" stop-color="#21B609"/>
<stop offset="0.4" stop-color="#49BC15"/>
<stop offset="0.6" stop-color="#80C624"/>
<stop offset="0.82" stop-color="#C5D138"/>
<stop offset="0.99" stop-color="#FFDB48"/>
</linearGradient>
<linearGradient id="paint22_linear_6_3715" x1="19125.9" y1="23140.5" x2="19125.9" y2="19921.9" gradientUnits="userSpaceOnUse">
<stop stop-color="#00B000"/>
<stop offset="0.08" stop-color="#09B203"/>
<stop offset="0.22" stop-color="#21B609"/>
<stop offset="0.4" stop-color="#49BC15"/>
<stop offset="0.6" stop-color="#80C624"/>
<stop offset="0.82" stop-color="#C5D138"/>
<stop offset="0.99" stop-color="#FFDB48"/>
</linearGradient>
<linearGradient id="paint23_linear_6_3715" x1="162.31" y1="175.962" x2="162.31" y2="107.816" gradientUnits="userSpaceOnUse">
<stop stop-color="#002A00"/>
<stop offset="0.08" stop-color="#093003"/>
<stop offset="0.22" stop-color="#214109"/>
<stop offset="0.4" stop-color="#495D15"/>
<stop offset="0.6" stop-color="#808324"/>
<stop offset="0.82" stop-color="#C5B338"/>
<stop offset="0.99" stop-color="#FFDB48"/>
</linearGradient>
<clipPath id="clip0_6_3715">
<rect width="341" height="194" fill="white"/>
</clipPath>
</defs>
</svg>
