<svg width="20" height="19" viewBox="0 0 20 19" fill="none" xmlns="http://www.w3.org/2000/svg">
<path d="M20 5C20 2.23858 17.7614 0 15 0H5C2.23858 0 0 2.23858 0 5V14C0 16.7614 2.23858 19 5 19H15C17.7614 19 20 16.7614 20 14V5Z" fill="#C4C4C4"/>
<path d="M6.616 16H13.266V14.628H10.69C10.186 14.628 9.542 14.67 9.01 14.726C11.194 12.64 12.776 10.582 12.776 8.594C12.776 6.732 11.558 5.5 9.668 5.5C8.324 5.5 7.414 6.074 6.532 7.04L7.442 7.936C7.988 7.306 8.66 6.788 9.472 6.788C10.634 6.788 11.222 7.558 11.222 8.678C11.222 10.372 9.654 12.374 6.616 15.062V16Z" fill="#565656"/>
</svg>
