<svg width="46" height="46" viewBox="0 0 46 46" fill="none" xmlns="http://www.w3.org/2000/svg">
<path d="M46 23.0026C46 29.6816 43.156 35.695 38.6088 39.8968C38.6062 39.8941 38.6009 39.8941 38.5956 39.8915C28.9784 36.9759 30.7793 31.7336 30.7793 31.7336C30.7793 31.7336 34.3363 27.2942 34.1409 24.2201C34.022 22.3926 33.7157 21.5422 33.4834 21.1566C33.3672 20.9612 33.1057 20.9084 32.9209 21.0431C31.6481 21.9885 26.5569 26.045 28.1862 29.568C28.1862 29.568 30.3621 33.6404 30.0558 34.9529C30.0558 34.9529 23.5123 30.5478 25.8862 23.2852C25.8862 23.2852 30.3067 20.6971 29.9132 16.741C29.5171 12.7848 27.8113 11.5541 27.8113 11.5541C27.8113 11.5541 23.9295 14.5199 24.0034 18.2753C24.0087 18.5553 24.0589 18.8326 24.1487 19.0967C24.4022 19.8441 24.9699 21.7323 24.6293 22.7966C24.2068 24.1145 24.764 27.5424 24.7877 27.6982C24.69 27.5028 21.4869 21.0589 21.7166 20.3142C21.949 19.5588 22.7967 15.983 21.4473 13.2496C20.4808 11.29 18.7935 10.1439 17.9168 9.65266C17.6104 9.481 17.2249 9.61304 17.0929 9.93788C16.4697 11.4353 15.0913 15.5446 17.349 18.2384C20.1534 21.5818 22.8204 22.9313 24.3863 30.1041C24.3863 30.1041 22.6884 28.6199 21.5556 27.0301C20.4518 25.4798 16.0234 20.6812 10.8108 24.7694C10.6471 24.8988 10.7052 25.1576 10.9085 25.2025C11.8803 25.427 14.1116 26.2035 16.5331 28.8154C17.1193 29.4465 17.9881 29.7265 18.8304 29.5469C20.0979 29.2749 21.8487 28.9289 22.3874 28.9685C23.2667 29.0346 30.8269 37.8131 30.8269 37.8131L29.6412 37.7365C29.3481 37.718 29.0814 37.5675 28.9098 37.3324C28.5955 36.894 27.975 36.1678 27.0745 35.6924C26.2269 35.2461 25.2208 35.2091 24.3203 35.5471C22.7887 36.1255 19.7599 37.3826 19.047 38.5737C18.9493 38.7374 19.0443 38.946 19.2292 38.9777C19.9791 39.1018 22.0177 39.3923 25.16 39.4584C25.1997 39.461 25.2393 39.4584 25.2762 39.4557C25.7357 39.4214 28.6536 39.1705 29.4352 38.5023C29.599 38.3624 29.8102 38.2884 30.0268 38.2752C31.0751 38.2039 33.89 38.3148 37.4971 40.8475C33.5388 44.0668 28.4899 46 22.9894 46C10.2959 46.0053 0 35.7056 0 23.0026C0 10.2997 10.2959 0 23 0C35.7041 0 46 10.2997 46 23.0026Z" fill="#24BEE0"/>
</svg>
