<svg width="38" height="37" viewBox="0 0 38 37" fill="none" xmlns="http://www.w3.org/2000/svg">
<path d="M34.0623 25.1549L28.7707 24.5629C27.4998 24.4199 26.2498 24.8487 25.354 25.7266L21.5207 29.4833C15.6248 26.5433 10.7915 21.827 7.79151 16.0287L11.6457 12.2516C12.5415 11.3737 12.979 10.1487 12.8332 8.90328L12.229 3.75828C11.979 1.6962 10.2082 0.144531 8.08317 0.144531H4.47901C2.12484 0.144531 0.166507 2.0637 0.312341 4.37078C1.41651 21.8066 15.6457 35.7308 33.4165 36.8129C35.7707 36.9558 37.729 35.0366 37.729 32.7295V29.1974C37.7498 27.1354 36.1665 25.3999 34.0623 25.1549Z" fill="#47CE3B"/>
</svg>
