<svg width="32" height="32" viewBox="0 0 32 32" fill="none" xmlns="http://www.w3.org/2000/svg">
<mask id="mask0" mask-type="alpha" maskUnits="userSpaceOnUse" x="2" y="2" width="29" height="28">
<path fill-rule="evenodd" clip-rule="evenodd" d="M2.66797 2.66602H30.0007V29.9987H2.66797V2.66602Z" fill="white"/>
</mask>
<g mask="url(#mask0)">
<path fill-rule="evenodd" clip-rule="evenodd" d="M5.81341 6.74755C5.81608 6.74755 5.74941 6.81689 5.66541 6.89955C5.34275 7.21289 4.67475 7.86489 4.66808 9.22889C4.65741 11.1369 5.91208 14.6796 11.9534 20.7196C17.9667 26.7302 21.5041 27.9996 23.4161 27.9996H23.4441C24.8081 27.9929 25.4587 27.3236 25.7734 27.0022C25.8694 26.9036 25.9467 26.8316 26.0014 26.7862C27.3294 25.4502 28.0094 24.4556 28.0027 23.8182C27.9934 23.1676 27.1841 22.3982 26.0654 21.3342C25.7094 20.9956 25.3227 20.6276 24.9147 20.2196C23.8574 19.1649 23.3334 19.3449 22.1814 19.7502C20.5881 20.3089 18.4014 21.0689 15.0041 17.6702C11.6014 14.2702 12.3627 12.0862 12.9201 10.4929C13.3227 9.34089 13.5067 8.81555 12.4481 7.75689C12.0334 7.34355 11.6614 6.95155 11.3187 6.59155C10.2614 5.47955 9.49875 4.67555 8.85208 4.66622H8.84141C8.20275 4.66622 7.21075 5.34889 5.80675 6.75289C5.81075 6.74889 5.81208 6.74755 5.81341 6.74755ZM23.4174 29.9996C20.0947 29.9996 15.7627 27.3542 10.5401 22.1342C5.29741 16.8929 2.64808 12.5476 2.66808 9.21822C2.68008 7.01822 3.83341 5.89155 4.26675 5.46889C4.28941 5.44089 4.36675 5.36489 4.39341 5.33822C6.30541 3.42489 7.59475 2.65155 8.87741 2.66622C10.3667 2.68622 11.4267 3.80089 12.7681 5.21289C13.1001 5.56222 13.4601 5.94222 13.8614 6.34222C15.8081 8.28889 15.2534 9.87689 14.8081 11.1516C14.3227 12.5422 13.9027 13.7422 16.4174 16.2569C18.9347 18.7716 20.1347 18.3516 21.5201 17.8622C22.7961 17.4169 24.3801 16.8596 26.3294 18.8062C26.7241 19.2009 27.0987 19.5569 27.4441 19.8862C28.8627 21.2342 29.9827 22.2996 30.0014 23.7929C30.0174 25.0662 29.2441 26.3636 27.3347 28.2742L26.4894 27.7009L27.2041 28.3996C26.7814 28.8329 25.6561 29.9876 23.4547 29.9996H23.4174Z" fill="#A5250A"/>
</g>
</svg>
