<svg width="32" height="32" viewBox="0 0 32 32" fill="none" xmlns="http://www.w3.org/2000/svg">
<g clip-path="url(#clip0)">
<path d="M31.568 10.5093L16.568 0.176C16.2267 -0.0586667 15.776 -0.0586667 15.4333 0.176L0.433333 10.5093C0.161333 10.696 0 11.004 0 11.3333V30.6667C0 31.4027 0.597333 32 1.33333 32H4V16C4 15.264 4.59733 14.6667 5.33333 14.6667H26.6667C27.4027 14.6667 28 15.264 28 16V32H30.6667C31.4027 32 32 31.4027 32 30.6667V11.3333C32 11.004 31.8387 10.696 31.568 10.5093Z" fill="#851801"/>
<path d="M12.333 25.332V26.332C12.333 26.884 11.885 27.332 11.333 27.332C10.781 27.332 10.333 26.884 10.333 26.332V25.332H7.99967C7.63167 25.332 7.33301 25.6307 7.33301 25.9987V31.332C7.33301 31.7 7.63167 31.9987 7.99967 31.9987H14.6663C15.0343 31.9987 15.333 31.7 15.333 31.332V25.9987C15.333 25.6307 15.0343 25.332 14.6663 25.332H12.333Z" fill="#851801"/>
<path d="M21.667 25.332V26.332C21.667 26.884 21.219 27.332 20.667 27.332C20.115 27.332 19.667 26.884 19.667 26.332V25.332H17.3337C16.9657 25.332 16.667 25.6307 16.667 25.9987V31.332C16.667 31.7 16.9657 31.9987 17.3337 31.9987H24.0003C24.3683 31.9987 24.667 31.7 24.667 31.332V25.9987C24.667 25.6307 24.3683 25.332 24.0003 25.332H21.667Z" fill="#851801"/>
<path d="M17 17.332V18.332C17 18.884 16.552 19.332 16 19.332C15.448 19.332 15 18.884 15 18.332V17.332H12.6667C12.2987 17.332 12 17.6307 12 17.9987V23.332C12 23.7 12.2987 23.9987 12.6667 23.9987H19.3333C19.7013 23.9987 20 23.7 20 23.332V17.9987C20 17.6307 19.7013 17.332 19.3333 17.332H17Z" fill="#851801"/>
</g>
<defs>
<clipPath id="clip0">
<rect width="32" height="32" fill="white"/>
</clipPath>
</defs>
</svg>
