<svg width="152" height="50" viewBox="0 0 152 50" fill="none" xmlns="http://www.w3.org/2000/svg">
<path d="M26.2589 11.9717L26.2571 11.95L3.08898 11.9483L30.6027 7.945L4.56 7.975L34.4702 3.91667L34.4568 3.90167L5.97698 4L39.0269 0.00999928L39.015 0L7.51893 0.0133324L5.54968 4L5.53618 3.99834L3.62605 8.09834H3.64293L1.76995 12.1383L1.80035 12.1367L0 16.0833L26.2589 11.9717Z" fill="#838291"/>
<path d="M46.2425 10.173C39.0495 17.2581 29.0225 29.1314 20.5274 46.6681C29.5815 26.6897 39.1153 13.3181 44.6194 6.61472L44.589 6.59304C37.3775 13.2564 25.5079 26.2847 15.7141 46.7231C26.4807 22.8014 38.1713 8.23804 42.9559 2.96304H42.9137C36.398 8.39304 21.6319 22.5281 10.0901 47.0214C24.319 15.0781 40.2013 0.654714 40.7012 0.304714L40.7215 0.248047L40.1861 0.613046C35.0991 4.54304 17.3962 19.6681 4.38672 48.6547L9.3149 48.6964L9.3453 48.6981L14.7615 48.7481H14.8241L19.5141 48.7897H19.5799L26.2004 48.8514C31.5407 29.8497 40.7367 17.7514 46.2239 10.2047L46.2425 10.173Z" fill="#838291"/>
<path d="M61.0199 27.463C60.8141 27.9492 60.4965 28.3792 60.0631 28.7552C59.6295 29.127 59.0733 29.4295 58.3945 29.6607C57.7155 29.8897 56.9098 30.0065 55.9792 30.0065C55.5938 30.0065 55.2083 29.9805 54.8317 29.9265C54.4507 29.8725 54.085 29.8055 53.7325 29.719C53.3799 29.6347 53.0559 29.531 52.7624 29.4144C52.4712 29.2955 52.2194 29.1789 52.0048 29.06C51.9369 29.0211 51.9194 28.9735 51.9435 28.9216L52.5259 27.0309C52.5501 26.9509 52.6025 26.9315 52.6836 26.9704C53.1106 27.234 53.6252 27.4544 54.234 27.6316C54.8383 27.8087 55.4799 27.8974 56.1587 27.8974C56.9711 27.8974 57.6018 27.7331 58.0463 27.4047C58.4929 27.0762 58.7119 26.6484 58.7119 26.1232C58.7119 25.6371 58.5171 25.233 58.1142 24.911C57.7155 24.589 57.0697 24.2886 56.1784 24.0142C55.5784 23.8284 55.0354 23.6187 54.5514 23.3724C54.0653 23.1326 53.6471 22.8495 53.3032 22.5275C52.9573 22.2055 52.688 21.8425 52.4952 21.4427C52.3004 21.043 52.204 20.587 52.204 20.0727C52.204 19.5216 52.3223 19.0117 52.5522 18.5449C52.7866 18.0781 53.1193 17.6741 53.5529 17.3326C53.9843 16.9913 54.5054 16.7255 55.1098 16.5352C55.7164 16.3472 56.3973 16.25 57.1572 16.25C57.9675 16.25 58.6659 16.3191 59.244 16.4575C59.8221 16.5936 60.306 16.7621 60.6914 16.961C60.7572 16.9869 60.779 17.0301 60.7506 17.0971L60.1527 18.9101C60.1397 18.949 60.1112 18.9771 60.0718 18.9901C60.0323 19.003 59.9995 18.9966 59.971 18.9706C59.7455 18.8496 59.3841 18.7135 58.8828 18.5536C58.3856 18.398 57.7945 18.3203 57.1178 18.3203C56.6908 18.3203 56.3317 18.3656 56.0405 18.4585C55.7449 18.5471 55.5084 18.6703 55.331 18.8215C55.1514 18.9727 55.0178 19.1435 54.9303 19.3336C54.8449 19.526 54.8011 19.7119 54.8011 19.8955C54.8011 20.3817 55.0135 20.7729 55.4405 21.0689C55.8653 21.3627 56.5507 21.6566 57.4967 21.9462C58.7755 22.3525 59.7345 22.8625 60.3739 23.4719C61.0112 24.0855 61.3287 24.9154 61.3287 25.9655C61.3287 26.4776 61.2279 26.979 61.0199 27.463Z" fill="#838291"/>
<path d="M69.1386 18.5955V29.6507C69.1386 29.7284 69.0992 29.7673 69.0181 29.7673H66.6816C66.6028 29.7673 66.5634 29.7284 66.5634 29.6507V18.5955H62.3504C62.2693 18.5955 62.2299 18.5543 62.2299 18.4766V16.5836C62.2299 16.5188 62.2693 16.4863 62.3504 16.4863H73.3735C73.4523 16.4863 73.4939 16.5188 73.4939 16.5836V18.4766C73.4939 18.5543 73.4523 18.5955 73.3735 18.5955H69.1386Z" fill="#838291"/>
<path d="M77.2653 25.058C77.4646 25.6371 77.747 26.1427 78.115 26.5749C78.4784 27.0092 78.9296 27.3507 79.4616 27.5992C79.996 27.852 80.5937 27.9753 81.2594 27.9753C81.9405 27.9753 82.5492 27.852 83.0857 27.5992C83.6265 27.3507 84.082 27.0092 84.4564 26.5749C84.8287 26.1427 85.1133 25.6263 85.3149 25.0278C85.5141 24.4313 85.6148 23.7851 85.6148 23.0872C85.6148 22.4691 85.5207 21.8706 85.3345 21.2936C85.1484 20.7166 84.8703 20.2045 84.5046 19.7573C84.1389 19.3099 83.6857 18.9534 83.147 18.6832C82.6061 18.4131 81.9886 18.2791 81.2989 18.2791C80.5937 18.2791 79.9718 18.411 79.4309 18.6725C78.8945 18.9383 78.439 19.2883 78.0733 19.7378C77.7055 20.1851 77.4296 20.7059 77.2457 21.3045C77.0573 21.9009 76.9654 22.5361 76.9654 23.206C76.9654 23.863 77.0661 24.481 77.2653 25.058ZM87.7892 25.905C87.4301 26.7738 86.9286 27.5085 86.2915 28.1135C85.6521 28.7185 84.8988 29.1854 84.025 29.5138C83.1536 29.8401 82.2119 30.0042 81.2003 30.0042C80.1623 30.0042 79.2164 29.8336 78.3647 29.4921C77.5105 29.1508 76.7836 28.6819 76.177 28.0832C75.5705 27.4846 75.1019 26.7759 74.7713 25.9548C74.4362 25.1358 74.2698 24.2433 74.2698 23.2839C74.2698 22.2466 74.4471 21.298 74.7975 20.4379C75.1501 19.5779 75.6427 18.8345 76.2668 18.21C76.8953 17.5876 77.642 17.1036 78.5135 16.7621C79.3872 16.4208 80.3332 16.25 81.3602 16.25C82.4243 16.25 83.3856 16.4208 84.2462 16.7621C85.1046 17.1036 85.8338 17.5748 86.4426 18.1711C87.0469 18.7696 87.5133 19.4806 87.8374 20.3104C88.1659 21.1359 88.33 22.0305 88.33 22.99C88.33 24.0661 88.1483 25.0364 87.7892 25.905Z" fill="#838291"/>
<path d="M100.045 16.4767C100.678 16.628 101.133 16.775 101.413 16.922C101.479 16.9478 101.499 16.9932 101.472 17.0581L100.934 18.8516C100.908 18.9446 100.851 18.964 100.774 18.9121C100.413 18.7543 99.979 18.6182 99.4645 18.508C98.9543 18.3957 98.3915 18.3416 97.7762 18.3416C96.9792 18.3416 96.2543 18.4518 95.6106 18.6745C94.9646 18.8991 94.4105 19.2168 93.9529 19.6296C93.4952 20.0445 93.1427 20.5545 92.8953 21.1573C92.6478 21.7623 92.5274 22.4387 92.5274 23.1865C92.5274 23.8563 92.6391 24.4786 92.8668 25.0513C93.0901 25.6217 93.4209 26.1188 93.8543 26.538C94.2857 26.9593 94.8266 27.2857 95.4705 27.5233C96.1163 27.759 96.8587 27.8777 97.6995 27.8777C98.2689 27.8777 98.8338 27.8281 99.3856 27.7287C99.9352 27.6315 100.406 27.4975 100.796 27.3267C100.872 27.2857 100.927 27.3116 100.953 27.4067L101.394 29.1786C101.418 29.2046 101.4 29.2392 101.33 29.2781C100.999 29.4487 100.485 29.613 99.7842 29.7686C99.0857 29.9285 98.2623 30.0063 97.3185 30.0063C96.1733 30.0063 95.1419 29.8486 94.2244 29.5331C93.3047 29.2197 92.5186 28.766 91.8662 28.1738C91.2136 27.5817 90.7121 26.873 90.3596 26.0432C90.0071 25.2177 89.8275 24.2906 89.8275 23.2663C89.8275 22.2572 90.0158 21.3237 90.3902 20.468C90.7602 19.6145 91.2902 18.8753 91.9756 18.2508C92.6631 17.6263 93.4865 17.138 94.4522 16.7836C95.42 16.4271 96.493 16.252 97.6776 16.252C98.6236 16.252 99.412 16.3255 100.045 16.4767Z" fill="#838291"/>
<path d="M111.976 29.9658C111.947 29.9658 111.914 29.9465 111.873 29.9053L107.441 23.6992C107.23 23.9218 107.02 24.1378 106.81 24.3497C106.604 24.5593 106.403 24.7753 106.206 24.998V29.6505C106.206 29.7282 106.164 29.7671 106.083 29.7671H103.766C103.687 29.7671 103.648 29.7282 103.648 29.6505V16.5833C103.648 16.5185 103.687 16.4861 103.766 16.4861H106.083C106.164 16.4861 106.206 16.5185 106.206 16.5833L106.263 22.299C106.368 22.1282 106.464 22.0007 106.543 21.9143C106.624 21.8301 106.709 21.7328 106.801 21.6291L107.101 21.2725L111.356 16.4256C111.382 16.3975 111.415 16.3867 111.454 16.3867L114.253 16.4861C114.305 16.4861 114.34 16.5055 114.36 16.5445C114.382 16.5833 114.371 16.6243 114.332 16.6632L109.3 22.1412C110.204 23.3751 111.113 24.6111 112.024 25.8472C112.935 27.0811 113.843 28.3215 114.75 29.5705C114.778 29.6115 114.781 29.6547 114.761 29.698C114.741 29.7455 114.704 29.7671 114.651 29.7671L111.976 29.9658Z" fill="#838291"/>
<path d="M61.6485 48.8046C61.5675 48.8046 61.5281 48.7657 61.5281 48.6857V42.9507H55.1384V48.6857C55.1384 48.7657 55.099 48.8046 55.018 48.8046H52.6816C52.6005 48.8046 52.5633 48.7657 52.5633 48.6857V35.6209C52.5633 35.5539 52.6005 35.5215 52.6816 35.5215H55.018C55.099 35.5215 55.1384 35.5539 55.1384 35.6209V40.766H61.5281V35.6209C61.5281 35.5539 61.5675 35.5215 61.6485 35.5215H63.985C64.066 35.5215 64.1054 35.5539 64.1054 35.6209V48.6857C64.1054 48.7657 64.066 48.8046 63.985 48.8046H61.6485Z" fill="#838291"/>
<path d="M69.3588 44.0953C69.5602 44.6744 69.8405 45.18 70.2062 45.6144C70.5741 46.0467 71.023 46.388 71.5551 46.6365C72.0872 46.8872 72.6871 47.0125 73.3529 47.0125C74.0295 47.0125 74.6404 46.8872 75.179 46.6365C75.7199 46.388 76.1732 46.0467 76.5477 45.6144C76.9199 45.18 77.209 44.6637 77.4082 44.0672C77.6053 43.4687 77.706 42.8204 77.706 42.1245C77.706 41.5087 77.6141 40.91 77.4257 40.3309C77.2396 39.7518 76.9638 39.2419 76.5981 38.7945C76.2324 38.3494 75.779 37.9885 75.2403 37.7205C74.6996 37.4504 74.0842 37.3165 73.3923 37.3165C72.6871 37.3165 72.0653 37.4483 71.5266 37.7119C70.9879 37.9713 70.5325 38.3278 70.1668 38.7752C69.8011 39.2224 69.5251 39.7432 69.3391 40.3418C69.1507 40.9382 69.0587 41.5713 69.0587 42.2434C69.0587 42.9003 69.1573 43.5183 69.3588 44.0953ZM79.8827 44.9424C79.5257 45.8089 79.0242 46.5458 78.3848 47.1508C77.7454 47.7559 76.99 48.2205 76.1207 48.5489C75.2469 48.8774 74.3031 49.0417 73.2916 49.0417C72.2537 49.0417 71.3076 48.8709 70.458 48.5295C69.604 48.188 68.877 47.7192 68.2705 47.1228C67.6639 46.522 67.1954 45.8133 66.8625 44.992C66.5274 44.1709 66.3633 43.2807 66.3633 42.3212C66.3633 41.2839 66.5383 40.3353 66.8931 39.473C67.2456 38.6152 67.7339 37.8718 68.358 37.2473C68.9843 36.6228 69.7354 36.1388 70.6069 35.7995C71.4785 35.458 72.4266 35.2852 73.4514 35.2852C74.5178 35.2852 75.4791 35.458 76.3374 35.7995C77.198 36.1388 77.9293 36.6099 78.5359 37.2084C79.1403 37.8049 79.6067 38.5179 79.9329 39.3455C80.2592 40.1732 80.4235 41.0678 80.4235 42.0252C80.4235 43.1034 80.2439 44.0758 79.8827 44.9424Z" fill="#838291"/>
<path d="M101.921 38.5746C100.995 37.7988 99.6392 37.4141 97.8568 37.4141C97.3904 37.4141 96.9984 37.4271 96.6786 37.4531C96.3589 37.479 96.0852 37.5178 95.8597 37.5718V46.8508C96.0722 46.879 96.3174 46.8941 96.5976 46.9006C96.8779 46.9092 97.1757 46.9136 97.4954 46.9136C98.4436 46.9136 99.2778 46.7968 100.003 46.5656C100.727 46.3387 101.334 46.006 101.82 45.5738C102.306 45.1395 102.676 44.6122 102.928 43.9941C103.182 43.3761 103.309 42.689 103.309 41.9261C103.309 40.4697 102.845 39.3525 101.921 38.5746ZM105.444 44.7246C105.059 45.5911 104.518 46.3345 103.828 46.9525C103.108 47.6072 102.171 48.1042 101.01 48.4392C99.8538 48.7762 98.5422 48.9405 97.0771 48.9405C96.278 48.9405 95.5837 48.9297 94.9904 48.9037C94.3992 48.8757 93.8627 48.8303 93.3831 48.7655C93.3153 48.7655 93.2846 48.7266 93.2846 48.6466V35.7978C93.2846 35.7178 93.3153 35.6767 93.3831 35.6767C94.0072 35.6011 94.6861 35.5341 95.4217 35.4823C96.151 35.4305 96.9173 35.4023 97.7165 35.4023C100.46 35.4023 102.51 35.962 103.868 37.0792C104.533 37.6281 105.059 38.3023 105.444 39.0997C105.832 39.8927 106.022 40.8025 106.022 41.829C106.022 42.8921 105.832 43.858 105.444 44.7246Z" fill="#838291"/>
<path d="M108.3 48.8046C108.218 48.8046 108.179 48.7657 108.179 48.6857V35.6209C108.179 35.5539 108.218 35.5215 108.3 35.5215H110.636C110.715 35.5215 110.756 35.5539 110.756 35.6209V48.6857C110.756 48.7657 110.715 48.8046 110.636 48.8046H108.3Z" fill="#838291"/>
<path d="M122.717 48.8046C122.691 48.8046 122.658 48.783 122.618 48.7462L118.526 42.6957C118.059 41.9977 117.606 41.2955 117.166 40.5866C116.728 39.8779 116.334 39.1734 115.988 38.4797C116.03 39.2792 116.056 40.0767 116.069 40.8719C116.08 41.6671 116.089 42.525 116.089 43.4434V48.6857C116.089 48.7657 116.049 48.8046 115.966 48.8046H113.794C113.711 48.8046 113.671 48.7657 113.671 48.6857V35.6209C113.671 35.5539 113.711 35.5215 113.794 35.5215H116.568C116.608 35.5474 116.634 35.5669 116.647 35.5799L120.759 41.4747C121.226 42.1447 121.642 42.793 122.01 43.424C122.378 44.0571 122.717 44.6795 123.037 45.2975C122.971 44.5476 122.932 43.8086 122.919 43.0782C122.905 42.35 122.897 41.5591 122.897 40.7055V35.6209C122.897 35.5539 122.938 35.5215 123.019 35.5215H125.196C125.275 35.5215 125.314 35.5539 125.314 35.6209V48.6857C125.314 48.7657 125.275 48.8046 125.196 48.8046H122.717Z" fill="#838291"/>
<path d="M140.133 48.2924C139.998 48.3182 139.881 48.3312 139.775 48.3312C139.68 48.3442 139.593 48.3506 139.512 48.3506C139.436 48.3506 139.341 48.3701 139.235 48.409C138.728 48.5537 138.141 48.6791 137.476 48.7829C136.813 48.8909 136.098 48.9406 135.341 48.9406C132.877 48.9406 130.939 48.3052 129.529 47.0282C128.905 46.4512 128.417 45.7511 128.071 44.9212C127.724 44.0936 127.555 43.2055 127.555 42.2612C127.555 41.3017 127.733 40.405 128.102 39.5709C128.468 38.7367 129 38.0085 129.7 37.384C130.398 36.7574 131.251 36.2711 132.255 35.9167C133.258 35.5602 134.401 35.3809 135.683 35.3809C136.6 35.3809 137.406 35.463 138.105 35.6207C138.805 35.7785 139.326 35.9275 139.674 36.0745C139.753 36.1004 139.779 36.1436 139.753 36.2106L139.195 38.0236C139.181 38.1014 139.133 38.1295 139.055 38.1014C138.628 37.9329 138.148 37.7837 137.606 37.6585C137.066 37.5331 136.405 37.4726 135.62 37.4726C134.794 37.4726 134.051 37.585 133.391 37.8075C132.735 38.0301 132.173 38.3477 131.706 38.754C131.239 39.1602 130.881 39.6486 130.626 40.2191C130.374 40.7917 130.248 41.4249 130.248 42.1251C130.248 42.8187 130.365 43.4584 130.609 44.0354C130.848 44.6122 131.194 45.1115 131.647 45.5329C132.098 45.9542 132.645 46.2805 133.295 46.5182C133.937 46.7537 134.667 46.8705 135.483 46.8705C136 46.8705 136.449 46.8402 136.828 46.7754C137.209 46.7084 137.502 46.6371 137.717 46.555V43.4649H135.08C135.001 43.4649 134.96 43.4237 134.96 43.3439V41.5524C134.96 41.4725 135.001 41.4336 135.08 41.4336H140.115C140.193 41.4336 140.233 41.4725 140.233 41.5524V48.1951L140.133 48.2924Z" fill="#838291"/>
<path d="M151.343 46.4983C151.136 46.9846 150.818 47.4167 150.384 47.7885C149.953 48.1645 149.396 48.467 148.718 48.696C148.04 48.9251 147.233 49.0396 146.301 49.0396C145.916 49.0396 145.532 49.0137 145.153 48.9618C144.774 48.91 144.407 48.8386 144.054 48.7566C143.699 48.6701 143.377 48.5663 143.086 48.4497C142.793 48.3308 142.539 48.212 142.329 48.0931C142.259 48.0563 142.239 48.0088 142.265 47.957L142.845 46.064C142.872 45.9862 142.926 45.9646 143.007 46.0057C143.43 46.2671 143.947 46.4897 144.553 46.667C145.159 46.8441 145.804 46.9327 146.482 46.9327C147.293 46.9327 147.921 46.7663 148.368 46.44C148.815 46.1116 149.035 45.6837 149.035 45.1586C149.035 44.6723 148.837 44.2683 148.438 43.9463C148.04 43.6243 147.394 43.3261 146.5 43.0517C145.902 42.8658 145.36 42.652 144.876 42.41C144.389 42.1636 143.971 41.8848 143.623 41.5607C143.278 41.2408 143.01 40.8778 142.815 40.4781C142.624 40.0761 142.527 39.6202 142.527 39.1058C142.527 38.5548 142.644 38.0492 142.876 37.5825C143.107 37.1156 143.443 36.7093 143.875 36.3701C144.308 36.0266 144.825 35.763 145.432 35.5706C146.037 35.3782 146.719 35.2832 147.479 35.2832C148.291 35.2832 148.987 35.3545 149.565 35.4928C150.146 35.629 150.628 35.7975 151.013 35.9941C151.079 36.0201 151.1 36.0676 151.075 36.1325L150.474 37.9455C150.462 37.9843 150.435 38.0125 150.393 38.0253C150.357 38.0362 150.321 38.0318 150.292 38.0038C150.069 37.8871 149.708 37.7488 149.206 37.5911C148.707 37.4333 148.118 37.3533 147.439 37.3533C147.013 37.3533 146.653 37.3987 146.36 37.4895C146.069 37.5846 145.832 37.7056 145.655 37.8568C145.472 38.0081 145.337 38.1788 145.254 38.369C145.165 38.5591 145.123 38.7471 145.123 38.9308C145.123 39.4148 145.336 39.8082 145.76 40.1021C146.189 40.3981 146.875 40.6898 147.818 40.9793C149.098 41.3878 150.056 41.8956 150.696 42.5071C151.334 43.1187 151.652 43.9506 151.652 45.0008C151.652 45.5108 151.55 46.0122 151.343 46.4983Z" fill="#838291"/>
<path d="M91.4535 46.6567H85.2346V35.6209C85.2346 35.5517 85.1951 35.5215 85.1163 35.5215H82.7798C82.6989 35.5215 82.6595 35.5517 82.6595 35.6209V48.6836C82.6595 48.7657 82.6989 48.8046 82.7798 48.8046H91.4535V46.6567Z" fill="#838291"/>
</svg>
