<svg width="32" height="32" viewBox="0 0 32 32" fill="none" xmlns="http://www.w3.org/2000/svg">
<path d="M4.25 25.5C4.25 25.6989 4.32902 25.8897 4.46967 26.0303C4.61032 26.171 4.80109 26.25 5 26.25H6.6875C6.85476 26.25 7.01722 26.1941 7.14906 26.0912C7.2809 25.9882 7.37455 25.8442 7.41512 25.6819L8.58556 21H4.25V25.5Z" fill="#851801"/>
<path d="M9.25 20.3171C11.7216 20.6934 17.1629 22.634 20.75 25.9264V6.07227C17.1629 9.36464 11.7216 11.3053 9.25 11.6816V20.3171Z" fill="#851801"/>
<path d="M23.5 3C22.9697 3.0006 22.4614 3.2115 22.0864 3.58644C21.7115 3.96139 21.5006 4.46975 21.5 5V27C21.5 27.5304 21.7107 28.0391 22.0858 28.4142C22.4609 28.7893 22.9696 29 23.5 29C24.0304 29 24.5391 28.7893 24.9142 28.4142C25.2893 28.0391 25.5 27.5304 25.5 27V5C25.4994 4.46975 25.2885 3.96139 24.9136 3.58644C24.5386 3.2115 24.0303 3.0006 23.5 3Z" fill="#851801"/>
<path d="M4.25 11.75H8.5V20.25H4.25V11.75Z" fill="#851801"/>
<path d="M0.25 14V18C0.250662 18.5965 0.487927 19.1684 0.909741 19.5903C1.33155 20.0121 1.90347 20.2493 2.5 20.25H3.5V11.75H2.5C1.90347 11.7507 1.33155 11.9879 0.909741 12.4097C0.487927 12.8316 0.250662 13.4035 0.25 14Z" fill="#851801"/>
<path d="M31 15.25H28.5C28.3011 15.25 28.1103 15.329 27.9697 15.4697C27.829 15.6103 27.75 15.8011 27.75 16C27.75 16.1989 27.829 16.3897 27.9697 16.5303C28.1103 16.671 28.3011 16.75 28.5 16.75H31C31.1989 16.75 31.3897 16.671 31.5303 16.5303C31.671 16.3897 31.75 16.1989 31.75 16C31.75 15.8011 31.671 15.6103 31.5303 15.4697C31.3897 15.329 31.1989 15.25 31 15.25Z" fill="#851801"/>
<path d="M27.2657 11.3335C27.3781 11.3335 27.489 11.3081 27.5902 11.2593L29.8435 10.176C30.0228 10.0898 30.1604 9.93587 30.2263 9.74816C30.2921 9.56045 30.2806 9.35428 30.1944 9.17501C30.1082 8.99574 29.9544 8.85806 29.7666 8.79224C29.5789 8.72643 29.3728 8.73788 29.1935 8.82407L26.9404 9.90745C26.7871 9.98107 26.6634 10.1046 26.5896 10.2578C26.5157 10.4109 26.4961 10.5847 26.534 10.7504C26.5718 10.9162 26.6649 11.0642 26.7979 11.1702C26.9309 11.2761 27.0959 11.3337 27.266 11.3335H27.2657Z" fill="#851801"/>
<path d="M29.8435 21.8251L27.5904 20.7418C27.4114 20.6572 27.2062 20.6469 27.0195 20.713C26.8328 20.7792 26.6799 20.9164 26.5941 21.0949C26.5083 21.2734 26.4965 21.4786 26.5614 21.6657C26.6263 21.8528 26.7626 22.0066 26.9404 22.0936L29.1935 23.177C29.3728 23.2632 29.5789 23.2746 29.7667 23.2088C29.9544 23.143 30.1082 23.0053 30.1944 22.8261C30.2806 22.6468 30.2921 22.4406 30.2263 22.2529C30.1605 22.0652 30.0228 21.9113 29.8435 21.8251Z" fill="#851801"/>
</svg>
