<svg width="32" height="32" viewBox="0 0 32 32" fill="none" xmlns="http://www.w3.org/2000/svg">
<path fill-rule="evenodd" clip-rule="evenodd" d="M10.228 2.66602H21.788C26.308 2.66602 29.3346 5.83935 29.3346 10.5593V21.454C29.3346 26.1607 26.308 29.3327 21.788 29.3327H10.228C5.70797 29.3327 2.66797 26.1607 2.66797 21.454V10.5593C2.66797 5.83935 5.70797 2.66602 10.228 2.66602ZM20.0146 19.9993C20.468 19.5473 20.468 18.814 20.0146 18.3607L17.6413 15.9873L20.0146 13.6127C20.468 13.1607 20.468 12.414 20.0146 11.9607C19.5613 11.506 18.828 11.506 18.3613 11.9607L16.0013 14.3327L13.628 11.9607C13.1613 11.506 12.428 11.506 11.9746 11.9607C11.5213 12.414 11.5213 13.1607 11.9746 13.6127L14.348 15.9873L11.9746 18.3473C11.5213 18.814 11.5213 19.5473 11.9746 19.9993C12.2013 20.226 12.508 20.3473 12.8013 20.3473C13.108 20.3473 13.4013 20.226 13.628 19.9993L16.0013 17.6407L18.3746 19.9993C18.6013 20.2407 18.8946 20.3473 19.188 20.3473C19.4946 20.3473 19.788 20.226 20.0146 19.9993Z" fill="white"/>
</svg>
