<svg width="100" height="81" viewBox="0 0 100 81" fill="none" xmlns="http://www.w3.org/2000/svg">
<rect width="7.83871" height="7.83871" rx="3.91935" fill="#E6E6F5"/>
<rect y="18.291" width="7.83871" height="7.83871" rx="3.91935" fill="#E6E6F5"/>
<rect y="36.5801" width="7.83871" height="7.83871" rx="3.91935" fill="#E6E6F5"/>
<rect y="54.8711" width="7.83871" height="7.83871" rx="3.91935" fill="#E6E6F5"/>
<rect y="73.1621" width="7.83871" height="7.83871" rx="3.91935" fill="#E6E6F5"/>
<rect x="18.2903" width="7.83871" height="7.83871" rx="3.91935" fill="#E6E6F5"/>
<rect x="18.2903" y="18.291" width="7.83871" height="7.83871" rx="3.91935" fill="#E6E6F5"/>
<rect x="18.2903" y="36.5801" width="7.83871" height="7.83871" rx="3.91935" fill="#E6E6F5"/>
<rect x="18.2903" y="54.8711" width="7.83871" height="7.83871" rx="3.91935" fill="#E6E6F5"/>
<rect x="18.2903" y="73.1621" width="7.83871" height="7.83871" rx="3.91935" fill="#E6E6F5"/>
<rect x="36.5807" width="7.83871" height="7.83871" rx="3.91935" fill="#E6E6F5"/>
<rect x="36.5807" y="18.291" width="7.83871" height="7.83871" rx="3.91935" fill="#E6E6F5"/>
<rect x="36.5807" y="36.5801" width="7.83871" height="7.83871" rx="3.91935" fill="#E6E6F5"/>
<rect x="36.5807" y="54.8711" width="7.83871" height="7.83871" rx="3.91935" fill="#E6E6F5"/>
<rect x="36.5807" y="73.1621" width="7.83871" height="7.83871" rx="3.91935" fill="#E6E6F5"/>
<rect x="54.871" width="7.83871" height="7.83871" rx="3.91935" fill="#E6E6F5"/>
<rect x="54.871" y="18.291" width="7.83871" height="7.83871" rx="3.91935" fill="#E6E6F5"/>
<rect x="54.871" y="36.5801" width="7.83871" height="7.83871" rx="3.91935" fill="#E6E6F5"/>
<rect x="54.871" y="54.8711" width="7.83871" height="7.83871" rx="3.91935" fill="#E6E6F5"/>
<rect x="54.871" y="73.1621" width="7.83871" height="7.83871" rx="3.91935" fill="#E6E6F5"/>
<rect x="73.1613" width="7.83871" height="7.83871" rx="3.91935" fill="#E6E6F5"/>
<rect x="73.1613" y="18.291" width="7.83871" height="7.83871" rx="3.91935" fill="#E6E6F5"/>
<rect x="73.1613" y="36.5801" width="7.83871" height="7.83871" rx="3.91935" fill="#E6E6F5"/>
<rect x="73.1613" y="54.8711" width="7.83871" height="7.83871" rx="3.91935" fill="#E6E6F5"/>
<rect x="73.1613" y="73.1621" width="7.83871" height="7.83871" rx="3.91935" fill="#E6E6F5"/>
<rect x="91.4517" width="7.83871" height="7.83871" rx="3.91935" fill="#E6E6F5"/>
<rect x="91.4517" y="18.291" width="7.83871" height="7.83871" rx="3.91935" fill="#E6E6F5"/>
<rect x="91.4517" y="36.5801" width="7.83871" height="7.83871" rx="3.91935" fill="#E6E6F5"/>
<rect x="91.4517" y="54.8711" width="7.83871" height="7.83871" rx="3.91935" fill="#E6E6F5"/>
<rect x="91.4517" y="73.1621" width="7.83871" height="7.83871" rx="3.91935" fill="#E6E6F5"/>
</svg>
