<svg width="32" height="32" viewBox="0 0 32 32" fill="none" xmlns="http://www.w3.org/2000/svg">
<path d="M15.9999 8.38483L17.1761 6.62109H14.8237L15.9999 8.38483Z" fill="#851801"/>
<path d="M0.551758 18.7591C0.551758 20.2825 1.78694 21.5177 3.31038 21.5177H6.62072C7.53479 21.5177 8.2759 22.2588 8.2759 23.1729V30.897H10.4828V20.966C10.4828 19.4426 9.24761 18.2074 7.72417 18.2074H5.51727C4.60321 18.2074 3.8621 17.4663 3.8621 16.5522V10.4832C3.8621 10.1785 4.10914 9.93151 4.41383 9.93151C4.71851 9.93151 4.96555 10.1785 4.96555 10.4832V16.5522C4.96555 16.8569 5.21259 17.1039 5.51727 17.1039H12.138V14.897H7.17245V9.37978C7.17245 8.46572 6.43134 7.72461 5.51727 7.72461H3.31038C1.78694 7.72461 0.551758 8.95979 0.551758 10.4832V18.7591Z" fill="#851801"/>
<path d="M31.4485 18.7591V10.4832C31.4485 8.95979 30.2133 7.72461 28.6899 7.72461H26.483C25.5689 7.72461 24.8278 8.46572 24.8278 9.37978V14.897H19.8623V17.1039H26.483C26.7877 17.1039 27.0347 16.8569 27.0347 16.5522V10.4832C27.0347 10.1785 27.2818 9.93151 27.5864 9.93151C27.8911 9.93151 28.1382 10.1785 28.1382 10.4832V16.5522C28.1382 17.4663 27.3971 18.2074 26.483 18.2074H24.2761C22.7527 18.2074 21.5175 19.4426 21.5175 20.966V30.897H23.7244V23.1729C23.7244 22.2588 24.4655 21.5177 25.3795 21.5177H28.6899C30.2133 21.5177 31.4485 20.2825 31.4485 18.7591Z" fill="#851801"/>
<path d="M11.0347 13.7925H13.2416V17.1028H18.7588V13.7925H20.9657V9.3787C20.9611 7.96626 19.8884 6.78657 18.4829 6.6481L16.0002 10.3717L13.5174 6.64648C12.1112 6.78495 11.0384 7.96572 11.0347 9.3787V13.7925Z" fill="#851801"/>
<path d="M1.65527 22.4277H2.75872V32.0002H1.65527V22.4277Z" fill="#851801"/>
<path d="M29.2412 22.4277H30.3447V32.0002H29.2412V22.4277Z" fill="#851801"/>
<path d="M16.5516 21.5176H15.4481V30.8969H13.2412V32.0003H18.7585V30.8969H16.5516V21.5176Z" fill="#851801"/>
<path d="M29.2414 3.86214C29.2414 5.38557 28.0062 6.62076 26.4827 6.62076C24.9593 6.62076 23.7241 5.38557 23.7241 3.86214C23.7241 2.3387 24.9593 1.10352 26.4827 1.10352C28.0062 1.10352 29.2414 2.3387 29.2414 3.86214Z" fill="#851801"/>
<path d="M20.4578 20.4139C20.5784 19.575 20.9723 18.7994 21.5782 18.207H10.4214C11.0273 18.7994 11.4211 19.575 11.5418 20.4139H20.4578Z" fill="#851801"/>
<path d="M18.7585 2.75862C18.7585 4.28206 17.5233 5.51724 15.9998 5.51724C14.4764 5.51724 13.2412 4.28206 13.2412 2.75862C13.2412 1.23518 14.4764 0 15.9998 0C17.5233 0 18.7585 1.23518 18.7585 2.75862Z" fill="#851801"/>
<path d="M8.27604 3.86214C8.27604 5.38557 7.04085 6.62076 5.51741 6.62076C3.99397 6.62076 2.75879 5.38557 2.75879 3.86214C2.75879 2.3387 3.99397 1.10352 5.51741 1.10352C7.04085 1.10352 8.27604 2.3387 8.27604 3.86214Z" fill="#851801"/>
</svg>
