<svg width="25" height="17" viewBox="0 0 25 17" fill="none" xmlns="http://www.w3.org/2000/svg">
<path d="M19.9469 0.375C19.1607 0.375 18.4361 0.84625 18.0969 1.5775L15.9077 6.1925C15.6919 6.6475 15.584 7.135 15.584 7.63875L15.584 15C15.584 15.8938 16.2777 16.625 17.1257 16.625H23.2923C24.1402 16.625 24.834 15.8938 24.834 15V8.5C24.834 7.60625 24.1402 6.875 23.2923 6.875H20.209L21.7969 3.5275C22.4907 2.08125 21.4886 0.375 19.9469 0.375ZM4.53024 0.375C3.74399 0.375 3.0194 0.84625 2.68023 1.5775L0.491068 6.1925C0.275236 6.6475 0.16732 7.135 0.16732 7.63875V15C0.16732 15.8938 0.861071 16.625 1.70899 16.625H7.87565C8.72357 16.625 9.41732 15.8938 9.41732 15L9.41732 8.5C9.41732 7.60625 8.72357 6.875 7.87565 6.875H4.79232L6.38024 3.5275C7.07399 2.08125 6.0719 0.375 4.53024 0.375Z" fill="#FF0000" fill-opacity="0.3"/>
</svg>
