<svg width="26" height="16" viewBox="0 0 26 16" fill="none" xmlns="http://www.w3.org/2000/svg">
<path d="M5.35315 15.9173C6.16065 15.9173 6.90482 15.4582 7.25315 14.7457L9.50148 10.249C9.72315 9.80565 9.83398 9.33065 9.83398 8.83982V1.66732C9.83398 0.796484 9.12148 0.0839844 8.25065 0.0839844H1.91732C1.04648 0.0839844 0.333984 0.796484 0.333984 1.66732V8.00065C0.333984 8.87148 1.04648 9.58398 1.91732 9.58398H5.08398L3.45315 12.8457C2.74065 14.2548 3.76982 15.9173 5.35315 15.9173ZM21.1865 15.9173C21.994 15.9173 22.7382 15.4582 23.0865 14.7457L25.3348 10.249C25.5565 9.80565 25.6673 9.33065 25.6673 8.83982V1.66732C25.6673 0.796484 24.9548 0.0839844 24.084 0.0839844H17.7507C16.8798 0.0839844 16.1673 0.796484 16.1673 1.66732V8.00065C16.1673 8.87148 16.8798 9.58398 17.7507 9.58398H20.9173L19.2865 12.8457C18.574 14.2548 19.6031 15.9173 21.1865 15.9173Z" fill="#FF0000" fill-opacity="0.3"/>
</svg>
